solid full-model
facet normal -2.937465085987354e-17 0.0 1.0
  outer loop
    vertex 3801.646009875937 295.3955504810331 0.5999999999999999
    vertex 3798.646009875937 297.3955504810331 0.5999999999999998
    vertex 3798.646009875937 295.3955504810331 0.5999999999999998
  endloop
endfacet
facet normal -2.937465085987354e-17 0.0 1.0
  outer loop
    vertex 3798.646009875937 297.3955504810331 0.5999999999999998
    vertex 3801.646009875937 295.3955504810331 0.5999999999999999
    vertex 3801.646009875937 297.3955504810331 0.5999999999999999
  endloop
endfacet
facet normal 0.0 0.0 -1.0
  outer loop
    vertex 3790.6460098759358 297.3955504810331 4.4
    vertex 3787.6460098759358 295.3955504810331 4.4
    vertex 3787.6460098759358 297.3955504810331 4.4
  endloop
endfacet
facet normal 0.0 0.0 -1.0
  outer loop
    vertex 3787.6460098759358 295.3955504810331 4.4
    vertex 3790.6460098759358 297.3955504810331 4.4
    vertex 3790.6460098759358 295.3955504810331 4.4
  endloop
endfacet
facet normal 2.937465085987354e-17 0.0 1.0
  outer loop
    vertex 3790.6460098759358 295.3955504810331 0.5999999999999998
    vertex 3787.6460098759358 297.3955504810331 0.5999999999999999
    vertex 3787.6460098759358 295.3955504810331 0.5999999999999999
  endloop
endfacet
facet normal 2.937465085987354e-17 0.0 1.0
  outer loop
    vertex 3787.6460098759358 297.3955504810331 0.5999999999999999
    vertex 3790.6460098759358 295.3955504810331 0.5999999999999998
    vertex 3790.6460098759358 297.3955504810331 0.5999999999999998
  endloop
endfacet
facet normal 0.0 0.0 -1.0
  outer loop
    vertex 3801.646009875937 297.3955504810331 4.4
    vertex 3798.646009875937 295.3955504810331 4.4
    vertex 3798.646009875937 297.3955504810331 4.4
  endloop
endfacet
facet normal 0.0 0.0 -1.0
  outer loop
    vertex 3798.646009875937 295.3955504810331 4.4
    vertex 3801.646009875937 297.3955504810331 4.4
    vertex 3801.646009875937 295.3955504810331 4.4
  endloop
endfacet
facet normal 0.0 -1.0 0.0
  outer loop
    vertex 3790.6460098759358 297.3955504810331 4.4
    vertex 3787.6460098759358 297.3955504810331 0.5999999999999999
    vertex 3790.6460098759358 297.3955504810331 0.5999999999999998
  endloop
endfacet
facet normal 0.0 -1.0 0.0
  outer loop
    vertex 3787.6460098759358 297.3955504810331 0.5999999999999999
    vertex 3790.6460098759358 297.3955504810331 4.4
    vertex 3787.6460098759358 297.3955504810331 4.4
  endloop
endfacet
facet normal 0.0 -1.0 0.0
  outer loop
    vertex 3801.646009875937 297.3955504810331 0.5999999999999999
    vertex 3798.646009875937 297.3955504810331 4.4
    vertex 3798.646009875937 297.3955504810331 0.5999999999999998
  endloop
endfacet
facet normal 0.0 -1.0 0.0
  outer loop
    vertex 3798.646009875937 297.3955504810331 4.4
    vertex 3801.646009875937 297.3955504810331 0.5999999999999999
    vertex 3801.646009875937 297.3955504810331 4.4
  endloop
endfacet
facet normal 0.0 0.0 1.0
  outer loop
    vertex 3802.6460098759367 293.3955504810331 4.945369001833844
    vertex 3798.646009875937 295.3955504810331 4.945369001833844
    vertex 3798.646009875937 293.3955504810332 4.945369001833844
  endloop
endfacet
facet normal 0.0 0.0 1.0
  outer loop
    vertex 3798.646009875937 295.3955504810331 4.945369001833844
    vertex 3802.6460098759367 293.3955504810331 4.945369001833844
    vertex 3798.646009875937 297.9955504810331 4.945369001833844
  endloop
endfacet
facet normal 0.0 0.0 1.0
  outer loop
    vertex 3798.646009875937 297.9955504810331 4.945369001833844
    vertex 3802.6460098759367 293.3955504810331 4.945369001833844
    vertex 3801.646009875937 295.3955504810331 4.945369001833844
  endloop
endfacet
facet normal 0.0 0.0 1.0
  outer loop
    vertex 3801.646009875937 295.3955504810331 4.945369001833844
    vertex 3802.6460098759367 293.3955504810331 4.945369001833844
    vertex 3802.6460098759367 295.3955504810331 4.945369001833844
  endloop
endfacet
facet normal 0.0 0.0 1.0
  outer loop
    vertex 3801.646009875937 297.9955504810331 4.945369001833844
    vertex 3798.646009875937 297.9955504810331 4.945369001833844
    vertex 3801.646009875937 295.3955504810331 4.945369001833844
  endloop
endfacet
facet normal 1.0 0.0 0.0
  outer loop
    vertex 3797.1323146143573 293.3955504810331 2.5
    vertex 3797.1323146143573 291.3955504810331 2.7613211581691344
    vertex 3797.1323146143573 291.3955504810331 2.5
  endloop
endfacet
facet normal 1.0 0.0 0.0
  outer loop
    vertex 3797.1323146143573 291.3955504810331 2.7613211581691344
    vertex 3797.1323146143573 293.3955504810331 2.5
    vertex 3797.1323146143573 293.3955504810331 2.7613211581691344
  endloop
endfacet
facet normal 0.9781476007338294 0.0 0.207911690817648
  outer loop
    vertex 3797.1323146143573 293.3955504810331 2.7613211581691344
    vertex 3797.023651166675 291.3955504810331 3.2725424859373686
    vertex 3797.1323146143573 291.3955504810331 2.7613211581691344
  endloop
endfacet
facet normal 0.9781476007338294 0.0 0.207911690817648
  outer loop
    vertex 3797.023651166675 291.3955504810331 3.2725424859373686
    vertex 3797.1323146143573 293.3955504810331 2.7613211581691344
    vertex 3797.023651166675 293.3955504810331 3.2725424859373686
  endloop
endfacet
facet normal 0.9135454576424077 0.0 0.4067366430762345
  outer loop
    vertex 3797.023651166675 293.3955504810331 3.2725424859373686
    vertex 3796.811073385398 291.3955504810331 3.75
    vertex 3797.023651166675 291.3955504810331 3.2725424859373686
  endloop
endfacet
facet normal 0.9135454576424077 0.0 0.4067366430762345
  outer loop
    vertex 3796.811073385398 291.3955504810331 3.75
    vertex 3797.023651166675 293.3955504810331 3.2725424859373686
    vertex 3796.811073385398 293.3955504810331 3.75
  endloop
endfacet
facet normal 0.8090169943748483 0.0 0.5877852522926097
  outer loop
    vertex 3796.811073385398 293.3955504810331 3.75
    vertex 3796.50387193963 291.3955504810331 4.172826515897145
    vertex 3796.811073385398 291.3955504810331 3.75
  endloop
endfacet
facet normal 0.8090169943748483 0.0 0.5877852522926097
  outer loop
    vertex 3796.50387193963 291.3955504810331 4.172826515897145
    vertex 3796.811073385398 293.3955504810331 3.75
    vertex 3796.50387193963 293.3955504810331 4.172826515897145
  endloop
endfacet
facet normal 0.66913060635909 0.0 0.7431448254771855
  outer loop
    vertex 3796.50387193963 291.3955504810331 4.172826515897145
    vertex 3796.115473006668 293.3955504810331 4.522542485937368
    vertex 3796.115473006668 291.3955504810331 4.522542485937368
  endloop
endfacet
facet normal 0.66913060635909 0.0 0.7431448254771855
  outer loop
    vertex 3796.115473006668 293.3955504810331 4.522542485937368
    vertex 3796.50387193963 291.3955504810331 4.172826515897145
    vertex 3796.50387193963 293.3955504810331 4.172826515897145
  endloop
endfacet
facet normal 0.4999999999999065 0.0 0.8660254037844926
  outer loop
    vertex 3796.115473006668 291.3955504810331 4.522542485937368
    vertex 3795.662851483626 293.3955504810331 4.7838636441065026
    vertex 3795.662851483626 291.3955504810331 4.7838636441065026
  endloop
endfacet
facet normal 0.4999999999999065 0.0 0.8660254037844926
  outer loop
    vertex 3795.662851483626 293.3955504810331 4.7838636441065026
    vertex 3796.115473006668 291.3955504810331 4.522542485937368
    vertex 3796.115473006668 293.3955504810331 4.522542485937368
  endloop
endfacet
facet normal 7.563115395588614e-17 3.494386714567137e-16 -1.0
  outer loop
    vertex 3790.6460098759358 297.9955504810331 0.054630998166905
    vertex 3787.6460098759358 295.3955504810331 0.05463099816690499
    vertex 3787.6460098759358 297.9955504810331 0.054630998166905
  endloop
endfacet
facet normal 7.563115395588614e-17 3.494386714567137e-16 -1.0
  outer loop
    vertex 3801.646009875937 297.9955504810331 0.054630998166905
    vertex 3798.646009875937 295.3955504810331 0.054630998166905
    vertex 3798.646009875937 297.9955504810331 0.054630998166905
  endloop
endfacet
facet normal 7.563115395588614e-17 3.494386714567137e-16 -1.0
  outer loop
    vertex 3787.6460098759358 295.3955504810331 0.05463099816690499
    vertex 3786.646009875936 293.3955504810331 0.054630998166905
    vertex 3786.646009875936 295.3955504810331 0.05463099816690499
  endloop
endfacet
facet normal 7.563115395588614e-17 3.494386714567137e-16 -1.0
  outer loop
    vertex 3786.646009875936 293.3955504810331 0.054630998166905
    vertex 3787.6460098759358 295.3955504810331 0.05463099816690499
    vertex 3794.126230648893 293.395550481033 0.054630998166885734
  endloop
endfacet
facet normal 7.563115395588614e-17 3.494386714567137e-16 -1.0
  outer loop
    vertex 3794.126230648893 293.395550481033 0.054630998166885734
    vertex 3787.6460098759358 295.3955504810331 0.05463099816690499
    vertex 3790.6460098759358 295.3955504810331 0.054630998166905
  endloop
endfacet
facet normal 7.563115395588614e-17 3.494386714567137e-16 -1.0
  outer loop
    vertex 3790.6460098759358 295.3955504810331 0.054630998166905
    vertex 3787.6460098759358 295.3955504810331 0.05463099816690499
    vertex 3790.6460098759358 297.9955504810331 0.054630998166905
  endloop
endfacet
facet normal 7.563115395588614e-17 3.494386714567137e-16 -1.0
  outer loop
    vertex 3794.126230648893 293.395550481033 0.054630998166885734
    vertex 3790.6460098759358 295.3955504810331 0.054630998166905
    vertex 3798.646009875937 295.3955504810331 0.054630998166905
  endloop
endfacet
facet normal 7.563115395588614e-17 3.494386714567137e-16 -1.0
  outer loop
    vertex 3794.126230648893 293.395550481033 0.054630998166885734
    vertex 3798.646009875937 295.3955504810331 0.054630998166905
    vertex 3794.126230648893 291.3955504810331 0.054630998166885734
  endloop
endfacet
facet normal 7.563115395588614e-17 3.494386714567137e-16 -1.0
  outer loop
    vertex 3794.126230648893 291.3955504810331 0.054630998166885734
    vertex 3798.646009875937 295.3955504810331 0.054630998166905
    vertex 3797.1323146143573 293.3955504810331 0.054630998166905
  endloop
endfacet
facet normal 7.563115395588614e-17 3.494386714567137e-16 -1.0
  outer loop
    vertex 3797.1323146143573 293.3955504810331 0.054630998166905
    vertex 3798.646009875937 295.3955504810331 0.054630998166905
    vertex 3802.6460098759367 293.3955504810331 0.054630998166905
  endloop
endfacet
facet normal 7.563115395588614e-17 3.494386714567137e-16 -1.0
  outer loop
    vertex 3802.6460098759367 293.3955504810331 0.054630998166905
    vertex 3798.646009875937 295.3955504810331 0.054630998166905
    vertex 3801.646009875937 295.3955504810331 0.05463099816690499
  endloop
endfacet
facet normal 7.563115395588614e-17 3.494386714567137e-16 -1.0
  outer loop
    vertex 3801.646009875937 295.3955504810331 0.05463099816690499
    vertex 3798.646009875937 295.3955504810331 0.054630998166905
    vertex 3801.646009875937 297.9955504810331 0.054630998166905
  endloop
endfacet
facet normal 7.563115395588614e-17 3.494386714567137e-16 -1.0
  outer loop
    vertex 3802.6460098759367 293.3955504810331 0.054630998166905
    vertex 3801.646009875937 295.3955504810331 0.05463099816690499
    vertex 3802.6460098759367 295.3955504810331 0.05463099816690499
  endloop
endfacet
facet normal 7.563115395588614e-17 3.494386714567137e-16 -1.0
  outer loop
    vertex 3794.126230648893 291.3955504810331 0.054630998166885734
    vertex 3792.646009875936 288.3955504810331 0.054630998166905
    vertex 3789.6460098759367 291.3955504810331 0.054630998166905
  endloop
endfacet
facet normal 7.563115395588614e-17 3.494386714567137e-16 -1.0
  outer loop
    vertex 3792.646009875936 288.3955504810331 0.054630998166905
    vertex 3794.126230648893 291.3955504810331 0.054630998166885734
    vertex 3797.132314614358 288.3955504810331 0.054630998166905
  endloop
endfacet
facet normal 7.563115395588614e-17 3.494386714567137e-16 -1.0
  outer loop
    vertex 3797.132314614358 288.3955504810331 0.054630998166905
    vertex 3794.126230648893 291.3955504810331 0.054630998166885734
    vertex 3797.1323146143573 291.5955504810331 0.054630998166905
  endloop
endfacet
facet normal 7.563115395588614e-17 3.494386714567137e-16 -1.0
  outer loop
    vertex 3797.1323146143573 291.5955504810331 0.054630998166905
    vertex 3794.126230648893 291.3955504810331 0.054630998166885734
    vertex 3797.1323146143573 293.3955504810331 0.054630998166905
  endloop
endfacet
facet normal 7.563115395588614e-17 3.494386714567137e-16 -1.0
  outer loop
    vertex 3797.132314614358 288.3955504810331 0.054630998166905
    vertex 3797.1323146143573 291.5955504810331 0.054630998166905
    vertex 3800.1323146143573 291.5955504810331 0.054630998166905
  endloop
endfacet
facet normal 7.563115395588614e-17 3.494386714567137e-16 -1.0
  outer loop
    vertex 3797.132314614358 288.3955504810331 0.054630998166905
    vertex 3800.1323146143573 291.5955504810331 0.054630998166905
    vertex 3800.1323146143573 291.3955504810331 0.054630998166905
  endloop
endfacet
facet normal -1.0 0.0 0.0
  outer loop
    vertex 3792.1597051375156 293.3955504810331 2.5
    vertex 3792.1597051375156 291.3955504810331 2.2386788418308643
    vertex 3792.1597051375156 291.3955504810331 2.5
  endloop
endfacet
facet normal -1.0 0.0 0.0
  outer loop
    vertex 3792.1597051375156 291.3955504810331 2.2386788418308643
    vertex 3792.1597051375156 293.3955504810331 2.5
    vertex 3792.1597051375156 293.3955504810331 2.2386788418308643
  endloop
endfacet
facet normal -0.9781476007338292 0.0 -0.2079116908176484
  outer loop
    vertex 3792.1597051375156 293.3955504810331 2.2386788418308643
    vertex 3792.2683685851985 291.3955504810331 1.7274575140626311
    vertex 3792.1597051375156 291.3955504810331 2.2386788418308643
  endloop
endfacet
facet normal -0.9781476007338292 0.0 -0.2079116908176484
  outer loop
    vertex 3792.2683685851985 291.3955504810331 1.7274575140626311
    vertex 3792.1597051375156 293.3955504810331 2.2386788418308643
    vertex 3792.2683685851985 293.3955504810331 1.7274575140626311
  endloop
endfacet
facet normal -0.9135454576424077 1.617227796000009e-30 -0.406736643076234
  outer loop
    vertex 3792.2683685851985 293.3955504810331 1.7274575140626311
    vertex 3792.480946366475 291.3955504810331 1.249999999999999
    vertex 3792.2683685851985 291.3955504810331 1.7274575140626311
  endloop
endfacet
facet normal -0.9135454576424077 1.617227796000009e-30 -0.406736643076234
  outer loop
    vertex 3792.480946366475 291.3955504810331 1.249999999999999
    vertex 3792.2683685851985 293.3955504810331 1.7274575140626311
    vertex 3792.480946366475 293.3955504810331 1.249999999999999
  endloop
endfacet
facet normal -0.8090169943748481 -3.536839644641562e-18 -0.5877852522926098
  outer loop
    vertex 3792.480946366475 293.3955504810331 1.249999999999999
    vertex 3792.788147812243 291.3955504810331 0.8271734841028539
    vertex 3792.480946366475 291.3955504810331 1.249999999999999
  endloop
endfacet
facet normal -0.8090169943748481 -3.536839644641562e-18 -0.5877852522926098
  outer loop
    vertex 3792.788147812243 291.3955504810331 0.8271734841028539
    vertex 3792.480946366475 293.3955504810331 1.249999999999999
    vertex 3792.788147812243 293.3955504810331 0.8271734841028539
  endloop
endfacet
facet normal -0.6691306063590897 0.0 -0.7431448254771859
  outer loop
    vertex 3793.176546745205 293.3955504810331 0.4774575140626312
    vertex 3792.788147812243 291.3955504810331 0.8271734841028539
    vertex 3792.788147812243 293.3955504810331 0.8271734841028539
  endloop
endfacet
facet normal -0.6691306063590897 0.0 -0.7431448254771859
  outer loop
    vertex 3792.788147812243 291.3955504810331 0.8271734841028539
    vertex 3793.176546745205 293.3955504810331 0.4774575140626312
    vertex 3793.176546745205 291.3955504810331 0.4774575140626312
  endloop
endfacet
facet normal -0.4999999999999061 0.0 -0.866025403784493
  outer loop
    vertex 3793.6291682682468 293.3955504810331 0.21613635589349736
    vertex 3793.176546745205 291.3955504810331 0.4774575140626312
    vertex 3793.176546745205 293.3955504810331 0.4774575140626312
  endloop
endfacet
facet normal -0.4999999999999061 0.0 -0.866025403784493
  outer loop
    vertex 3793.176546745205 291.3955504810331 0.4774575140626312
    vertex 3793.6291682682468 293.3955504810331 0.21613635589349736
    vertex 3793.6291682682468 291.3955504810331 0.21613635589349736
  endloop
endfacet
facet normal 0.3090169943722846 1.5126004110059385e-29 0.9510565162960188
  outer loop
    vertex 3795.662851483626 291.3955504810331 4.7838636441065026
    vertex 3795.1657891029786 293.3955504810332 4.945369001833815
    vertex 3795.1657891029786 291.395550481033 4.945369001833815
  endloop
endfacet
facet normal 0.3090169943722846 1.5126004110059385e-29 0.9510565162960188
  outer loop
    vertex 3795.1657891029786 293.3955504810332 4.945369001833815
    vertex 3795.662851483626 291.3955504810331 4.7838636441065026
    vertex 3795.662851483626 293.3955504810331 4.7838636441065026
  endloop
endfacet
facet normal -1.0 0.0 0.0
  outer loop
    vertex 3792.1597051375156 293.3955504810331 4.945369001833844
    vertex 3792.1597051375156 291.5955504810331 3.945369001833843
    vertex 3792.1597051375156 291.5955504810331 4.945369001833844
  endloop
endfacet
facet normal -1.0 0.0 0.0
  outer loop
    vertex 3792.1597051375156 291.5955504810331 3.945369001833843
    vertex 3792.1597051375156 291.3955504810331 2.5
    vertex 3792.1597051375156 291.3955504810331 2.945369001833843
  endloop
endfacet
facet normal -1.0 0.0 0.0
  outer loop
    vertex 3792.1597051375156 291.3955504810331 2.5
    vertex 3792.1597051375156 291.5955504810331 3.945369001833843
    vertex 3792.1597051375156 293.3955504810331 2.5
  endloop
endfacet
facet normal -1.0 0.0 0.0
  outer loop
    vertex 3792.1597051375156 293.3955504810331 2.5
    vertex 3792.1597051375156 291.5955504810331 3.945369001833843
    vertex 3792.1597051375156 293.3955504810331 4.945369001833844
  endloop
endfacet
facet normal 0.7071067811866273 -0.7071067811864677 9.597392940512965e-18
  outer loop
    vertex 3800.1323146143573 291.3955504810331 0.054630998166905
    vertex 3797.132314614358 288.3955504810331 4.945369001833844
    vertex 3797.132314614358 288.3955504810331 0.054630998166905
  endloop
endfacet
facet normal 0.7071067811866273 -0.7071067811864677 9.597392940512965e-18
  outer loop
    vertex 3797.132314614358 288.3955504810331 4.945369001833844
    vertex 3800.1323146143573 291.3955504810331 0.054630998166905
    vertex 3800.1323146143573 291.3955504810331 4.945369001833844
  endloop
endfacet
facet normal 0.7071067811866273 -0.7071067811864677 9.597392940512965e-18
  outer loop
    vertex 3800.1323146143573 291.3955504810331 4.945369001833844
    vertex 3800.1323146143573 291.3955504810331 0.054630998166905
    vertex 3800.1323146143573 291.3955504810331 2.054630998166905
  endloop
endfacet
facet normal 0.0 -1.0 0.0
  outer loop
    vertex 3797.132314614358 288.3955504810331 4.945369001833844
    vertex 3792.646009875936 288.3955504810331 0.054630998166905
    vertex 3797.132314614358 288.3955504810331 0.054630998166905
  endloop
endfacet
facet normal 0.0 -1.0 0.0
  outer loop
    vertex 3792.646009875936 288.3955504810331 0.054630998166905
    vertex 3797.132314614358 288.3955504810331 4.945369001833844
    vertex 3792.646009875936 288.3955504810331 4.945369001833844
  endloop
endfacet
facet normal -0.7071067811866273 -0.7071067811864677 -9.597392940512965e-18
  outer loop
    vertex 3789.6460098759367 291.3955504810331 4.945369001833844
    vertex 3792.646009875936 288.3955504810331 0.054630998166905
    vertex 3792.646009875936 288.3955504810331 4.945369001833844
  endloop
endfacet
facet normal -0.7071067811866273 -0.7071067811864677 -9.597392940512965e-18
  outer loop
    vertex 3792.646009875936 288.3955504810331 0.054630998166905
    vertex 3789.6460098759367 291.3955504810331 4.945369001833844
    vertex 3789.6460098759367 291.3955504810331 0.054630998166905
  endloop
endfacet
facet normal -0.7071067811866273 -0.7071067811864677 -9.597392940512965e-18
  outer loop
    vertex 3789.6460098759367 291.3955504810331 0.054630998166905
    vertex 3789.6460098759367 291.3955504810331 4.945369001833844
    vertex 3789.6460098759367 291.3955504810331 2.945369001833843
  endloop
endfacet
facet normal 1.0 0.0 0.0
  outer loop
    vertex 3790.6460098759358 297.9955504810331 0.054630998166905
    vertex 3790.6460098759358 295.3955504810331 0.5999999999999998
    vertex 3790.6460098759358 295.3955504810331 0.054630998166905
  endloop
endfacet
facet normal 1.0 0.0 0.0
  outer loop
    vertex 3790.6460098759358 295.3955504810331 0.5999999999999998
    vertex 3790.6460098759358 297.9955504810331 0.054630998166905
    vertex 3790.6460098759358 297.3955504810331 0.5999999999999998
  endloop
endfacet
facet normal 1.0 0.0 0.0
  outer loop
    vertex 3790.6460098759358 297.3955504810331 0.5999999999999998
    vertex 3790.6460098759358 297.9955504810331 0.054630998166905
    vertex 3790.6460098759358 297.3955504810331 4.4
  endloop
endfacet
facet normal 1.0 0.0 0.0
  outer loop
    vertex 3790.6460098759358 297.3955504810331 4.4
    vertex 3790.6460098759358 295.3955504810331 4.945369001833844
    vertex 3790.6460098759358 295.3955504810331 4.4
  endloop
endfacet
facet normal 1.0 0.0 0.0
  outer loop
    vertex 3790.6460098759358 295.3955504810331 4.945369001833844
    vertex 3790.6460098759358 297.3955504810331 4.4
    vertex 3790.6460098759358 297.9955504810331 4.945369001833844
  endloop
endfacet
facet normal 1.0 0.0 0.0
  outer loop
    vertex 3790.6460098759358 297.9955504810331 4.945369001833844
    vertex 3790.6460098759358 297.3955504810331 4.4
    vertex 3790.6460098759358 297.9955504810331 0.054630998166905
  endloop
endfacet
facet normal -1.0 0.0 0.0
  outer loop
    vertex 3798.646009875937 297.9955504810331 4.945369001833844
    vertex 3798.646009875937 295.3955504810331 4.4
    vertex 3798.646009875937 295.3955504810331 4.945369001833844
  endloop
endfacet
facet normal -1.0 0.0 0.0
  outer loop
    vertex 3798.646009875937 295.3955504810331 4.4
    vertex 3798.646009875937 297.9955504810331 4.945369001833844
    vertex 3798.646009875937 297.3955504810331 4.4
  endloop
endfacet
facet normal -1.0 0.0 0.0
  outer loop
    vertex 3798.646009875937 297.3955504810331 4.4
    vertex 3798.646009875937 297.9955504810331 4.945369001833844
    vertex 3798.646009875937 297.3955504810331 0.5999999999999998
  endloop
endfacet
facet normal -1.0 0.0 0.0
  outer loop
    vertex 3798.646009875937 297.3955504810331 0.5999999999999998
    vertex 3798.646009875937 295.3955504810331 0.054630998166905
    vertex 3798.646009875937 295.3955504810331 0.5999999999999998
  endloop
endfacet
facet normal -1.0 0.0 0.0
  outer loop
    vertex 3798.646009875937 295.3955504810331 0.054630998166905
    vertex 3798.646009875937 297.3955504810331 0.5999999999999998
    vertex 3798.646009875937 297.9955504810331 0.054630998166905
  endloop
endfacet
facet normal -1.0 0.0 0.0
  outer loop
    vertex 3798.646009875937 297.9955504810331 0.054630998166905
    vertex 3798.646009875937 297.3955504810331 0.5999999999999998
    vertex 3798.646009875937 297.9955504810331 4.945369001833844
  endloop
endfacet
facet normal 1.0 0.0 0.0
  outer loop
    vertex 3801.646009875937 297.9955504810331 0.054630998166905
    vertex 3801.646009875937 295.3955504810331 0.5999999999999999
    vertex 3801.646009875937 295.3955504810331 0.05463099816690499
  endloop
endfacet
facet normal 1.0 0.0 0.0
  outer loop
    vertex 3801.646009875937 295.3955504810331 0.5999999999999999
    vertex 3801.646009875937 297.9955504810331 0.054630998166905
    vertex 3801.646009875937 297.3955504810331 0.5999999999999999
  endloop
endfacet
facet normal 1.0 0.0 0.0
  outer loop
    vertex 3801.646009875937 297.3955504810331 0.5999999999999999
    vertex 3801.646009875937 297.9955504810331 0.054630998166905
    vertex 3801.646009875937 297.3955504810331 4.4
  endloop
endfacet
facet normal 1.0 0.0 0.0
  outer loop
    vertex 3801.646009875937 297.3955504810331 4.4
    vertex 3801.646009875937 295.3955504810331 4.945369001833844
    vertex 3801.646009875937 295.3955504810331 4.4
  endloop
endfacet
facet normal 1.0 0.0 0.0
  outer loop
    vertex 3801.646009875937 295.3955504810331 4.945369001833844
    vertex 3801.646009875937 297.3955504810331 4.4
    vertex 3801.646009875937 297.9955504810331 4.945369001833844
  endloop
endfacet
facet normal 1.0 0.0 0.0
  outer loop
    vertex 3801.646009875937 297.9955504810331 4.945369001833844
    vertex 3801.646009875937 297.3955504810331 4.4
    vertex 3801.646009875937 297.9955504810331 0.054630998166905
  endloop
endfacet
facet normal 0.0 1.0 0.0
  outer loop
    vertex 3798.646009875937 297.9955504810331 4.945369001833844
    vertex 3801.646009875937 297.9955504810331 0.054630998166905
    vertex 3798.646009875937 297.9955504810331 0.054630998166905
  endloop
endfacet
facet normal 0.0 1.0 0.0
  outer loop
    vertex 3801.646009875937 297.9955504810331 0.054630998166905
    vertex 3798.646009875937 297.9955504810331 4.945369001833844
    vertex 3801.646009875937 297.9955504810331 4.945369001833844
  endloop
endfacet
facet normal -0.3090169943718835 -4.976434276073154e-18 -0.9510565162961492
  outer loop
    vertex 3794.126230648893 293.395550481033 0.054630998166885734
    vertex 3793.6291682682468 291.3955504810331 0.21613635589349736
    vertex 3793.6291682682468 293.3955504810331 0.21613635589349736
  endloop
endfacet
facet normal -0.3090169943718835 -4.976434276073154e-18 -0.9510565162961492
  outer loop
    vertex 3793.6291682682468 291.3955504810331 0.21613635589349736
    vertex 3794.126230648893 293.395550481033 0.054630998166885734
    vertex 3794.126230648893 291.3955504810331 0.054630998166885734
  endloop
endfacet
facet normal 1.0 0.0 0.0
  outer loop
    vertex 3797.1323146143573 293.3955504810331 0.054630998166905
    vertex 3797.1323146143573 291.5955504810331 1.054630998166905
    vertex 3797.1323146143573 291.5955504810331 0.054630998166905
  endloop
endfacet
facet normal 1.0 0.0 0.0
  outer loop
    vertex 3797.1323146143573 291.5955504810331 1.054630998166905
    vertex 3797.1323146143573 291.3955504810331 2.5
    vertex 3797.1323146143573 291.3955504810331 2.054630998166905
  endloop
endfacet
facet normal 1.0 0.0 0.0
  outer loop
    vertex 3797.1323146143573 291.3955504810331 2.5
    vertex 3797.1323146143573 291.5955504810331 1.054630998166905
    vertex 3797.1323146143573 293.3955504810331 2.5
  endloop
endfacet
facet normal 1.0 0.0 0.0
  outer loop
    vertex 3797.1323146143573 293.3955504810331 2.5
    vertex 3797.1323146143573 291.5955504810331 1.054630998166905
    vertex 3797.1323146143573 293.3955504810331 0.054630998166905
  endloop
endfacet
facet normal 0.0 1.0 0.0
  outer loop
    vertex 3787.6460098759358 297.9955504810331 4.945369001833844
    vertex 3790.6460098759358 297.9955504810331 0.054630998166905
    vertex 3787.6460098759358 297.9955504810331 0.054630998166905
  endloop
endfacet
facet normal 0.0 1.0 0.0
  outer loop
    vertex 3790.6460098759358 297.9955504810331 0.054630998166905
    vertex 3787.6460098759358 297.9955504810331 4.945369001833844
    vertex 3790.6460098759358 297.9955504810331 4.945369001833844
  endloop
endfacet
facet normal 5.342636450975795e-16 -1.0 4.7005844577558764e-15
  outer loop
    vertex 3793.6291682682468 293.3955504810331 0.21613635589349736
    vertex 3786.646009875936 293.3955504810331 0.054630998166905
    vertex 3794.126230648893 293.395550481033 0.054630998166885734
  endloop
endfacet
facet normal 5.342636450975795e-16 -1.0 4.7005844577558764e-15
  outer loop
    vertex 3786.646009875936 293.3955504810331 0.054630998166905
    vertex 3793.6291682682468 293.3955504810331 0.21613635589349736
    vertex 3785.646009875936 293.3955504810331 1.0546309981669049
  endloop
endfacet
facet normal 5.342636450975795e-16 -1.0 4.7005844577558764e-15
  outer loop
    vertex 3785.646009875936 293.3955504810331 1.0546309981669049
    vertex 3793.6291682682468 293.3955504810331 0.21613635589349736
    vertex 3793.176546745205 293.3955504810331 0.4774575140626312
  endloop
endfacet
facet normal 5.342636450975795e-16 -1.0 4.7005844577558764e-15
  outer loop
    vertex 3785.646009875936 293.3955504810331 1.0546309981669049
    vertex 3793.176546745205 293.3955504810331 0.4774575140626312
    vertex 3792.788147812243 293.3955504810331 0.8271734841028539
  endloop
endfacet
facet normal 5.342636450975795e-16 -1.0 4.7005844577558764e-15
  outer loop
    vertex 3785.646009875936 293.3955504810331 1.0546309981669049
    vertex 3792.788147812243 293.3955504810331 0.8271734841028539
    vertex 3792.480946366475 293.3955504810331 1.249999999999999
  endloop
endfacet
facet normal 5.342636450975795e-16 -1.0 4.7005844577558764e-15
  outer loop
    vertex 3785.646009875936 293.3955504810331 1.0546309981669049
    vertex 3792.480946366475 293.3955504810331 1.249999999999999
    vertex 3785.646009875936 293.3955504810331 3.945369001833843
  endloop
endfacet
facet normal 5.342636450975795e-16 -1.0 4.7005844577558764e-15
  outer loop
    vertex 3785.646009875936 293.3955504810331 3.945369001833843
    vertex 3792.480946366475 293.3955504810331 1.249999999999999
    vertex 3792.2683685851985 293.3955504810331 1.7274575140626311
  endloop
endfacet
facet normal 5.342636450975795e-16 -1.0 4.7005844577558764e-15
  outer loop
    vertex 3785.646009875936 293.3955504810331 3.945369001833843
    vertex 3792.2683685851985 293.3955504810331 1.7274575140626311
    vertex 3792.1597051375156 293.3955504810331 2.2386788418308643
  endloop
endfacet
facet normal 5.342636450975795e-16 -1.0 4.7005844577558764e-15
  outer loop
    vertex 3785.646009875936 293.3955504810331 3.945369001833843
    vertex 3792.1597051375156 293.3955504810331 2.2386788418308643
    vertex 3792.1597051375156 293.3955504810331 2.5
  endloop
endfacet
facet normal 5.342636450975795e-16 -1.0 4.7005844577558764e-15
  outer loop
    vertex 3785.646009875936 293.3955504810331 3.945369001833843
    vertex 3792.1597051375156 293.3955504810331 2.5
    vertex 3792.1597051375156 293.3955504810331 4.945369001833844
  endloop
endfacet
facet normal 5.342636450975795e-16 -1.0 4.7005844577558764e-15
  outer loop
    vertex 3785.646009875936 293.3955504810331 3.945369001833843
    vertex 3792.1597051375156 293.3955504810331 4.945369001833844
    vertex 3786.646009875936 293.3955504810331 4.945369001833844
  endloop
endfacet
facet normal 5.342636450975795e-16 -1.0 4.7005844577558764e-15
  outer loop
    vertex 3786.646009875936 293.3955504810331 4.945369001833844
    vertex 3792.1597051375156 293.3955504810331 4.945369001833844
    vertex 3790.6460098759358 293.3955504810331 4.945369001833844
  endloop
endfacet
facet normal 5.342636450975795e-16 -1.0 4.7005844577558764e-15
  outer loop
    vertex 3803.6460098759367 293.3955504810331 1.0546309981669049
    vertex 3797.1323146143573 293.3955504810331 0.054630998166905
    vertex 3802.6460098759367 293.3955504810331 0.054630998166905
  endloop
endfacet
facet normal 5.342636450975795e-16 -1.0 4.7005844577558764e-15
  outer loop
    vertex 3797.1323146143573 293.3955504810331 0.054630998166905
    vertex 3803.6460098759367 293.3955504810331 1.0546309981669049
    vertex 3797.1323146143573 293.3955504810331 2.5
  endloop
endfacet
facet normal 5.342636450975795e-16 -1.0 4.7005844577558764e-15
  outer loop
    vertex 3797.1323146143573 293.3955504810331 2.5
    vertex 3803.6460098759367 293.3955504810331 1.0546309981669049
    vertex 3803.6460098759367 293.3955504810331 3.945369001833843
  endloop
endfacet
facet normal 5.342636450975795e-16 -1.0 4.7005844577558764e-15
  outer loop
    vertex 3797.1323146143573 293.3955504810331 2.5
    vertex 3803.6460098759367 293.3955504810331 3.945369001833843
    vertex 3797.1323146143573 293.3955504810331 2.7613211581691344
  endloop
endfacet
facet normal 5.342636450975795e-16 -1.0 4.7005844577558764e-15
  outer loop
    vertex 3797.1323146143573 293.3955504810331 2.7613211581691344
    vertex 3803.6460098759367 293.3955504810331 3.945369001833843
    vertex 3797.023651166675 293.3955504810331 3.2725424859373686
  endloop
endfacet
facet normal 5.342636450975795e-16 -1.0 4.7005844577558764e-15
  outer loop
    vertex 3797.023651166675 293.3955504810331 3.2725424859373686
    vertex 3803.6460098759367 293.3955504810331 3.945369001833843
    vertex 3796.811073385398 293.3955504810331 3.75
  endloop
endfacet
facet normal 5.342636450975795e-16 -1.0 4.7005844577558764e-15
  outer loop
    vertex 3796.811073385398 293.3955504810331 3.75
    vertex 3803.6460098759367 293.3955504810331 3.945369001833843
    vertex 3796.50387193963 293.3955504810331 4.172826515897145
  endloop
endfacet
facet normal 5.342636450975795e-16 -1.0 4.7005844577558764e-15
  outer loop
    vertex 3796.50387193963 293.3955504810331 4.172826515897145
    vertex 3803.6460098759367 293.3955504810331 3.945369001833843
    vertex 3802.6460098759367 293.3955504810331 4.945369001833844
  endloop
endfacet
facet normal 5.342636450975795e-16 -1.0 4.7005844577558764e-15
  outer loop
    vertex 3796.50387193963 293.3955504810331 4.172826515897145
    vertex 3802.6460098759367 293.3955504810331 4.945369001833844
    vertex 3796.115473006668 293.3955504810331 4.522542485937368
  endloop
endfacet
facet normal 5.342636450975795e-16 -1.0 4.7005844577558764e-15
  outer loop
    vertex 3796.115473006668 293.3955504810331 4.522542485937368
    vertex 3802.6460098759367 293.3955504810331 4.945369001833844
    vertex 3795.662851483626 293.3955504810331 4.7838636441065026
  endloop
endfacet
facet normal 5.342636450975795e-16 -1.0 4.7005844577558764e-15
  outer loop
    vertex 3795.662851483626 293.3955504810331 4.7838636441065026
    vertex 3802.6460098759367 293.3955504810331 4.945369001833844
    vertex 3795.1657891029786 293.3955504810332 4.945369001833815
  endloop
endfacet
facet normal 5.342636450975795e-16 -1.0 4.7005844577558764e-15
  outer loop
    vertex 3795.1657891029786 293.3955504810332 4.945369001833815
    vertex 3802.6460098759367 293.3955504810331 4.945369001833844
    vertex 3792.1597051375156 293.3955504810331 4.945369001833844
  endloop
endfacet
facet normal 5.342636450975795e-16 -1.0 4.7005844577558764e-15
  outer loop
    vertex 3792.1597051375156 293.3955504810331 4.945369001833844
    vertex 3802.6460098759367 293.3955504810331 4.945369001833844
    vertex 3798.646009875937 293.3955504810332 4.945369001833844
  endloop
endfacet
facet normal 5.342636450975795e-16 -1.0 4.7005844577558764e-15
  outer loop
    vertex 3792.1597051375156 293.3955504810331 4.945369001833844
    vertex 3798.646009875937 293.3955504810332 4.945369001833844
    vertex 3797.1460098759367 293.3955504810331 6.945369001833843
  endloop
endfacet
facet normal 5.342636450975795e-16 -1.0 4.7005844577558764e-15
  outer loop
    vertex 3792.1597051375156 293.3955504810331 4.945369001833844
    vertex 3797.1460098759367 293.3955504810331 6.945369001833843
    vertex 3790.6460098759358 293.3955504810331 4.945369001833844
  endloop
endfacet
facet normal 5.342636450975795e-16 -1.0 4.7005844577558764e-15
  outer loop
    vertex 3790.6460098759358 293.3955504810331 4.945369001833844
    vertex 3797.1460098759367 293.3955504810331 6.945369001833843
    vertex 3792.1597051375156 293.3955504810331 6.945369001833843
  endloop
endfacet
facet normal 0.7071067811866278 0.0 -0.7071067811864672
  outer loop
    vertex 3802.6460098759367 295.3955504810331 0.05463099816690499
    vertex 3803.6460098759367 293.3955504810331 1.0546309981669049
    vertex 3802.6460098759367 293.3955504810331 0.054630998166905
  endloop
endfacet
facet normal 0.7071067811866278 0.0 -0.7071067811864672
  outer loop
    vertex 3803.6460098759367 293.3955504810331 1.0546309981669049
    vertex 3802.6460098759367 295.3955504810331 0.05463099816690499
    vertex 3803.6460098759367 295.3955504810331 1.0546309981669049
  endloop
endfacet
facet normal 0.0 1.0 0.0
  outer loop
    vertex 3785.646009875936 295.3955504810331 1.0546309981669049
    vertex 3787.6460098759358 295.3955504810331 0.05463099816690499
    vertex 3786.646009875936 295.3955504810331 0.05463099816690499
  endloop
endfacet
facet normal 0.0 1.0 0.0
  outer loop
    vertex 3787.6460098759358 295.3955504810331 0.05463099816690499
    vertex 3785.646009875936 295.3955504810331 1.0546309981669049
    vertex 3787.6460098759358 295.3955504810331 0.5999999999999999
  endloop
endfacet
facet normal 0.0 1.0 0.0
  outer loop
    vertex 3787.6460098759358 295.3955504810331 0.5999999999999999
    vertex 3785.646009875936 295.3955504810331 1.0546309981669049
    vertex 3801.646009875937 295.3955504810331 0.5999999999999999
  endloop
endfacet
facet normal 0.0 1.0 0.0
  outer loop
    vertex 3790.6460098759358 295.3955504810331 0.5999999999999998
    vertex 3798.646009875937 295.3955504810331 0.054630998166905
    vertex 3790.6460098759358 295.3955504810331 0.054630998166905
  endloop
endfacet
facet normal 0.0 1.0 0.0
  outer loop
    vertex 3798.646009875937 295.3955504810331 0.054630998166905
    vertex 3790.6460098759358 295.3955504810331 0.5999999999999998
    vertex 3798.646009875937 295.3955504810331 0.5999999999999998
  endloop
endfacet
facet normal 0.0 1.0 0.0
  outer loop
    vertex 3798.646009875937 295.3955504810331 0.5999999999999998
    vertex 3790.6460098759358 295.3955504810331 0.5999999999999998
    vertex 3787.6460098759358 295.3955504810331 0.5999999999999999
  endloop
endfacet
facet normal 0.0 1.0 0.0
  outer loop
    vertex 3798.646009875937 295.3955504810331 0.5999999999999998
    vertex 3787.6460098759358 295.3955504810331 0.5999999999999999
    vertex 3801.646009875937 295.3955504810331 0.5999999999999999
  endloop
endfacet
facet normal 0.0 1.0 0.0
  outer loop
    vertex 3801.646009875937 295.3955504810331 0.5999999999999999
    vertex 3802.6460098759367 295.3955504810331 0.05463099816690499
    vertex 3801.646009875937 295.3955504810331 0.05463099816690499
  endloop
endfacet
facet normal 0.0 1.0 0.0
  outer loop
    vertex 3802.6460098759367 295.3955504810331 0.05463099816690499
    vertex 3801.646009875937 295.3955504810331 0.5999999999999999
    vertex 3803.6460098759367 295.3955504810331 1.0546309981669049
  endloop
endfacet
facet normal 0.0 1.0 0.0
  outer loop
    vertex 3803.6460098759367 295.3955504810331 1.0546309981669049
    vertex 3801.646009875937 295.3955504810331 0.5999999999999999
    vertex 3785.646009875936 295.3955504810331 1.0546309981669049
  endloop
endfacet
facet normal 0.0 1.0 0.0
  outer loop
    vertex 3803.6460098759367 295.3955504810331 1.0546309981669049
    vertex 3785.646009875936 295.3955504810331 1.0546309981669049
    vertex 3785.646009875936 295.3955504810331 3.945369001833843
  endloop
endfacet
facet normal 0.0 1.0 0.0
  outer loop
    vertex 3803.6460098759367 295.3955504810331 1.0546309981669049
    vertex 3785.646009875936 295.3955504810331 3.945369001833843
    vertex 3803.6460098759367 295.3955504810331 3.945369001833843
  endloop
endfacet
facet normal 0.0 1.0 0.0
  outer loop
    vertex 3803.6460098759367 295.3955504810331 3.945369001833843
    vertex 3785.646009875936 295.3955504810331 3.945369001833843
    vertex 3787.6460098759358 295.3955504810331 4.4
  endloop
endfacet
facet normal 0.0 1.0 0.0
  outer loop
    vertex 3787.6460098759358 295.3955504810331 4.4
    vertex 3785.646009875936 295.3955504810331 3.945369001833843
    vertex 3786.646009875936 295.3955504810331 4.945369001833844
  endloop
endfacet
facet normal 0.0 1.0 0.0
  outer loop
    vertex 3787.6460098759358 295.3955504810331 4.4
    vertex 3786.646009875936 295.3955504810331 4.945369001833844
    vertex 3787.6460098759358 295.3955504810331 4.945369001833844
  endloop
endfacet
facet normal 0.0 1.0 0.0
  outer loop
    vertex 3790.6460098759358 295.3955504810331 4.945369001833844
    vertex 3798.646009875937 295.3955504810331 4.4
    vertex 3790.6460098759358 295.3955504810331 4.4
  endloop
endfacet
facet normal 0.0 1.0 0.0
  outer loop
    vertex 3798.646009875937 295.3955504810331 4.4
    vertex 3790.6460098759358 295.3955504810331 4.945369001833844
    vertex 3798.646009875937 295.3955504810331 4.945369001833844
  endloop
endfacet
facet normal 0.0 1.0 0.0
  outer loop
    vertex 3798.646009875937 295.3955504810331 4.945369001833844
    vertex 3790.6460098759358 295.3955504810331 4.945369001833844
    vertex 3792.146009875936 295.3955504810331 6.945369001833843
  endloop
endfacet
facet normal 0.0 1.0 0.0
  outer loop
    vertex 3798.646009875937 295.3955504810331 4.945369001833844
    vertex 3792.146009875936 295.3955504810331 6.945369001833843
    vertex 3797.1460098759367 295.3955504810331 6.945369001833843
  endloop
endfacet
facet normal 0.0 1.0 0.0
  outer loop
    vertex 3803.6460098759367 295.3955504810331 3.945369001833843
    vertex 3801.646009875937 295.3955504810331 4.4
    vertex 3802.6460098759367 295.3955504810331 4.945369001833844
  endloop
endfacet
facet normal 0.0 1.0 0.0
  outer loop
    vertex 3801.646009875937 295.3955504810331 4.4
    vertex 3803.6460098759367 295.3955504810331 3.945369001833843
    vertex 3787.6460098759358 295.3955504810331 4.4
  endloop
endfacet
facet normal 0.0 1.0 0.0
  outer loop
    vertex 3801.646009875937 295.3955504810331 4.4
    vertex 3787.6460098759358 295.3955504810331 4.4
    vertex 3790.6460098759358 295.3955504810331 4.4
  endloop
endfacet
facet normal 0.0 1.0 0.0
  outer loop
    vertex 3801.646009875937 295.3955504810331 4.4
    vertex 3790.6460098759358 295.3955504810331 4.4
    vertex 3798.646009875937 295.3955504810331 4.4
  endloop
endfacet
facet normal 0.0 1.0 0.0
  outer loop
    vertex 3802.6460098759367 295.3955504810331 4.945369001833844
    vertex 3801.646009875937 295.3955504810331 4.4
    vertex 3801.646009875937 295.3955504810331 4.945369001833844
  endloop
endfacet
facet normal -1.0 0.0 0.0
  outer loop
    vertex 3787.6460098759358 297.9955504810331 4.945369001833844
    vertex 3787.6460098759358 295.3955504810331 4.4
    vertex 3787.6460098759358 295.3955504810331 4.945369001833844
  endloop
endfacet
facet normal -1.0 0.0 0.0
  outer loop
    vertex 3787.6460098759358 295.3955504810331 4.4
    vertex 3787.6460098759358 297.9955504810331 4.945369001833844
    vertex 3787.6460098759358 297.3955504810331 4.4
  endloop
endfacet
facet normal -1.0 0.0 0.0
  outer loop
    vertex 3787.6460098759358 297.3955504810331 4.4
    vertex 3787.6460098759358 297.9955504810331 4.945369001833844
    vertex 3787.6460098759358 297.3955504810331 0.5999999999999999
  endloop
endfacet
facet normal -1.0 0.0 0.0
  outer loop
    vertex 3787.6460098759358 297.3955504810331 0.5999999999999999
    vertex 3787.6460098759358 295.3955504810331 0.05463099816690499
    vertex 3787.6460098759358 295.3955504810331 0.5999999999999999
  endloop
endfacet
facet normal -1.0 0.0 0.0
  outer loop
    vertex 3787.6460098759358 295.3955504810331 0.05463099816690499
    vertex 3787.6460098759358 297.3955504810331 0.5999999999999999
    vertex 3787.6460098759358 297.9955504810331 0.054630998166905
  endloop
endfacet
facet normal -1.0 0.0 0.0
  outer loop
    vertex 3787.6460098759358 297.9955504810331 0.054630998166905
    vertex 3787.6460098759358 297.3955504810331 0.5999999999999999
    vertex 3787.6460098759358 297.9955504810331 4.945369001833844
  endloop
endfacet
facet normal -0.7071067811866281 0.0 0.7071067811864671
  outer loop
    vertex 3786.646009875936 295.3955504810331 4.945369001833844
    vertex 3785.646009875936 293.3955504810331 3.945369001833843
    vertex 3786.646009875936 293.3955504810331 4.945369001833844
  endloop
endfacet
facet normal -0.7071067811866281 0.0 0.7071067811864671
  outer loop
    vertex 3785.646009875936 293.3955504810331 3.945369001833843
    vertex 3786.646009875936 295.3955504810331 4.945369001833844
    vertex 3785.646009875936 295.3955504810331 3.945369001833843
  endloop
endfacet
facet normal 1.0761101456603352e-15 2.9215243328145502e-15 1.0
  outer loop
    vertex 3797.132314614358 288.3955504810331 4.945369001833844
    vertex 3795.1657891029786 291.395550481033 4.945369001833815
    vertex 3792.646009875936 288.3955504810331 4.945369001833844
  endloop
endfacet
facet normal 1.0761101456603352e-15 2.9215243328145502e-15 1.0
  outer loop
    vertex 3795.1657891029786 291.395550481033 4.945369001833815
    vertex 3797.132314614358 288.3955504810331 4.945369001833844
    vertex 3800.1323146143573 291.3955504810331 4.945369001833844
  endloop
endfacet
facet normal 1.0761101456603352e-15 2.9215243328145502e-15 1.0
  outer loop
    vertex 3792.646009875936 288.3955504810331 4.945369001833844
    vertex 3789.6460098759367 291.5955504810331 4.945369001833844
    vertex 3789.6460098759367 291.3955504810331 4.945369001833844
  endloop
endfacet
facet normal 1.0761101456603352e-15 2.9215243328145502e-15 1.0
  outer loop
    vertex 3789.6460098759367 291.5955504810331 4.945369001833844
    vertex 3792.646009875936 288.3955504810331 4.945369001833844
    vertex 3792.1597051375156 291.5955504810331 4.945369001833844
  endloop
endfacet
facet normal 1.0761101456603352e-15 2.9215243328145502e-15 1.0
  outer loop
    vertex 3792.1597051375156 291.5955504810331 4.945369001833844
    vertex 3792.646009875936 288.3955504810331 4.945369001833844
    vertex 3792.1597051375156 293.3955504810331 4.945369001833844
  endloop
endfacet
facet normal 1.0761101456603352e-15 2.9215243328145502e-15 1.0
  outer loop
    vertex 3792.1597051375156 293.3955504810331 4.945369001833844
    vertex 3792.646009875936 288.3955504810331 4.945369001833844
    vertex 3795.1657891029786 293.3955504810332 4.945369001833815
  endloop
endfacet
facet normal 1.0761101456603352e-15 2.9215243328145502e-15 1.0
  outer loop
    vertex 3795.1657891029786 293.3955504810332 4.945369001833815
    vertex 3792.646009875936 288.3955504810331 4.945369001833844
    vertex 3795.1657891029786 291.395550481033 4.945369001833815
  endloop
endfacet
facet normal 0.0 0.0 1.0
  outer loop
    vertex 3790.6460098759358 293.3955504810331 4.945369001833844
    vertex 3786.646009875936 295.3955504810331 4.945369001833844
    vertex 3786.646009875936 293.3955504810331 4.945369001833844
  endloop
endfacet
facet normal 0.0 0.0 1.0
  outer loop
    vertex 3786.646009875936 295.3955504810331 4.945369001833844
    vertex 3790.6460098759358 293.3955504810331 4.945369001833844
    vertex 3787.6460098759358 295.3955504810331 4.945369001833844
  endloop
endfacet
facet normal 0.0 0.0 1.0
  outer loop
    vertex 3787.6460098759358 295.3955504810331 4.945369001833844
    vertex 3790.6460098759358 293.3955504810331 4.945369001833844
    vertex 3787.6460098759358 297.9955504810331 4.945369001833844
  endloop
endfacet
facet normal 0.0 0.0 1.0
  outer loop
    vertex 3787.6460098759358 297.9955504810331 4.945369001833844
    vertex 3790.6460098759358 293.3955504810331 4.945369001833844
    vertex 3790.6460098759358 297.9955504810331 4.945369001833844
  endloop
endfacet
facet normal 0.0 0.0 1.0
  outer loop
    vertex 3790.6460098759358 297.9955504810331 4.945369001833844
    vertex 3790.6460098759358 293.3955504810331 4.945369001833844
    vertex 3790.6460098759358 295.3955504810331 4.945369001833844
  endloop
endfacet
facet normal 3.8407587469658627e-16 -4.665795024105313e-15 1.0
  outer loop
    vertex 3792.1597051375156 293.3955504810331 6.945369001833843
    vertex 3797.1460098759367 295.3955504810331 6.945369001833843
    vertex 3792.146009875936 295.3955504810331 6.945369001833843
  endloop
endfacet
facet normal 3.8407587469658627e-16 -4.665795024105313e-15 1.0
  outer loop
    vertex 3797.1460098759367 295.3955504810331 6.945369001833843
    vertex 3792.1597051375156 293.3955504810331 6.945369001833843
    vertex 3797.1460098759367 293.3955504810331 6.945369001833843
  endloop
endfacet
facet normal -0.7986825146875466 -0.002734541489345619 0.6017464275051576
  outer loop
    vertex 3792.146009875936 295.3955504810331 6.945369001833843
    vertex 3790.6460098759358 293.3955504810331 4.945369001833844
    vertex 3792.1597051375156 293.3955504810331 6.945369001833843
  endloop
endfacet
facet normal -0.7986825146875466 -0.002734541489345619 0.6017464275051576
  outer loop
    vertex 3790.6460098759358 293.3955504810331 4.945369001833844
    vertex 3792.146009875936 295.3955504810331 6.945369001833843
    vertex 3790.6460098759358 295.3955504810331 4.945369001833844
  endloop
endfacet
facet normal 0.799999999999927 2.09845162179687e-17 0.6000000000000976
  outer loop
    vertex 3798.646009875937 293.3955504810332 4.945369001833844
    vertex 3797.1460098759367 295.3955504810331 6.945369001833843
    vertex 3797.1460098759367 293.3955504810331 6.945369001833843
  endloop
endfacet
facet normal 0.799999999999927 2.09845162179687e-17 0.6000000000000976
  outer loop
    vertex 3797.1460098759367 295.3955504810331 6.945369001833843
    vertex 3798.646009875937 293.3955504810332 4.945369001833844
    vertex 3798.646009875937 295.3955504810331 4.945369001833844
  endloop
endfacet
facet normal -0.7071067811866278 1.4057655742865005e-30 -0.7071067811864672
  outer loop
    vertex 3785.646009875936 295.3955504810331 1.0546309981669049
    vertex 3786.646009875936 293.3955504810331 0.054630998166905
    vertex 3785.646009875936 293.3955504810331 1.0546309981669049
  endloop
endfacet
facet normal -0.7071067811866278 1.4057655742865005e-30 -0.7071067811864672
  outer loop
    vertex 3786.646009875936 293.3955504810331 0.054630998166905
    vertex 3785.646009875936 295.3955504810331 1.0546309981669049
    vertex 3786.646009875936 295.3955504810331 0.05463099816690499
  endloop
endfacet
facet normal -1.0 0.0 0.0
  outer loop
    vertex 3785.646009875936 295.3955504810331 3.945369001833843
    vertex 3785.646009875936 293.3955504810331 1.0546309981669049
    vertex 3785.646009875936 293.3955504810331 3.945369001833843
  endloop
endfacet
facet normal -1.0 0.0 0.0
  outer loop
    vertex 3785.646009875936 293.3955504810331 1.0546309981669049
    vertex 3785.646009875936 295.3955504810331 3.945369001833843
    vertex 3785.646009875936 295.3955504810331 1.0546309981669049
  endloop
endfacet
facet normal 0.7071067811866281 1.1246124594292001e-29 0.7071067811864671
  outer loop
    vertex 3803.6460098759367 295.3955504810331 3.945369001833843
    vertex 3802.6460098759367 293.3955504810331 4.945369001833844
    vertex 3803.6460098759367 293.3955504810331 3.945369001833843
  endloop
endfacet
facet normal 0.7071067811866281 1.1246124594292001e-29 0.7071067811864671
  outer loop
    vertex 3802.6460098759367 293.3955504810331 4.945369001833844
    vertex 3803.6460098759367 295.3955504810331 3.945369001833843
    vertex 3802.6460098759367 295.3955504810331 4.945369001833844
  endloop
endfacet
facet normal 1.0 0.0 0.0
  outer loop
    vertex 3803.6460098759367 295.3955504810331 1.0546309981669049
    vertex 3803.6460098759367 293.3955504810331 3.945369001833843
    vertex 3803.6460098759367 293.3955504810331 1.0546309981669049
  endloop
endfacet
facet normal 1.0 0.0 0.0
  outer loop
    vertex 3803.6460098759367 293.3955504810331 3.945369001833843
    vertex 3803.6460098759367 295.3955504810331 1.0546309981669049
    vertex 3803.6460098759367 295.3955504810331 3.945369001833843
  endloop
endfacet
facet normal -5.4821682407046555e-15 1.0 6.5687813197287044e-15
  outer loop
    vertex 3797.1323146143573 291.3955504810331 2.5
    vertex 3800.1323146143573 291.3955504810331 2.054630998166905
    vertex 3797.1323146143573 291.3955504810331 2.054630998166905
  endloop
endfacet
facet normal -5.4821682407046555e-15 1.0 6.5687813197287044e-15
  outer loop
    vertex 3800.1323146143573 291.3955504810331 2.054630998166905
    vertex 3797.1323146143573 291.3955504810331 2.5
    vertex 3800.1323146143573 291.3955504810331 4.945369001833844
  endloop
endfacet
facet normal -5.4821682407046555e-15 1.0 6.5687813197287044e-15
  outer loop
    vertex 3800.1323146143573 291.3955504810331 4.945369001833844
    vertex 3797.1323146143573 291.3955504810331 2.5
    vertex 3797.1323146143573 291.3955504810331 2.7613211581691344
  endloop
endfacet
facet normal -5.4821682407046555e-15 1.0 6.5687813197287044e-15
  outer loop
    vertex 3800.1323146143573 291.3955504810331 4.945369001833844
    vertex 3797.1323146143573 291.3955504810331 2.7613211581691344
    vertex 3797.023651166675 291.3955504810331 3.2725424859373686
  endloop
endfacet
facet normal -5.4821682407046555e-15 1.0 6.5687813197287044e-15
  outer loop
    vertex 3800.1323146143573 291.3955504810331 4.945369001833844
    vertex 3797.023651166675 291.3955504810331 3.2725424859373686
    vertex 3796.811073385398 291.3955504810331 3.75
  endloop
endfacet
facet normal -5.4821682407046555e-15 1.0 6.5687813197287044e-15
  outer loop
    vertex 3800.1323146143573 291.3955504810331 4.945369001833844
    vertex 3796.811073385398 291.3955504810331 3.75
    vertex 3796.50387193963 291.3955504810331 4.172826515897145
  endloop
endfacet
facet normal -5.4821682407046555e-15 1.0 6.5687813197287044e-15
  outer loop
    vertex 3800.1323146143573 291.3955504810331 4.945369001833844
    vertex 3796.50387193963 291.3955504810331 4.172826515897145
    vertex 3796.115473006668 291.3955504810331 4.522542485937368
  endloop
endfacet
facet normal -5.4821682407046555e-15 1.0 6.5687813197287044e-15
  outer loop
    vertex 3800.1323146143573 291.3955504810331 4.945369001833844
    vertex 3796.115473006668 291.3955504810331 4.522542485937368
    vertex 3795.662851483626 291.3955504810331 4.7838636441065026
  endloop
endfacet
facet normal -5.4821682407046555e-15 1.0 6.5687813197287044e-15
  outer loop
    vertex 3800.1323146143573 291.3955504810331 4.945369001833844
    vertex 3795.662851483626 291.3955504810331 4.7838636441065026
    vertex 3795.1657891029786 291.395550481033 4.945369001833815
  endloop
endfacet
facet normal 0.0 1.0 0.0
  outer loop
    vertex 3797.1323146143573 291.5955504810331 1.054630998166905
    vertex 3800.1323146143573 291.5955504810331 0.054630998166905
    vertex 3797.1323146143573 291.5955504810331 0.054630998166905
  endloop
endfacet
facet normal 0.0 1.0 0.0
  outer loop
    vertex 3800.1323146143573 291.5955504810331 0.054630998166905
    vertex 3797.1323146143573 291.5955504810331 1.054630998166905
    vertex 3800.1323146143573 291.5955504810331 1.054630998166905
  endloop
endfacet
facet normal -1.905278807466374e-18 0.9805806756909203 0.19611613513818368
  outer loop
    vertex 3797.1323146143573 291.3955504810331 2.054630998166905
    vertex 3800.1323146143573 291.5955504810331 1.054630998166905
    vertex 3797.1323146143573 291.5955504810331 1.054630998166905
  endloop
endfacet
facet normal -1.905278807466374e-18 0.9805806756909203 0.19611613513818368
  outer loop
    vertex 3800.1323146143573 291.5955504810331 1.054630998166905
    vertex 3797.1323146143573 291.3955504810331 2.054630998166905
    vertex 3800.1323146143573 291.3955504810331 2.054630998166905
  endloop
endfacet
facet normal 1.0 0.0 0.0
  outer loop
    vertex 3800.1323146143573 291.5955504810331 0.054630998166905
    vertex 3800.1323146143573 291.3955504810331 2.054630998166905
    vertex 3800.1323146143573 291.3955504810331 0.054630998166905
  endloop
endfacet
facet normal 1.0 0.0 0.0
  outer loop
    vertex 3800.1323146143573 291.3955504810331 2.054630998166905
    vertex 3800.1323146143573 291.5955504810331 0.054630998166905
    vertex 3800.1323146143573 291.5955504810331 1.054630998166905
  endloop
endfacet
facet normal 0.0 1.0 0.0
  outer loop
    vertex 3789.6460098759367 291.3955504810331 0.054630998166905
    vertex 3793.6291682682468 291.3955504810331 0.21613635589349736
    vertex 3794.126230648893 291.3955504810331 0.054630998166885734
  endloop
endfacet
facet normal 0.0 1.0 0.0
  outer loop
    vertex 3793.6291682682468 291.3955504810331 0.21613635589349736
    vertex 3789.6460098759367 291.3955504810331 0.054630998166905
    vertex 3793.176546745205 291.3955504810331 0.4774575140626312
  endloop
endfacet
facet normal 0.0 1.0 0.0
  outer loop
    vertex 3793.176546745205 291.3955504810331 0.4774575140626312
    vertex 3789.6460098759367 291.3955504810331 0.054630998166905
    vertex 3789.6460098759367 291.3955504810331 2.945369001833843
  endloop
endfacet
facet normal 0.0 1.0 0.0
  outer loop
    vertex 3793.176546745205 291.3955504810331 0.4774575140626312
    vertex 3789.6460098759367 291.3955504810331 2.945369001833843
    vertex 3792.788147812243 291.3955504810331 0.8271734841028539
  endloop
endfacet
facet normal 0.0 1.0 0.0
  outer loop
    vertex 3792.788147812243 291.3955504810331 0.8271734841028539
    vertex 3789.6460098759367 291.3955504810331 2.945369001833843
    vertex 3792.480946366475 291.3955504810331 1.249999999999999
  endloop
endfacet
facet normal 0.0 1.0 0.0
  outer loop
    vertex 3792.480946366475 291.3955504810331 1.249999999999999
    vertex 3789.6460098759367 291.3955504810331 2.945369001833843
    vertex 3792.2683685851985 291.3955504810331 1.7274575140626311
  endloop
endfacet
facet normal 0.0 1.0 0.0
  outer loop
    vertex 3792.2683685851985 291.3955504810331 1.7274575140626311
    vertex 3789.6460098759367 291.3955504810331 2.945369001833843
    vertex 3792.1597051375156 291.3955504810331 2.2386788418308643
  endloop
endfacet
facet normal 0.0 1.0 0.0
  outer loop
    vertex 3792.1597051375156 291.3955504810331 2.2386788418308643
    vertex 3789.6460098759367 291.3955504810331 2.945369001833843
    vertex 3792.1597051375156 291.3955504810331 2.5
  endloop
endfacet
facet normal 0.0 1.0 0.0
  outer loop
    vertex 3792.1597051375156 291.3955504810331 2.5
    vertex 3789.6460098759367 291.3955504810331 2.945369001833843
    vertex 3792.1597051375156 291.3955504810331 2.945369001833843
  endloop
endfacet
facet normal 0.0 1.0 0.0
  outer loop
    vertex 3789.6460098759367 291.5955504810331 4.945369001833844
    vertex 3792.1597051375156 291.5955504810331 3.945369001833843
    vertex 3789.6460098759367 291.5955504810331 3.945369001833843
  endloop
endfacet
facet normal 0.0 1.0 0.0
  outer loop
    vertex 3792.1597051375156 291.5955504810331 3.945369001833843
    vertex 3789.6460098759367 291.5955504810331 4.945369001833844
    vertex 3792.1597051375156 291.5955504810331 4.945369001833844
  endloop
endfacet
facet normal 5.078517077162405e-27 0.9805806756909203 -0.19611613513818368
  outer loop
    vertex 3789.6460098759367 291.5955504810331 3.945369001833843
    vertex 3792.1597051375156 291.3955504810331 2.945369001833843
    vertex 3789.6460098759367 291.3955504810331 2.945369001833843
  endloop
endfacet
facet normal 5.078517077162405e-27 0.9805806756909203 -0.19611613513818368
  outer loop
    vertex 3792.1597051375156 291.3955504810331 2.945369001833843
    vertex 3789.6460098759367 291.5955504810331 3.945369001833843
    vertex 3792.1597051375156 291.5955504810331 3.945369001833843
  endloop
endfacet
facet normal -1.0 0.0 0.0
  outer loop
    vertex 3789.6460098759367 291.5955504810331 4.945369001833844
    vertex 3789.6460098759367 291.3955504810331 2.945369001833843
    vertex 3789.6460098759367 291.3955504810331 4.945369001833844
  endloop
endfacet
facet normal -1.0 0.0 0.0
  outer loop
    vertex 3789.6460098759367 291.3955504810331 2.945369001833843
    vertex 3789.6460098759367 291.5955504810331 4.945369001833844
    vertex 3789.6460098759367 291.5955504810331 3.945369001833843
  endloop
endfacet
endsolid full-model
