solid full-model
facet normal 0.9945218953682432 0.10452846326794153 0.0
  outer loop
    vertex 3806.0396297936295 253.30965813829727 -2.8199664825478975e-15
    vertex 3806.148891789961 252.27009968420847 5.0
    vertex 3806.148891789961 252.27009968420847 -2.8199664825478975e-15
  endloop
endfacet
facet normal 0.9945218953682432 0.10452846326794153 0.0
  outer loop
    vertex 3806.148891789961 252.27009968420847 5.0
    vertex 3806.0396297936295 253.30965813829727 -2.8199664825478975e-15
    vertex 3806.0396297936295 253.30965813829727 5.0
  endloop
endfacet
facet normal 0.9945218953682432 -0.10452846326794153 -0.0
  outer loop
    vertex 3806.148891789961 252.27009968420847 -2.8199664825478975e-15
    vertex 3806.0396297936295 251.23054123011968 5.0
    vertex 3806.0396297936295 251.23054123011968 -2.8199664825478975e-15
  endloop
endfacet
facet normal 0.9945218953682432 -0.10452846326794153 -0.0
  outer loop
    vertex 3806.0396297936295 251.23054123011968 5.0
    vertex 3806.148891789961 252.27009968420847 -2.8199664825478975e-15
    vertex 3806.148891789961 252.27009968420847 5.0
  endloop
endfacet
facet normal 0.9510565162951291 0.30901699437502334 0.0
  outer loop
    vertex 3805.7166190781736 254.30378289958745 -2.8199664825478975e-15
    vertex 3806.0396297936295 253.30965813829727 5.0
    vertex 3806.0396297936295 253.30965813829727 -2.8199664825478975e-15
  endloop
endfacet
facet normal 0.9510565162951291 0.30901699437502334 0.0
  outer loop
    vertex 3806.0396297936295 253.30965813829727 5.0
    vertex 3805.7166190781736 254.30378289958745 -2.8199664825478975e-15
    vertex 3805.7166190781736 254.30378289958745 5.0
  endloop
endfacet
facet normal 0.9510565162951331 -0.3090169943750106 -0.0
  outer loop
    vertex 3806.0396297936295 251.23054123011968 -2.8199664825478975e-15
    vertex 3805.7166190781736 250.23641646882945 5.0
    vertex 3805.7166190781736 250.23641646882945 -2.8199664825478975e-15
  endloop
endfacet
facet normal 0.9510565162951331 -0.3090169943750106 -0.0
  outer loop
    vertex 3805.7166190781736 250.23641646882945 5.0
    vertex 3806.0396297936295 251.23054123011968 -2.8199664825478975e-15
    vertex 3806.0396297936295 251.23054123011968 5.0
  endloop
endfacet
facet normal 0.8660254037843328 -0.5000000000001837 -0.0
  outer loop
    vertex 3805.7166190781736 250.23641646882945 -2.8199664825478975e-15
    vertex 3805.193976761835 249.33117342274605 5.0
    vertex 3805.193976761835 249.33117342274605 -2.8199664825478975e-15
  endloop
endfacet
facet normal 0.8660254037843328 -0.5000000000001837 -0.0
  outer loop
    vertex 3805.193976761835 249.33117342274605 5.0
    vertex 3805.7166190781736 250.23641646882945 -2.8199664825478975e-15
    vertex 3805.7166190781736 250.23641646882945 5.0
  endloop
endfacet
facet normal 0.5877852522923123 -0.8090169943750644 0.0
  outer loop
    vertex 3799.648891789961 254.86817589556168 5.0
    vertex 3799.141499970884 254.49953416064054 0.0
    vertex 3799.648891789961 254.86817589556168 0.0
  endloop
endfacet
facet normal 0.5877852522923123 -0.8090169943750644 0.0
  outer loop
    vertex 3799.141499970884 254.49953416064054 0.0
    vertex 3799.648891789961 254.86817589556168 5.0
    vertex 3799.141499970884 254.49953416064054 5.0
  endloop
endfacet
facet normal 0.9945218953682193 0.10452846326816773 0.0
  outer loop
    vertex 3798.1488917899605 252.27009968420833 0.0
    vertex 3798.2144489877596 251.64636461175505 5.0
    vertex 3798.2144489877596 251.64636461175505 0.0
  endloop
endfacet
facet normal 0.9945218953682193 0.10452846326816773 0.0
  outer loop
    vertex 3798.2144489877596 251.64636461175505 5.0
    vertex 3798.1488917899605 252.27009968420833 0.0
    vertex 3798.1488917899605 252.27009968420833 5.0
  endloop
endfacet
facet normal 0.4067366430754796 0.9135454576427438 0.0
  outer loop
    vertex 3799.64889178996 249.672023472855 5.0
    vertex 3800.221840806836 249.41693013532284 0.0
    vertex 3799.64889178996 249.672023472855 0.0
  endloop
endfacet
facet normal 0.4067366430754796 0.9135454576427438 0.0
  outer loop
    vertex 3800.221840806836 249.41693013532284 0.0
    vertex 3799.64889178996 249.672023472855 5.0
    vertex 3800.221840806836 249.41693013532284 5.0
  endloop
endfacet
facet normal 0.7431448254771349 0.6691306063591463 0.0
  outer loop
    vertex 3798.7218408068356 250.5067439273309 0.0
    vertex 3799.141499970884 250.04066520777613 5.0
    vertex 3799.141499970884 250.04066520777613 0.0
  endloop
endfacet
facet normal 0.7431448254771349 0.6691306063591463 0.0
  outer loop
    vertex 3799.141499970884 250.04066520777613 5.0
    vertex 3798.7218408068356 250.5067439273309 0.0
    vertex 3798.7218408068356 250.5067439273309 5.0
  endloop
endfacet
facet normal 0.2079116908177725 0.9781476007338028 0.0
  outer loop
    vertex 3800.221840806836 249.41693013532284 5.0
    vertex 3800.8353064001576 249.28653399810347 0.0
    vertex 3800.221840806836 249.41693013532284 0.0
  endloop
endfacet
facet normal 0.2079116908177725 0.9781476007338028 0.0
  outer loop
    vertex 3800.8353064001576 249.28653399810347 0.0
    vertex 3800.221840806836 249.41693013532284 5.0
    vertex 3800.8353064001576 249.28653399810347 5.0
  endloop
endfacet
facet normal -0.2079116908177725 -0.9781476007338028 -0.0
  outer loop
    vertex 3802.0759427730854 255.12326923309382 5.0
    vertex 3801.4624771797635 255.25366537031317 0.0
    vertex 3802.0759427730854 255.12326923309382 0.0
  endloop
endfacet
facet normal -0.2079116908177725 -0.9781476007338028 -0.0
  outer loop
    vertex 3801.4624771797635 255.25366537031317 0.0
    vertex 3802.0759427730854 255.12326923309382 5.0
    vertex 3801.4624771797635 255.25366537031317 5.0
  endloop
endfacet
facet normal 0.8660254037845178 0.4999999999998633 0.0
  outer loop
    vertex 3798.4082554170327 251.0498897549809 0.0
    vertex 3798.7218408068356 250.5067439273309 5.0
    vertex 3798.7218408068356 250.5067439273309 0.0
  endloop
endfacet
facet normal 0.8660254037845178 0.4999999999998633 0.0
  outer loop
    vertex 3798.7218408068356 250.5067439273309 5.0
    vertex 3798.4082554170327 251.0498897549809 0.0
    vertex 3798.4082554170327 251.0498897549809 5.0
  endloop
endfacet
facet normal 0.2079116908177725 -0.9781476007338028 0.0
  outer loop
    vertex 3800.8353064001576 255.25366537031317 5.0
    vertex 3800.221840806836 255.12326923309382 0.0
    vertex 3800.8353064001576 255.25366537031317 0.0
  endloop
endfacet
facet normal 0.2079116908177725 -0.9781476007338028 0.0
  outer loop
    vertex 3800.221840806836 255.12326923309382 0.0
    vertex 3800.8353064001576 255.25366537031317 5.0
    vertex 3800.221840806836 255.12326923309382 5.0
  endloop
endfacet
facet normal 0.8660254037845178 -0.4999999999998633 0.0
  outer loop
    vertex 3798.7218408068356 254.03345544108575 0.0
    vertex 3798.4082554170327 253.49030961343576 5.0
    vertex 3798.4082554170327 253.49030961343576 0.0
  endloop
endfacet
facet normal 0.8660254037845178 -0.4999999999998633 0.0
  outer loop
    vertex 3798.4082554170327 253.49030961343576 5.0
    vertex 3798.7218408068356 254.03345544108575 0.0
    vertex 3798.7218408068356 254.03345544108575 5.0
  endloop
endfacet
facet normal 0.9510565162953362 -0.30901699437438596 0.0
  outer loop
    vertex 3798.4082554170327 253.49030961343576 0.0
    vertex 3798.2144489877596 252.89383475666162 5.0
    vertex 3798.2144489877596 252.89383475666162 0.0
  endloop
endfacet
facet normal 0.9510565162953362 -0.30901699437438596 0.0
  outer loop
    vertex 3798.2144489877596 252.89383475666162 5.0
    vertex 3798.4082554170327 253.49030961343576 0.0
    vertex 3798.4082554170327 253.49030961343576 5.0
  endloop
endfacet
facet normal 0.4067366430759073 -0.9135454576425532 0.0
  outer loop
    vertex 3800.221840806836 255.12326923309382 5.0
    vertex 3799.648891789961 254.86817589556168 0.0
    vertex 3800.221840806836 255.12326923309382 0.0
  endloop
endfacet
facet normal 0.4067366430759073 -0.9135454576425532 0.0
  outer loop
    vertex 3799.648891789961 254.86817589556168 0.0
    vertex 3800.221840806836 255.12326923309382 5.0
    vertex 3799.648891789961 254.86817589556168 5.0
  endloop
endfacet
facet normal -0.5877852522923123 0.8090169943750644 0.0
  outer loop
    vertex 3802.64889178996 249.672023472855 5.0
    vertex 3803.156283609037 250.04066520777613 0.0
    vertex 3802.64889178996 249.672023472855 0.0
  endloop
endfacet
facet normal -0.5877852522923123 0.8090169943750644 0.0
  outer loop
    vertex 3803.156283609037 250.04066520777613 0.0
    vertex 3802.64889178996 249.672023472855 5.0
    vertex 3803.156283609037 250.04066520777613 5.0
  endloop
endfacet
facet normal 0.9945218953682193 -0.10452846326816773 0.0
  outer loop
    vertex 3798.2144489877596 252.89383475666162 0.0
    vertex 3798.1488917899605 252.27009968420833 5.0
    vertex 3798.1488917899605 252.27009968420833 0.0
  endloop
endfacet
facet normal 0.9945218953682193 -0.10452846326816773 0.0
  outer loop
    vertex 3798.1488917899605 252.27009968420833 5.0
    vertex 3798.2144489877596 252.89383475666162 0.0
    vertex 3798.2144489877596 252.89383475666162 5.0
  endloop
endfacet
facet normal 0.9510565162953362 0.30901699437438596 0.0
  outer loop
    vertex 3798.2144489877596 251.64636461175505 0.0
    vertex 3798.4082554170327 251.0498897549809 5.0
    vertex 3798.4082554170327 251.0498897549809 0.0
  endloop
endfacet
facet normal 0.9510565162953362 0.30901699437438596 0.0
  outer loop
    vertex 3798.4082554170327 251.0498897549809 5.0
    vertex 3798.2144489877596 251.64636461175505 0.0
    vertex 3798.2144489877596 251.64636461175505 5.0
  endloop
endfacet
facet normal -0.7431448254771349 0.6691306063591463 0.0
  outer loop
    vertex 3803.5759427730854 250.5067439273309 5.0
    vertex 3803.156283609037 250.04066520777613 0.0
    vertex 3803.156283609037 250.04066520777613 5.0
  endloop
endfacet
facet normal -0.7431448254771349 0.6691306063591463 0.0
  outer loop
    vertex 3803.156283609037 250.04066520777613 0.0
    vertex 3803.5759427730854 250.5067439273309 5.0
    vertex 3803.5759427730854 250.5067439273309 0.0
  endloop
endfacet
facet normal -0.0 -1.0 -0.0
  outer loop
    vertex 3801.4624771797635 255.25366537031317 5.0
    vertex 3800.8353064001576 255.25366537031317 0.0
    vertex 3801.4624771797635 255.25366537031317 0.0
  endloop
endfacet
facet normal -0.0 -1.0 -0.0
  outer loop
    vertex 3800.8353064001576 255.25366537031317 0.0
    vertex 3801.4624771797635 255.25366537031317 5.0
    vertex 3800.8353064001576 255.25366537031317 5.0
  endloop
endfacet
facet normal 0.7431448254771349 -0.6691306063591463 0.0
  outer loop
    vertex 3799.141499970884 254.49953416064054 0.0
    vertex 3798.7218408068356 254.03345544108575 5.0
    vertex 3798.7218408068356 254.03345544108575 0.0
  endloop
endfacet
facet normal 0.7431448254771349 -0.6691306063591463 0.0
  outer loop
    vertex 3798.7218408068356 254.03345544108575 5.0
    vertex 3799.141499970884 254.49953416064054 0.0
    vertex 3799.141499970884 254.49953416064054 5.0
  endloop
endfacet
facet normal -0.0 1.0 0.0
  outer loop
    vertex 3800.8353064001576 249.28653399810347 5.0
    vertex 3801.4624771797635 249.28653399810347 0.0
    vertex 3800.8353064001576 249.28653399810347 0.0
  endloop
endfacet
facet normal -0.0 1.0 0.0
  outer loop
    vertex 3801.4624771797635 249.28653399810347 0.0
    vertex 3800.8353064001576 249.28653399810347 5.0
    vertex 3801.4624771797635 249.28653399810347 5.0
  endloop
endfacet
facet normal -0.4067366430759073 0.9135454576425532 0.0
  outer loop
    vertex 3802.0759427730854 249.41693013532284 5.0
    vertex 3802.64889178996 249.672023472855 0.0
    vertex 3802.0759427730854 249.41693013532284 0.0
  endloop
endfacet
facet normal -0.4067366430759073 0.9135454576425532 0.0
  outer loop
    vertex 3802.64889178996 249.672023472855 0.0
    vertex 3802.0759427730854 249.41693013532284 5.0
    vertex 3802.64889178996 249.672023472855 5.0
  endloop
endfacet
facet normal -0.8660254037845178 0.4999999999998633 0.0
  outer loop
    vertex 3803.8895281628884 251.0498897549809 5.0
    vertex 3803.5759427730854 250.5067439273309 0.0
    vertex 3803.5759427730854 250.5067439273309 5.0
  endloop
endfacet
facet normal -0.8660254037845178 0.4999999999998633 0.0
  outer loop
    vertex 3803.5759427730854 250.5067439273309 0.0
    vertex 3803.8895281628884 251.0498897549809 5.0
    vertex 3803.8895281628884 251.0498897549809 0.0
  endloop
endfacet
facet normal -0.2079116908177725 0.9781476007338028 0.0
  outer loop
    vertex 3801.4624771797635 249.28653399810347 5.0
    vertex 3802.0759427730854 249.41693013532284 0.0
    vertex 3801.4624771797635 249.28653399810347 0.0
  endloop
endfacet
facet normal -0.2079116908177725 0.9781476007338028 0.0
  outer loop
    vertex 3802.0759427730854 249.41693013532284 0.0
    vertex 3801.4624771797635 249.28653399810347 5.0
    vertex 3802.0759427730854 249.41693013532284 5.0
  endloop
endfacet
facet normal -0.9510565162953362 0.30901699437438596 0.0
  outer loop
    vertex 3804.083334592162 251.64636461175505 5.0
    vertex 3803.8895281628884 251.0498897549809 0.0
    vertex 3803.8895281628884 251.0498897549809 5.0
  endloop
endfacet
facet normal -0.9510565162953362 0.30901699437438596 0.0
  outer loop
    vertex 3803.8895281628884 251.0498897549809 0.0
    vertex 3804.083334592162 251.64636461175505 5.0
    vertex 3804.083334592162 251.64636461175505 0.0
  endloop
endfacet
facet normal 0.5877852522928597 0.8090169943746667 0.0
  outer loop
    vertex 3799.141499970884 250.04066520777613 5.0
    vertex 3799.64889178996 249.672023472855 0.0
    vertex 3799.141499970884 250.04066520777613 0.0
  endloop
endfacet
facet normal 0.5877852522928597 0.8090169943746667 0.0
  outer loop
    vertex 3799.64889178996 249.672023472855 0.0
    vertex 3799.141499970884 250.04066520777613 5.0
    vertex 3799.64889178996 249.672023472855 5.0
  endloop
endfacet
facet normal -0.9510565162951373 0.30901699437499797 -0.0
  outer loop
    vertex 3796.5811645017475 254.30378289958725 5.0
    vertex 3796.2581537862916 253.30965813829698 -2.8199664825478975e-15
    vertex 3796.2581537862916 253.30965813829698 5.0
  endloop
endfacet
facet normal -0.9510565162951373 0.30901699437499797 -0.0
  outer loop
    vertex 3796.2581537862916 253.30965813829698 -2.8199664825478975e-15
    vertex 3796.5811645017475 254.30378289958725 5.0
    vertex 3796.5811645017475 254.30378289958725 -2.8199664825478975e-15
  endloop
endfacet
facet normal 0.4067366430758217 -0.9135454576425913 -0.0
  outer loop
    vertex 3803.6488917899605 247.93997266528615 5.0
    vertex 3802.6939767618355 247.5148171027326 -2.8199664825478975e-15
    vertex 3803.6488917899605 247.93997266528615 -2.8199664825478975e-15
  endloop
endfacet
facet normal 0.4067366430758217 -0.9135454576425913 -0.0
  outer loop
    vertex 3802.6939767618355 247.5148171027326 -2.8199664825478975e-15
    vertex 3803.6488917899605 247.93997266528615 5.0
    vertex 3802.6939767618355 247.5148171027326 5.0
  endloop
endfacet
facet normal -0.0 1.0 -0.0
  outer loop
    vertex 3800.626249473622 257.24270916104973 5.0
    vertex 3801.671534106299 257.24270916104973 -2.8199664825478975e-15
    vertex 3800.626249473622 257.24270916104973 -2.8199664825478975e-15
  endloop
endfacet
facet normal -0.0 1.0 -0.0
  outer loop
    vertex 3801.671534106299 257.24270916104973 -2.8199664825478975e-15
    vertex 3800.626249473622 257.24270916104973 5.0
    vertex 3801.671534106299 257.24270916104973 5.0
  endloop
endfacet
facet normal 0.866025403784322 0.5000000000002024 0.0
  outer loop
    vertex 3805.193976761835 255.2090259456708 -2.8199664825478975e-15
    vertex 3805.7166190781736 254.30378289958745 5.0
    vertex 3805.7166190781736 254.30378289958745 -2.8199664825478975e-15
  endloop
endfacet
facet normal 0.866025403784322 0.5000000000002024 0.0
  outer loop
    vertex 3805.7166190781736 254.30378289958745 5.0
    vertex 3805.193976761835 255.2090259456708 -2.8199664825478975e-15
    vertex 3805.193976761835 255.2090259456708 5.0
  endloop
endfacet
facet normal -0.9510565162951291 -0.30901699437502334 -0.0
  outer loop
    vertex 3796.2581537862916 251.2305412301194 5.0
    vertex 3796.5811645017475 250.23641646882922 -2.8199664825478975e-15
    vertex 3796.5811645017475 250.23641646882922 5.0
  endloop
endfacet
facet normal -0.9510565162951291 -0.30901699437502334 -0.0
  outer loop
    vertex 3796.5811645017475 250.23641646882922 -2.8199664825478975e-15
    vertex 3796.2581537862916 251.2305412301194 5.0
    vertex 3796.2581537862916 251.2305412301194 -2.8199664825478975e-15
  endloop
endfacet
facet normal 0.4067366430757858 0.9135454576426075 0.0
  outer loop
    vertex 3802.6939767618355 257.0253822656842 5.0
    vertex 3803.6488917899605 256.60022670313066 -2.8199664825478975e-15
    vertex 3802.6939767618355 257.0253822656842 -2.8199664825478975e-15
  endloop
endfacet
facet normal 0.4067366430757858 0.9135454576426075 0.0
  outer loop
    vertex 3803.6488917899605 256.60022670313066 -2.8199664825478975e-15
    vertex 3802.6939767618355 257.0253822656842 5.0
    vertex 3803.6488917899605 256.60022670313066 5.0
  endloop
endfacet
facet normal -0.7431448254774525 -0.6691306063587935 -0.0
  outer loop
    vertex 3797.103806818086 249.33117342274585 5.0
    vertex 3797.8032387581666 248.55437555682127 -2.8199664825478975e-15
    vertex 3797.8032387581666 248.55437555682127 5.0
  endloop
endfacet
facet normal -0.7431448254774525 -0.6691306063587935 -0.0
  outer loop
    vertex 3797.8032387581666 248.55437555682127 -2.8199664825478975e-15
    vertex 3797.103806818086 249.33117342274585 5.0
    vertex 3797.103806818086 249.33117342274585 -2.8199664825478975e-15
  endloop
endfacet
facet normal -0.866025403784322 -0.5000000000002024 -0.0
  outer loop
    vertex 3796.5811645017475 250.23641646882922 5.0
    vertex 3797.103806818086 249.33117342274585 -2.8199664825478975e-15
    vertex 3797.103806818086 249.33117342274585 5.0
  endloop
endfacet
facet normal -0.866025403784322 -0.5000000000002024 -0.0
  outer loop
    vertex 3797.103806818086 249.33117342274585 -2.8199664825478975e-15
    vertex 3796.5811645017475 250.23641646882922 5.0
    vertex 3796.5811645017475 250.23641646882922 -2.8199664825478975e-15
  endloop
endfacet
facet normal 0.2079116908178276 -0.9781476007337913 -0.0
  outer loop
    vertex 3802.6939767618355 247.5148171027326 5.0
    vertex 3801.671534106299 247.29749020736693 -2.8199664825478975e-15
    vertex 3802.6939767618355 247.5148171027326 -2.8199664825478975e-15
  endloop
endfacet
facet normal 0.2079116908178276 -0.9781476007337913 -0.0
  outer loop
    vertex 3801.671534106299 247.29749020736693 -2.8199664825478975e-15
    vertex 3802.6939767618355 247.5148171027326 5.0
    vertex 3801.671534106299 247.29749020736693 5.0
  endloop
endfacet
facet normal 0.5877852522923311 -0.8090169943750507 -0.0
  outer loop
    vertex 3804.4945448217554 248.5543755568214 5.0
    vertex 3803.6488917899605 247.93997266528615 -2.8199664825478975e-15
    vertex 3804.4945448217554 248.5543755568214 -2.8199664825478975e-15
  endloop
endfacet
facet normal 0.5877852522923311 -0.8090169943750507 -0.0
  outer loop
    vertex 3803.6488917899605 247.93997266528615 -2.8199664825478975e-15
    vertex 3804.4945448217554 248.5543755568214 5.0
    vertex 3803.6488917899605 247.93997266528615 5.0
  endloop
endfacet
facet normal 0.5877852522926312 0.8090169943748325 0.0
  outer loop
    vertex 3803.6488917899605 256.60022670313066 5.0
    vertex 3804.4945448217545 255.98582381159542 -2.8199664825478975e-15
    vertex 3803.6488917899605 256.60022670313066 -2.8199664825478975e-15
  endloop
endfacet
facet normal 0.5877852522926312 0.8090169943748325 0.0
  outer loop
    vertex 3804.4945448217545 255.98582381159542 -2.8199664825478975e-15
    vertex 3803.6488917899605 256.60022670313066 5.0
    vertex 3804.4945448217545 255.98582381159542 5.0
  endloop
endfacet
facet normal -0.5877852522926595 -0.8090169943748121 -0.0
  outer loop
    vertex 3798.6488917899605 247.93997266528604 5.0
    vertex 3797.8032387581666 248.55437555682127 -2.8199664825478975e-15
    vertex 3798.6488917899605 247.93997266528604 -2.8199664825478975e-15
  endloop
endfacet
facet normal -0.5877852522926595 -0.8090169943748121 -0.0
  outer loop
    vertex 3797.8032387581666 248.55437555682127 -2.8199664825478975e-15
    vertex 3798.6488917899605 247.93997266528604 5.0
    vertex 3797.8032387581666 248.55437555682127 5.0
  endloop
endfacet
facet normal -0.866025403784322 0.5000000000002024 -0.0
  outer loop
    vertex 3797.103806818086 255.20902594567062 5.0
    vertex 3796.5811645017475 254.30378289958725 -2.8199664825478975e-15
    vertex 3796.5811645017475 254.30378289958725 5.0
  endloop
endfacet
facet normal -0.866025403784322 0.5000000000002024 -0.0
  outer loop
    vertex 3796.5811645017475 254.30378289958725 -2.8199664825478975e-15
    vertex 3797.103806818086 255.20902594567062 5.0
    vertex 3797.103806818086 255.20902594567062 -2.8199664825478975e-15
  endloop
endfacet
facet normal 0.7431448254778152 -0.6691306063583906 -0.0
  outer loop
    vertex 3805.193976761835 249.33117342274605 -2.8199664825478975e-15
    vertex 3804.4945448217554 248.5543755568214 5.0
    vertex 3804.4945448217554 248.5543755568214 -2.8199664825478975e-15
  endloop
endfacet
facet normal 0.7431448254778152 -0.6691306063583906 -0.0
  outer loop
    vertex 3804.4945448217554 248.5543755568214 5.0
    vertex 3805.193976761835 249.33117342274605 -2.8199664825478975e-15
    vertex 3805.193976761835 249.33117342274605 5.0
  endloop
endfacet
facet normal -0.7431448254778152 0.6691306063583906 -0.0
  outer loop
    vertex 3797.8032387581657 255.98582381159522 5.0
    vertex 3797.103806818086 255.20902594567062 -2.8199664825478975e-15
    vertex 3797.103806818086 255.20902594567062 5.0
  endloop
endfacet
facet normal -0.7431448254778152 0.6691306063583906 -0.0
  outer loop
    vertex 3797.103806818086 255.20902594567062 -2.8199664825478975e-15
    vertex 3797.8032387581657 255.98582381159522 5.0
    vertex 3797.8032387581657 255.98582381159522 -2.8199664825478975e-15
  endloop
endfacet
facet normal -0.2079116908178276 0.9781476007337913 -0.0
  outer loop
    vertex 3799.6038068180856 257.0253822656841 5.0
    vertex 3800.626249473622 257.24270916104973 -2.8199664825478975e-15
    vertex 3799.6038068180856 257.0253822656841 -2.8199664825478975e-15
  endloop
endfacet
facet normal -0.2079116908178276 0.9781476007337913 -0.0
  outer loop
    vertex 3800.626249473622 257.24270916104973 -2.8199664825478975e-15
    vertex 3799.6038068180856 257.0253822656841 5.0
    vertex 3800.626249473622 257.24270916104973 5.0
  endloop
endfacet
facet normal -0.9945218953682432 -0.10452846326794153 -0.0
  outer loop
    vertex 3796.14889178996 252.2700996842082 5.0
    vertex 3796.2581537862916 251.2305412301194 -2.8199664825478975e-15
    vertex 3796.2581537862916 251.2305412301194 5.0
  endloop
endfacet
facet normal -0.9945218953682432 -0.10452846326794153 -0.0
  outer loop
    vertex 3796.2581537862916 251.2305412301194 -2.8199664825478975e-15
    vertex 3796.14889178996 252.2700996842082 5.0
    vertex 3796.14889178996 252.2700996842082 -2.8199664825478975e-15
  endloop
endfacet
facet normal 0.20791169081774497 0.9781476007338087 0.0
  outer loop
    vertex 3801.671534106299 257.24270916104973 5.0
    vertex 3802.6939767618355 257.0253822656842 -2.8199664825478975e-15
    vertex 3801.671534106299 257.24270916104973 -2.8199664825478975e-15
  endloop
endfacet
facet normal 0.20791169081774497 0.9781476007338087 0.0
  outer loop
    vertex 3802.6939767618355 257.0253822656842 -2.8199664825478975e-15
    vertex 3801.671534106299 257.24270916104973 5.0
    vertex 3802.6939767618355 257.0253822656842 5.0
  endloop
endfacet
facet normal -0.20791169081774497 -0.9781476007338087 -0.0
  outer loop
    vertex 3800.626249473622 247.29749020736693 5.0
    vertex 3799.6038068180856 247.51481710273248 -2.8199664825478975e-15
    vertex 3800.626249473622 247.29749020736693 -2.8199664825478975e-15
  endloop
endfacet
facet normal -0.20791169081774497 -0.9781476007338087 -0.0
  outer loop
    vertex 3799.6038068180856 247.51481710273248 -2.8199664825478975e-15
    vertex 3800.626249473622 247.29749020736693 5.0
    vertex 3799.6038068180856 247.51481710273248 5.0
  endloop
endfacet
facet normal -0.9945218953682432 0.10452846326794153 -0.0
  outer loop
    vertex 3796.2581537862916 253.30965813829698 5.0
    vertex 3796.14889178996 252.2700996842082 -2.8199664825478975e-15
    vertex 3796.14889178996 252.2700996842082 5.0
  endloop
endfacet
facet normal -0.9945218953682432 0.10452846326794153 -0.0
  outer loop
    vertex 3796.14889178996 252.2700996842082 -2.8199664825478975e-15
    vertex 3796.2581537862916 253.30965813829698 5.0
    vertex 3796.2581537862916 253.30965813829698 -2.8199664825478975e-15
  endloop
endfacet
facet normal 0.7431448254774718 0.669130606358772 0.0
  outer loop
    vertex 3804.4945448217545 255.98582381159542 -2.8199664825478975e-15
    vertex 3805.193976761835 255.2090259456708 5.0
    vertex 3805.193976761835 255.2090259456708 -2.8199664825478975e-15
  endloop
endfacet
facet normal 0.7431448254774718 0.669130606358772 0.0
  outer loop
    vertex 3805.193976761835 255.2090259456708 5.0
    vertex 3804.4945448217545 255.98582381159542 -2.8199664825478975e-15
    vertex 3804.4945448217545 255.98582381159542 5.0
  endloop
endfacet
facet normal -0.5877852522923311 0.8090169943750507 -0.0
  outer loop
    vertex 3797.8032387581657 255.98582381159522 5.0
    vertex 3798.6488917899605 256.6002267031305 -2.8199664825478975e-15
    vertex 3797.8032387581657 255.98582381159522 -2.8199664825478975e-15
  endloop
endfacet
facet normal -0.5877852522923311 0.8090169943750507 -0.0
  outer loop
    vertex 3798.6488917899605 256.6002267031305 -2.8199664825478975e-15
    vertex 3797.8032387581657 255.98582381159522 5.0
    vertex 3798.6488917899605 256.6002267031305 5.0
  endloop
endfacet
facet normal -0.4067366430757858 -0.9135454576426075 -0.0
  outer loop
    vertex 3799.6038068180856 247.51481710273248 5.0
    vertex 3798.6488917899605 247.93997266528604 -2.8199664825478975e-15
    vertex 3799.6038068180856 247.51481710273248 -2.8199664825478975e-15
  endloop
endfacet
facet normal -0.4067366430757858 -0.9135454576426075 -0.0
  outer loop
    vertex 3798.6488917899605 247.93997266528604 -2.8199664825478975e-15
    vertex 3799.6038068180856 247.51481710273248 5.0
    vertex 3798.6488917899605 247.93997266528604 5.0
  endloop
endfacet
facet normal -0.4067366430758217 0.9135454576425913 -0.0
  outer loop
    vertex 3798.6488917899605 256.6002267031305 5.0
    vertex 3799.6038068180856 257.0253822656841 -2.8199664825478975e-15
    vertex 3798.6488917899605 256.6002267031305 -2.8199664825478975e-15
  endloop
endfacet
facet normal -0.4067366430758217 0.9135454576425913 -0.0
  outer loop
    vertex 3799.6038068180856 257.0253822656841 -2.8199664825478975e-15
    vertex 3798.6488917899605 256.6002267031305 5.0
    vertex 3799.6038068180856 257.0253822656841 5.0
  endloop
endfacet
facet normal -0.0 -1.0 -0.0
  outer loop
    vertex 3801.671534106299 247.29749020736693 5.0
    vertex 3800.626249473622 247.29749020736693 -2.8199664825478975e-15
    vertex 3801.671534106299 247.29749020736693 -2.8199664825478975e-15
  endloop
endfacet
facet normal -0.0 -1.0 -0.0
  outer loop
    vertex 3800.626249473622 247.29749020736693 -2.8199664825478975e-15
    vertex 3801.671534106299 247.29749020736693 5.0
    vertex 3800.626249473622 247.29749020736693 5.0
  endloop
endfacet
facet normal -0.9945218953682193 -0.10452846326816773 -0.0
  outer loop
    vertex 3804.083334592162 252.89383475666162 5.0
    vertex 3804.1488917899605 252.27009968420833 0.0
    vertex 3804.1488917899605 252.27009968420833 5.0
  endloop
endfacet
facet normal -0.9945218953682193 -0.10452846326816773 -0.0
  outer loop
    vertex 3804.1488917899605 252.27009968420833 0.0
    vertex 3804.083334592162 252.89383475666162 5.0
    vertex 3804.083334592162 252.89383475666162 0.0
  endloop
endfacet
facet normal -0.0 -0.0 1.0
  outer loop
    vertex 3797.8032387581666 248.55437555682127 5.0
    vertex 3798.2144489877596 251.64636461175505 5.0
    vertex 3798.1488917899605 252.27009968420833 5.0
  endloop
endfacet
facet normal -0.0 -0.0 1.0
  outer loop
    vertex 3798.2144489877596 251.64636461175505 5.0
    vertex 3797.8032387581666 248.55437555682127 5.0
    vertex 3798.6488917899605 247.93997266528604 5.0
  endloop
endfacet
facet normal -0.0 -0.0 1.0
  outer loop
    vertex 3798.2144489877596 251.64636461175505 5.0
    vertex 3798.6488917899605 247.93997266528604 5.0
    vertex 3798.4082554170327 251.0498897549809 5.0
  endloop
endfacet
facet normal -0.0 -0.0 1.0
  outer loop
    vertex 3798.4082554170327 251.0498897549809 5.0
    vertex 3798.6488917899605 247.93997266528604 5.0
    vertex 3798.7218408068356 250.5067439273309 5.0
  endloop
endfacet
facet normal -0.0 -0.0 1.0
  outer loop
    vertex 3798.7218408068356 250.5067439273309 5.0
    vertex 3798.6488917899605 247.93997266528604 5.0
    vertex 3799.6038068180856 247.51481710273248 5.0
  endloop
endfacet
facet normal -0.0 -0.0 1.0
  outer loop
    vertex 3798.7218408068356 250.5067439273309 5.0
    vertex 3799.6038068180856 247.51481710273248 5.0
    vertex 3799.141499970884 250.04066520777613 5.0
  endloop
endfacet
facet normal -0.0 -0.0 1.0
  outer loop
    vertex 3799.141499970884 250.04066520777613 5.0
    vertex 3799.6038068180856 247.51481710273248 5.0
    vertex 3799.64889178996 249.672023472855 5.0
  endloop
endfacet
facet normal -0.0 -0.0 1.0
  outer loop
    vertex 3799.64889178996 249.672023472855 5.0
    vertex 3799.6038068180856 247.51481710273248 5.0
    vertex 3800.626249473622 247.29749020736693 5.0
  endloop
endfacet
facet normal -0.0 -0.0 1.0
  outer loop
    vertex 3799.64889178996 249.672023472855 5.0
    vertex 3800.626249473622 247.29749020736693 5.0
    vertex 3800.221840806836 249.41693013532284 5.0
  endloop
endfacet
facet normal -0.0 -0.0 1.0
  outer loop
    vertex 3800.221840806836 249.41693013532284 5.0
    vertex 3800.626249473622 247.29749020736693 5.0
    vertex 3800.8353064001576 249.28653399810347 5.0
  endloop
endfacet
facet normal -0.0 -0.0 1.0
  outer loop
    vertex 3800.8353064001576 249.28653399810347 5.0
    vertex 3800.626249473622 247.29749020736693 5.0
    vertex 3801.671534106299 247.29749020736693 5.0
  endloop
endfacet
facet normal -0.0 -0.0 1.0
  outer loop
    vertex 3800.8353064001576 249.28653399810347 5.0
    vertex 3801.671534106299 247.29749020736693 5.0
    vertex 3801.4624771797635 249.28653399810347 5.0
  endloop
endfacet
facet normal -0.0 -0.0 1.0
  outer loop
    vertex 3801.4624771797635 249.28653399810347 5.0
    vertex 3801.671534106299 247.29749020736693 5.0
    vertex 3802.0759427730854 249.41693013532284 5.0
  endloop
endfacet
facet normal -0.0 -0.0 1.0
  outer loop
    vertex 3802.0759427730854 249.41693013532284 5.0
    vertex 3801.671534106299 247.29749020736693 5.0
    vertex 3802.6939767618355 247.5148171027326 5.0
  endloop
endfacet
facet normal -0.0 -0.0 1.0
  outer loop
    vertex 3802.0759427730854 249.41693013532284 5.0
    vertex 3802.6939767618355 247.5148171027326 5.0
    vertex 3802.64889178996 249.672023472855 5.0
  endloop
endfacet
facet normal -0.0 -0.0 1.0
  outer loop
    vertex 3802.64889178996 249.672023472855 5.0
    vertex 3802.6939767618355 247.5148171027326 5.0
    vertex 3803.156283609037 250.04066520777613 5.0
  endloop
endfacet
facet normal -0.0 -0.0 1.0
  outer loop
    vertex 3803.156283609037 250.04066520777613 5.0
    vertex 3802.6939767618355 247.5148171027326 5.0
    vertex 3803.6488917899605 247.93997266528615 5.0
  endloop
endfacet
facet normal -0.0 -0.0 1.0
  outer loop
    vertex 3803.156283609037 250.04066520777613 5.0
    vertex 3803.6488917899605 247.93997266528615 5.0
    vertex 3803.5759427730854 250.5067439273309 5.0
  endloop
endfacet
facet normal -0.0 -0.0 1.0
  outer loop
    vertex 3803.5759427730854 250.5067439273309 5.0
    vertex 3803.6488917899605 247.93997266528615 5.0
    vertex 3803.8895281628884 251.0498897549809 5.0
  endloop
endfacet
facet normal -0.0 -0.0 1.0
  outer loop
    vertex 3803.8895281628884 251.0498897549809 5.0
    vertex 3803.6488917899605 247.93997266528615 5.0
    vertex 3804.4945448217554 248.5543755568214 5.0
  endloop
endfacet
facet normal -0.0 -0.0 1.0
  outer loop
    vertex 3803.8895281628884 251.0498897549809 5.0
    vertex 3804.4945448217554 248.5543755568214 5.0
    vertex 3804.083334592162 251.64636461175505 5.0
  endloop
endfacet
facet normal -0.0 -0.0 1.0
  outer loop
    vertex 3804.083334592162 251.64636461175505 5.0
    vertex 3804.4945448217554 248.5543755568214 5.0
    vertex 3804.1488917899605 252.27009968420833 5.0
  endloop
endfacet
facet normal -0.0 -0.0 1.0
  outer loop
    vertex 3804.1488917899605 252.27009968420833 5.0
    vertex 3804.4945448217554 248.5543755568214 5.0
    vertex 3804.4945448217545 255.98582381159542 5.0
  endloop
endfacet
facet normal -0.0 -0.0 1.0
  outer loop
    vertex 3804.4945448217545 255.98582381159542 5.0
    vertex 3804.4945448217554 248.5543755568214 5.0
    vertex 3805.193976761835 255.2090259456708 5.0
  endloop
endfacet
facet normal -0.0 -0.0 1.0
  outer loop
    vertex 3805.193976761835 255.2090259456708 5.0
    vertex 3804.4945448217554 248.5543755568214 5.0
    vertex 3805.193976761835 249.33117342274605 5.0
  endloop
endfacet
facet normal -0.0 -0.0 1.0
  outer loop
    vertex 3805.193976761835 255.2090259456708 5.0
    vertex 3805.193976761835 249.33117342274605 5.0
    vertex 3805.7166190781736 250.23641646882945 5.0
  endloop
endfacet
facet normal -0.0 -0.0 1.0
  outer loop
    vertex 3805.193976761835 255.2090259456708 5.0
    vertex 3805.7166190781736 250.23641646882945 5.0
    vertex 3805.7166190781736 254.30378289958745 5.0
  endloop
endfacet
facet normal -0.0 -0.0 1.0
  outer loop
    vertex 3805.7166190781736 254.30378289958745 5.0
    vertex 3805.7166190781736 250.23641646882945 5.0
    vertex 3806.0396297936295 251.23054123011968 5.0
  endloop
endfacet
facet normal -0.0 -0.0 1.0
  outer loop
    vertex 3805.7166190781736 254.30378289958745 5.0
    vertex 3806.0396297936295 251.23054123011968 5.0
    vertex 3806.0396297936295 253.30965813829727 5.0
  endloop
endfacet
facet normal -0.0 -0.0 1.0
  outer loop
    vertex 3806.0396297936295 253.30965813829727 5.0
    vertex 3806.0396297936295 251.23054123011968 5.0
    vertex 3806.148891789961 252.27009968420847 5.0
  endloop
endfacet
facet normal -0.0 -0.0 1.0
  outer loop
    vertex 3796.2581537862916 251.2305412301194 5.0
    vertex 3796.2581537862916 253.30965813829698 5.0
    vertex 3796.14889178996 252.2700996842082 5.0
  endloop
endfacet
facet normal -0.0 -0.0 1.0
  outer loop
    vertex 3796.2581537862916 253.30965813829698 5.0
    vertex 3796.2581537862916 251.2305412301194 5.0
    vertex 3796.5811645017475 250.23641646882922 5.0
  endloop
endfacet
facet normal -0.0 -0.0 1.0
  outer loop
    vertex 3796.2581537862916 253.30965813829698 5.0
    vertex 3796.5811645017475 250.23641646882922 5.0
    vertex 3796.5811645017475 254.30378289958725 5.0
  endloop
endfacet
facet normal -0.0 -0.0 1.0
  outer loop
    vertex 3796.5811645017475 254.30378289958725 5.0
    vertex 3796.5811645017475 250.23641646882922 5.0
    vertex 3797.103806818086 249.33117342274585 5.0
  endloop
endfacet
facet normal -0.0 -0.0 1.0
  outer loop
    vertex 3796.5811645017475 254.30378289958725 5.0
    vertex 3797.103806818086 249.33117342274585 5.0
    vertex 3797.103806818086 255.20902594567062 5.0
  endloop
endfacet
facet normal -0.0 -0.0 1.0
  outer loop
    vertex 3797.103806818086 255.20902594567062 5.0
    vertex 3797.103806818086 249.33117342274585 5.0
    vertex 3797.8032387581666 248.55437555682127 5.0
  endloop
endfacet
facet normal -0.0 -0.0 1.0
  outer loop
    vertex 3797.103806818086 255.20902594567062 5.0
    vertex 3797.8032387581666 248.55437555682127 5.0
    vertex 3797.8032387581657 255.98582381159522 5.0
  endloop
endfacet
facet normal -0.0 -0.0 1.0
  outer loop
    vertex 3797.8032387581657 255.98582381159522 5.0
    vertex 3797.8032387581666 248.55437555682127 5.0
    vertex 3798.1488917899605 252.27009968420833 5.0
  endloop
endfacet
facet normal -0.0 -0.0 1.0
  outer loop
    vertex 3797.8032387581657 255.98582381159522 5.0
    vertex 3798.1488917899605 252.27009968420833 5.0
    vertex 3798.2144489877596 252.89383475666162 5.0
  endloop
endfacet
facet normal -0.0 -0.0 1.0
  outer loop
    vertex 3797.8032387581657 255.98582381159522 5.0
    vertex 3798.2144489877596 252.89383475666162 5.0
    vertex 3798.6488917899605 256.6002267031305 5.0
  endloop
endfacet
facet normal -0.0 -0.0 1.0
  outer loop
    vertex 3798.6488917899605 256.6002267031305 5.0
    vertex 3798.2144489877596 252.89383475666162 5.0
    vertex 3798.4082554170327 253.49030961343576 5.0
  endloop
endfacet
facet normal -0.0 -0.0 1.0
  outer loop
    vertex 3798.6488917899605 256.6002267031305 5.0
    vertex 3798.4082554170327 253.49030961343576 5.0
    vertex 3798.7218408068356 254.03345544108575 5.0
  endloop
endfacet
facet normal -0.0 -0.0 1.0
  outer loop
    vertex 3798.6488917899605 256.6002267031305 5.0
    vertex 3798.7218408068356 254.03345544108575 5.0
    vertex 3799.6038068180856 257.0253822656841 5.0
  endloop
endfacet
facet normal -0.0 -0.0 1.0
  outer loop
    vertex 3799.6038068180856 257.0253822656841 5.0
    vertex 3798.7218408068356 254.03345544108575 5.0
    vertex 3799.141499970884 254.49953416064054 5.0
  endloop
endfacet
facet normal -0.0 -0.0 1.0
  outer loop
    vertex 3799.6038068180856 257.0253822656841 5.0
    vertex 3799.141499970884 254.49953416064054 5.0
    vertex 3799.648891789961 254.86817589556168 5.0
  endloop
endfacet
facet normal -0.0 -0.0 1.0
  outer loop
    vertex 3799.6038068180856 257.0253822656841 5.0
    vertex 3799.648891789961 254.86817589556168 5.0
    vertex 3800.626249473622 257.24270916104973 5.0
  endloop
endfacet
facet normal -0.0 -0.0 1.0
  outer loop
    vertex 3800.626249473622 257.24270916104973 5.0
    vertex 3799.648891789961 254.86817589556168 5.0
    vertex 3800.221840806836 255.12326923309382 5.0
  endloop
endfacet
facet normal -0.0 -0.0 1.0
  outer loop
    vertex 3800.626249473622 257.24270916104973 5.0
    vertex 3800.221840806836 255.12326923309382 5.0
    vertex 3800.8353064001576 255.25366537031317 5.0
  endloop
endfacet
facet normal -0.0 -0.0 1.0
  outer loop
    vertex 3800.626249473622 257.24270916104973 5.0
    vertex 3800.8353064001576 255.25366537031317 5.0
    vertex 3801.671534106299 257.24270916104973 5.0
  endloop
endfacet
facet normal -0.0 -0.0 1.0
  outer loop
    vertex 3801.671534106299 257.24270916104973 5.0
    vertex 3800.8353064001576 255.25366537031317 5.0
    vertex 3801.4624771797635 255.25366537031317 5.0
  endloop
endfacet
facet normal -0.0 -0.0 1.0
  outer loop
    vertex 3801.671534106299 257.24270916104973 5.0
    vertex 3801.4624771797635 255.25366537031317 5.0
    vertex 3802.0759427730854 255.12326923309382 5.0
  endloop
endfacet
facet normal -0.0 -0.0 1.0
  outer loop
    vertex 3801.671534106299 257.24270916104973 5.0
    vertex 3802.0759427730854 255.12326923309382 5.0
    vertex 3802.6939767618355 257.0253822656842 5.0
  endloop
endfacet
facet normal -0.0 -0.0 1.0
  outer loop
    vertex 3802.6939767618355 257.0253822656842 5.0
    vertex 3802.0759427730854 255.12326923309382 5.0
    vertex 3802.648891789961 254.86817589556168 5.0
  endloop
endfacet
facet normal -0.0 -0.0 1.0
  outer loop
    vertex 3802.6939767618355 257.0253822656842 5.0
    vertex 3802.648891789961 254.86817589556168 5.0
    vertex 3803.156283609037 254.49953416064054 5.0
  endloop
endfacet
facet normal -0.0 -0.0 1.0
  outer loop
    vertex 3802.6939767618355 257.0253822656842 5.0
    vertex 3803.156283609037 254.49953416064054 5.0
    vertex 3803.6488917899605 256.60022670313066 5.0
  endloop
endfacet
facet normal -0.0 -0.0 1.0
  outer loop
    vertex 3803.6488917899605 256.60022670313066 5.0
    vertex 3803.156283609037 254.49953416064054 5.0
    vertex 3803.5759427730854 254.03345544108575 5.0
  endloop
endfacet
facet normal -0.0 -0.0 1.0
  outer loop
    vertex 3803.6488917899605 256.60022670313066 5.0
    vertex 3803.5759427730854 254.03345544108575 5.0
    vertex 3803.8895281628884 253.49030961343576 5.0
  endloop
endfacet
facet normal -0.0 -0.0 1.0
  outer loop
    vertex 3803.6488917899605 256.60022670313066 5.0
    vertex 3803.8895281628884 253.49030961343576 5.0
    vertex 3804.4945448217545 255.98582381159542 5.0
  endloop
endfacet
facet normal -0.0 -0.0 1.0
  outer loop
    vertex 3804.4945448217545 255.98582381159542 5.0
    vertex 3803.8895281628884 253.49030961343576 5.0
    vertex 3804.083334592162 252.89383475666162 5.0
  endloop
endfacet
facet normal -0.0 -0.0 1.0
  outer loop
    vertex 3804.4945448217545 255.98582381159542 5.0
    vertex 3804.083334592162 252.89383475666162 5.0
    vertex 3804.1488917899605 252.27009968420833 5.0
  endloop
endfacet
facet normal -0.9945218953682193 0.10452846326816773 0.0
  outer loop
    vertex 3804.1488917899605 252.27009968420833 5.0
    vertex 3804.083334592162 251.64636461175505 0.0
    vertex 3804.083334592162 251.64636461175505 5.0
  endloop
endfacet
facet normal -0.9945218953682193 0.10452846326816773 0.0
  outer loop
    vertex 3804.083334592162 251.64636461175505 0.0
    vertex 3804.1488917899605 252.27009968420833 5.0
    vertex 3804.1488917899605 252.27009968420833 0.0
  endloop
endfacet
facet normal -0.9510565162953362 -0.30901699437438596 -0.0
  outer loop
    vertex 3803.8895281628884 253.49030961343576 5.0
    vertex 3804.083334592162 252.89383475666162 0.0
    vertex 3804.083334592162 252.89383475666162 5.0
  endloop
endfacet
facet normal -0.9510565162953362 -0.30901699437438596 -0.0
  outer loop
    vertex 3804.083334592162 252.89383475666162 0.0
    vertex 3803.8895281628884 253.49030961343576 5.0
    vertex 3803.8895281628884 253.49030961343576 0.0
  endloop
endfacet
facet normal -0.7431448254771349 -0.6691306063591463 -0.0
  outer loop
    vertex 3803.156283609037 254.49953416064054 5.0
    vertex 3803.5759427730854 254.03345544108575 0.0
    vertex 3803.5759427730854 254.03345544108575 5.0
  endloop
endfacet
facet normal -0.7431448254771349 -0.6691306063591463 -0.0
  outer loop
    vertex 3803.5759427730854 254.03345544108575 0.0
    vertex 3803.156283609037 254.49953416064054 5.0
    vertex 3803.156283609037 254.49953416064054 0.0
  endloop
endfacet
facet normal -0.5877852522928597 -0.8090169943746667 -0.0
  outer loop
    vertex 3803.156283609037 254.49953416064054 5.0
    vertex 3802.648891789961 254.86817589556168 0.0
    vertex 3803.156283609037 254.49953416064054 0.0
  endloop
endfacet
facet normal -0.5877852522928597 -0.8090169943746667 -0.0
  outer loop
    vertex 3802.648891789961 254.86817589556168 0.0
    vertex 3803.156283609037 254.49953416064054 5.0
    vertex 3802.648891789961 254.86817589556168 5.0
  endloop
endfacet
facet normal -0.8660254037845178 -0.4999999999998633 -0.0
  outer loop
    vertex 3803.5759427730854 254.03345544108575 5.0
    vertex 3803.8895281628884 253.49030961343576 0.0
    vertex 3803.8895281628884 253.49030961343576 5.0
  endloop
endfacet
facet normal -0.8660254037845178 -0.4999999999998633 -0.0
  outer loop
    vertex 3803.8895281628884 253.49030961343576 0.0
    vertex 3803.5759427730854 254.03345544108575 5.0
    vertex 3803.5759427730854 254.03345544108575 0.0
  endloop
endfacet
facet normal -0.4067366430754796 -0.9135454576427438 -0.0
  outer loop
    vertex 3802.648891789961 254.86817589556168 5.0
    vertex 3802.0759427730854 255.12326923309382 0.0
    vertex 3802.648891789961 254.86817589556168 0.0
  endloop
endfacet
facet normal -0.4067366430754796 -0.9135454576427438 -0.0
  outer loop
    vertex 3802.0759427730854 255.12326923309382 0.0
    vertex 3802.648891789961 254.86817589556168 5.0
    vertex 3802.0759427730854 255.12326923309382 5.0
  endloop
endfacet
endsolid full-model
