solid full-model
facet normal 0.9945218953682193 -0.10452846326816773 -0.0
  outer loop
    vertex 3793.9559940313234 253.25923029683221 -1.3747336602421e-14
    vertex 3793.8904368335243 252.63549522437893 4.9999999999999885
    vertex 3793.8904368335243 252.63549522437893 -1.3747336602421e-14
  endloop
endfacet
facet normal 0.9945218953682193 -0.10452846326816773 -0.0
  outer loop
    vertex 3793.8904368335243 252.63549522437893 4.9999999999999885
    vertex 3793.9559940313234 253.25923029683221 -1.3747336602421e-14
    vertex 3793.9559940313234 253.25923029683221 4.9999999999999885
  endloop
endfacet
facet normal -0.5877852522928597 0.8090169943746667 -0.0
  outer loop
    vertex 3798.3904368335247 250.03741901302558 4.9999999999999885
    vertex 3798.8978286526008 250.40606074794673 -1.3747336602421e-14
    vertex 3798.3904368335247 250.03741901302558 -1.3747336602421e-14
  endloop
endfacet
facet normal -0.5877852522928597 0.8090169943746667 -0.0
  outer loop
    vertex 3798.8978286526008 250.40606074794673 -1.3747336602421e-14
    vertex 3798.3904368335247 250.03741901302558 4.9999999999999885
    vertex 3798.8978286526008 250.40606074794673 4.9999999999999885
  endloop
endfacet
facet normal -0.4067366430754796 0.9135454576427438 -0.0
  outer loop
    vertex 3797.817487816649 249.78232567549344 4.9999999999999885
    vertex 3798.3904368335247 250.03741901302558 -1.3747336602421e-14
    vertex 3797.817487816649 249.78232567549344 -1.3747336602421e-14
  endloop
endfacet
facet normal -0.4067366430754796 0.9135454576427438 -0.0
  outer loop
    vertex 3798.3904368335247 250.03741901302558 -1.3747336602421e-14
    vertex 3797.817487816649 249.78232567549344 4.9999999999999885
    vertex 3798.3904368335247 250.03741901302558 4.9999999999999885
  endloop
endfacet
facet normal 0.9510565162953362 0.30901699437438596 0.0
  outer loop
    vertex 3793.9559940313234 252.01176015192564 -1.3747336602421e-14
    vertex 3794.1498004605965 251.4152852951515 4.9999999999999885
    vertex 3794.1498004605965 251.4152852951515 -1.3747336602421e-14
  endloop
endfacet
facet normal 0.9510565162953362 0.30901699437438596 0.0
  outer loop
    vertex 3794.1498004605965 251.4152852951515 4.9999999999999885
    vertex 3793.9559940313234 252.01176015192564 -1.3747336602421e-14
    vertex 3793.9559940313234 252.01176015192564 4.9999999999999885
  endloop
endfacet
facet normal -0.0 1.0 -0.0
  outer loop
    vertex 3796.576851443722 249.6519295382741 4.9999999999999885
    vertex 3797.2040222233272 249.6519295382741 -1.3747336602421e-14
    vertex 3796.576851443722 249.6519295382741 -1.3747336602421e-14
  endloop
endfacet
facet normal -0.0 1.0 -0.0
  outer loop
    vertex 3797.2040222233272 249.6519295382741 -1.3747336602421e-14
    vertex 3796.576851443722 249.6519295382741 4.9999999999999885
    vertex 3797.2040222233272 249.6519295382741 4.9999999999999885
  endloop
endfacet
facet normal 0.7431448254771349 0.6691306063591463 0.0
  outer loop
    vertex 3794.4633858503994 250.8721394675015 -1.3747336602421e-14
    vertex 3794.883045014448 250.40606074794673 4.9999999999999885
    vertex 3794.883045014448 250.40606074794673 -1.3747336602421e-14
  endloop
endfacet
facet normal 0.7431448254771349 0.6691306063591463 0.0
  outer loop
    vertex 3794.883045014448 250.40606074794673 4.9999999999999885
    vertex 3794.4633858503994 250.8721394675015 -1.3747336602421e-14
    vertex 3794.4633858503994 250.8721394675015 4.9999999999999885
  endloop
endfacet
facet normal 0.8660254037845178 0.4999999999998633 0.0
  outer loop
    vertex 3794.1498004605965 251.4152852951515 -1.3747336602421e-14
    vertex 3794.4633858503994 250.8721394675015 4.9999999999999885
    vertex 3794.4633858503994 250.8721394675015 -1.3747336602421e-14
  endloop
endfacet
facet normal 0.8660254037845178 0.4999999999998633 0.0
  outer loop
    vertex 3794.4633858503994 250.8721394675015 4.9999999999999885
    vertex 3794.1498004605965 251.4152852951515 -1.3747336602421e-14
    vertex 3794.1498004605965 251.4152852951515 4.9999999999999885
  endloop
endfacet
facet normal 0.2079116908177725 0.9781476007338028 0.0
  outer loop
    vertex 3795.9633858504 249.78232567549344 4.9999999999999885
    vertex 3796.576851443722 249.6519295382741 -1.3747336602421e-14
    vertex 3795.9633858504 249.78232567549344 -1.3747336602421e-14
  endloop
endfacet
facet normal 0.2079116908177725 0.9781476007338028 0.0
  outer loop
    vertex 3796.576851443722 249.6519295382741 -1.3747336602421e-14
    vertex 3795.9633858504 249.78232567549344 4.9999999999999885
    vertex 3796.576851443722 249.6519295382741 4.9999999999999885
  endloop
endfacet
facet normal -0.7431448254771349 0.6691306063591463 -0.0
  outer loop
    vertex 3799.3174878166496 250.8721394675015 4.9999999999999885
    vertex 3798.8978286526008 250.40606074794673 -1.3747336602421e-14
    vertex 3798.8978286526008 250.40606074794673 4.9999999999999885
  endloop
endfacet
facet normal -0.7431448254771349 0.6691306063591463 -0.0
  outer loop
    vertex 3798.8978286526008 250.40606074794673 -1.3747336602421e-14
    vertex 3799.3174878166496 250.8721394675015 4.9999999999999885
    vertex 3799.3174878166496 250.8721394675015 -1.3747336602421e-14
  endloop
endfacet
facet normal 0.4067366430754796 0.9135454576427438 0.0
  outer loop
    vertex 3795.390436833524 250.03741901302558 4.9999999999999885
    vertex 3795.9633858504 249.78232567549344 -1.3747336602421e-14
    vertex 3795.390436833524 250.03741901302558 -1.3747336602421e-14
  endloop
endfacet
facet normal 0.4067366430754796 0.9135454576427438 0.0
  outer loop
    vertex 3795.9633858504 249.78232567549344 -1.3747336602421e-14
    vertex 3795.390436833524 250.03741901302558 4.9999999999999885
    vertex 3795.9633858504 249.78232567549344 4.9999999999999885
  endloop
endfacet
facet normal -0.2079116908177725 0.9781476007338028 -0.0
  outer loop
    vertex 3797.2040222233272 249.6519295382741 4.9999999999999885
    vertex 3797.817487816649 249.78232567549344 -1.3747336602421e-14
    vertex 3797.2040222233272 249.6519295382741 -1.3747336602421e-14
  endloop
endfacet
facet normal -0.2079116908177725 0.9781476007338028 -0.0
  outer loop
    vertex 3797.817487816649 249.78232567549344 -1.3747336602421e-14
    vertex 3797.2040222233272 249.6519295382741 4.9999999999999885
    vertex 3797.817487816649 249.78232567549344 4.9999999999999885
  endloop
endfacet
facet normal 0.9945218953682193 0.10452846326816773 0.0
  outer loop
    vertex 3793.8904368335243 252.63549522437893 -1.3747336602421e-14
    vertex 3793.9559940313234 252.01176015192564 4.9999999999999885
    vertex 3793.9559940313234 252.01176015192564 -1.3747336602421e-14
  endloop
endfacet
facet normal 0.9945218953682193 0.10452846326816773 0.0
  outer loop
    vertex 3793.9559940313234 252.01176015192564 4.9999999999999885
    vertex 3793.8904368335243 252.63549522437893 -1.3747336602421e-14
    vertex 3793.8904368335243 252.63549522437893 4.9999999999999885
  endloop
endfacet
facet normal 0.5877852522928597 0.8090169943746667 0.0
  outer loop
    vertex 3794.883045014448 250.40606074794673 4.9999999999999885
    vertex 3795.390436833524 250.03741901302558 -1.3747336602421e-14
    vertex 3794.883045014448 250.40606074794673 -1.3747336602421e-14
  endloop
endfacet
facet normal 0.5877852522928597 0.8090169943746667 0.0
  outer loop
    vertex 3795.390436833524 250.03741901302558 -1.3747336602421e-14
    vertex 3794.883045014448 250.40606074794673 4.9999999999999885
    vertex 3795.390436833524 250.03741901302558 4.9999999999999885
  endloop
endfacet
facet normal -0.8660254037845178 0.4999999999998633 -0.0
  outer loop
    vertex 3799.631073206452 251.4152852951515 4.9999999999999885
    vertex 3799.3174878166496 250.8721394675015 -1.3747336602421e-14
    vertex 3799.3174878166496 250.8721394675015 4.9999999999999885
  endloop
endfacet
facet normal -0.8660254037845178 0.4999999999998633 -0.0
  outer loop
    vertex 3799.3174878166496 250.8721394675015 -1.3747336602421e-14
    vertex 3799.631073206452 251.4152852951515 4.9999999999999885
    vertex 3799.631073206452 251.4152852951515 -1.3747336602421e-14
  endloop
endfacet
facet normal -0.0 1.0 0.0
  outer loop
    vertex 3792.3904368335247 257.13549522437893 4.9999999999999885
    vertex 3801.3904368335247 257.13549522437893 -1.127986593019159e-14
    vertex 3792.3904368335247 257.13549522437893 -1.127986593019159e-14
  endloop
endfacet
facet normal -0.0 1.0 0.0
  outer loop
    vertex 3801.3904368335247 257.13549522437893 -1.127986593019159e-14
    vertex 3792.3904368335247 257.13549522437893 4.9999999999999885
    vertex 3801.3904368335247 257.13549522437893 4.9999999999999885
  endloop
endfacet
facet normal -1.0 0.0 0.0
  outer loop
    vertex 3792.3904368335247 257.13549522437893 4.9999999999999885
    vertex 3792.3904368335247 248.13549522437896 -1.127986593019159e-14
    vertex 3792.3904368335247 248.13549522437896 4.9999999999999885
  endloop
endfacet
facet normal -1.0 0.0 0.0
  outer loop
    vertex 3792.3904368335247 248.13549522437896 -1.127986593019159e-14
    vertex 3792.3904368335247 257.13549522437893 4.9999999999999885
    vertex 3792.3904368335247 257.13549522437893 -1.127986593019159e-14
  endloop
endfacet
facet normal 1.0 0.0 0.0
  outer loop
    vertex 3801.3904368335247 257.13549522437893 -1.127986593019159e-14
    vertex 3801.3904368335247 248.13549522437896 4.9999999999999885
    vertex 3801.3904368335247 248.13549522437896 -1.127986593019159e-14
  endloop
endfacet
facet normal 1.0 0.0 0.0
  outer loop
    vertex 3801.3904368335247 248.13549522437896 4.9999999999999885
    vertex 3801.3904368335247 257.13549522437893 -1.127986593019159e-14
    vertex 3801.3904368335247 257.13549522437893 4.9999999999999885
  endloop
endfacet
facet normal -0.0 -1.0 -0.0
  outer loop
    vertex 3801.3904368335247 248.13549522437896 4.9999999999999885
    vertex 3792.3904368335247 248.13549522437896 -1.127986593019159e-14
    vertex 3801.3904368335247 248.13549522437896 -1.127986593019159e-14
  endloop
endfacet
facet normal -0.0 -1.0 -0.0
  outer loop
    vertex 3792.3904368335247 248.13549522437896 -1.127986593019159e-14
    vertex 3801.3904368335247 248.13549522437896 4.9999999999999885
    vertex 3792.3904368335247 248.13549522437896 4.9999999999999885
  endloop
endfacet
facet normal -0.0 -0.0 1.0
  outer loop
    vertex 3792.3904368335247 248.13549522437896 4.9999999999999885
    vertex 3793.9559940313234 252.01176015192564 4.9999999999999885
    vertex 3792.3904368335247 257.13549522437893 4.9999999999999885
  endloop
endfacet
facet normal -0.0 -0.0 1.0
  outer loop
    vertex 3793.9559940313234 252.01176015192564 4.9999999999999885
    vertex 3792.3904368335247 248.13549522437896 4.9999999999999885
    vertex 3794.1498004605965 251.4152852951515 4.9999999999999885
  endloop
endfacet
facet normal -0.0 -0.0 1.0
  outer loop
    vertex 3794.1498004605965 251.4152852951515 4.9999999999999885
    vertex 3792.3904368335247 248.13549522437896 4.9999999999999885
    vertex 3794.4633858503994 250.8721394675015 4.9999999999999885
  endloop
endfacet
facet normal -0.0 -0.0 1.0
  outer loop
    vertex 3794.4633858503994 250.8721394675015 4.9999999999999885
    vertex 3792.3904368335247 248.13549522437896 4.9999999999999885
    vertex 3794.883045014448 250.40606074794673 4.9999999999999885
  endloop
endfacet
facet normal -0.0 -0.0 1.0
  outer loop
    vertex 3794.883045014448 250.40606074794673 4.9999999999999885
    vertex 3792.3904368335247 248.13549522437896 4.9999999999999885
    vertex 3795.390436833524 250.03741901302558 4.9999999999999885
  endloop
endfacet
facet normal -0.0 -0.0 1.0
  outer loop
    vertex 3795.390436833524 250.03741901302558 4.9999999999999885
    vertex 3792.3904368335247 248.13549522437896 4.9999999999999885
    vertex 3795.9633858504 249.78232567549344 4.9999999999999885
  endloop
endfacet
facet normal -0.0 -0.0 1.0
  outer loop
    vertex 3795.9633858504 249.78232567549344 4.9999999999999885
    vertex 3792.3904368335247 248.13549522437896 4.9999999999999885
    vertex 3801.3904368335247 248.13549522437896 4.9999999999999885
  endloop
endfacet
facet normal -0.0 -0.0 1.0
  outer loop
    vertex 3792.3904368335247 257.13549522437893 4.9999999999999885
    vertex 3793.9559940313234 252.01176015192564 4.9999999999999885
    vertex 3793.8904368335243 252.63549522437893 4.9999999999999885
  endloop
endfacet
facet normal -0.0 -0.0 1.0
  outer loop
    vertex 3795.9633858504 249.78232567549344 4.9999999999999885
    vertex 3801.3904368335247 248.13549522437896 4.9999999999999885
    vertex 3796.576851443722 249.6519295382741 4.9999999999999885
  endloop
endfacet
facet normal -0.0 -0.0 1.0
  outer loop
    vertex 3796.576851443722 249.6519295382741 4.9999999999999885
    vertex 3801.3904368335247 248.13549522437896 4.9999999999999885
    vertex 3797.2040222233272 249.6519295382741 4.9999999999999885
  endloop
endfacet
facet normal -0.0 -0.0 1.0
  outer loop
    vertex 3797.2040222233272 249.6519295382741 4.9999999999999885
    vertex 3801.3904368335247 248.13549522437896 4.9999999999999885
    vertex 3797.817487816649 249.78232567549344 4.9999999999999885
  endloop
endfacet
facet normal -0.0 -0.0 1.0
  outer loop
    vertex 3797.817487816649 249.78232567549344 4.9999999999999885
    vertex 3801.3904368335247 248.13549522437896 4.9999999999999885
    vertex 3798.3904368335247 250.03741901302558 4.9999999999999885
  endloop
endfacet
facet normal -0.0 -0.0 1.0
  outer loop
    vertex 3798.3904368335247 250.03741901302558 4.9999999999999885
    vertex 3801.3904368335247 248.13549522437896 4.9999999999999885
    vertex 3798.8978286526008 250.40606074794673 4.9999999999999885
  endloop
endfacet
facet normal -0.0 -0.0 1.0
  outer loop
    vertex 3798.8978286526008 250.40606074794673 4.9999999999999885
    vertex 3801.3904368335247 248.13549522437896 4.9999999999999885
    vertex 3799.3174878166496 250.8721394675015 4.9999999999999885
  endloop
endfacet
facet normal -0.0 -0.0 1.0
  outer loop
    vertex 3799.3174878166496 250.8721394675015 4.9999999999999885
    vertex 3801.3904368335247 248.13549522437896 4.9999999999999885
    vertex 3799.631073206452 251.4152852951515 4.9999999999999885
  endloop
endfacet
facet normal -0.0 -0.0 1.0
  outer loop
    vertex 3799.631073206452 251.4152852951515 4.9999999999999885
    vertex 3801.3904368335247 248.13549522437896 4.9999999999999885
    vertex 3799.8248796357257 252.01176015192564 4.9999999999999885
  endloop
endfacet
facet normal -0.0 -0.0 1.0
  outer loop
    vertex 3799.8248796357257 252.01176015192564 4.9999999999999885
    vertex 3801.3904368335247 248.13549522437896 4.9999999999999885
    vertex 3799.8904368335243 252.63549522437893 4.9999999999999885
  endloop
endfacet
facet normal -0.0 -0.0 1.0
  outer loop
    vertex 3792.3904368335247 257.13549522437893 4.9999999999999885
    vertex 3795.9633858504 255.48866477326442 4.9999999999999885
    vertex 3801.3904368335247 257.13549522437893 4.9999999999999885
  endloop
endfacet
facet normal -0.0 -0.0 1.0
  outer loop
    vertex 3795.9633858504 255.48866477326442 4.9999999999999885
    vertex 3792.3904368335247 257.13549522437893 4.9999999999999885
    vertex 3795.390436833524 255.23357143573227 4.9999999999999885
  endloop
endfacet
facet normal -0.0 -0.0 1.0
  outer loop
    vertex 3795.390436833524 255.23357143573227 4.9999999999999885
    vertex 3792.3904368335247 257.13549522437893 4.9999999999999885
    vertex 3794.883045014448 254.86492970081113 4.9999999999999885
  endloop
endfacet
facet normal -0.0 -0.0 1.0
  outer loop
    vertex 3794.883045014448 254.86492970081113 4.9999999999999885
    vertex 3792.3904368335247 257.13549522437893 4.9999999999999885
    vertex 3794.4633858503994 254.39885098125637 4.9999999999999885
  endloop
endfacet
facet normal -0.0 -0.0 1.0
  outer loop
    vertex 3794.4633858503994 254.39885098125637 4.9999999999999885
    vertex 3792.3904368335247 257.13549522437893 4.9999999999999885
    vertex 3794.1498004605965 253.85570515360635 4.9999999999999885
  endloop
endfacet
facet normal -0.0 -0.0 1.0
  outer loop
    vertex 3794.1498004605965 253.85570515360635 4.9999999999999885
    vertex 3792.3904368335247 257.13549522437893 4.9999999999999885
    vertex 3793.9559940313234 253.25923029683221 4.9999999999999885
  endloop
endfacet
facet normal -0.0 -0.0 1.0
  outer loop
    vertex 3793.9559940313234 253.25923029683221 4.9999999999999885
    vertex 3792.3904368335247 257.13549522437893 4.9999999999999885
    vertex 3793.8904368335243 252.63549522437893 4.9999999999999885
  endloop
endfacet
facet normal -0.0 -0.0 1.0
  outer loop
    vertex 3801.3904368335247 257.13549522437893 4.9999999999999885
    vertex 3795.9633858504 255.48866477326442 4.9999999999999885
    vertex 3796.576851443722 255.6190609104838 4.9999999999999885
  endloop
endfacet
facet normal -0.0 -0.0 1.0
  outer loop
    vertex 3801.3904368335247 257.13549522437893 4.9999999999999885
    vertex 3796.576851443722 255.6190609104838 4.9999999999999885
    vertex 3797.2040222233272 255.6190609104838 4.9999999999999885
  endloop
endfacet
facet normal -0.0 -0.0 1.0
  outer loop
    vertex 3801.3904368335247 257.13549522437893 4.9999999999999885
    vertex 3797.2040222233272 255.6190609104838 4.9999999999999885
    vertex 3797.817487816649 255.48866477326442 4.9999999999999885
  endloop
endfacet
facet normal -0.0 -0.0 1.0
  outer loop
    vertex 3801.3904368335247 257.13549522437893 4.9999999999999885
    vertex 3797.817487816649 255.48866477326442 4.9999999999999885
    vertex 3798.3904368335247 255.23357143573227 4.9999999999999885
  endloop
endfacet
facet normal -0.0 -0.0 1.0
  outer loop
    vertex 3801.3904368335247 257.13549522437893 4.9999999999999885
    vertex 3798.3904368335247 255.23357143573227 4.9999999999999885
    vertex 3798.8978286526008 254.86492970081113 4.9999999999999885
  endloop
endfacet
facet normal -0.0 -0.0 1.0
  outer loop
    vertex 3801.3904368335247 257.13549522437893 4.9999999999999885
    vertex 3798.8978286526008 254.86492970081113 4.9999999999999885
    vertex 3799.3174878166496 254.39885098125637 4.9999999999999885
  endloop
endfacet
facet normal -0.0 -0.0 1.0
  outer loop
    vertex 3801.3904368335247 257.13549522437893 4.9999999999999885
    vertex 3799.3174878166496 254.39885098125637 4.9999999999999885
    vertex 3799.631073206452 253.85570515360635 4.9999999999999885
  endloop
endfacet
facet normal -0.0 -0.0 1.0
  outer loop
    vertex 3801.3904368335247 257.13549522437893 4.9999999999999885
    vertex 3799.631073206452 253.85570515360635 4.9999999999999885
    vertex 3799.8248796357257 253.25923029683221 4.9999999999999885
  endloop
endfacet
facet normal -0.0 -0.0 1.0
  outer loop
    vertex 3801.3904368335247 257.13549522437893 4.9999999999999885
    vertex 3799.8248796357257 253.25923029683221 4.9999999999999885
    vertex 3799.8904368335243 252.63549522437893 4.9999999999999885
  endloop
endfacet
facet normal -0.0 -0.0 1.0
  outer loop
    vertex 3801.3904368335247 257.13549522437893 4.9999999999999885
    vertex 3799.8904368335243 252.63549522437893 4.9999999999999885
    vertex 3801.3904368335247 248.13549522437896 4.9999999999999885
  endloop
endfacet
facet normal 0.8660254037845178 -0.4999999999998633 -0.0
  outer loop
    vertex 3794.4633858503994 254.39885098125637 -1.3747336602421e-14
    vertex 3794.1498004605965 253.85570515360635 4.9999999999999885
    vertex 3794.1498004605965 253.85570515360635 -1.3747336602421e-14
  endloop
endfacet
facet normal 0.8660254037845178 -0.4999999999998633 -0.0
  outer loop
    vertex 3794.1498004605965 253.85570515360635 4.9999999999999885
    vertex 3794.4633858503994 254.39885098125637 -1.3747336602421e-14
    vertex 3794.4633858503994 254.39885098125637 4.9999999999999885
  endloop
endfacet
facet normal 0.9510565162953362 -0.30901699437438596 -0.0
  outer loop
    vertex 3794.1498004605965 253.85570515360635 -1.3747336602421e-14
    vertex 3793.9559940313234 253.25923029683221 4.9999999999999885
    vertex 3793.9559940313234 253.25923029683221 -1.3747336602421e-14
  endloop
endfacet
facet normal 0.9510565162953362 -0.30901699437438596 -0.0
  outer loop
    vertex 3793.9559940313234 253.25923029683221 4.9999999999999885
    vertex 3794.1498004605965 253.85570515360635 -1.3747336602421e-14
    vertex 3794.1498004605965 253.85570515360635 4.9999999999999885
  endloop
endfacet
facet normal -0.9510565162953362 0.30901699437438596 -0.0
  outer loop
    vertex 3799.8248796357257 252.01176015192564 4.9999999999999885
    vertex 3799.631073206452 251.4152852951515 -1.3747336602421e-14
    vertex 3799.631073206452 251.4152852951515 4.9999999999999885
  endloop
endfacet
facet normal -0.9510565162953362 0.30901699437438596 -0.0
  outer loop
    vertex 3799.631073206452 251.4152852951515 -1.3747336602421e-14
    vertex 3799.8248796357257 252.01176015192564 4.9999999999999885
    vertex 3799.8248796357257 252.01176015192564 -1.3747336602421e-14
  endloop
endfacet
facet normal -0.9945218953682193 -0.10452846326816773 -0.0
  outer loop
    vertex 3799.8248796357257 253.25923029683221 4.9999999999999885
    vertex 3799.8904368335243 252.63549522437893 -1.3747336602421e-14
    vertex 3799.8904368335243 252.63549522437893 4.9999999999999885
  endloop
endfacet
facet normal -0.9945218953682193 -0.10452846326816773 -0.0
  outer loop
    vertex 3799.8904368335243 252.63549522437893 -1.3747336602421e-14
    vertex 3799.8248796357257 253.25923029683221 4.9999999999999885
    vertex 3799.8248796357257 253.25923029683221 -1.3747336602421e-14
  endloop
endfacet
facet normal 0.7431448254771349 -0.6691306063591463 -0.0
  outer loop
    vertex 3794.883045014448 254.86492970081113 -1.3747336602421e-14
    vertex 3794.4633858503994 254.39885098125637 4.9999999999999885
    vertex 3794.4633858503994 254.39885098125637 -1.3747336602421e-14
  endloop
endfacet
facet normal 0.7431448254771349 -0.6691306063591463 -0.0
  outer loop
    vertex 3794.4633858503994 254.39885098125637 4.9999999999999885
    vertex 3794.883045014448 254.86492970081113 -1.3747336602421e-14
    vertex 3794.883045014448 254.86492970081113 4.9999999999999885
  endloop
endfacet
facet normal -0.2079116908177725 -0.9781476007338028 -0.0
  outer loop
    vertex 3797.817487816649 255.48866477326442 4.9999999999999885
    vertex 3797.2040222233272 255.6190609104838 -1.3747336602421e-14
    vertex 3797.817487816649 255.48866477326442 -1.3747336602421e-14
  endloop
endfacet
facet normal -0.2079116908177725 -0.9781476007338028 -0.0
  outer loop
    vertex 3797.2040222233272 255.6190609104838 -1.3747336602421e-14
    vertex 3797.817487816649 255.48866477326442 4.9999999999999885
    vertex 3797.2040222233272 255.6190609104838 4.9999999999999885
  endloop
endfacet
facet normal 0.2079116908177725 -0.9781476007338028 -0.0
  outer loop
    vertex 3796.576851443722 255.6190609104838 4.9999999999999885
    vertex 3795.9633858504 255.48866477326442 -1.3747336602421e-14
    vertex 3796.576851443722 255.6190609104838 -1.3747336602421e-14
  endloop
endfacet
facet normal 0.2079116908177725 -0.9781476007338028 -0.0
  outer loop
    vertex 3795.9633858504 255.48866477326442 -1.3747336602421e-14
    vertex 3796.576851443722 255.6190609104838 4.9999999999999885
    vertex 3795.9633858504 255.48866477326442 4.9999999999999885
  endloop
endfacet
facet normal 0.5877852522928597 -0.8090169943746667 -0.0
  outer loop
    vertex 3795.390436833524 255.23357143573227 4.9999999999999885
    vertex 3794.883045014448 254.86492970081113 -1.3747336602421e-14
    vertex 3795.390436833524 255.23357143573227 -1.3747336602421e-14
  endloop
endfacet
facet normal 0.5877852522928597 -0.8090169943746667 -0.0
  outer loop
    vertex 3794.883045014448 254.86492970081113 -1.3747336602421e-14
    vertex 3795.390436833524 255.23357143573227 4.9999999999999885
    vertex 3794.883045014448 254.86492970081113 4.9999999999999885
  endloop
endfacet
facet normal -0.9945218953682193 0.10452846326816773 -0.0
  outer loop
    vertex 3799.8904368335243 252.63549522437893 4.9999999999999885
    vertex 3799.8248796357257 252.01176015192564 -1.3747336602421e-14
    vertex 3799.8248796357257 252.01176015192564 4.9999999999999885
  endloop
endfacet
facet normal -0.9945218953682193 0.10452846326816773 -0.0
  outer loop
    vertex 3799.8248796357257 252.01176015192564 -1.3747336602421e-14
    vertex 3799.8904368335243 252.63549522437893 4.9999999999999885
    vertex 3799.8904368335243 252.63549522437893 -1.3747336602421e-14
  endloop
endfacet
facet normal -0.5877852522928597 -0.8090169943746667 -0.0
  outer loop
    vertex 3798.8978286526008 254.86492970081113 4.9999999999999885
    vertex 3798.3904368335247 255.23357143573227 -1.3747336602421e-14
    vertex 3798.8978286526008 254.86492970081113 -1.3747336602421e-14
  endloop
endfacet
facet normal -0.5877852522928597 -0.8090169943746667 -0.0
  outer loop
    vertex 3798.3904368335247 255.23357143573227 -1.3747336602421e-14
    vertex 3798.8978286526008 254.86492970081113 4.9999999999999885
    vertex 3798.3904368335247 255.23357143573227 4.9999999999999885
  endloop
endfacet
facet normal -0.0 -1.0 -0.0
  outer loop
    vertex 3797.2040222233272 255.6190609104838 4.9999999999999885
    vertex 3796.576851443722 255.6190609104838 -1.3747336602421e-14
    vertex 3797.2040222233272 255.6190609104838 -1.3747336602421e-14
  endloop
endfacet
facet normal -0.0 -1.0 -0.0
  outer loop
    vertex 3796.576851443722 255.6190609104838 -1.3747336602421e-14
    vertex 3797.2040222233272 255.6190609104838 4.9999999999999885
    vertex 3796.576851443722 255.6190609104838 4.9999999999999885
  endloop
endfacet
facet normal -0.8660254037845178 -0.4999999999998633 -0.0
  outer loop
    vertex 3799.3174878166496 254.39885098125637 4.9999999999999885
    vertex 3799.631073206452 253.85570515360635 -1.3747336602421e-14
    vertex 3799.631073206452 253.85570515360635 4.9999999999999885
  endloop
endfacet
facet normal -0.8660254037845178 -0.4999999999998633 -0.0
  outer loop
    vertex 3799.631073206452 253.85570515360635 -1.3747336602421e-14
    vertex 3799.3174878166496 254.39885098125637 4.9999999999999885
    vertex 3799.3174878166496 254.39885098125637 -1.3747336602421e-14
  endloop
endfacet
facet normal -0.4067366430754796 -0.9135454576427438 -0.0
  outer loop
    vertex 3798.3904368335247 255.23357143573227 4.9999999999999885
    vertex 3797.817487816649 255.48866477326442 -1.3747336602421e-14
    vertex 3798.3904368335247 255.23357143573227 -1.3747336602421e-14
  endloop
endfacet
facet normal -0.4067366430754796 -0.9135454576427438 -0.0
  outer loop
    vertex 3797.817487816649 255.48866477326442 -1.3747336602421e-14
    vertex 3798.3904368335247 255.23357143573227 4.9999999999999885
    vertex 3797.817487816649 255.48866477326442 4.9999999999999885
  endloop
endfacet
facet normal -0.7431448254771349 -0.6691306063591463 -0.0
  outer loop
    vertex 3798.8978286526008 254.86492970081113 4.9999999999999885
    vertex 3799.3174878166496 254.39885098125637 -1.3747336602421e-14
    vertex 3799.3174878166496 254.39885098125637 4.9999999999999885
  endloop
endfacet
facet normal -0.7431448254771349 -0.6691306063591463 -0.0
  outer loop
    vertex 3799.3174878166496 254.39885098125637 -1.3747336602421e-14
    vertex 3798.8978286526008 254.86492970081113 4.9999999999999885
    vertex 3798.8978286526008 254.86492970081113 -1.3747336602421e-14
  endloop
endfacet
facet normal 0.4067366430754796 -0.9135454576427438 -0.0
  outer loop
    vertex 3795.9633858504 255.48866477326442 4.9999999999999885
    vertex 3795.390436833524 255.23357143573227 -1.3747336602421e-14
    vertex 3795.9633858504 255.48866477326442 -1.3747336602421e-14
  endloop
endfacet
facet normal 0.4067366430754796 -0.9135454576427438 -0.0
  outer loop
    vertex 3795.390436833524 255.23357143573227 -1.3747336602421e-14
    vertex 3795.9633858504 255.48866477326442 4.9999999999999885
    vertex 3795.390436833524 255.23357143573227 4.9999999999999885
  endloop
endfacet
facet normal -0.9510565162953362 -0.30901699437438596 -0.0
  outer loop
    vertex 3799.631073206452 253.85570515360635 4.9999999999999885
    vertex 3799.8248796357257 253.25923029683221 -1.3747336602421e-14
    vertex 3799.8248796357257 253.25923029683221 4.9999999999999885
  endloop
endfacet
facet normal -0.9510565162953362 -0.30901699437438596 -0.0
  outer loop
    vertex 3799.8248796357257 253.25923029683221 -1.3747336602421e-14
    vertex 3799.631073206452 253.85570515360635 4.9999999999999885
    vertex 3799.631073206452 253.85570515360635 -1.3747336602421e-14
  endloop
endfacet
endsolid full-model
