solid full-model
facet normal 8.210006390938636e-14 -0.8660254037844379 0.5000000000000012
  outer loop
    vertex 1461.2164598001693 197.86458767544002 114.0
    vertex 1457.2164598001689 195.6145876754399 110.10288568297047
    vertex 1461.2164598001686 195.61458767544 110.10288568297003
  endloop
endfacet
facet normal 8.210006390938636e-14 -0.8660254037844379 0.5000000000000012
  outer loop
    vertex 1457.2164598001689 195.6145876754399 110.10288568297047
    vertex 1461.2164598001693 197.86458767544002 114.0
    vertex 1457.2164598001693 197.8645876754399 114.00000000000044
  endloop
endfacet
facet normal -8.210006390938636e-14 0.8660254037844379 -0.5000000000000012
  outer loop
    vertex 1457.2164598001693 188.86458767543994 114.00000000000044
    vertex 1461.2164598001698 191.11458767544005 117.89711431702997
    vertex 1461.2164598001693 188.86458767544002 114.0
  endloop
endfacet
facet normal -8.210006390938636e-14 0.8660254037844379 -0.5000000000000012
  outer loop
    vertex 1461.2164598001698 191.11458767544005 117.89711431702997
    vertex 1457.2164598001693 188.86458767543994 114.00000000000044
    vertex 1457.21645980017 191.11458767543994 117.89711431703041
  endloop
endfacet
facet normal -3.521054176458594e-14 -0.86602540378444 -0.49999999999999745
  outer loop
    vertex 1461.2164598001698 195.61458767544002 117.89711431702997
    vertex 1457.2164598001693 197.8645876754399 114.00000000000044
    vertex 1461.2164598001693 197.86458767544002 114.0
  endloop
endfacet
facet normal -3.521054176458594e-14 -0.86602540378444 -0.49999999999999745
  outer loop
    vertex 1457.2164598001693 197.8645876754399 114.00000000000044
    vertex 1461.2164598001698 195.61458767544002 117.89711431702997
    vertex 1457.21645980017 195.61458767543994 117.89711431703041
  endloop
endfacet
facet normal -1.173106056739725e-13 -0.0 -1.0
  outer loop
    vertex 1461.2164598001698 195.61458767544002 117.89711431702997
    vertex 1457.21645980017 191.11458767543994 117.89711431703041
    vertex 1457.21645980017 195.61458767543994 117.89711431703041
  endloop
endfacet
facet normal -1.173106056739725e-13 -0.0 -1.0
  outer loop
    vertex 1457.21645980017 191.11458767543994 117.89711431703041
    vertex 1461.2164598001698 195.61458767544002 117.89711431702997
    vertex 1461.2164598001698 191.11458767544005 117.89711431702997
  endloop
endfacet
facet normal 3.521054176458594e-14 0.86602540378444 0.49999999999999745
  outer loop
    vertex 1457.2164598001689 191.11458767543994 110.10288568297047
    vertex 1461.2164598001693 188.86458767544002 114.0
    vertex 1461.2164598001686 191.11458767544002 110.10288568297003
  endloop
endfacet
facet normal 3.521054176458594e-14 0.86602540378444 0.49999999999999745
  outer loop
    vertex 1461.2164598001693 188.86458767544002 114.0
    vertex 1457.2164598001689 191.11458767543994 110.10288568297047
    vertex 1457.2164598001693 188.86458767543994 114.00000000000044
  endloop
endfacet
facet normal -2.707167823244644e-14 1.0 2.2785329178987393e-13
  outer loop
    vertex 1457.2164598001727 199.3645876754401 109.00000000000065
    vertex 1462.216459800174 199.36458767543795 119.00000000000007
    vertex 1462.2164598001727 199.36458767544025 109.00000000000007
  endloop
endfacet
facet normal -2.707167823244644e-14 1.0 2.2785329178987393e-13
  outer loop
    vertex 1462.216459800174 199.36458767543795 119.00000000000007
    vertex 1457.2164598001727 199.3645876754401 109.00000000000065
    vertex 1457.216459800174 199.36458767543783 119.00000000000067
  endloop
endfacet
facet normal 7.899394039080538e-14 0.5877852522924876 0.8090169943749369
  outer loop
    vertex 1462.216459800169 191.69176115954292 112.14213793630638
    vertex 1461.216459800169 192.11458767544002 111.83493649053891
    vertex 1461.216459800169 191.6917611595429 112.14213793630651
  endloop
endfacet
facet normal 7.899394039080538e-14 0.5877852522924876 0.8090169943749369
  outer loop
    vertex 1461.216459800169 192.11458767544002 111.83493649053891
    vertex 1462.216459800169 191.69176115954292 112.14213793630638
    vertex 1462.216459800169 192.11458767544005 111.83493649053878
  endloop
endfacet
facet normal 9.615752742005637e-14 0.4067366430757896 0.9135454576426055
  outer loop
    vertex 1461.216459800169 192.11458767544002 111.83493649053891
    vertex 1462.216459800169 192.5920451895027 111.62235870926199
    vertex 1461.2164598001689 192.59204518950267 111.62235870926212
  endloop
endfacet
facet normal 9.615752742005637e-14 0.4067366430757896 0.9135454576426055
  outer loop
    vertex 1462.216459800169 192.5920451895027 111.62235870926199
    vertex 1461.216459800169 192.11458767544002 111.83493649053891
    vertex 1462.216459800169 192.11458767544005 111.83493649053878
  endloop
endfacet
facet normal 1.09118569086037e-13 0.2079116908177775 0.9781476007338018
  outer loop
    vertex 1462.216459800169 192.5920451895027 111.62235870926199
    vertex 1461.2164598001689 193.10326651727087 111.51369526157931
    vertex 1461.2164598001689 192.59204518950267 111.62235870926212
  endloop
endfacet
facet normal 1.09118569086037e-13 0.2079116908177775 0.9781476007338018
  outer loop
    vertex 1461.2164598001689 193.10326651727087 111.51369526157931
    vertex 1462.216459800169 192.5920451895027 111.62235870926199
    vertex 1462.216459800169 193.10326651727092 111.51369526157919
  endloop
endfacet
facet normal 1.173106056739725e-13 0.0 1.0
  outer loop
    vertex 1462.216459800169 193.10326651727092 111.51369526157919
    vertex 1461.2164598001689 193.62590883360917 111.51369526157931
    vertex 1461.2164598001689 193.10326651727087 111.51369526157931
  endloop
endfacet
facet normal 1.173106056739725e-13 0.0 1.0
  outer loop
    vertex 1461.2164598001689 193.62590883360917 111.51369526157931
    vertex 1462.216459800169 193.10326651727092 111.51369526157919
    vertex 1462.216459800169 193.6259088336092 111.51369526157919
  endloop
endfacet
facet normal 1.2037560587521362e-13 -0.2079116908177775 0.9781476007338018
  outer loop
    vertex 1462.216459800169 193.6259088336092 111.51369526157919
    vertex 1461.2164598001689 194.13713016137737 111.62235870926212
    vertex 1461.2164598001689 193.62590883360917 111.51369526157931
  endloop
endfacet
facet normal 1.2037560587521362e-13 -0.2079116908177775 0.9781476007338018
  outer loop
    vertex 1461.2164598001689 194.13713016137737 111.62235870926212
    vertex 1462.216459800169 193.6259088336092 111.51369526157919
    vertex 1462.216459800169 194.13713016137743 111.62235870926199
  endloop
endfacet
facet normal 1.1081860683051714e-13 -0.587785252292467 0.8090169943749518
  outer loop
    vertex 1462.216459800169 194.61458767544005 111.83493649053878
    vertex 1461.216459800169 195.03741419133715 112.14213793630651
    vertex 1461.216459800169 194.61458767544 111.83493649053891
  endloop
endfacet
facet normal 1.1081860683051714e-13 -0.587785252292467 0.8090169943749518
  outer loop
    vertex 1461.216459800169 195.03741419133715 112.14213793630651
    vertex 1462.216459800169 194.61458767544005 111.83493649053878
    vertex 1462.216459800169 195.0374141913372 112.14213793630638
  endloop
endfacet
facet normal 1.181796144734641e-13 -0.40673664307580565 0.9135454576425984
  outer loop
    vertex 1462.216459800169 194.13713016137743 111.62235870926199
    vertex 1461.216459800169 194.61458767544 111.83493649053891
    vertex 1461.2164598001689 194.13713016137737 111.62235870926212
  endloop
endfacet
facet normal 1.181796144734641e-13 -0.40673664307580565 0.9135454576425984
  outer loop
    vertex 1461.216459800169 194.61458767544 111.83493649053891
    vertex 1462.216459800169 194.13713016137743 111.62235870926199
    vertex 1462.216459800169 194.61458767544005 111.83493649053878
  endloop
endfacet
facet normal 1.173106056739725e-13 0.0 1.0
  outer loop
    vertex 1461.2164598001686 191.11458767544002 110.10288568297003
    vertex 1457.2164598001689 195.6145876754399 110.10288568297047
    vertex 1457.2164598001689 191.11458767543994 110.10288568297047
  endloop
endfacet
facet normal 1.173106056739725e-13 0.0 1.0
  outer loop
    vertex 1457.2164598001689 195.6145876754399 110.10288568297047
    vertex 1461.2164598001686 191.11458767544002 110.10288568297003
    vertex 1461.2164598001686 195.61458767544 110.10288568297003
  endloop
endfacet
facet normal -1.2037560587521362e-13 0.2079116908177775 -0.9781476007338018
  outer loop
    vertex 1462.2164598001698 193.10326651727092 116.48630473842054
    vertex 1461.2164598001696 192.59204518950267 116.37764129073787
    vertex 1461.2164598001696 193.10326651727087 116.48630473842067
  endloop
endfacet
facet normal -1.2037560587521362e-13 0.2079116908177775 -0.9781476007338018
  outer loop
    vertex 1461.2164598001696 192.59204518950267 116.37764129073787
    vertex 1462.2164598001698 193.10326651727092 116.48630473842054
    vertex 1462.2164598001698 192.5920451895027 116.37764129073773
  endloop
endfacet
facet normal -3.521054176458984e-14 -0.8660254037844233 -0.5000000000000269
  outer loop
    vertex 1462.2164598001696 195.38713016137743 115.46946313073103
    vertex 1461.2164598001693 195.64845131954652 115.0168416076895
    vertex 1462.2164598001696 195.64845131954658 115.01684160768937
  endloop
endfacet
facet normal -3.521054176458984e-14 -0.8660254037844233 -0.5000000000000269
  outer loop
    vertex 1461.2164598001693 195.64845131954652 115.0168416076895
    vertex 1462.2164598001696 195.38713016137743 115.46946313073103
    vertex 1461.2164598001693 195.3871301613774 115.46946313073116
  endloop
endfacet
facet normal 1.4661079410462535e-14 -0.9945218953682746 -0.10452846326764269
  outer loop
    vertex 1462.2164598001693 195.80995667727458 114.51977922704425
    vertex 1461.2164598001693 195.86458767544002 114.0
    vertex 1462.2164598001693 195.86458767544005 113.99999999999986
  endloop
endfacet
facet normal 1.4661079410462535e-14 -0.9945218953682746 -0.10452846326764269
  outer loop
    vertex 1461.2164598001693 195.86458767544002 114.0
    vertex 1462.2164598001693 195.80995667727458 114.51977922704425
    vertex 1461.2164598001693 195.80995667727453 114.5197792270444
  endloop
endfacet
facet normal -9.861429430240244e-14 0.743144825477386 -0.6691306063588673
  outer loop
    vertex 1461.2164598001693 191.34204518950264 115.46946313073116
    vertex 1462.2164598001696 191.69176115954292 115.85786206369333
    vertex 1462.2164598001696 191.3420451895027 115.46946313073103
  endloop
endfacet
facet normal -9.861429430240244e-14 0.743144825477386 -0.6691306063588673
  outer loop
    vertex 1462.2164598001696 191.69176115954292 115.85786206369333
    vertex 1461.2164598001693 191.34204518950264 115.46946313073116
    vertex 1461.2164598001693 191.6917611595429 115.85786206369347
  endloop
endfacet
facet normal 9.861429430240244e-14 -0.743144825477386 0.6691306063588673
  outer loop
    vertex 1462.216459800169 195.38713016137743 112.53053686926869
    vertex 1461.216459800169 195.03741419133715 112.14213793630651
    vertex 1462.216459800169 195.0374141913372 112.14213793630638
  endloop
endfacet
facet normal 9.861429430240244e-14 -0.743144825477386 0.6691306063588673
  outer loop
    vertex 1461.216459800169 195.03741419133715 112.14213793630651
    vertex 1462.216459800169 195.38713016137743 112.53053686926869
    vertex 1461.216459800169 195.3871301613774 112.53053686926883
  endloop
endfacet
facet normal 8.210006390938896e-14 -0.8660254037844233 0.5000000000000269
  outer loop
    vertex 1462.216459800169 195.64845131954658 112.98315839231034
    vertex 1461.216459800169 195.3871301613774 112.53053686926883
    vertex 1462.216459800169 195.38713016137743 112.53053686926869
  endloop
endfacet
facet normal 8.210006390938896e-14 -0.8660254037844233 0.5000000000000269
  outer loop
    vertex 1461.216459800169 195.3871301613774 112.53053686926883
    vertex 1462.216459800169 195.64845131954658 112.98315839231034
    vertex 1461.216459800169 195.64845131954652 112.98315839231049
  endloop
endfacet
facet normal 6.19976667637133e-14 -0.9510565162951584 0.3090169943749325
  outer loop
    vertex 1462.2164598001693 195.80995667727458 113.48022077295546
    vertex 1461.216459800169 195.64845131954652 112.98315839231049
    vertex 1462.216459800169 195.64845131954658 112.98315839231034
  endloop
endfacet
facet normal 6.19976667637133e-14 -0.9510565162951584 0.3090169943749325
  outer loop
    vertex 1461.216459800169 195.64845131954652 112.98315839231049
    vertex 1462.2164598001693 195.80995667727458 113.48022077295546
    vertex 1461.2164598001693 195.80995667727453 113.4802207729556
  endloop
endfacet
facet normal -6.199766676371753e-14 0.9510565162951458 -0.3090169943749716
  outer loop
    vertex 1461.2164598001693 190.9192186736055 114.5197792270444
    vertex 1462.2164598001696 191.08072403133357 115.01684160768937
    vertex 1462.2164598001693 190.91921867360554 114.51977922704425
  endloop
endfacet
facet normal -6.199766676371753e-14 0.9510565162951458 -0.3090169943749716
  outer loop
    vertex 1462.2164598001696 191.08072403133357 115.01684160768937
    vertex 1461.2164598001693 190.9192186736055 114.5197792270444
    vertex 1461.2164598001693 191.08072403133355 115.0168416076895
  endloop
endfacet
facet normal -7.899394039080538e-14 -0.5877852522924876 -0.8090169943749369
  outer loop
    vertex 1462.2164598001696 195.0374141913372 115.85786206369333
    vertex 1461.2164598001693 194.61458767544002 116.16506350946108
    vertex 1461.2164598001693 195.03741419133715 115.85786206369347
  endloop
endfacet
facet normal -7.899394039080538e-14 -0.5877852522924876 -0.8090169943749369
  outer loop
    vertex 1461.2164598001693 194.61458767544002 116.16506350946108
    vertex 1462.2164598001696 195.0374141913372 115.85786206369333
    vertex 1462.2164598001696 194.61458767544008 116.16506350946094
  endloop
endfacet
facet normal 3.9185674082656036e-14 -0.9945218953682746 0.10452846326764269
  outer loop
    vertex 1462.2164598001693 195.86458767544005 113.99999999999986
    vertex 1461.2164598001693 195.80995667727453 113.4802207729556
    vertex 1462.2164598001693 195.80995667727458 113.48022077295546
  endloop
endfacet
facet normal 3.9185674082656036e-14 -0.9945218953682746 0.10452846326764269
  outer loop
    vertex 1461.2164598001693 195.80995667727453 113.4802207729556
    vertex 1462.2164598001693 195.86458767544005 113.99999999999986
    vertex 1461.2164598001693 195.86458767544002 114.0
  endloop
endfacet
facet normal -3.9185674082656036e-14 0.9945218953682746 -0.10452846326764269
  outer loop
    vertex 1461.2164598001693 190.86458767544002 114.0
    vertex 1462.2164598001693 190.91921867360554 114.51977922704425
    vertex 1462.2164598001693 190.86458767544008 113.99999999999986
  endloop
endfacet
facet normal -3.9185674082656036e-14 0.9945218953682746 -0.10452846326764269
  outer loop
    vertex 1462.2164598001693 190.91921867360554 114.51977922704425
    vertex 1461.2164598001693 190.86458767544002 114.0
    vertex 1461.2164598001693 190.9192186736055 114.5197792270444
  endloop
endfacet
facet normal 1.0504274783634482e-14 0.9510565162951584 0.3090169943749325
  outer loop
    vertex 1461.216459800169 191.08072403133352 112.98315839231049
    vertex 1462.2164598001693 190.91921867360554 113.48022077295546
    vertex 1462.216459800169 191.08072403133355 112.98315839231034
  endloop
endfacet
facet normal 1.0504274783634482e-14 0.9510565162951584 0.3090169943749325
  outer loop
    vertex 1462.2164598001693 190.91921867360554 113.48022077295546
    vertex 1461.216459800169 191.08072403133352 112.98315839231049
    vertex 1461.2164598001693 190.9192186736055 113.4802207729556
  endloop
endfacet
facet normal 3.521054176458984e-14 0.8660254037844233 0.5000000000000269
  outer loop
    vertex 1461.216459800169 191.34204518950264 112.53053686926883
    vertex 1462.216459800169 191.08072403133355 112.98315839231034
    vertex 1462.216459800169 191.3420451895027 112.53053686926869
  endloop
endfacet
facet normal 3.521054176458984e-14 0.8660254037844233 0.5000000000000269
  outer loop
    vertex 1462.216459800169 191.08072403133355 112.98315839231034
    vertex 1461.216459800169 191.34204518950264 112.53053686926883
    vertex 1461.216459800169 191.08072403133352 112.98315839231049
  endloop
endfacet
facet normal -1.0504274783634482e-14 -0.9510565162951584 -0.3090169943749325
  outer loop
    vertex 1462.2164598001696 195.64845131954658 115.01684160768937
    vertex 1461.2164598001693 195.80995667727453 114.5197792270444
    vertex 1462.2164598001693 195.80995667727458 114.51977922704425
  endloop
endfacet
facet normal -1.0504274783634482e-14 -0.9510565162951584 -0.3090169943749325
  outer loop
    vertex 1461.2164598001693 195.80995667727453 114.5197792270444
    vertex 1462.2164598001696 195.64845131954658 115.01684160768937
    vertex 1461.2164598001693 195.64845131954652 115.0168416076895
  endloop
endfacet
facet normal 5.837793911149998e-14 0.743144825477386 0.6691306063588673
  outer loop
    vertex 1461.216459800169 191.6917611595429 112.14213793630651
    vertex 1462.216459800169 191.3420451895027 112.53053686926869
    vertex 1462.216459800169 191.69176115954292 112.14213793630638
  endloop
endfacet
facet normal 5.837793911149998e-14 0.743144825477386 0.6691306063588673
  outer loop
    vertex 1462.216459800169 191.3420451895027 112.53053686926869
    vertex 1461.216459800169 191.6917611595429 112.14213793630651
    vertex 1461.216459800169 191.34204518950264 112.53053686926883
  endloop
endfacet
facet normal -1.173106056739725e-13 -0.0 -1.0
  outer loop
    vertex 1462.2164598001698 193.6259088336092 116.48630473842054
    vertex 1461.2164598001696 193.10326651727087 116.48630473842067
    vertex 1461.2164598001696 193.62590883360917 116.48630473842067
  endloop
endfacet
facet normal -1.173106056739725e-13 -0.0 -1.0
  outer loop
    vertex 1461.2164598001696 193.10326651727087 116.48630473842067
    vertex 1462.2164598001698 193.6259088336092 116.48630473842054
    vertex 1462.2164598001698 193.10326651727092 116.48630473842054
  endloop
endfacet
facet normal -1.4661079410462535e-14 0.9945218953682746 0.10452846326764269
  outer loop
    vertex 1461.2164598001693 190.9192186736055 113.4802207729556
    vertex 1462.2164598001693 190.86458767544008 113.99999999999986
    vertex 1462.2164598001693 190.91921867360554 113.48022077295546
  endloop
endfacet
facet normal -1.4661079410462535e-14 0.9945218953682746 0.10452846326764269
  outer loop
    vertex 1462.2164598001693 190.86458767544008 113.99999999999986
    vertex 1461.2164598001693 190.9192186736055 113.4802207729556
    vertex 1461.2164598001693 190.86458767544002 114.0
  endloop
endfacet
facet normal -0.40673664307570134 -2.9559589317040345e-13 0.9135454576426449
  outer loop
    vertex 1452.9890022861089 183.36458767543226 111.62235870926123
    vertex 1453.4664598001716 184.36458767543283 111.83493649053828
    vertex 1452.9890022861082 184.3645876754322 111.62235870926145
  endloop
endfacet
facet normal -0.40673664307570134 -2.9559589317040345e-13 0.9135454576426449
  outer loop
    vertex 1453.4664598001716 184.36458767543283 111.83493649053828
    vertex 1452.9890022861089 183.36458767543226 111.62235870926123
    vertex 1453.4664598001714 183.36458767543235 111.83493649053807
  endloop
endfacet
facet normal -8.632952654311298e-14 -2.255973186037789e-13 1.0
  outer loop
    vertex 1452.4777809583402 183.36458767543235 111.51369526157836
    vertex 1451.9551386420026 184.36458767543283 111.51369526157855
    vertex 1451.9551386420026 183.36458767543226 111.51369526157832
  endloop
endfacet
facet normal -8.632952654311298e-14 -2.255973186037789e-13 1.0
  outer loop
    vertex 1451.9551386420026 184.36458767543283 111.51369526157855
    vertex 1452.4777809583402 183.36458767543235 111.51369526157836
    vertex 1452.47778095834 184.3645876754323 111.51369526157859
  endloop
endfacet
facet normal -8.210006390938567e-14 0.8660254037844419 -0.4999999999999944
  outer loop
    vertex 1461.2164598001693 191.08072403133355 115.0168416076895
    vertex 1462.2164598001696 191.3420451895027 115.46946313073103
    vertex 1462.2164598001696 191.08072403133357 115.01684160768937
  endloop
endfacet
facet normal -8.210006390938567e-14 0.8660254037844419 -0.4999999999999944
  outer loop
    vertex 1462.2164598001696 191.3420451895027 115.46946313073103
    vertex 1461.2164598001693 191.08072403133355 115.0168416076895
    vertex 1461.2164598001693 191.34204518950264 115.46946313073116
  endloop
endfacet
facet normal -0.20791169081778418 -3.0344388048548144e-13 0.9781476007338004
  outer loop
    vertex 1452.4777809583402 183.36458767543235 111.51369526157836
    vertex 1452.9890022861082 184.3645876754322 111.62235870926145
    vertex 1452.47778095834 184.3645876754323 111.51369526157859
  endloop
endfacet
facet normal -0.20791169081778418 -3.0344388048548144e-13 0.9781476007338004
  outer loop
    vertex 1452.9890022861082 184.3645876754322 111.62235870926145
    vertex 1452.4777809583402 183.36458767543235 111.51369526157836
    vertex 1452.9890022861089 183.36458767543226 111.62235870926123
  endloop
endfacet
facet normal -1.09118569086037e-13 -0.2079116908177775 -0.9781476007338018
  outer loop
    vertex 1462.2164598001698 194.13713016137743 116.37764129073773
    vertex 1461.2164598001696 193.62590883360917 116.48630473842067
    vertex 1461.2164598001696 194.13713016137737 116.37764129073787
  endloop
endfacet
facet normal -1.09118569086037e-13 -0.2079116908177775 -0.9781476007338018
  outer loop
    vertex 1461.2164598001696 193.62590883360917 116.48630473842067
    vertex 1462.2164598001698 194.13713016137743 116.37764129073773
    vertex 1462.2164598001698 193.6259088336092 116.48630473842054
  endloop
endfacet
facet normal -1.181796144734641e-13 0.40673664307580565 -0.9135454576425984
  outer loop
    vertex 1461.2164598001696 192.59204518950267 116.37764129073787
    vertex 1462.2164598001696 192.11458767544008 116.16506350946094
    vertex 1461.2164598001693 192.11458767544002 116.16506350946108
  endloop
endfacet
facet normal -1.181796144734641e-13 0.40673664307580565 -0.9135454576425984
  outer loop
    vertex 1462.2164598001696 192.11458767544008 116.16506350946094
    vertex 1461.2164598001696 192.59204518950267 116.37764129073787
    vertex 1462.2164598001698 192.5920451895027 116.37764129073773
  endloop
endfacet
facet normal -1.1081860683051714e-13 0.587785252292467 -0.8090169943749518
  outer loop
    vertex 1462.2164598001696 192.11458767544008 116.16506350946094
    vertex 1461.2164598001693 191.6917611595429 115.85786206369347
    vertex 1461.2164598001693 192.11458767544002 116.16506350946108
  endloop
endfacet
facet normal -1.1081860683051714e-13 0.587785252292467 -0.8090169943749518
  outer loop
    vertex 1461.2164598001693 191.6917611595429 115.85786206369347
    vertex 1462.2164598001696 192.11458767544008 116.16506350946094
    vertex 1462.2164598001696 191.69176115954292 115.85786206369333
  endloop
endfacet
facet normal -9.615752742005637e-14 -0.4067366430757896 -0.9135454576426055
  outer loop
    vertex 1462.2164598001696 194.61458767544008 116.16506350946094
    vertex 1461.2164598001696 194.13713016137737 116.37764129073787
    vertex 1461.2164598001693 194.61458767544002 116.16506350946108
  endloop
endfacet
facet normal -9.615752742005637e-14 -0.4067366430757896 -0.9135454576426055
  outer loop
    vertex 1461.2164598001696 194.13713016137737 116.37764129073787
    vertex 1462.2164598001696 194.61458767544008 116.16506350946094
    vertex 1462.2164598001698 194.13713016137743 116.37764129073773
  endloop
endfacet
facet normal -5.837793911149998e-14 -0.743144825477386 -0.6691306063588673
  outer loop
    vertex 1462.2164598001696 195.0374141913372 115.85786206369333
    vertex 1461.2164598001693 195.3871301613774 115.46946313073116
    vertex 1462.2164598001696 195.38713016137743 115.46946313073103
  endloop
endfacet
facet normal -5.837793911149998e-14 -0.743144825477386 -0.6691306063588673
  outer loop
    vertex 1461.2164598001693 195.3871301613774 115.46946313073116
    vertex 1462.2164598001696 195.0374141913372 115.85786206369333
    vertex 1461.2164598001693 195.03741419133715 115.85786206369347
  endloop
endfacet
facet normal -1.0 -9.023892744153084e-14 1.173106056739762e-13
  outer loop
    vertex 1446.2164598001718 188.36458767543445 118.99999999999969
    vertex 1446.2164598001714 183.36458767543596 108.99999999999856
    vertex 1446.2164598001725 183.36458767543414 118.99999999999856
  endloop
endfacet
facet normal -1.0 -9.023892744153084e-14 1.173106056739762e-13
  outer loop
    vertex 1446.2164598001714 183.36458767543596 108.99999999999856
    vertex 1446.2164598001718 188.36458767543445 118.99999999999969
    vertex 1446.2164598001705 188.36458767543627 108.99999999999969
  endloop
endfacet
facet normal -0.587785252292784 3.991410981611482e-15 0.8090169943747216
  outer loop
    vertex 1453.8892863160681 183.36458767543243 112.14213793630574
    vertex 1453.4664598001716 184.36458767543283 111.83493649053828
    vertex 1453.4664598001714 183.36458767543235 111.83493649053807
  endloop
endfacet
facet normal -0.587785252292784 3.991410981611482e-15 0.8090169943747216
  outer loop
    vertex 1453.4664598001716 184.36458767543283 111.83493649053828
    vertex 1453.8892863160681 183.36458767543243 112.14213793630574
    vertex 1453.8892863160686 184.3645876754325 112.14213793630593
  endloop
endfacet
facet normal 0.4067366430754447 4.952040889945996e-13 -0.9135454576427593
  outer loop
    vertex 1451.4439173142337 184.36458767543158 116.37764129073699
    vertex 1450.9664598001712 183.3645876754318 116.16506350945997
    vertex 1450.9664598001702 184.3645876754314 116.1650635094602
  endloop
endfacet
facet normal 0.4067366430754447 4.952040889945996e-13 -0.9135454576427593
  outer loop
    vertex 1450.9664598001712 183.3645876754318 116.16506350945997
    vertex 1451.4439173142337 184.36458767543158 116.37764129073699
    vertex 1451.4439173142343 183.3645876754319 116.37764129073685
  endloop
endfacet
facet normal 0.7431448254774815 1.4341029438173608e-13 -0.6691306063587613
  outer loop
    vertex 1450.1939173142334 183.36458767543144 115.46946313072999
    vertex 1450.5436332842735 184.36458767543104 115.85786206369252
    vertex 1450.543633284274 183.36458767543127 115.8578620636923
  endloop
endfacet
facet normal 0.7431448254774815 1.4341029438173608e-13 -0.6691306063587613
  outer loop
    vertex 1450.5436332842735 184.36458767543104 115.85786206369252
    vertex 1450.1939173142334 183.36458767543144 115.46946313072999
    vertex 1450.1939173142337 184.3645876754313 115.46946313073019
  endloop
endfacet
facet normal 1.4889423027850869e-13 -1.0 -2.0303758674343073e-13
  outer loop
    vertex 1457.2164598001739 183.36458767543775 108.99999999999731
    vertex 1452.9890022861089 183.36458767543226 111.62235870926123
    vertex 1446.2164598001714 183.36458767543596 108.99999999999856
  endloop
endfacet
facet normal 1.4889423027850869e-13 -1.0 -2.0303758674343073e-13
  outer loop
    vertex 1452.9890022861089 183.36458767543226 111.62235870926123
    vertex 1457.2164598001739 183.36458767543775 108.99999999999731
    vertex 1453.4664598001714 183.36458767543235 111.83493649053807
  endloop
endfacet
facet normal 1.4889423027850869e-13 -1.0 -2.0303758674343073e-13
  outer loop
    vertex 1453.4664598001714 183.36458767543235 111.83493649053807
    vertex 1457.2164598001739 183.36458767543775 108.99999999999731
    vertex 1453.8892863160681 183.36458767543243 112.14213793630574
  endloop
endfacet
facet normal 1.4889423027850869e-13 -1.0 -2.0303758674343073e-13
  outer loop
    vertex 1453.8892863160681 183.36458767543243 112.14213793630574
    vertex 1457.2164598001739 183.36458767543775 108.99999999999731
    vertex 1454.2390022861089 183.36458767543226 112.5305368692681
  endloop
endfacet
facet normal 1.4889423027850869e-13 -1.0 -2.0303758674343073e-13
  outer loop
    vertex 1454.2390022861089 183.36458767543226 112.5305368692681
    vertex 1457.2164598001739 183.36458767543775 108.99999999999731
    vertex 1454.500323444278 183.36458767543235 112.98315839230975
  endloop
endfacet
facet normal 1.4889423027850869e-13 -1.0 -2.0303758674343073e-13
  outer loop
    vertex 1454.500323444278 183.36458767543235 112.98315839230975
    vertex 1457.2164598001739 183.36458767543775 108.99999999999731
    vertex 1457.216459800173 183.3645876754355 118.9999999999996
  endloop
endfacet
facet normal 1.4889423027850869e-13 -1.0 -2.0303758674343073e-13
  outer loop
    vertex 1446.2164598001714 183.36458767543596 108.99999999999856
    vertex 1452.9890022861089 183.36458767543226 111.62235870926123
    vertex 1452.4777809583402 183.36458767543235 111.51369526157836
  endloop
endfacet
facet normal 1.4889423027850869e-13 -1.0 -2.0303758674343073e-13
  outer loop
    vertex 1446.2164598001714 183.36458767543596 108.99999999999856
    vertex 1452.4777809583402 183.36458767543235 111.51369526157836
    vertex 1451.9551386420026 183.36458767543226 111.51369526157832
  endloop
endfacet
facet normal 1.4889423027850869e-13 -1.0 -2.0303758674343073e-13
  outer loop
    vertex 1454.500323444278 183.36458767543235 112.98315839230975
    vertex 1457.216459800173 183.3645876754355 118.9999999999996
    vertex 1454.6618288020054 183.3645876754319 113.4802207729549
  endloop
endfacet
facet normal 1.4889423027850869e-13 -1.0 -2.0303758674343073e-13
  outer loop
    vertex 1454.6618288020054 183.3645876754319 113.4802207729549
    vertex 1457.216459800173 183.3645876754355 118.9999999999996
    vertex 1454.716459800171 183.3645876754319 113.99999999999929
  endloop
endfacet
facet normal 1.4889423027850869e-13 -1.0 -2.0303758674343073e-13
  outer loop
    vertex 1454.716459800171 183.3645876754319 113.99999999999929
    vertex 1457.216459800173 183.3645876754355 118.9999999999996
    vertex 1454.6618288020054 183.3645876754319 114.51977922704368
  endloop
endfacet
facet normal 1.4889423027850869e-13 -1.0 -2.0303758674343073e-13
  outer loop
    vertex 1454.6618288020054 183.3645876754319 114.51977922704368
    vertex 1457.216459800173 183.3645876754355 118.9999999999996
    vertex 1454.5003234442772 183.36458767543172 115.01684160768876
  endloop
endfacet
facet normal 1.4889423027850869e-13 -1.0 -2.0303758674343073e-13
  outer loop
    vertex 1454.5003234442772 183.36458767543172 115.01684160768876
    vertex 1457.216459800173 183.3645876754355 118.9999999999996
    vertex 1454.2390022861084 183.36458767543144 115.46946313073045
  endloop
endfacet
facet normal 1.4889423027850869e-13 -1.0 -2.0303758674343073e-13
  outer loop
    vertex 1454.2390022861084 183.36458767543144 115.46946313073045
    vertex 1457.216459800173 183.3645876754355 118.9999999999996
    vertex 1453.8892863160681 183.36458767543164 115.8578620636927
  endloop
endfacet
facet normal 1.4889423027850869e-13 -1.0 -2.0303758674343073e-13
  outer loop
    vertex 1453.8892863160681 183.36458767543164 115.8578620636927
    vertex 1457.216459800173 183.3645876754355 118.9999999999996
    vertex 1453.4664598001714 183.36458767543144 116.16506350946024
  endloop
endfacet
facet normal 1.4889423027850869e-13 -1.0 -2.0303758674343073e-13
  outer loop
    vertex 1453.4664598001714 183.36458767543144 116.16506350946024
    vertex 1457.216459800173 183.3645876754355 118.9999999999996
    vertex 1452.9890022861086 183.36458767543172 116.37764129073699
  endloop
endfacet
facet normal 1.4889423027850869e-13 -1.0 -2.0303758674343073e-13
  outer loop
    vertex 1452.9890022861086 183.36458767543172 116.37764129073699
    vertex 1457.216459800173 183.3645876754355 118.9999999999996
    vertex 1452.4777809583404 183.3645876754318 116.48630473841972
  endloop
endfacet
facet normal 1.4889423027850869e-13 -1.0 -2.0303758674343073e-13
  outer loop
    vertex 1452.4777809583404 183.3645876754318 116.48630473841972
    vertex 1457.216459800173 183.3645876754355 118.9999999999996
    vertex 1446.2164598001725 183.36458767543414 118.99999999999856
  endloop
endfacet
facet normal 1.4889423027850869e-13 -1.0 -2.0303758674343073e-13
  outer loop
    vertex 1446.2164598001714 183.36458767543596 108.99999999999856
    vertex 1450.193917314234 183.36458767543206 112.53053686926765
    vertex 1446.2164598001725 183.36458767543414 118.99999999999856
  endloop
endfacet
facet normal 1.4889423027850869e-13 -1.0 -2.0303758674343073e-13
  outer loop
    vertex 1450.193917314234 183.36458767543206 112.53053686926765
    vertex 1446.2164598001714 183.36458767543596 108.99999999999856
    vertex 1450.543633284274 183.36458767543218 112.14213793630535
  endloop
endfacet
facet normal 1.4889423027850869e-13 -1.0 -2.0303758674343073e-13
  outer loop
    vertex 1450.543633284274 183.36458767543218 112.14213793630535
    vertex 1446.2164598001714 183.36458767543596 108.99999999999856
    vertex 1450.9664598001712 183.3645876754329 111.8349364905378
  endloop
endfacet
facet normal 1.4889423027850869e-13 -1.0 -2.0303758674343073e-13
  outer loop
    vertex 1450.9664598001712 183.3645876754329 111.8349364905378
    vertex 1446.2164598001714 183.36458767543596 108.99999999999856
    vertex 1451.4439173142346 183.36458767543252 111.6223587092611
  endloop
endfacet
facet normal 1.4889423027850869e-13 -1.0 -2.0303758674343073e-13
  outer loop
    vertex 1451.4439173142346 183.36458767543252 111.6223587092611
    vertex 1446.2164598001714 183.36458767543596 108.99999999999856
    vertex 1451.9551386420026 183.36458767543226 111.51369526157832
  endloop
endfacet
facet normal 1.4889423027850869e-13 -1.0 -2.0303758674343073e-13
  outer loop
    vertex 1446.2164598001725 183.36458767543414 118.99999999999856
    vertex 1450.193917314234 183.36458767543206 112.53053686926765
    vertex 1449.932596156065 183.36458767543164 112.98315839230926
  endloop
endfacet
facet normal 1.4889423027850869e-13 -1.0 -2.0303758674343073e-13
  outer loop
    vertex 1446.2164598001725 183.36458767543414 118.99999999999856
    vertex 1449.932596156065 183.36458767543164 112.98315839230926
    vertex 1449.7710907983367 183.36458767543127 113.48022077295435
  endloop
endfacet
facet normal 1.4889423027850869e-13 -1.0 -2.0303758674343073e-13
  outer loop
    vertex 1446.2164598001725 183.36458767543414 118.99999999999856
    vertex 1449.7710907983367 183.36458767543127 113.48022077295435
    vertex 1449.716459800171 183.36458767543152 113.99999999999875
  endloop
endfacet
facet normal 1.4889423027850869e-13 -1.0 -2.0303758674343073e-13
  outer loop
    vertex 1446.2164598001725 183.36458767543414 118.99999999999856
    vertex 1449.716459800171 183.36458767543152 113.99999999999875
    vertex 1449.7710907983367 183.36458767543127 114.51977922704314
  endloop
endfacet
facet normal 1.4889423027850869e-13 -1.0 -2.0303758674343073e-13
  outer loop
    vertex 1446.2164598001725 183.36458767543414 118.99999999999856
    vertex 1449.7710907983367 183.36458767543127 114.51977922704314
    vertex 1449.9325961560644 183.3645876754309 115.01684160768828
  endloop
endfacet
facet normal 1.4889423027850869e-13 -1.0 -2.0303758674343073e-13
  outer loop
    vertex 1446.2164598001725 183.36458767543414 118.99999999999856
    vertex 1449.9325961560644 183.3645876754309 115.01684160768828
    vertex 1450.1939173142334 183.36458767543144 115.46946313072999
  endloop
endfacet
facet normal 1.4889423027850869e-13 -1.0 -2.0303758674343073e-13
  outer loop
    vertex 1446.2164598001725 183.36458767543414 118.99999999999856
    vertex 1450.1939173142334 183.36458767543144 115.46946313072999
    vertex 1450.543633284274 183.36458767543127 115.8578620636923
  endloop
endfacet
facet normal 1.4889423027850869e-13 -1.0 -2.0303758674343073e-13
  outer loop
    vertex 1446.2164598001725 183.36458767543414 118.99999999999856
    vertex 1450.543633284274 183.36458767543127 115.8578620636923
    vertex 1450.9664598001712 183.3645876754318 116.16506350945997
  endloop
endfacet
facet normal 1.4889423027850869e-13 -1.0 -2.0303758674343073e-13
  outer loop
    vertex 1446.2164598001725 183.36458767543414 118.99999999999856
    vertex 1450.9664598001712 183.3645876754318 116.16506350945997
    vertex 1451.4439173142343 183.3645876754319 116.37764129073685
  endloop
endfacet
facet normal 1.4889423027850869e-13 -1.0 -2.0303758674343073e-13
  outer loop
    vertex 1446.2164598001725 183.36458767543414 118.99999999999856
    vertex 1451.4439173142343 183.3645876754319 116.37764129073685
    vertex 1451.955138642002 183.36458767543152 116.48630473841968
  endloop
endfacet
facet normal 1.4889423027850869e-13 -1.0 -2.0303758674343073e-13
  outer loop
    vertex 1446.2164598001725 183.36458767543414 118.99999999999856
    vertex 1451.955138642002 183.36458767543152 116.48630473841968
    vertex 1452.4777809583404 183.3645876754318 116.48630473841972
  endloop
endfacet
facet normal 0.8660254037844767 -4.9154908547641324e-14 -0.49999999999993405
  outer loop
    vertex 1449.9325961560644 184.36458767543095 115.0168416076885
    vertex 1450.1939173142334 183.36458767543144 115.46946313072999
    vertex 1449.9325961560644 183.3645876754309 115.01684160768828
  endloop
endfacet
facet normal 0.8660254037844767 -4.9154908547641324e-14 -0.49999999999993405
  outer loop
    vertex 1450.1939173142334 183.36458767543144 115.46946313072999
    vertex 1449.9325961560644 184.36458767543095 115.0168416076885
    vertex 1450.1939173142337 184.3645876754313 115.46946313073019
  endloop
endfacet
facet normal 0.20791169081762725 -1.2024549181384715e-13 0.9781476007338337
  outer loop
    vertex 1451.4439173142346 183.36458767543252 111.6223587092611
    vertex 1451.9551386420026 184.36458767543283 111.51369526157855
    vertex 1451.443917314234 184.3645876754322 111.62235870926123
  endloop
endfacet
facet normal 0.20791169081762725 -1.2024549181384715e-13 0.9781476007338337
  outer loop
    vertex 1451.9551386420026 184.36458767543283 111.51369526157855
    vertex 1451.4439173142346 183.36458767543252 111.6223587092611
    vertex 1451.9551386420026 183.36458767543226 111.51369526157832
  endloop
endfacet
facet normal -0.20791169081771815 1.1582630866225058e-13 -0.9781476007338143
  outer loop
    vertex 1452.989002286108 184.36458767543158 116.37764129073719
    vertex 1452.4777809583404 183.3645876754318 116.48630473841972
    vertex 1452.47778095834 184.36458767543158 116.48630473841995
  endloop
endfacet
facet normal -0.20791169081771815 1.1582630866225058e-13 -0.9781476007338143
  outer loop
    vertex 1452.4777809583404 183.3645876754318 116.48630473841972
    vertex 1452.989002286108 184.36458767543158 116.37764129073719
    vertex 1452.9890022861086 183.36458767543172 116.37764129073699
  endloop
endfacet
facet normal 0.5877852522924644 -2.339452480980309e-14 0.8090169943749538
  outer loop
    vertex 1450.9664598001712 183.3645876754329 111.8349364905378
    vertex 1450.543633284274 184.36458767543195 112.14213793630557
    vertex 1450.543633284274 183.36458767543218 112.14213793630535
  endloop
endfacet
facet normal 0.5877852522924644 -2.339452480980309e-14 0.8090169943749538
  outer loop
    vertex 1450.543633284274 184.36458767543195 112.14213793630557
    vertex 1450.9664598001712 183.3645876754329 111.8349364905378
    vertex 1450.9664598001707 184.3645876754322 111.83493649053803
  endloop
endfacet
facet normal 0.9945218953682611 2.904579591073129e-13 -0.10452846326777075
  outer loop
    vertex 1449.716459800171 183.36458767543152 113.99999999999875
    vertex 1449.7710907983362 184.3645876754313 114.51977922704336
    vertex 1449.7710907983367 183.36458767543127 114.51977922704314
  endloop
endfacet
facet normal 0.9945218953682611 2.904579591073129e-13 -0.10452846326777075
  outer loop
    vertex 1449.7710907983362 184.3645876754313 114.51977922704336
    vertex 1449.716459800171 183.36458767543152 113.99999999999875
    vertex 1449.7164598001707 184.3645876754314 113.99999999999896
  endloop
endfacet
facet normal -0.7431448254775094 6.125065959338435e-14 -0.6691306063587303
  outer loop
    vertex 1453.8892863160681 183.36458767543164 115.8578620636927
    vertex 1454.2390022861082 184.3645876754315 115.46946313073065
    vertex 1454.2390022861084 183.36458767543144 115.46946313073045
  endloop
endfacet
facet normal -0.7431448254775094 6.125065959338435e-14 -0.6691306063587303
  outer loop
    vertex 1454.2390022861082 184.3645876754315 115.46946313073065
    vertex 1453.8892863160681 183.36458767543164 115.8578620636927
    vertex 1453.8892863160681 184.3645876754315 115.85786206369288
  endloop
endfacet
facet normal 0.7431448254778915 -2.104617843114007e-13 0.669130606358306
  outer loop
    vertex 1450.543633284274 183.36458767543218 112.14213793630535
    vertex 1450.1939173142343 184.36458767543184 112.53053686926785
    vertex 1450.193917314234 183.36458767543206 112.53053686926765
  endloop
endfacet
facet normal 0.7431448254778915 -2.104617843114007e-13 0.669130606358306
  outer loop
    vertex 1450.1939173142343 184.36458767543184 112.53053686926785
    vertex 1450.543633284274 183.36458767543218 112.14213793630535
    vertex 1450.543633284274 184.36458767543195 112.14213793630557
  endloop
endfacet
facet normal 0.8660254037843698 -1.8530780970880927e-13 0.5000000000001196
  outer loop
    vertex 1450.193917314234 183.36458767543206 112.53053686926765
    vertex 1449.932596156065 184.36458767543166 112.98315839230949
    vertex 1449.932596156065 183.36458767543164 112.98315839230926
  endloop
endfacet
facet normal 0.8660254037843698 -1.8530780970880927e-13 0.5000000000001196
  outer loop
    vertex 1449.932596156065 184.36458767543166 112.98315839230949
    vertex 1450.193917314234 183.36458767543206 112.53053686926765
    vertex 1450.1939173142343 184.36458767543184 112.53053686926785
  endloop
endfacet
facet normal 0.4067366430752364 5.533529455223458e-14 0.9135454576428519
  outer loop
    vertex 1450.9664598001712 183.3645876754329 111.8349364905378
    vertex 1451.443917314234 184.3645876754322 111.62235870926123
    vertex 1450.9664598001707 184.3645876754322 111.83493649053803
  endloop
endfacet
facet normal 0.4067366430752364 5.533529455223458e-14 0.9135454576428519
  outer loop
    vertex 1451.443917314234 184.3645876754322 111.62235870926123
    vertex 1450.9664598001712 183.3645876754329 111.8349364905378
    vertex 1451.4439173142346 183.36458767543252 111.6223587092611
  endloop
endfacet
facet normal 0.9510565162951393 2.378823667803599e-13 -0.30901699437499164
  outer loop
    vertex 1449.7710907983367 183.36458767543127 114.51977922704314
    vertex 1449.9325961560644 184.36458767543095 115.0168416076885
    vertex 1449.9325961560644 183.3645876754309 115.01684160768828
  endloop
endfacet
facet normal 0.9510565162951393 2.378823667803599e-13 -0.30901699437499164
  outer loop
    vertex 1449.9325961560644 184.36458767543095 115.0168416076885
    vertex 1449.7710907983367 183.36458767543127 114.51977922704314
    vertex 1449.7710907983362 184.3645876754313 114.51977922704336
  endloop
endfacet
facet normal 8.632952654303846e-14 2.255973186037711e-13 -1.0
  outer loop
    vertex 1451.9551386420023 184.3645876754323 116.4863047384199
    vertex 1452.4777809583404 183.3645876754318 116.48630473841972
    vertex 1451.955138642002 183.36458767543152 116.48630473841968
  endloop
endfacet
facet normal 8.632952654303846e-14 2.255973186037711e-13 -1.0
  outer loop
    vertex 1452.4777809583404 183.3645876754318 116.48630473841972
    vertex 1451.9551386420023 184.3645876754323 116.4863047384199
    vertex 1452.47778095834 184.36458767543158 116.48630473841995
  endloop
endfacet
facet normal -0.9945218953682432 -5.596896961353152e-13 0.10452846326794155
  outer loop
    vertex 1454.7164598001705 184.36458767543184 113.9999999999995
    vertex 1454.6618288020054 183.3645876754319 113.4802207729549
    vertex 1454.716459800171 183.3645876754319 113.99999999999929
  endloop
endfacet
facet normal -0.9945218953682432 -5.596896961353152e-13 0.10452846326794155
  outer loop
    vertex 1454.6618288020054 183.3645876754319 113.4802207729549
    vertex 1454.7164598001705 184.36458767543184 113.9999999999995
    vertex 1454.6618288020047 184.3645876754315 113.48022077295511
  endloop
endfacet
facet normal 0.5877852522926339 5.53802830792465e-13 -0.8090169943748307
  outer loop
    vertex 1450.9664598001702 184.3645876754314 116.1650635094602
    vertex 1450.543633284274 183.36458767543127 115.8578620636923
    vertex 1450.5436332842735 184.36458767543104 115.85786206369252
  endloop
endfacet
facet normal 0.5877852522926339 5.53802830792465e-13 -0.8090169943748307
  outer loop
    vertex 1450.543633284274 183.36458767543127 115.8578620636923
    vertex 1450.9664598001702 184.3645876754314 116.1650635094602
    vertex 1450.9664598001712 183.3645876754318 116.16506350945997
  endloop
endfacet
facet normal -0.7431448254773485 -1.2831815552663967e-13 0.669130606358909
  outer loop
    vertex 1454.2390022861084 184.36458767543184 112.5305368692683
    vertex 1453.8892863160681 183.36458767543243 112.14213793630574
    vertex 1454.2390022861089 183.36458767543226 112.5305368692681
  endloop
endfacet
facet normal -0.7431448254773485 -1.2831815552663967e-13 0.669130606358909
  outer loop
    vertex 1453.8892863160681 183.36458767543243 112.14213793630574
    vertex 1454.2390022861084 184.36458767543184 112.5305368692683
    vertex 1453.8892863160686 184.3645876754325 112.14213793630593
  endloop
endfacet
facet normal 0.9945218953682611 2.4800865227695297e-13 0.10452846326777074
  outer loop
    vertex 1449.7710907983362 184.3645876754313 113.48022077295457
    vertex 1449.716459800171 183.36458767543152 113.99999999999875
    vertex 1449.7710907983367 183.36458767543127 113.48022077295435
  endloop
endfacet
facet normal 0.9945218953682611 2.4800865227695297e-13 0.10452846326777074
  outer loop
    vertex 1449.716459800171 183.36458767543152 113.99999999999875
    vertex 1449.7710907983362 184.3645876754313 113.48022077295457
    vertex 1449.7164598001707 184.3645876754314 113.99999999999896
  endloop
endfacet
facet normal -0.9510565162954944 -6.669894480277647e-13 0.3090169943738984
  outer loop
    vertex 1454.6618288020047 184.3645876754315 113.48022077295511
    vertex 1454.500323444278 183.36458767543235 112.98315839230975
    vertex 1454.6618288020054 183.3645876754319 113.4802207729549
  endloop
endfacet
facet normal -0.9510565162954944 -6.669894480277647e-13 0.3090169943738984
  outer loop
    vertex 1454.500323444278 183.36458767543235 112.98315839230975
    vertex 1454.6618288020047 184.3645876754315 113.48022077295511
    vertex 1454.5003234442775 184.36458767543184 112.98315839230996
  endloop
endfacet
facet normal 0.9510565162948225 1.0541090719781895e-13 0.30901699437596664
  outer loop
    vertex 1449.932596156065 183.36458767543164 112.98315839230926
    vertex 1449.7710907983362 184.3645876754313 113.48022077295457
    vertex 1449.7710907983367 183.36458767543127 113.48022077295435
  endloop
endfacet
facet normal 0.9510565162948225 1.0541090719781895e-13 0.30901699437596664
  outer loop
    vertex 1449.7710907983362 184.3645876754313 113.48022077295457
    vertex 1449.932596156065 183.36458767543164 112.98315839230926
    vertex 1449.932596156065 184.36458767543166 112.98315839230949
  endloop
endfacet
facet normal -0.9945218953682432 -5.172458730029497e-13 -0.10452846326794155
  outer loop
    vertex 1454.6618288020047 184.3645876754315 114.5197792270439
    vertex 1454.716459800171 183.3645876754319 113.99999999999929
    vertex 1454.6618288020054 183.3645876754319 114.51977922704368
  endloop
endfacet
facet normal -0.9945218953682432 -5.172458730029497e-13 -0.10452846326794155
  outer loop
    vertex 1454.716459800171 183.3645876754319 113.99999999999929
    vertex 1454.6618288020047 184.3645876754315 114.5197792270439
    vertex 1454.7164598001705 184.36458767543184 113.9999999999995
  endloop
endfacet
facet normal 0.20791169081791017 2.1405380643976806e-13 -0.9781476007337736
  outer loop
    vertex 1451.9551386420023 184.3645876754323 116.4863047384199
    vertex 1451.4439173142343 183.3645876754319 116.37764129073685
    vertex 1451.4439173142337 184.36458767543158 116.37764129073699
  endloop
endfacet
facet normal 0.20791169081791017 2.1405380643976806e-13 -0.9781476007337736
  outer loop
    vertex 1451.4439173142343 183.3645876754319 116.37764129073685
    vertex 1451.9551386420023 184.3645876754323 116.4863047384199
    vertex 1451.955138642002 183.36458767543152 116.48630473841968
  endloop
endfacet
facet normal -0.40673664307542895 7.537025168480525e-14 -0.9135454576427663
  outer loop
    vertex 1453.4664598001714 184.36458767543195 116.16506350946045
    vertex 1452.9890022861086 183.36458767543172 116.37764129073699
    vertex 1452.989002286108 184.36458767543158 116.37764129073719
  endloop
endfacet
facet normal -0.40673664307542895 7.537025168480525e-14 -0.9135454576427663
  outer loop
    vertex 1452.9890022861086 183.36458767543172 116.37764129073699
    vertex 1453.4664598001714 184.36458767543195 116.16506350946045
    vertex 1453.4664598001714 183.36458767543144 116.16506350946024
  endloop
endfacet
facet normal -0.8660254037846903 -1.2728517038283736e-13 -0.4999999999995642
  outer loop
    vertex 1454.2390022861082 184.3645876754315 115.46946313073065
    vertex 1454.5003234442772 183.36458767543172 115.01684160768876
    vertex 1454.2390022861084 183.36458767543144 115.46946313073045
  endloop
endfacet
facet normal -0.8660254037846903 -1.2728517038283736e-13 -0.4999999999995642
  outer loop
    vertex 1454.5003234442772 183.36458767543172 115.01684160768876
    vertex 1454.2390022861082 184.3645876754315 115.46946313073065
    vertex 1454.5003234442768 184.3645876754313 115.01684160768899
  endloop
endfacet
facet normal -0.5877852522927248 1.5513323207328466e-13 -0.8090169943747645
  outer loop
    vertex 1453.8892863160681 184.3645876754315 115.85786206369288
    vertex 1453.4664598001714 183.36458767543144 116.16506350946024
    vertex 1453.4664598001714 184.36458767543195 116.16506350946045
  endloop
endfacet
facet normal -0.5877852522927248 1.5513323207328466e-13 -0.8090169943747645
  outer loop
    vertex 1453.4664598001714 183.36458767543144 116.16506350946024
    vertex 1453.8892863160681 184.3645876754315 115.85786206369288
    vertex 1453.8892863160681 183.36458767543164 115.8578620636927
  endloop
endfacet
facet normal -0.86602540378453 -4.978947252925496e-13 0.49999999999984174
  outer loop
    vertex 1454.500323444278 183.36458767543235 112.98315839230975
    vertex 1454.2390022861084 184.36458767543184 112.5305368692683
    vertex 1454.2390022861089 183.36458767543226 112.5305368692681
  endloop
endfacet
facet normal -0.86602540378453 -4.978947252925496e-13 0.49999999999984174
  outer loop
    vertex 1454.2390022861084 184.36458767543184 112.5305368692683
    vertex 1454.500323444278 183.36458767543235 112.98315839230975
    vertex 1454.5003234442775 184.36458767543184 112.98315839230996
  endloop
endfacet
facet normal -0.9510565162951269 -4.4870936675216016e-13 -0.30901699437502966
  outer loop
    vertex 1454.5003234442768 184.3645876754313 115.01684160768899
    vertex 1454.6618288020054 183.3645876754319 114.51977922704368
    vertex 1454.5003234442772 183.36458767543172 115.01684160768876
  endloop
endfacet
facet normal -0.9510565162951269 -4.4870936675216016e-13 -0.30901699437502966
  outer loop
    vertex 1454.6618288020054 183.3645876754319 114.51977922704368
    vertex 1454.5003234442768 184.3645876754313 115.01684160768899
    vertex 1454.6618288020047 184.3645876754315 114.5197792270439
  endloop
endfacet
facet normal 1.0 2.7071678232473178e-14 -1.173106056739725e-13
  outer loop
    vertex 1462.2164598001732 188.36458767543826 108.99999999999757
    vertex 1462.2164598001693 190.91921867360554 113.48022077295546
    vertex 1462.2164598001693 190.86458767544008 113.99999999999986
  endloop
endfacet
facet normal 1.0 2.7071678232473178e-14 -1.173106056739725e-13
  outer loop
    vertex 1462.2164598001693 190.91921867360554 113.48022077295546
    vertex 1462.2164598001732 188.36458767543826 108.99999999999757
    vertex 1462.216459800169 191.08072403133355 112.98315839231034
  endloop
endfacet
facet normal 1.0 2.7071678232473178e-14 -1.173106056739725e-13
  outer loop
    vertex 1462.216459800169 191.08072403133355 112.98315839231034
    vertex 1462.2164598001732 188.36458767543826 108.99999999999757
    vertex 1462.216459800169 191.3420451895027 112.53053686926869
  endloop
endfacet
facet normal 1.0 2.7071678232473178e-14 -1.173106056739725e-13
  outer loop
    vertex 1462.216459800169 191.3420451895027 112.53053686926869
    vertex 1462.2164598001732 188.36458767543826 108.99999999999757
    vertex 1462.216459800169 191.69176115954292 112.14213793630638
  endloop
endfacet
facet normal 1.0 2.7071678232473178e-14 -1.173106056739725e-13
  outer loop
    vertex 1462.216459800169 191.69176115954292 112.14213793630638
    vertex 1462.2164598001732 188.36458767543826 108.99999999999757
    vertex 1462.216459800169 192.11458767544005 111.83493649053878
  endloop
endfacet
facet normal 1.0 2.7071678232473178e-14 -1.173106056739725e-13
  outer loop
    vertex 1462.216459800169 192.11458767544005 111.83493649053878
    vertex 1462.2164598001732 188.36458767543826 108.99999999999757
    vertex 1462.216459800169 192.5920451895027 111.62235870926199
  endloop
endfacet
facet normal 1.0 2.7071678232473178e-14 -1.173106056739725e-13
  outer loop
    vertex 1462.216459800169 192.5920451895027 111.62235870926199
    vertex 1462.2164598001732 188.36458767543826 108.99999999999757
    vertex 1462.2164598001727 199.36458767544025 109.00000000000007
  endloop
endfacet
facet normal 1.0 2.7071678232473178e-14 -1.173106056739725e-13
  outer loop
    vertex 1462.216459800169 192.5920451895027 111.62235870926199
    vertex 1462.2164598001727 199.36458767544025 109.00000000000007
    vertex 1462.216459800169 193.10326651727092 111.51369526157919
  endloop
endfacet
facet normal 1.0 2.7071678232473178e-14 -1.173106056739725e-13
  outer loop
    vertex 1462.216459800169 193.10326651727092 111.51369526157919
    vertex 1462.2164598001727 199.36458767544025 109.00000000000007
    vertex 1462.216459800169 193.6259088336092 111.51369526157919
  endloop
endfacet
facet normal 1.0 2.7071678232473178e-14 -1.173106056739725e-13
  outer loop
    vertex 1462.216459800169 193.6259088336092 111.51369526157919
    vertex 1462.2164598001727 199.36458767544025 109.00000000000007
    vertex 1462.216459800169 194.13713016137743 111.62235870926199
  endloop
endfacet
facet normal 1.0 2.7071678232473178e-14 -1.173106056739725e-13
  outer loop
    vertex 1462.216459800169 194.13713016137743 111.62235870926199
    vertex 1462.2164598001727 199.36458767544025 109.00000000000007
    vertex 1462.216459800169 194.61458767544005 111.83493649053878
  endloop
endfacet
facet normal 1.0 2.7071678232473178e-14 -1.173106056739725e-13
  outer loop
    vertex 1462.216459800169 194.61458767544005 111.83493649053878
    vertex 1462.2164598001727 199.36458767544025 109.00000000000007
    vertex 1462.216459800169 195.0374141913372 112.14213793630638
  endloop
endfacet
facet normal 1.0 2.7071678232473178e-14 -1.173106056739725e-13
  outer loop
    vertex 1462.216459800169 195.0374141913372 112.14213793630638
    vertex 1462.2164598001727 199.36458767544025 109.00000000000007
    vertex 1462.216459800169 195.38713016137743 112.53053686926869
  endloop
endfacet
facet normal 1.0 2.7071678232473178e-14 -1.173106056739725e-13
  outer loop
    vertex 1462.216459800169 195.38713016137743 112.53053686926869
    vertex 1462.2164598001727 199.36458767544025 109.00000000000007
    vertex 1462.216459800169 195.64845131954658 112.98315839231034
  endloop
endfacet
facet normal 1.0 2.7071678232473178e-14 -1.173106056739725e-13
  outer loop
    vertex 1462.216459800169 195.64845131954658 112.98315839231034
    vertex 1462.2164598001727 199.36458767544025 109.00000000000007
    vertex 1462.2164598001693 195.80995667727458 113.48022077295546
  endloop
endfacet
facet normal 1.0 2.7071678232473178e-14 -1.173106056739725e-13
  outer loop
    vertex 1462.2164598001693 195.80995667727458 113.48022077295546
    vertex 1462.2164598001727 199.36458767544025 109.00000000000007
    vertex 1462.2164598001693 195.86458767544005 113.99999999999986
  endloop
endfacet
facet normal 1.0 2.7071678232473178e-14 -1.173106056739725e-13
  outer loop
    vertex 1462.2164598001693 195.86458767544005 113.99999999999986
    vertex 1462.2164598001727 199.36458767544025 109.00000000000007
    vertex 1462.216459800174 199.36458767543795 119.00000000000007
  endloop
endfacet
facet normal 1.0 2.7071678232473178e-14 -1.173106056739725e-13
  outer loop
    vertex 1462.216459800174 188.36458767543795 118.99999999999984
    vertex 1462.2164598001698 192.5920451895027 116.37764129073773
    vertex 1462.216459800174 199.36458767543795 119.00000000000007
  endloop
endfacet
facet normal 1.0 2.7071678232473178e-14 -1.173106056739725e-13
  outer loop
    vertex 1462.2164598001698 192.5920451895027 116.37764129073773
    vertex 1462.216459800174 188.36458767543795 118.99999999999984
    vertex 1462.2164598001696 192.11458767544008 116.16506350946094
  endloop
endfacet
facet normal 1.0 2.7071678232473178e-14 -1.173106056739725e-13
  outer loop
    vertex 1462.2164598001696 192.11458767544008 116.16506350946094
    vertex 1462.216459800174 188.36458767543795 118.99999999999984
    vertex 1462.2164598001696 191.69176115954292 115.85786206369333
  endloop
endfacet
facet normal 1.0 2.7071678232473178e-14 -1.173106056739725e-13
  outer loop
    vertex 1462.2164598001696 191.69176115954292 115.85786206369333
    vertex 1462.216459800174 188.36458767543795 118.99999999999984
    vertex 1462.2164598001696 191.3420451895027 115.46946313073103
  endloop
endfacet
facet normal 1.0 2.7071678232473178e-14 -1.173106056739725e-13
  outer loop
    vertex 1462.2164598001696 191.3420451895027 115.46946313073103
    vertex 1462.216459800174 188.36458767543795 118.99999999999984
    vertex 1462.2164598001696 191.08072403133357 115.01684160768937
  endloop
endfacet
facet normal 1.0 2.7071678232473178e-14 -1.173106056739725e-13
  outer loop
    vertex 1462.2164598001696 191.08072403133357 115.01684160768937
    vertex 1462.216459800174 188.36458767543795 118.99999999999984
    vertex 1462.2164598001732 188.36458767543826 108.99999999999757
  endloop
endfacet
facet normal 1.0 2.7071678232473178e-14 -1.173106056739725e-13
  outer loop
    vertex 1462.2164598001696 191.08072403133357 115.01684160768937
    vertex 1462.2164598001732 188.36458767543826 108.99999999999757
    vertex 1462.2164598001693 190.91921867360554 114.51977922704425
  endloop
endfacet
facet normal 1.0 2.7071678232473178e-14 -1.173106056739725e-13
  outer loop
    vertex 1462.2164598001693 190.91921867360554 114.51977922704425
    vertex 1462.2164598001732 188.36458767543826 108.99999999999757
    vertex 1462.2164598001693 190.86458767544008 113.99999999999986
  endloop
endfacet
facet normal 1.0 2.7071678232473178e-14 -1.173106056739725e-13
  outer loop
    vertex 1462.216459800174 199.36458767543795 119.00000000000007
    vertex 1462.2164598001698 192.5920451895027 116.37764129073773
    vertex 1462.2164598001698 193.10326651727092 116.48630473842054
  endloop
endfacet
facet normal 1.0 2.7071678232473178e-14 -1.173106056739725e-13
  outer loop
    vertex 1462.216459800174 199.36458767543795 119.00000000000007
    vertex 1462.2164598001698 193.10326651727092 116.48630473842054
    vertex 1462.2164598001698 193.6259088336092 116.48630473842054
  endloop
endfacet
facet normal 1.0 2.7071678232473178e-14 -1.173106056739725e-13
  outer loop
    vertex 1462.216459800174 199.36458767543795 119.00000000000007
    vertex 1462.2164598001698 193.6259088336092 116.48630473842054
    vertex 1462.2164598001698 194.13713016137743 116.37764129073773
  endloop
endfacet
facet normal 1.0 2.7071678232473178e-14 -1.173106056739725e-13
  outer loop
    vertex 1462.216459800174 199.36458767543795 119.00000000000007
    vertex 1462.2164598001698 194.13713016137743 116.37764129073773
    vertex 1462.2164598001696 194.61458767544008 116.16506350946094
  endloop
endfacet
facet normal 1.0 2.7071678232473178e-14 -1.173106056739725e-13
  outer loop
    vertex 1462.216459800174 199.36458767543795 119.00000000000007
    vertex 1462.2164598001696 194.61458767544008 116.16506350946094
    vertex 1462.2164598001696 195.0374141913372 115.85786206369333
  endloop
endfacet
facet normal 1.0 2.7071678232473178e-14 -1.173106056739725e-13
  outer loop
    vertex 1462.216459800174 199.36458767543795 119.00000000000007
    vertex 1462.2164598001696 195.0374141913372 115.85786206369333
    vertex 1462.2164598001696 195.38713016137743 115.46946313073103
  endloop
endfacet
facet normal 1.0 2.7071678232473178e-14 -1.173106056739725e-13
  outer loop
    vertex 1462.216459800174 199.36458767543795 119.00000000000007
    vertex 1462.2164598001696 195.38713016137743 115.46946313073103
    vertex 1462.2164598001696 195.64845131954658 115.01684160768937
  endloop
endfacet
facet normal 1.0 2.7071678232473178e-14 -1.173106056739725e-13
  outer loop
    vertex 1462.216459800174 199.36458767543795 119.00000000000007
    vertex 1462.2164598001696 195.64845131954658 115.01684160768937
    vertex 1462.2164598001693 195.80995667727458 114.51977922704425
  endloop
endfacet
facet normal 1.0 2.7071678232473178e-14 -1.173106056739725e-13
  outer loop
    vertex 1462.216459800174 199.36458767543795 119.00000000000007
    vertex 1462.2164598001693 195.80995667727458 114.51977922704425
    vertex 1462.2164598001693 195.86458767544005 113.99999999999986
  endloop
endfacet
facet normal -0.8660254037844383 -2.333254386492248e-13 0.5000000000000007
  outer loop
    vertex 1456.71645980017 188.3645876754316 114.00000000000016
    vertex 1454.4664598001707 184.36458767543175 110.10288568296923
    vertex 1456.716459800171 184.3645876754316 113.99999999999925
  endloop
endfacet
facet normal -0.8660254037844383 -2.333254386492248e-13 0.5000000000000007
  outer loop
    vertex 1454.4664598001707 184.36458767543175 110.10288568296923
    vertex 1456.71645980017 188.3645876754316 114.00000000000016
    vertex 1454.46645980017 188.36458767543175 110.10288568297014
  endloop
endfacet
facet normal 0.8660254037844383 1.6752012789563994e-14 0.5000000000000007
  outer loop
    vertex 1449.96645980017 188.36458767543198 110.10288568297014
    vertex 1447.7164598001707 184.36458767543206 113.99999999999925
    vertex 1449.9664598001707 184.36458767543198 110.10288568296923
  endloop
endfacet
facet normal 0.8660254037844383 1.6752012789563994e-14 0.5000000000000007
  outer loop
    vertex 1447.7164598001707 184.36458767543206 113.99999999999925
    vertex 1449.96645980017 188.36458767543198 110.10288568297014
    vertex 1447.71645980017 188.36458767543206 114.00000000000016
  endloop
endfacet
facet normal -0.8660254037844383 -1.6752012789563994e-14 -0.5000000000000007
  outer loop
    vertex 1454.4664598001707 184.36458767543172 117.89711431702926
    vertex 1456.71645980017 188.3645876754316 114.00000000000016
    vertex 1456.716459800171 184.3645876754316 113.99999999999925
  endloop
endfacet
facet normal -0.8660254037844383 -1.6752012789563994e-14 -0.5000000000000007
  outer loop
    vertex 1456.71645980017 188.3645876754316 114.00000000000016
    vertex 1454.4664598001707 184.36458767543172 117.89711431702926
    vertex 1454.46645980017 188.3645876754317 117.89711431703017
  endloop
endfacet
facet normal 1.0857418701063228e-26 2.165734258596605e-13 -1.0
  outer loop
    vertex 1454.46645980017 188.3645876754317 117.89711431703017
    vertex 1449.9664598001707 184.36458767543195 117.89711431702926
    vertex 1449.96645980017 188.36458767543192 117.89711431703017
  endloop
endfacet
facet normal 1.0857418701063228e-26 2.165734258596605e-13 -1.0
  outer loop
    vertex 1449.9664598001707 184.36458767543195 117.89711431702926
    vertex 1454.46645980017 188.3645876754317 117.89711431703017
    vertex 1454.4664598001707 184.36458767543172 117.89711431702926
  endloop
endfacet
facet normal 0.8660254037844383 2.333254386492248e-13 -0.5000000000000007
  outer loop
    vertex 1447.7164598001707 184.36458767543206 113.99999999999925
    vertex 1449.96645980017 188.36458767543192 117.89711431703017
    vertex 1449.9664598001707 184.36458767543195 117.89711431702926
  endloop
endfacet
facet normal 0.8660254037844383 2.333254386492248e-13 -0.5000000000000007
  outer loop
    vertex 1449.96645980017 188.36458767543192 117.89711431703017
    vertex 1447.7164598001707 184.36458767543206 113.99999999999925
    vertex 1447.71645980017 188.36458767543206 114.00000000000016
  endloop
endfacet
facet normal -1.0857418701063228e-26 -2.165734258596605e-13 1.0
  outer loop
    vertex 1449.9664598001707 184.36458767543198 110.10288568296923
    vertex 1454.46645980017 188.36458767543175 110.10288568297014
    vertex 1449.96645980017 188.36458767543198 110.10288568297014
  endloop
endfacet
facet normal -1.0857418701063228e-26 -2.165734258596605e-13 1.0
  outer loop
    vertex 1454.46645980017 188.36458767543175 110.10288568297014
    vertex 1449.9664598001707 184.36458767543198 110.10288568296923
    vertex 1454.4664598001707 184.36458767543175 110.10288568296923
  endloop
endfacet
facet normal -0.6546536707086408 0.6546536707073214 -0.3779644730092136
  outer loop
    vertex 1454.46645980017 188.3645876754317 117.89711431703017
    vertex 1457.2164598001693 188.86458767543994 114.00000000000044
    vertex 1456.71645980017 188.3645876754316 114.00000000000016
  endloop
endfacet
facet normal -0.6546536707086408 0.6546536707073214 -0.3779644730092136
  outer loop
    vertex 1457.2164598001693 188.86458767543994 114.00000000000044
    vertex 1454.46645980017 188.3645876754317 117.89711431703017
    vertex 1453.829708454222 188.36458767543422 119.00000000000014
  endloop
endfacet
facet normal -0.6546536707086408 0.6546536707073214 -0.3779644730092136
  outer loop
    vertex 1457.2164598001693 188.86458767543994 114.00000000000044
    vertex 1453.829708454222 188.36458767543422 119.00000000000014
    vertex 1457.216459800172 191.75133902138808 119.00000000000044
  endloop
endfacet
facet normal -0.6546536707086408 0.6546536707073214 -0.3779644730092136
  outer loop
    vertex 1457.2164598001693 188.86458767543994 114.00000000000044
    vertex 1457.216459800172 191.75133902138808 119.00000000000044
    vertex 1457.21645980017 191.11458767543994 117.89711431703041
  endloop
endfacet
facet normal -1.0 2.1893985186097062e-13 1.3670888399558253e-13
  outer loop
    vertex 1457.216459800172 191.75133902138808 119.00000000000044
    vertex 1457.21645980017 195.61458767543994 117.89711431703041
    vertex 1457.21645980017 191.11458767543994 117.89711431703041
  endloop
endfacet
facet normal -1.0 2.1893985186097062e-13 1.3670888399558253e-13
  outer loop
    vertex 1457.21645980017 195.61458767543994 117.89711431703041
    vertex 1457.216459800172 191.75133902138808 119.00000000000044
    vertex 1457.216459800174 199.36458767543783 119.00000000000067
  endloop
endfacet
facet normal -1.0 2.1893985186097062e-13 1.3670888399558253e-13
  outer loop
    vertex 1457.21645980017 195.61458767543994 117.89711431703041
    vertex 1457.216459800174 199.36458767543783 119.00000000000067
    vertex 1457.2164598001693 197.8645876754399 114.00000000000044
  endloop
endfacet
facet normal -1.0 2.1893985186097062e-13 1.3670888399558253e-13
  outer loop
    vertex 1457.2164598001689 195.6145876754399 110.10288568297047
    vertex 1457.216459800171 191.75133902138893 108.99999999999892
    vertex 1457.2164598001689 191.11458767543994 110.10288568297047
  endloop
endfacet
facet normal -1.0 2.1893985186097062e-13 1.3670888399558253e-13
  outer loop
    vertex 1457.216459800171 191.75133902138893 108.99999999999892
    vertex 1457.2164598001689 195.6145876754399 110.10288568297047
    vertex 1457.2164598001727 199.3645876754401 109.00000000000065
  endloop
endfacet
facet normal -1.0 2.1893985186097062e-13 1.3670888399558253e-13
  outer loop
    vertex 1457.2164598001727 199.3645876754401 109.00000000000065
    vertex 1457.2164598001689 195.6145876754399 110.10288568297047
    vertex 1457.2164598001693 197.8645876754399 114.00000000000044
  endloop
endfacet
facet normal -1.0 2.1893985186097062e-13 1.3670888399558253e-13
  outer loop
    vertex 1457.2164598001727 199.3645876754401 109.00000000000065
    vertex 1457.2164598001693 197.8645876754399 114.00000000000044
    vertex 1457.216459800174 199.36458767543783 119.00000000000067
  endloop
endfacet
facet normal -3.5846455841195434e-14 -5.2092463493630886e-14 1.0
  outer loop
    vertex 1446.2164598001725 183.36458767543414 118.99999999999856
    vertex 1453.829708454222 188.36458767543422 119.00000000000014
    vertex 1446.2164598001718 188.36458767543445 118.99999999999969
  endloop
endfacet
facet normal -3.5846455841195434e-14 -5.2092463493630886e-14 1.0
  outer loop
    vertex 1453.829708454222 188.36458767543422 119.00000000000014
    vertex 1446.2164598001725 183.36458767543414 118.99999999999856
    vertex 1457.216459800173 183.3645876754355 118.9999999999996
  endloop
endfacet
facet normal -3.5846455841195434e-14 -5.2092463493630886e-14 1.0
  outer loop
    vertex 1453.829708454222 188.36458767543422 119.00000000000014
    vertex 1457.216459800173 183.3645876754355 118.9999999999996
    vertex 1457.216459800172 191.75133902138808 119.00000000000044
  endloop
endfacet
facet normal -3.5846455841195434e-14 -5.2092463493630886e-14 1.0
  outer loop
    vertex 1457.216459800172 191.75133902138808 119.00000000000044
    vertex 1457.216459800173 183.3645876754355 118.9999999999996
    vertex 1457.216459800174 199.36458767543783 119.00000000000067
  endloop
endfacet
facet normal -3.5846455841195434e-14 -5.2092463493630886e-14 1.0
  outer loop
    vertex 1457.216459800174 199.36458767543783 119.00000000000067
    vertex 1457.216459800173 183.3645876754355 118.9999999999996
    vertex 1462.216459800174 188.36458767543795 118.99999999999984
  endloop
endfacet
facet normal -3.5846455841195434e-14 -5.2092463493630886e-14 1.0
  outer loop
    vertex 1457.216459800174 199.36458767543783 119.00000000000067
    vertex 1462.216459800174 188.36458767543795 118.99999999999984
    vertex 1462.216459800174 199.36458767543795 119.00000000000007
  endloop
endfacet
facet normal -1.2664467986216078e-13 2.1458359919695786e-13 -1.0
  outer loop
    vertex 1453.8297084542212 188.36458767543465 108.99999999999862
    vertex 1446.2164598001714 183.36458767543596 108.99999999999856
    vertex 1446.2164598001705 188.36458767543627 108.99999999999969
  endloop
endfacet
facet normal -1.2664467986216078e-13 2.1458359919695786e-13 -1.0
  outer loop
    vertex 1446.2164598001714 183.36458767543596 108.99999999999856
    vertex 1453.8297084542212 188.36458767543465 108.99999999999862
    vertex 1457.2164598001739 183.36458767543775 108.99999999999731
  endloop
endfacet
facet normal -1.2664467986216078e-13 2.1458359919695786e-13 -1.0
  outer loop
    vertex 1457.2164598001739 183.36458767543775 108.99999999999731
    vertex 1453.8297084542212 188.36458767543465 108.99999999999862
    vertex 1457.216459800171 191.75133902138893 108.99999999999892
  endloop
endfacet
facet normal -1.2664467986216078e-13 2.1458359919695786e-13 -1.0
  outer loop
    vertex 1457.2164598001739 183.36458767543775 108.99999999999731
    vertex 1457.216459800171 191.75133902138893 108.99999999999892
    vertex 1457.2164598001727 199.3645876754401 109.00000000000065
  endloop
endfacet
facet normal -1.2664467986216078e-13 2.1458359919695786e-13 -1.0
  outer loop
    vertex 1457.2164598001739 183.36458767543775 108.99999999999731
    vertex 1457.2164598001727 199.3645876754401 109.00000000000065
    vertex 1462.2164598001727 199.36458767544025 109.00000000000007
  endloop
endfacet
facet normal -1.2664467986216078e-13 2.1458359919695786e-13 -1.0
  outer loop
    vertex 1457.2164598001739 183.36458767543775 108.99999999999731
    vertex 1462.2164598001727 199.36458767544025 109.00000000000007
    vertex 1462.2164598001732 188.36458767543826 108.99999999999757
  endloop
endfacet
facet normal -0.6546536707087456 0.6546536707071644 0.37796447300930397
  outer loop
    vertex 1457.2164598001693 188.86458767543994 114.00000000000044
    vertex 1454.46645980017 188.36458767543175 110.10288568297014
    vertex 1456.71645980017 188.3645876754316 114.00000000000016
  endloop
endfacet
facet normal -0.6546536707087456 0.6546536707071644 0.37796447300930397
  outer loop
    vertex 1454.46645980017 188.36458767543175 110.10288568297014
    vertex 1457.2164598001693 188.86458767543994 114.00000000000044
    vertex 1453.8297084542212 188.36458767543465 108.99999999999862
  endloop
endfacet
facet normal -0.6546536707087456 0.6546536707071644 0.37796447300930397
  outer loop
    vertex 1453.8297084542212 188.36458767543465 108.99999999999862
    vertex 1457.2164598001693 188.86458767543994 114.00000000000044
    vertex 1457.216459800171 191.75133902138893 108.99999999999892
  endloop
endfacet
facet normal -0.6546536707087456 0.6546536707071644 0.37796447300930397
  outer loop
    vertex 1457.216459800171 191.75133902138893 108.99999999999892
    vertex 1457.2164598001693 188.86458767543994 114.00000000000044
    vertex 1457.2164598001689 191.11458767543994 110.10288568297047
  endloop
endfacet
facet normal 1.6995728475158234e-13 1.0 7.165622822380838e-14
  outer loop
    vertex 1446.2164598001705 188.36458767543627 108.99999999999969
    vertex 1447.71645980017 188.36458767543206 114.00000000000016
    vertex 1449.96645980017 188.36458767543198 110.10288568297014
  endloop
endfacet
facet normal 1.6995728475158234e-13 1.0 7.165622822380838e-14
  outer loop
    vertex 1447.71645980017 188.36458767543206 114.00000000000016
    vertex 1446.2164598001705 188.36458767543627 108.99999999999969
    vertex 1446.2164598001718 188.36458767543445 118.99999999999969
  endloop
endfacet
facet normal 1.6995728475158234e-13 1.0 7.165622822380838e-14
  outer loop
    vertex 1447.71645980017 188.36458767543206 114.00000000000016
    vertex 1446.2164598001718 188.36458767543445 118.99999999999969
    vertex 1449.96645980017 188.36458767543192 117.89711431703017
  endloop
endfacet
facet normal 1.6995728475158234e-13 1.0 7.165622822380838e-14
  outer loop
    vertex 1449.96645980017 188.36458767543192 117.89711431703017
    vertex 1446.2164598001718 188.36458767543445 118.99999999999969
    vertex 1454.46645980017 188.3645876754317 117.89711431703017
  endloop
endfacet
facet normal 1.6995728475158234e-13 1.0 7.165622822380838e-14
  outer loop
    vertex 1454.46645980017 188.3645876754317 117.89711431703017
    vertex 1446.2164598001718 188.36458767543445 118.99999999999969
    vertex 1453.829708454222 188.36458767543422 119.00000000000014
  endloop
endfacet
facet normal 1.6995728475158234e-13 1.0 7.165622822380838e-14
  outer loop
    vertex 1446.2164598001705 188.36458767543627 108.99999999999969
    vertex 1454.46645980017 188.36458767543175 110.10288568297014
    vertex 1453.8297084542212 188.36458767543465 108.99999999999862
  endloop
endfacet
facet normal 1.6995728475158234e-13 1.0 7.165622822380838e-14
  outer loop
    vertex 1454.46645980017 188.36458767543175 110.10288568297014
    vertex 1446.2164598001705 188.36458767543627 108.99999999999969
    vertex 1449.96645980017 188.36458767543198 110.10288568297014
  endloop
endfacet
facet normal 5.013273746751752e-14 1.0 5.788829894416826e-15
  outer loop
    vertex 1449.9664598001707 184.36458767543198 110.10288568296923
    vertex 1450.9664598001707 184.3645876754322 111.83493649053803
    vertex 1454.4664598001707 184.36458767543175 110.10288568296923
  endloop
endfacet
facet normal 5.013273746751752e-14 1.0 5.788829894416826e-15
  outer loop
    vertex 1450.9664598001707 184.3645876754322 111.83493649053803
    vertex 1449.9664598001707 184.36458767543198 110.10288568296923
    vertex 1447.7164598001707 184.36458767543206 113.99999999999925
  endloop
endfacet
facet normal 5.013273746751752e-14 1.0 5.788829894416826e-15
  outer loop
    vertex 1454.4664598001707 184.36458767543175 110.10288568296923
    vertex 1450.9664598001707 184.3645876754322 111.83493649053803
    vertex 1451.443917314234 184.3645876754322 111.62235870926123
  endloop
endfacet
facet normal 5.013273746751752e-14 1.0 5.788829894416826e-15
  outer loop
    vertex 1454.4664598001707 184.36458767543175 110.10288568296923
    vertex 1451.443917314234 184.3645876754322 111.62235870926123
    vertex 1451.9551386420026 184.36458767543283 111.51369526157855
  endloop
endfacet
facet normal 5.013273746751752e-14 1.0 5.788829894416826e-15
  outer loop
    vertex 1450.9664598001707 184.3645876754322 111.83493649053803
    vertex 1447.7164598001707 184.36458767543206 113.99999999999925
    vertex 1450.543633284274 184.36458767543195 112.14213793630557
  endloop
endfacet
facet normal 5.013273746751752e-14 1.0 5.788829894416826e-15
  outer loop
    vertex 1450.543633284274 184.36458767543195 112.14213793630557
    vertex 1447.7164598001707 184.36458767543206 113.99999999999925
    vertex 1450.1939173142343 184.36458767543184 112.53053686926785
  endloop
endfacet
facet normal 5.013273746751752e-14 1.0 5.788829894416826e-15
  outer loop
    vertex 1450.1939173142343 184.36458767543184 112.53053686926785
    vertex 1447.7164598001707 184.36458767543206 113.99999999999925
    vertex 1449.932596156065 184.36458767543166 112.98315839230949
  endloop
endfacet
facet normal 5.013273746751752e-14 1.0 5.788829894416826e-15
  outer loop
    vertex 1449.932596156065 184.36458767543166 112.98315839230949
    vertex 1447.7164598001707 184.36458767543206 113.99999999999925
    vertex 1449.7710907983362 184.3645876754313 113.48022077295457
  endloop
endfacet
facet normal 5.013273746751752e-14 1.0 5.788829894416826e-15
  outer loop
    vertex 1449.7710907983362 184.3645876754313 113.48022077295457
    vertex 1447.7164598001707 184.36458767543206 113.99999999999925
    vertex 1449.7164598001707 184.3645876754314 113.99999999999896
  endloop
endfacet
facet normal 5.013273746751752e-14 1.0 5.788829894416826e-15
  outer loop
    vertex 1449.7164598001707 184.3645876754314 113.99999999999896
    vertex 1447.7164598001707 184.36458767543206 113.99999999999925
    vertex 1449.7710907983362 184.3645876754313 114.51977922704336
  endloop
endfacet
facet normal 5.013273746751752e-14 1.0 5.788829894416826e-15
  outer loop
    vertex 1449.7710907983362 184.3645876754313 114.51977922704336
    vertex 1447.7164598001707 184.36458767543206 113.99999999999925
    vertex 1449.9664598001707 184.36458767543195 117.89711431702926
  endloop
endfacet
facet normal 5.013273746751752e-14 1.0 5.788829894416826e-15
  outer loop
    vertex 1449.7710907983362 184.3645876754313 114.51977922704336
    vertex 1449.9664598001707 184.36458767543195 117.89711431702926
    vertex 1449.9325961560644 184.36458767543095 115.0168416076885
  endloop
endfacet
facet normal 5.013273746751752e-14 1.0 5.788829894416826e-15
  outer loop
    vertex 1449.9325961560644 184.36458767543095 115.0168416076885
    vertex 1449.9664598001707 184.36458767543195 117.89711431702926
    vertex 1450.1939173142337 184.3645876754313 115.46946313073019
  endloop
endfacet
facet normal 5.013273746751752e-14 1.0 5.788829894416826e-15
  outer loop
    vertex 1450.1939173142337 184.3645876754313 115.46946313073019
    vertex 1449.9664598001707 184.36458767543195 117.89711431702926
    vertex 1450.5436332842735 184.36458767543104 115.85786206369252
  endloop
endfacet
facet normal 5.013273746751752e-14 1.0 5.788829894416826e-15
  outer loop
    vertex 1450.5436332842735 184.36458767543104 115.85786206369252
    vertex 1449.9664598001707 184.36458767543195 117.89711431702926
    vertex 1450.9664598001702 184.3645876754314 116.1650635094602
  endloop
endfacet
facet normal 5.013273746751752e-14 1.0 5.788829894416826e-15
  outer loop
    vertex 1450.9664598001702 184.3645876754314 116.1650635094602
    vertex 1449.9664598001707 184.36458767543195 117.89711431702926
    vertex 1451.4439173142337 184.36458767543158 116.37764129073699
  endloop
endfacet
facet normal 5.013273746751752e-14 1.0 5.788829894416826e-15
  outer loop
    vertex 1451.4439173142337 184.36458767543158 116.37764129073699
    vertex 1449.9664598001707 184.36458767543195 117.89711431702926
    vertex 1451.9551386420023 184.3645876754323 116.4863047384199
  endloop
endfacet
facet normal 5.013273746751752e-14 1.0 5.788829894416826e-15
  outer loop
    vertex 1451.9551386420023 184.3645876754323 116.4863047384199
    vertex 1449.9664598001707 184.36458767543195 117.89711431702926
    vertex 1452.47778095834 184.36458767543158 116.48630473841995
  endloop
endfacet
facet normal 5.013273746751752e-14 1.0 5.788829894416826e-15
  outer loop
    vertex 1454.4664598001707 184.36458767543175 110.10288568296923
    vertex 1453.4664598001716 184.36458767543283 111.83493649053828
    vertex 1456.716459800171 184.3645876754316 113.99999999999925
  endloop
endfacet
facet normal 5.013273746751752e-14 1.0 5.788829894416826e-15
  outer loop
    vertex 1453.4664598001716 184.36458767543283 111.83493649053828
    vertex 1454.4664598001707 184.36458767543175 110.10288568296923
    vertex 1452.9890022861082 184.3645876754322 111.62235870926145
  endloop
endfacet
facet normal 5.013273746751752e-14 1.0 5.788829894416826e-15
  outer loop
    vertex 1452.9890022861082 184.3645876754322 111.62235870926145
    vertex 1454.4664598001707 184.36458767543175 110.10288568296923
    vertex 1452.47778095834 184.3645876754323 111.51369526157859
  endloop
endfacet
facet normal 5.013273746751752e-14 1.0 5.788829894416826e-15
  outer loop
    vertex 1452.47778095834 184.3645876754323 111.51369526157859
    vertex 1454.4664598001707 184.36458767543175 110.10288568296923
    vertex 1451.9551386420026 184.36458767543283 111.51369526157855
  endloop
endfacet
facet normal 5.013273746751752e-14 1.0 5.788829894416826e-15
  outer loop
    vertex 1456.716459800171 184.3645876754316 113.99999999999925
    vertex 1453.4664598001716 184.36458767543283 111.83493649053828
    vertex 1453.8892863160686 184.3645876754325 112.14213793630593
  endloop
endfacet
facet normal 5.013273746751752e-14 1.0 5.788829894416826e-15
  outer loop
    vertex 1456.716459800171 184.3645876754316 113.99999999999925
    vertex 1453.8892863160686 184.3645876754325 112.14213793630593
    vertex 1454.2390022861084 184.36458767543184 112.5305368692683
  endloop
endfacet
facet normal 5.013273746751752e-14 1.0 5.788829894416826e-15
  outer loop
    vertex 1456.716459800171 184.3645876754316 113.99999999999925
    vertex 1454.2390022861084 184.36458767543184 112.5305368692683
    vertex 1454.5003234442775 184.36458767543184 112.98315839230996
  endloop
endfacet
facet normal 5.013273746751752e-14 1.0 5.788829894416826e-15
  outer loop
    vertex 1456.716459800171 184.3645876754316 113.99999999999925
    vertex 1454.5003234442775 184.36458767543184 112.98315839230996
    vertex 1454.6618288020047 184.3645876754315 113.48022077295511
  endloop
endfacet
facet normal 5.013273746751752e-14 1.0 5.788829894416826e-15
  outer loop
    vertex 1456.716459800171 184.3645876754316 113.99999999999925
    vertex 1454.6618288020047 184.3645876754315 113.48022077295511
    vertex 1454.7164598001705 184.36458767543184 113.9999999999995
  endloop
endfacet
facet normal 5.013273746751752e-14 1.0 5.788829894416826e-15
  outer loop
    vertex 1456.716459800171 184.3645876754316 113.99999999999925
    vertex 1454.7164598001705 184.36458767543184 113.9999999999995
    vertex 1454.4664598001707 184.36458767543172 117.89711431702926
  endloop
endfacet
facet normal 5.013273746751752e-14 1.0 5.788829894416826e-15
  outer loop
    vertex 1454.4664598001707 184.36458767543172 117.89711431702926
    vertex 1454.7164598001705 184.36458767543184 113.9999999999995
    vertex 1454.6618288020047 184.3645876754315 114.5197792270439
  endloop
endfacet
facet normal 5.013273746751752e-14 1.0 5.788829894416826e-15
  outer loop
    vertex 1454.4664598001707 184.36458767543172 117.89711431702926
    vertex 1454.6618288020047 184.3645876754315 114.5197792270439
    vertex 1454.5003234442768 184.3645876754313 115.01684160768899
  endloop
endfacet
facet normal 5.013273746751752e-14 1.0 5.788829894416826e-15
  outer loop
    vertex 1454.4664598001707 184.36458767543172 117.89711431702926
    vertex 1454.5003234442768 184.3645876754313 115.01684160768899
    vertex 1454.2390022861082 184.3645876754315 115.46946313073065
  endloop
endfacet
facet normal 5.013273746751752e-14 1.0 5.788829894416826e-15
  outer loop
    vertex 1454.4664598001707 184.36458767543172 117.89711431702926
    vertex 1454.2390022861082 184.3645876754315 115.46946313073065
    vertex 1453.8892863160681 184.3645876754315 115.85786206369288
  endloop
endfacet
facet normal 5.013273746751752e-14 1.0 5.788829894416826e-15
  outer loop
    vertex 1454.4664598001707 184.36458767543172 117.89711431702926
    vertex 1453.8892863160681 184.3645876754315 115.85786206369288
    vertex 1453.4664598001714 184.36458767543195 116.16506350946045
  endloop
endfacet
facet normal 5.013273746751752e-14 1.0 5.788829894416826e-15
  outer loop
    vertex 1454.4664598001707 184.36458767543172 117.89711431702926
    vertex 1453.4664598001714 184.36458767543195 116.16506350946045
    vertex 1452.989002286108 184.36458767543158 116.37764129073719
  endloop
endfacet
facet normal 5.013273746751752e-14 1.0 5.788829894416826e-15
  outer loop
    vertex 1454.4664598001707 184.36458767543172 117.89711431702926
    vertex 1452.989002286108 184.36458767543158 116.37764129073719
    vertex 1452.47778095834 184.36458767543158 116.48630473841995
  endloop
endfacet
facet normal 5.013273746751752e-14 1.0 5.788829894416826e-15
  outer loop
    vertex 1454.4664598001707 184.36458767543172 117.89711431702926
    vertex 1452.47778095834 184.36458767543158 116.48630473841995
    vertex 1449.9664598001707 184.36458767543195 117.89711431702926
  endloop
endfacet
facet normal -1.0 2.8461791397162394e-30 1.389319174660054e-13
  outer loop
    vertex 1461.2164598001698 191.11458767544005 117.89711431702997
    vertex 1461.2164598001693 190.86458767544002 114.0
    vertex 1461.2164598001693 188.86458767544002 114.0
  endloop
endfacet
facet normal -1.0 2.8461791397162394e-30 1.389319174660054e-13
  outer loop
    vertex 1461.2164598001693 190.86458767544002 114.0
    vertex 1461.2164598001698 191.11458767544005 117.89711431702997
    vertex 1461.2164598001693 190.9192186736055 114.5197792270444
  endloop
endfacet
facet normal -1.0 2.8461791397162394e-30 1.389319174660054e-13
  outer loop
    vertex 1461.2164598001693 190.9192186736055 114.5197792270444
    vertex 1461.2164598001698 191.11458767544005 117.89711431702997
    vertex 1461.2164598001693 191.08072403133355 115.0168416076895
  endloop
endfacet
facet normal -1.0 2.8461791397162394e-30 1.389319174660054e-13
  outer loop
    vertex 1461.2164598001693 191.08072403133355 115.0168416076895
    vertex 1461.2164598001698 191.11458767544005 117.89711431702997
    vertex 1461.2164598001693 191.34204518950264 115.46946313073116
  endloop
endfacet
facet normal -1.0 2.8461791397162394e-30 1.389319174660054e-13
  outer loop
    vertex 1461.2164598001693 191.34204518950264 115.46946313073116
    vertex 1461.2164598001698 191.11458767544005 117.89711431702997
    vertex 1461.2164598001693 191.6917611595429 115.85786206369347
  endloop
endfacet
facet normal -1.0 2.8461791397162394e-30 1.389319174660054e-13
  outer loop
    vertex 1461.2164598001693 191.6917611595429 115.85786206369347
    vertex 1461.2164598001698 191.11458767544005 117.89711431702997
    vertex 1461.2164598001693 192.11458767544002 116.16506350946108
  endloop
endfacet
facet normal -1.0 2.8461791397162394e-30 1.389319174660054e-13
  outer loop
    vertex 1461.2164598001693 192.11458767544002 116.16506350946108
    vertex 1461.2164598001698 191.11458767544005 117.89711431702997
    vertex 1461.2164598001698 195.61458767544002 117.89711431702997
  endloop
endfacet
facet normal -1.0 2.8461791397162394e-30 1.389319174660054e-13
  outer loop
    vertex 1461.2164598001693 192.11458767544002 116.16506350946108
    vertex 1461.2164598001698 195.61458767544002 117.89711431702997
    vertex 1461.2164598001696 192.59204518950267 116.37764129073787
  endloop
endfacet
facet normal -1.0 2.8461791397162394e-30 1.389319174660054e-13
  outer loop
    vertex 1461.2164598001696 192.59204518950267 116.37764129073787
    vertex 1461.2164598001698 195.61458767544002 117.89711431702997
    vertex 1461.2164598001696 193.10326651727087 116.48630473842067
  endloop
endfacet
facet normal -1.0 2.8461791397162394e-30 1.389319174660054e-13
  outer loop
    vertex 1461.2164598001696 193.10326651727087 116.48630473842067
    vertex 1461.2164598001698 195.61458767544002 117.89711431702997
    vertex 1461.2164598001696 193.62590883360917 116.48630473842067
  endloop
endfacet
facet normal -1.0 2.8461791397162394e-30 1.389319174660054e-13
  outer loop
    vertex 1461.2164598001696 193.62590883360917 116.48630473842067
    vertex 1461.2164598001698 195.61458767544002 117.89711431702997
    vertex 1461.2164598001696 194.13713016137737 116.37764129073787
  endloop
endfacet
facet normal -1.0 2.8461791397162394e-30 1.389319174660054e-13
  outer loop
    vertex 1461.2164598001696 194.13713016137737 116.37764129073787
    vertex 1461.2164598001698 195.61458767544002 117.89711431702997
    vertex 1461.2164598001693 194.61458767544002 116.16506350946108
  endloop
endfacet
facet normal -1.0 2.8461791397162394e-30 1.389319174660054e-13
  outer loop
    vertex 1461.2164598001693 194.61458767544002 116.16506350946108
    vertex 1461.2164598001698 195.61458767544002 117.89711431702997
    vertex 1461.2164598001693 195.03741419133715 115.85786206369347
  endloop
endfacet
facet normal -1.0 2.8461791397162394e-30 1.389319174660054e-13
  outer loop
    vertex 1461.2164598001693 195.03741419133715 115.85786206369347
    vertex 1461.2164598001698 195.61458767544002 117.89711431702997
    vertex 1461.2164598001693 195.3871301613774 115.46946313073116
  endloop
endfacet
facet normal -1.0 2.8461791397162394e-30 1.389319174660054e-13
  outer loop
    vertex 1461.2164598001693 195.3871301613774 115.46946313073116
    vertex 1461.2164598001698 195.61458767544002 117.89711431702997
    vertex 1461.2164598001693 195.64845131954652 115.0168416076895
  endloop
endfacet
facet normal -1.0 2.8461791397162394e-30 1.389319174660054e-13
  outer loop
    vertex 1461.2164598001693 195.64845131954652 115.0168416076895
    vertex 1461.2164598001698 195.61458767544002 117.89711431702997
    vertex 1461.2164598001693 197.86458767544002 114.0
  endloop
endfacet
facet normal -1.0 2.8461791397162394e-30 1.389319174660054e-13
  outer loop
    vertex 1461.2164598001693 195.64845131954652 115.0168416076895
    vertex 1461.2164598001693 197.86458767544002 114.0
    vertex 1461.2164598001693 195.80995667727453 114.5197792270444
  endloop
endfacet
facet normal -1.0 2.8461791397162394e-30 1.389319174660054e-13
  outer loop
    vertex 1461.2164598001693 195.80995667727453 114.5197792270444
    vertex 1461.2164598001693 197.86458767544002 114.0
    vertex 1461.2164598001693 195.86458767544002 114.0
  endloop
endfacet
facet normal -1.0 2.8461791397162394e-30 1.389319174660054e-13
  outer loop
    vertex 1461.2164598001693 190.86458767544002 114.0
    vertex 1461.2164598001686 191.11458767544002 110.10288568297003
    vertex 1461.2164598001693 188.86458767544002 114.0
  endloop
endfacet
facet normal -1.0 2.8461791397162394e-30 1.389319174660054e-13
  outer loop
    vertex 1461.2164598001686 191.11458767544002 110.10288568297003
    vertex 1461.2164598001693 190.86458767544002 114.0
    vertex 1461.2164598001693 190.9192186736055 113.4802207729556
  endloop
endfacet
facet normal -1.0 2.8461791397162394e-30 1.389319174660054e-13
  outer loop
    vertex 1461.2164598001686 191.11458767544002 110.10288568297003
    vertex 1461.2164598001693 190.9192186736055 113.4802207729556
    vertex 1461.216459800169 191.08072403133352 112.98315839231049
  endloop
endfacet
facet normal -1.0 2.8461791397162394e-30 1.389319174660054e-13
  outer loop
    vertex 1461.2164598001686 191.11458767544002 110.10288568297003
    vertex 1461.216459800169 191.08072403133352 112.98315839231049
    vertex 1461.216459800169 191.34204518950264 112.53053686926883
  endloop
endfacet
facet normal -1.0 2.8461791397162394e-30 1.389319174660054e-13
  outer loop
    vertex 1461.2164598001686 191.11458767544002 110.10288568297003
    vertex 1461.216459800169 191.34204518950264 112.53053686926883
    vertex 1461.216459800169 191.6917611595429 112.14213793630651
  endloop
endfacet
facet normal -1.0 2.8461791397162394e-30 1.389319174660054e-13
  outer loop
    vertex 1461.2164598001686 191.11458767544002 110.10288568297003
    vertex 1461.216459800169 191.6917611595429 112.14213793630651
    vertex 1461.216459800169 192.11458767544002 111.83493649053891
  endloop
endfacet
facet normal -1.0 2.8461791397162394e-30 1.389319174660054e-13
  outer loop
    vertex 1461.2164598001686 191.11458767544002 110.10288568297003
    vertex 1461.216459800169 192.11458767544002 111.83493649053891
    vertex 1461.2164598001686 195.61458767544 110.10288568297003
  endloop
endfacet
facet normal -1.0 2.8461791397162394e-30 1.389319174660054e-13
  outer loop
    vertex 1461.2164598001686 195.61458767544 110.10288568297003
    vertex 1461.216459800169 192.11458767544002 111.83493649053891
    vertex 1461.2164598001689 192.59204518950267 111.62235870926212
  endloop
endfacet
facet normal -1.0 2.8461791397162394e-30 1.389319174660054e-13
  outer loop
    vertex 1461.2164598001686 195.61458767544 110.10288568297003
    vertex 1461.2164598001689 192.59204518950267 111.62235870926212
    vertex 1461.2164598001689 193.10326651727087 111.51369526157931
  endloop
endfacet
facet normal -1.0 2.8461791397162394e-30 1.389319174660054e-13
  outer loop
    vertex 1461.2164598001686 195.61458767544 110.10288568297003
    vertex 1461.2164598001689 193.10326651727087 111.51369526157931
    vertex 1461.2164598001689 193.62590883360917 111.51369526157931
  endloop
endfacet
facet normal -1.0 2.8461791397162394e-30 1.389319174660054e-13
  outer loop
    vertex 1461.2164598001686 195.61458767544 110.10288568297003
    vertex 1461.2164598001689 193.62590883360917 111.51369526157931
    vertex 1461.2164598001689 194.13713016137737 111.62235870926212
  endloop
endfacet
facet normal -1.0 2.8461791397162394e-30 1.389319174660054e-13
  outer loop
    vertex 1461.2164598001686 195.61458767544 110.10288568297003
    vertex 1461.2164598001689 194.13713016137737 111.62235870926212
    vertex 1461.216459800169 194.61458767544 111.83493649053891
  endloop
endfacet
facet normal -1.0 2.8461791397162394e-30 1.389319174660054e-13
  outer loop
    vertex 1461.2164598001686 195.61458767544 110.10288568297003
    vertex 1461.216459800169 194.61458767544 111.83493649053891
    vertex 1461.216459800169 195.03741419133715 112.14213793630651
  endloop
endfacet
facet normal -1.0 2.8461791397162394e-30 1.389319174660054e-13
  outer loop
    vertex 1461.2164598001686 195.61458767544 110.10288568297003
    vertex 1461.216459800169 195.03741419133715 112.14213793630651
    vertex 1461.216459800169 195.3871301613774 112.53053686926883
  endloop
endfacet
facet normal -1.0 2.8461791397162394e-30 1.389319174660054e-13
  outer loop
    vertex 1461.2164598001686 195.61458767544 110.10288568297003
    vertex 1461.216459800169 195.3871301613774 112.53053686926883
    vertex 1461.216459800169 195.64845131954652 112.98315839231049
  endloop
endfacet
facet normal -1.0 2.8461791397162394e-30 1.389319174660054e-13
  outer loop
    vertex 1461.2164598001686 195.61458767544 110.10288568297003
    vertex 1461.216459800169 195.64845131954652 112.98315839231049
    vertex 1461.2164598001693 197.86458767544002 114.0
  endloop
endfacet
facet normal -1.0 2.8461791397162394e-30 1.389319174660054e-13
  outer loop
    vertex 1461.2164598001693 197.86458767544002 114.0
    vertex 1461.216459800169 195.64845131954652 112.98315839231049
    vertex 1461.2164598001693 195.80995667727453 113.4802207729556
  endloop
endfacet
facet normal -1.0 2.8461791397162394e-30 1.389319174660054e-13
  outer loop
    vertex 1461.2164598001693 197.86458767544002 114.0
    vertex 1461.2164598001693 195.80995667727453 113.4802207729556
    vertex 1461.2164598001693 195.86458767544002 114.0
  endloop
endfacet
facet normal 0.7071067811866368 -0.7071067811864582 -9.732337922826841e-14
  outer loop
    vertex 1457.2164598001739 183.36458767543775 108.99999999999731
    vertex 1462.216459800174 188.36458767543795 118.99999999999984
    vertex 1457.216459800173 183.3645876754355 118.9999999999996
  endloop
endfacet
facet normal 0.7071067811866368 -0.7071067811864582 -9.732337922826841e-14
  outer loop
    vertex 1462.216459800174 188.36458767543795 118.99999999999984
    vertex 1457.2164598001739 183.36458767543775 108.99999999999731
    vertex 1462.2164598001732 188.36458767543826 108.99999999999757
  endloop
endfacet
endsolid full-model
