solid pixel table 2
facet normal 0.0 1.0 0.0
  outer loop
    vertex 5430.356620906049 246.94296488981365 30.000000000000014
    vertex 5463.696620906049 246.94296488981365 0.0
    vertex 5430.356620906049 246.94296488981365 0.0
  endloop
endfacet
facet normal 0.0 1.0 0.0
  outer loop
    vertex 5463.696620906049 246.94296488981365 0.0
    vertex 5430.356620906049 246.94296488981365 30.000000000000014
    vertex 5463.696620906049 246.94296488981365 30.000000000000014
  endloop
endfacet
facet normal -0.0 -1.0 -0.0
  outer loop
    vertex 5463.29662090605 246.54296488981365 30.000000000000014
    vertex 5430.756620906049 246.54296488981365 0.0
    vertex 5463.29662090605 246.54296488981365 0.0
  endloop
endfacet
facet normal -0.0 -1.0 -0.0
  outer loop
    vertex 5430.756620906049 246.54296488981365 0.0
    vertex 5463.29662090605 246.54296488981365 30.000000000000014
    vertex 5430.756620906049 246.54296488981365 30.000000000000014
  endloop
endfacet
facet normal 0.0 1.0 0.0
  outer loop
    vertex 5430.756620906049 214.01296488981365 30.000000000000014
    vertex 5463.29662090605 214.01296488981365 0.0
    vertex 5430.756620906049 214.01296488981365 0.0
  endloop
endfacet
facet normal 0.0 1.0 0.0
  outer loop
    vertex 5463.29662090605 214.01296488981365 0.0
    vertex 5430.756620906049 214.01296488981365 30.000000000000014
    vertex 5463.29662090605 214.01296488981365 30.000000000000014
  endloop
endfacet
facet normal 0.0 0.0 1.0
  outer loop
    vertex 5430.356620906049 213.61296488981364 30.000000000000014
    vertex 5430.756620906049 214.01296488981365 30.000000000000014
    vertex 5430.356620906049 246.94296488981365 30.000000000000014
  endloop
endfacet
facet normal 0.0 0.0 1.0
  outer loop
    vertex 5430.756620906049 214.01296488981365 30.000000000000014
    vertex 5430.356620906049 213.61296488981364 30.000000000000014
    vertex 5463.696620906049 213.61296488981364 30.000000000000014
  endloop
endfacet
facet normal 0.0 0.0 1.0
  outer loop
    vertex 5430.756620906049 214.01296488981365 30.000000000000014
    vertex 5463.696620906049 213.61296488981364 30.000000000000014
    vertex 5463.29662090605 214.01296488981365 30.000000000000014
  endloop
endfacet
facet normal 0.0 0.0 1.0
  outer loop
    vertex 5463.29662090605 214.01296488981365 30.000000000000014
    vertex 5463.696620906049 213.61296488981364 30.000000000000014
    vertex 5463.29662090605 246.54296488981365 30.000000000000014
  endloop
endfacet
facet normal 0.0 0.0 1.0
  outer loop
    vertex 5430.356620906049 246.94296488981365 30.000000000000014
    vertex 5430.756620906049 246.54296488981365 30.000000000000014
    vertex 5463.696620906049 246.94296488981365 30.000000000000014
  endloop
endfacet
facet normal 0.0 0.0 1.0
  outer loop
    vertex 5430.756620906049 246.54296488981365 30.000000000000014
    vertex 5430.356620906049 246.94296488981365 30.000000000000014
    vertex 5430.756620906049 214.01296488981365 30.000000000000014
  endloop
endfacet
facet normal 0.0 0.0 1.0
  outer loop
    vertex 5463.696620906049 246.94296488981365 30.000000000000014
    vertex 5430.756620906049 246.54296488981365 30.000000000000014
    vertex 5463.29662090605 246.54296488981365 30.000000000000014
  endloop
endfacet
facet normal 0.0 0.0 1.0
  outer loop
    vertex 5463.696620906049 246.94296488981365 30.000000000000014
    vertex 5463.29662090605 246.54296488981365 30.000000000000014
    vertex 5463.696620906049 213.61296488981364 30.000000000000014
  endloop
endfacet
facet normal -1.0 0.0 0.0
  outer loop
    vertex 5463.29662090605 246.54296488981365 30.000000000000014
    vertex 5463.29662090605 214.01296488981365 0.0
    vertex 5463.29662090605 214.01296488981365 30.000000000000014
  endloop
endfacet
facet normal -1.0 0.0 0.0
  outer loop
    vertex 5463.29662090605 214.01296488981365 0.0
    vertex 5463.29662090605 246.54296488981365 30.000000000000014
    vertex 5463.29662090605 224.27796488981363 3.0
  endloop
endfacet
facet normal -1.0 0.0 0.0
  outer loop
    vertex 5463.29662090605 224.27796488981363 3.0
    vertex 5463.29662090605 246.54296488981365 30.000000000000014
    vertex 5463.29662090605 236.2779648898136 3.0
  endloop
endfacet
facet normal -1.0 0.0 0.0
  outer loop
    vertex 5463.29662090605 236.2779648898136 3.0
    vertex 5463.29662090605 246.54296488981365 30.000000000000014
    vertex 5463.29662090605 236.2779648898136 0.0
  endloop
endfacet
facet normal -1.0 0.0 0.0
  outer loop
    vertex 5463.29662090605 236.2779648898136 0.0
    vertex 5463.29662090605 246.54296488981365 30.000000000000014
    vertex 5463.29662090605 246.54296488981365 0.0
  endloop
endfacet
facet normal -1.0 0.0 0.0
  outer loop
    vertex 5463.29662090605 224.27796488981363 0.0
    vertex 5463.29662090605 214.01296488981365 0.0
    vertex 5463.29662090605 224.27796488981363 3.0
  endloop
endfacet
facet normal 1.0 0.0 0.0
  outer loop
    vertex 5463.696620906049 246.94296488981365 0.0
    vertex 5463.696620906049 236.2779648898136 3.0
    vertex 5463.696620906049 236.2779648898136 0.0
  endloop
endfacet
facet normal 1.0 0.0 0.0
  outer loop
    vertex 5463.696620906049 224.27796488981363 0.0
    vertex 5463.696620906049 213.61296488981364 30.000000000000014
    vertex 5463.696620906049 213.61296488981364 0.0
  endloop
endfacet
facet normal 1.0 0.0 0.0
  outer loop
    vertex 5463.696620906049 213.61296488981364 30.000000000000014
    vertex 5463.696620906049 224.27796488981363 0.0
    vertex 5463.696620906049 224.27796488981363 3.0
  endloop
endfacet
facet normal 1.0 0.0 0.0
  outer loop
    vertex 5463.696620906049 213.61296488981364 30.000000000000014
    vertex 5463.696620906049 224.27796488981363 3.0
    vertex 5463.696620906049 246.94296488981365 30.000000000000014
  endloop
endfacet
facet normal 1.0 0.0 0.0
  outer loop
    vertex 5463.696620906049 246.94296488981365 30.000000000000014
    vertex 5463.696620906049 224.27796488981363 3.0
    vertex 5463.696620906049 236.2779648898136 3.0
  endloop
endfacet
facet normal 1.0 0.0 0.0
  outer loop
    vertex 5463.696620906049 246.94296488981365 30.000000000000014
    vertex 5463.696620906049 236.2779648898136 3.0
    vertex 5463.696620906049 246.94296488981365 0.0
  endloop
endfacet
facet normal -0.0 -1.0 -0.0
  outer loop
    vertex 5463.696620906049 213.61296488981364 30.000000000000014
    vertex 5430.356620906049 213.61296488981364 0.0
    vertex 5463.696620906049 213.61296488981364 0.0
  endloop
endfacet
facet normal -0.0 -1.0 -0.0
  outer loop
    vertex 5430.356620906049 213.61296488981364 0.0
    vertex 5463.696620906049 213.61296488981364 30.000000000000014
    vertex 5430.356620906049 213.61296488981364 30.000000000000014
  endloop
endfacet
facet normal -1.0 0.0 0.0
  outer loop
    vertex 5430.356620906049 246.94296488981365 30.000000000000014
    vertex 5430.356620906049 213.61296488981364 0.0
    vertex 5430.356620906049 213.61296488981364 30.000000000000014
  endloop
endfacet
facet normal -1.0 0.0 0.0
  outer loop
    vertex 5430.356620906049 213.61296488981364 0.0
    vertex 5430.356620906049 246.94296488981365 30.000000000000014
    vertex 5430.356620906049 224.27796488981363 3.0
  endloop
endfacet
facet normal -1.0 0.0 0.0
  outer loop
    vertex 5430.356620906049 224.27796488981363 3.0
    vertex 5430.356620906049 246.94296488981365 30.000000000000014
    vertex 5430.356620906049 236.2779648898136 3.0
  endloop
endfacet
facet normal -1.0 0.0 0.0
  outer loop
    vertex 5430.356620906049 236.2779648898136 3.0
    vertex 5430.356620906049 246.94296488981365 30.000000000000014
    vertex 5430.356620906049 236.2779648898136 0.0
  endloop
endfacet
facet normal -1.0 0.0 0.0
  outer loop
    vertex 5430.356620906049 236.2779648898136 0.0
    vertex 5430.356620906049 246.94296488981365 30.000000000000014
    vertex 5430.356620906049 246.94296488981365 0.0
  endloop
endfacet
facet normal -1.0 0.0 0.0
  outer loop
    vertex 5430.356620906049 224.27796488981363 0.0
    vertex 5430.356620906049 213.61296488981364 0.0
    vertex 5430.356620906049 224.27796488981363 3.0
  endloop
endfacet
facet normal 1.0 0.0 0.0
  outer loop
    vertex 5430.756620906049 246.54296488981365 0.0
    vertex 5430.756620906049 236.2779648898136 3.0
    vertex 5430.756620906049 236.2779648898136 0.0
  endloop
endfacet
facet normal 1.0 0.0 0.0
  outer loop
    vertex 5430.756620906049 224.27796488981363 0.0
    vertex 5430.756620906049 214.01296488981365 30.000000000000014
    vertex 5430.756620906049 214.01296488981365 0.0
  endloop
endfacet
facet normal 1.0 0.0 0.0
  outer loop
    vertex 5430.756620906049 214.01296488981365 30.000000000000014
    vertex 5430.756620906049 224.27796488981363 0.0
    vertex 5430.756620906049 224.27796488981363 3.0
  endloop
endfacet
facet normal 1.0 0.0 0.0
  outer loop
    vertex 5430.756620906049 214.01296488981365 30.000000000000014
    vertex 5430.756620906049 224.27796488981363 3.0
    vertex 5430.756620906049 246.54296488981365 30.000000000000014
  endloop
endfacet
facet normal 1.0 0.0 0.0
  outer loop
    vertex 5430.756620906049 246.54296488981365 30.000000000000014
    vertex 5430.756620906049 224.27796488981363 3.0
    vertex 5430.756620906049 236.2779648898136 3.0
  endloop
endfacet
facet normal 1.0 0.0 0.0
  outer loop
    vertex 5430.756620906049 246.54296488981365 30.000000000000014
    vertex 5430.756620906049 236.2779648898136 3.0
    vertex 5430.756620906049 246.54296488981365 0.0
  endloop
endfacet
facet normal 0.0 0.0 -1.0
  outer loop
    vertex 5430.356620906049 246.94296488981365 0.0
    vertex 5430.756620906049 246.54296488981365 0.0
    vertex 5430.356620906049 236.2779648898136 0.0
  endloop
endfacet
facet normal 0.0 0.0 -1.0
  outer loop
    vertex 5430.756620906049 246.54296488981365 0.0
    vertex 5430.356620906049 246.94296488981365 0.0
    vertex 5463.696620906049 246.94296488981365 0.0
  endloop
endfacet
facet normal 0.0 0.0 -1.0
  outer loop
    vertex 5430.756620906049 246.54296488981365 0.0
    vertex 5463.696620906049 246.94296488981365 0.0
    vertex 5463.29662090605 246.54296488981365 0.0
  endloop
endfacet
facet normal 0.0 0.0 -1.0
  outer loop
    vertex 5463.29662090605 246.54296488981365 0.0
    vertex 5463.696620906049 246.94296488981365 0.0
    vertex 5463.29662090605 236.2779648898136 0.0
  endloop
endfacet
facet normal 0.0 0.0 -1.0
  outer loop
    vertex 5463.29662090605 236.2779648898136 0.0
    vertex 5463.696620906049 246.94296488981365 0.0
    vertex 5463.696620906049 236.2779648898136 0.0
  endloop
endfacet
facet normal 0.0 0.0 -1.0
  outer loop
    vertex 5430.756620906049 236.2779648898136 0.0
    vertex 5430.356620906049 236.2779648898136 0.0
    vertex 5430.756620906049 246.54296488981365 0.0
  endloop
endfacet
facet normal 0.0 0.0 -1.0
  outer loop
    vertex 5430.756620906049 236.2779648898136 3.0
    vertex 5430.356620906049 224.27796488981363 3.0
    vertex 5430.356620906049 236.2779648898136 3.0
  endloop
endfacet
facet normal 0.0 0.0 -1.0
  outer loop
    vertex 5430.356620906049 224.27796488981363 3.0
    vertex 5430.756620906049 236.2779648898136 3.0
    vertex 5430.756620906049 224.27796488981363 3.0
  endloop
endfacet
facet normal 0.0 1.0 0.0
  outer loop
    vertex 5430.356620906049 224.27796488981363 3.0
    vertex 5430.756620906049 224.27796488981363 0.0
    vertex 5430.356620906049 224.27796488981363 0.0
  endloop
endfacet
facet normal 0.0 1.0 0.0
  outer loop
    vertex 5430.756620906049 224.27796488981363 0.0
    vertex 5430.356620906049 224.27796488981363 3.0
    vertex 5430.756620906049 224.27796488981363 3.0
  endloop
endfacet
facet normal 0.0 -1.0 0.0
  outer loop
    vertex 5430.756620906049 236.2779648898136 3.0
    vertex 5430.356620906049 236.2779648898136 0.0
    vertex 5430.756620906049 236.2779648898136 0.0
  endloop
endfacet
facet normal 0.0 -1.0 0.0
  outer loop
    vertex 5430.356620906049 236.2779648898136 0.0
    vertex 5430.756620906049 236.2779648898136 3.0
    vertex 5430.356620906049 236.2779648898136 3.0
  endloop
endfacet
facet normal 0.0 0.0 -1.0
  outer loop
    vertex 5463.696620906049 224.27796488981363 0.0
    vertex 5463.29662090605 214.01296488981365 0.0
    vertex 5463.29662090605 224.27796488981363 0.0
  endloop
endfacet
facet normal 0.0 0.0 -1.0
  outer loop
    vertex 5430.756620906049 224.27796488981363 0.0
    vertex 5430.356620906049 213.61296488981364 0.0
    vertex 5430.356620906049 224.27796488981363 0.0
  endloop
endfacet
facet normal 0.0 0.0 -1.0
  outer loop
    vertex 5430.356620906049 213.61296488981364 0.0
    vertex 5430.756620906049 224.27796488981363 0.0
    vertex 5430.756620906049 214.01296488981365 0.0
  endloop
endfacet
facet normal 0.0 0.0 -1.0
  outer loop
    vertex 5430.356620906049 213.61296488981364 0.0
    vertex 5430.756620906049 214.01296488981365 0.0
    vertex 5463.696620906049 213.61296488981364 0.0
  endloop
endfacet
facet normal 0.0 0.0 -1.0
  outer loop
    vertex 5463.696620906049 213.61296488981364 0.0
    vertex 5430.756620906049 214.01296488981365 0.0
    vertex 5463.29662090605 214.01296488981365 0.0
  endloop
endfacet
facet normal 0.0 0.0 -1.0
  outer loop
    vertex 5463.696620906049 213.61296488981364 0.0
    vertex 5463.29662090605 214.01296488981365 0.0
    vertex 5463.696620906049 224.27796488981363 0.0
  endloop
endfacet
facet normal 0.0 0.0 -1.0
  outer loop
    vertex 5463.696620906049 236.2779648898136 3.0
    vertex 5463.29662090605 224.27796488981363 3.0
    vertex 5463.29662090605 236.2779648898136 3.0
  endloop
endfacet
facet normal 0.0 0.0 -1.0
  outer loop
    vertex 5463.29662090605 224.27796488981363 3.0
    vertex 5463.696620906049 236.2779648898136 3.0
    vertex 5463.696620906049 224.27796488981363 3.0
  endloop
endfacet
facet normal 0.0 1.0 0.0
  outer loop
    vertex 5463.29662090605 224.27796488981363 3.0
    vertex 5463.696620906049 224.27796488981363 0.0
    vertex 5463.29662090605 224.27796488981363 0.0
  endloop
endfacet
facet normal 0.0 1.0 0.0
  outer loop
    vertex 5463.696620906049 224.27796488981363 0.0
    vertex 5463.29662090605 224.27796488981363 3.0
    vertex 5463.696620906049 224.27796488981363 3.0
  endloop
endfacet
facet normal 0.0 -1.0 0.0
  outer loop
    vertex 5463.696620906049 236.2779648898136 3.0
    vertex 5463.29662090605 236.2779648898136 0.0
    vertex 5463.696620906049 236.2779648898136 0.0
  endloop
endfacet
facet normal 0.0 -1.0 0.0
  outer loop
    vertex 5463.29662090605 236.2779648898136 0.0
    vertex 5463.696620906049 236.2779648898136 3.0
    vertex 5463.29662090605 236.2779648898136 3.0
  endloop
endfacet
endsolid pixel table 2
