 0
SECTION
 2
ENTITIES
  0
LINE
 8
side-panels-3mm
10
611.250000000001
20
38.16506350946099
30
2.255973186038318e-14
11
611.8529523872452
21
38.41481456572257
31
2.255973186038318e-14
  0
LINE
 8
side-panels-3mm
10
613.7500000000019
20
33.83493649053851
30
2.255973186038318e-14
11
613.1470476127577
21
33.58518543427693
31
2.255973186038318e-14
  0
LINE
 8
side-panels-3mm
10
613.1470476127577
20
33.58518543427693
30
2.255973186038318e-14
11
612.5000000000008
21
33.4999999999996
31
2.255973186038318e-14
  0
LINE
 8
side-panels-3mm
10
613.1470476127577
20
38.41481456572257
30
2.255973186038318e-14
11
613.7500000000005
21
38.16506350946099
31
2.255973186038318e-14
  0
LINE
 8
side-panels-3mm
10
614.2677669529673
20
34.23223304703327
30
2.255973186038318e-14
11
613.7500000000019
21
33.83493649053851
31
2.255973186038318e-14
  0
LINE
 8
side-panels-3mm
10
612.5000000000008
20
33.4999999999996
30
2.255973186038318e-14
11
611.8529523872452
21
33.58518543427693
31
2.255973186038318e-14
  0
LINE
 8
side-panels-3mm
10
610.0000000000014
20
35.99999999999975
30
2.255973186038318e-14
11
610.0851854342786
21
36.64704761275609
31
2.255973186038318e-14
  0
LINE
 8
side-panels-3mm
10
610.0851854342786
20
36.64704761275609
30
2.255973186038318e-14
11
610.3349364905396
21
37.24999999999983
31
2.255973186038318e-14
  0
LINE
 8
side-panels-3mm
10
620.0000000000005
20
47.99999999999982
30
2.255973186038318e-14
11
620.0000000000005
21
23.999999999999776
31
2.255973186038318e-14
  0
LINE
 8
side-panels-3mm
10
620.0000000000005
20
23.999999999999776
30
2.255973186038318e-14
11
0.0
21
23.999999999999865
31
2.255973186038318e-14
  0
LINE
 8
side-panels-3mm
10
0.0
20
47.999999999999645
30
2.255973186038318e-14
11
0.0
21
23.999999999999865
31
2.255973186038318e-14
  0
LINE
 8
side-panels-3mm
10
525.000000179869
20
47.999999999999645
30
0.0
11
0.0
21
47.999999999999645
31
2.255973186038318e-14
  0
LINE
 8
side-panels-3mm
10
620.0000000000005
20
47.99999999999982
30
2.255973186038318e-14
11
525.000000179869
21
47.999999999999645
31
0.0
  0
LINE
 8
side-panels-3mm
10
610.0851854342786
20
35.35295238724342
30
2.255973186038318e-14
11
610.0000000000014
21
35.99999999999975
31
2.255973186038318e-14
  0
LINE
 8
side-panels-3mm
10
610.3349364905396
20
34.74999999999968
30
2.255973186038318e-14
11
610.0851854342786
21
35.35295238724342
31
2.255973186038318e-14
  0
LINE
 8
side-panels-3mm
10
610.7322330470341
20
34.23223304703327
30
2.255973186038318e-14
11
610.3349364905396
21
34.74999999999968
31
2.255973186038318e-14
  0
LINE
 8
side-panels-3mm
10
611.250000000001
20
33.83493649053851
30
2.255973186038318e-14
11
610.7322330470341
21
34.23223304703327
31
2.255973186038318e-14
  0
LINE
 8
side-panels-3mm
10
611.8529523872452
20
33.58518543427693
30
2.255973186038318e-14
11
611.250000000001
21
33.83493649053851
31
2.255973186038318e-14
  0
LINE
 8
side-panels-3mm
10
614.6650635094619
20
34.74999999999968
30
2.255973186038318e-14
11
614.2677669529673
21
34.23223304703327
31
2.255973186038318e-14
  0
LINE
 8
side-panels-3mm
10
614.9148145657243
20
35.35295238724342
30
2.255973186038318e-14
11
614.6650635094619
21
34.74999999999968
31
2.255973186038318e-14
  0
LINE
 8
side-panels-3mm
10
615.0000000000016
20
35.99999999999975
30
2.255973186038318e-14
11
614.9148145657243
21
35.35295238724342
31
2.255973186038318e-14
  0
LINE
 8
side-panels-3mm
10
614.9148145657243
20
36.64704761275609
30
2.255973186038318e-14
11
615.0000000000016
21
35.99999999999975
31
2.255973186038318e-14
  0
LINE
 8
side-panels-3mm
10
614.6650635094619
20
37.24999999999983
30
2.255973186038318e-14
11
614.9148145657243
21
36.64704761275609
31
2.255973186038318e-14
  0
LINE
 8
side-panels-3mm
10
614.2677669529673
20
37.76776695296624
30
2.255973186038318e-14
11
614.6650635094619
21
37.24999999999983
31
2.255973186038318e-14
  0
LINE
 8
side-panels-3mm
10
613.7500000000005
20
38.16506350946099
30
2.255973186038318e-14
11
614.2677669529673
21
37.76776695296624
31
2.255973186038318e-14
  0
LINE
 8
side-panels-3mm
10
612.5000000000008
20
38.49999999999991
30
2.255973186038318e-14
11
613.1470476127577
21
38.41481456572257
31
2.255973186038318e-14
  0
LINE
 8
side-panels-3mm
10
611.8529523872452
20
38.41481456572257
30
2.255973186038318e-14
11
612.5000000000008
21
38.49999999999991
31
2.255973186038318e-14
  0
LINE
 8
side-panels-3mm
10
610.7322330470341
20
37.76776695296624
30
2.255973186038318e-14
11
611.250000000001
21
38.16506350946099
31
2.255973186038318e-14
  0
LINE
 8
side-panels-3mm
10
610.3349364905396
20
37.24999999999983
30
2.255973186038318e-14
11
610.7322330470341
21
37.76776695296624
31
2.255973186038318e-14
  0
LINE
 8
side-panels-3mm
10
6.250000000000022
20
33.83493649053833
30
2.255973186038318e-14
11
5.732233047033162
21
34.232233047033084
31
2.255973186038318e-14
  0
LINE
 8
side-panels-3mm
10
6.8529523872442155
20
33.58518543427675
30
2.255973186038318e-14
11
6.250000000000022
21
33.83493649053833
31
2.255973186038318e-14
  0
LINE
 8
side-panels-3mm
10
7.499999999999738
20
33.49999999999942
30
2.255973186038318e-14
11
6.8529523872442155
21
33.58518543427675
31
2.255973186038318e-14
  0
LINE
 8
side-panels-3mm
10
8.147047612756705
20
33.58518543427675
30
2.255973186038318e-14
11
7.499999999999738
21
33.49999999999942
31
2.255973186038318e-14
  0
LINE
 8
side-panels-3mm
10
8.749999999999455
20
33.83493649053833
30
2.255973186038318e-14
11
8.147047612756705
21
33.58518543427675
31
2.255973186038318e-14
  0
LINE
 8
side-panels-3mm
10
9.267766952966314
20
34.232233047033084
30
2.255973186038318e-14
11
8.749999999999455
21
33.83493649053833
31
2.255973186038318e-14
  0
LINE
 8
side-panels-3mm
10
9.66506350946089
20
34.749999999999496
30
2.255973186038318e-14
11
9.267766952966314
21
34.232233047033084
31
2.255973186038318e-14
  0
LINE
 8
side-panels-3mm
10
9.914814565723281
20
35.352952387243235
30
2.255973186038318e-14
11
9.66506350946089
21
34.749999999999496
31
2.255973186038318e-14
  0
LINE
 8
side-panels-3mm
10
10.000000000000613
20
35.999999999999574
30
2.255973186038318e-14
11
9.914814565723281
21
35.352952387243235
31
2.255973186038318e-14
  0
LINE
 8
side-panels-3mm
10
9.914814565723281
20
36.647047612755905
30
2.255973186038318e-14
11
10.000000000000613
21
35.999999999999574
31
2.255973186038318e-14
  0
LINE
 8
side-panels-3mm
10
9.66506350946089
20
37.24999999999965
30
2.255973186038318e-14
11
9.914814565723281
21
36.647047612755905
31
2.255973186038318e-14
  0
LINE
 8
side-panels-3mm
10
9.267766952966314
20
37.767766952966056
30
2.255973186038318e-14
11
9.66506350946089
21
37.24999999999965
31
2.255973186038318e-14
  0
LINE
 8
side-panels-3mm
10
8.749999999999455
20
38.165063509460815
30
2.255973186038318e-14
11
9.267766952966314
21
37.767766952966056
31
2.255973186038318e-14
  0
LINE
 8
side-panels-3mm
10
8.147047612756705
20
38.414814565722395
30
2.255973186038318e-14
11
8.749999999999455
21
38.165063509460815
31
2.255973186038318e-14
  0
LINE
 8
side-panels-3mm
10
7.499999999999738
20
38.49999999999972
30
2.255973186038318e-14
11
8.147047612756705
21
38.414814565722395
31
2.255973186038318e-14
  0
LINE
 8
side-panels-3mm
10
6.8529523872442155
20
38.414814565722395
30
2.255973186038318e-14
11
7.499999999999738
21
38.49999999999972
31
2.255973186038318e-14
  0
LINE
 8
side-panels-3mm
10
6.250000000000022
20
38.165063509460815
30
2.255973186038318e-14
11
6.8529523872442155
21
38.414814565722395
31
2.255973186038318e-14
  0
LINE
 8
side-panels-3mm
10
5.732233047033162
20
37.767766952966056
30
2.255973186038318e-14
11
6.250000000000022
21
38.165063509460815
31
2.255973186038318e-14
  0
LINE
 8
side-panels-3mm
10
5.3349364905385865
20
37.24999999999965
30
2.255973186038318e-14
11
5.732233047033162
21
37.767766952966056
31
2.255973186038318e-14
  0
LINE
 8
side-panels-3mm
10
5.085185434277639
20
36.647047612755905
30
2.255973186038318e-14
11
5.3349364905385865
21
37.24999999999965
31
2.255973186038318e-14
  0
LINE
 8
side-panels-3mm
10
5.000000000000306
20
35.999999999999574
30
2.255973186038318e-14
11
5.085185434277639
21
36.647047612755905
31
2.255973186038318e-14
  0
LINE
 8
side-panels-3mm
10
5.085185434277639
20
35.352952387243235
30
2.255973186038318e-14
11
5.000000000000306
21
35.999999999999574
31
2.255973186038318e-14
  0
LINE
 8
side-panels-3mm
10
5.3349364905385865
20
34.749999999999496
30
2.255973186038318e-14
11
5.085185434277639
21
35.352952387243235
31
2.255973186038318e-14
  0
LINE
 8
side-panels-3mm
10
5.732233047033162
20
34.232233047033084
30
2.255973186038318e-14
11
5.3349364905385865
21
34.749999999999496
31
2.255973186038318e-14
  0
LINE
 8
side-panels-3mm
10
8.749999999999455
20
86.16506350946045
30
1.6919798895287383e-14
11
9.267766952966314
21
85.7677669529657
31
1.6919798895287383e-14
  0
LINE
 8
side-panels-3mm
10
7.499999999999738
20
86.49999999999937
30
1.6919798895287383e-14
11
8.147047612755983
21
86.41481456572204
31
1.6919798895287383e-14
  0
LINE
 8
side-panels-3mm
10
9.999999999999892
20
83.99999999999922
30
1.6919798895287383e-14
11
9.914814565722558
21
83.35295238724288
31
1.6919798895287383e-14
  0
LINE
 8
side-panels-3mm
10
6.250000000000022
20
86.16506350946045
30
1.6919798895287383e-14
11
6.852952387243493
21
86.41481456572204
31
1.6919798895287383e-14
  0
LINE
 8
side-panels-3mm
10
9.914814565722558
20
84.64704761275554
30
1.6919798895287383e-14
11
9.999999999999892
21
83.99999999999922
31
1.6919798895287383e-14
  0
LINE
 8
side-panels-3mm
10
9.66506350946089
20
85.24999999999929
30
1.6919798895287383e-14
11
9.914814565722558
21
84.64704761275554
31
1.6919798895287383e-14
  0
LINE
 8
side-panels-3mm
10
6.852952387243493
20
86.41481456572204
30
1.6919798895287383e-14
11
7.499999999999738
21
86.49999999999937
31
1.6919798895287383e-14
  0
LINE
 8
side-panels-3mm
10
8.147047612755983
20
86.41481456572204
30
1.6919798895287383e-14
11
8.749999999999455
21
86.16506350946045
31
1.6919798895287383e-14
  0
LINE
 8
side-panels-3mm
10
9.267766952966314
20
85.7677669529657
30
1.6919798895287383e-14
11
9.66506350946089
21
85.24999999999929
31
1.6919798895287383e-14
  0
LINE
 8
side-panels-3mm
10
9.914814565722558
20
83.35295238724288
30
1.6919798895287383e-14
11
9.66506350946089
21
82.74999999999913
31
1.6919798895287383e-14
  0
LINE
 8
side-panels-3mm
10
5.732233047033162
20
85.7677669529657
30
1.6919798895287383e-14
11
6.250000000000022
21
86.16506350946045
31
1.6919798895287383e-14
  0
LINE
 8
side-panels-3mm
10
612.4999999999993
20
14.500000000000131
30
2.255973186038318e-14
11
613.1470476127563
21
14.4148145657228
31
2.255973186038318e-14
  0
LINE
 8
side-panels-3mm
10
620.0000000000005
20
23.999999999999776
30
2.255973186038318e-14
11
619.9999999999991
21
0.0
31
2.255973186038318e-14
  0
LINE
 8
side-panels-3mm
10
0.0
20
0.0
30
2.255973186038318e-14
11
619.9999999999991
21
0.0
31
2.255973186038318e-14
  0
LINE
 8
side-panels-3mm
10
0.0
20
23.999999999999865
30
2.255973186038318e-14
11
0.0
21
0.0
31
2.255973186038318e-14
  0
LINE
 8
side-panels-3mm
10
610.0851854342772
20
12.647047612756314
30
2.255973186038318e-14
11
610.3349364905381
21
13.250000000000055
31
2.255973186038318e-14
  0
LINE
 8
side-panels-3mm
10
609.9999999999999
20
11.999999999999979
30
2.255973186038318e-14
11
610.0851854342772
21
12.647047612756314
31
2.255973186038318e-14
  0
LINE
 8
side-panels-3mm
10
610.0851854342772
20
11.352952387243644
30
2.255973186038318e-14
11
609.9999999999999
21
11.999999999999979
31
2.255973186038318e-14
  0
LINE
 8
side-panels-3mm
10
610.3349364905381
20
10.7499999999999
30
2.255973186038318e-14
11
610.0851854342772
21
11.352952387243644
31
2.255973186038318e-14
  0
LINE
 8
side-panels-3mm
10
610.7322330470328
20
10.232233047033493
30
2.255973186038318e-14
11
610.3349364905381
21
10.7499999999999
31
2.255973186038318e-14
  0
LINE
 8
side-panels-3mm
10
611.2499999999995
20
9.834936490538736
30
2.255973186038318e-14
11
610.7322330470328
21
10.232233047033493
31
2.255973186038318e-14
  0
LINE
 8
side-panels-3mm
10
611.8529523872438
20
9.585185434277157
30
2.255973186038318e-14
11
611.2499999999995
21
9.834936490538736
31
2.255973186038318e-14
  0
LINE
 8
side-panels-3mm
10
612.4999999999993
20
9.499999999999824
30
2.255973186038318e-14
11
611.8529523872438
21
9.585185434277157
31
2.255973186038318e-14
  0
LINE
 8
side-panels-3mm
10
613.1470476127563
20
9.585185434277157
30
2.255973186038318e-14
11
612.4999999999993
21
9.499999999999824
31
2.255973186038318e-14
  0
LINE
 8
side-panels-3mm
10
613.7500000000005
20
9.834936490538736
30
2.255973186038318e-14
11
613.1470476127563
21
9.585185434277157
31
2.255973186038318e-14
  0
LINE
 8
side-panels-3mm
10
614.2677669529659
20
10.232233047033493
30
2.255973186038318e-14
11
613.7500000000005
21
9.834936490538736
31
2.255973186038318e-14
  0
LINE
 8
side-panels-3mm
10
614.6650635094604
20
10.7499999999999
30
2.255973186038318e-14
11
614.2677669529659
21
10.232233047033493
31
2.255973186038318e-14
  0
LINE
 8
side-panels-3mm
10
614.9148145657228
20
11.352952387243644
30
2.255973186038318e-14
11
614.6650635094604
21
10.7499999999999
31
2.255973186038318e-14
  0
LINE
 8
side-panels-3mm
10
615.0000000000002
20
11.999999999999979
30
2.255973186038318e-14
11
614.9148145657228
21
11.352952387243644
31
2.255973186038318e-14
  0
LINE
 8
side-panels-3mm
10
614.9148145657228
20
12.647047612756314
30
2.255973186038318e-14
11
615.0000000000002
21
11.999999999999979
31
2.255973186038318e-14
  0
LINE
 8
side-panels-3mm
10
614.6650635094604
20
13.250000000000055
30
2.255973186038318e-14
11
614.9148145657228
21
12.647047612756314
31
2.255973186038318e-14
  0
LINE
 8
side-panels-3mm
10
614.2677669529659
20
13.767766952966465
30
2.255973186038318e-14
11
614.6650635094604
21
13.250000000000055
31
2.255973186038318e-14
  0
LINE
 8
side-panels-3mm
10
613.749999999999
20
14.16506350946122
30
2.255973186038318e-14
11
614.2677669529659
21
13.767766952966465
31
2.255973186038318e-14
  0
LINE
 8
side-panels-3mm
10
613.1470476127563
20
14.4148145657228
30
2.255973186038318e-14
11
613.749999999999
21
14.16506350946122
31
2.255973186038318e-14
  0
LINE
 8
side-panels-3mm
10
611.8529523872438
20
14.4148145657228
30
2.255973186038318e-14
11
612.4999999999993
21
14.500000000000131
31
2.255973186038318e-14
  0
LINE
 8
side-panels-3mm
10
611.2499999999995
20
14.16506350946122
30
2.255973186038318e-14
11
611.8529523872438
21
14.4148145657228
31
2.255973186038318e-14
  0
LINE
 8
side-panels-3mm
10
610.7322330470328
20
13.767766952966465
30
2.255973186038318e-14
11
611.2499999999995
21
14.16506350946122
31
2.255973186038318e-14
  0
LINE
 8
side-panels-3mm
10
610.3349364905381
20
13.250000000000055
30
2.255973186038318e-14
11
610.7322330470328
21
13.767766952966465
31
2.255973186038318e-14
  0
LINE
 8
side-panels-3mm
10
6.250000000000022
20
9.834936490538556
30
2.255973186038318e-14
11
5.732233047033162
21
10.232233047033311
31
2.255973186038318e-14
  0
LINE
 8
side-panels-3mm
10
6.8529523872442155
20
9.585185434276976
30
2.255973186038318e-14
11
6.250000000000022
21
9.834936490538556
31
2.255973186038318e-14
  0
LINE
 8
side-panels-3mm
10
7.499999999999738
20
9.499999999999645
30
2.255973186038318e-14
11
6.8529523872442155
21
9.585185434276976
31
2.255973186038318e-14
  0
LINE
 8
side-panels-3mm
10
8.147047612756705
20
9.585185434276976
30
2.255973186038318e-14
11
7.499999999999738
21
9.499999999999645
31
2.255973186038318e-14
  0
LINE
 8
side-panels-3mm
10
8.750000000000176
20
9.834936490538556
30
2.255973186038318e-14
11
8.147047612756705
21
9.585185434276976
31
2.255973186038318e-14
  0
LINE
 8
side-panels-3mm
10
9.267766952966314
20
10.232233047033311
30
2.255973186038318e-14
11
8.750000000000176
21
9.834936490538556
31
2.255973186038318e-14
  0
LINE
 8
side-panels-3mm
10
9.66506350946089
20
10.749999999999721
30
2.255973186038318e-14
11
9.267766952966314
21
10.232233047033311
31
2.255973186038318e-14
  0
LINE
 8
side-panels-3mm
10
9.914814565723281
20
11.352952387243462
30
2.255973186038318e-14
11
9.66506350946089
21
10.749999999999721
31
2.255973186038318e-14
  0
LINE
 8
side-panels-3mm
10
10.000000000000613
20
11.999999999999797
30
2.255973186038318e-14
11
9.914814565723281
21
11.352952387243462
31
2.255973186038318e-14
  0
LINE
 8
side-panels-3mm
10
9.914814565723281
20
12.647047612756133
30
2.255973186038318e-14
11
10.000000000000613
21
11.999999999999797
31
2.255973186038318e-14
  0
LINE
 8
side-panels-3mm
10
9.66506350946089
20
13.249999999999874
30
2.255973186038318e-14
11
9.914814565723281
21
12.647047612756133
31
2.255973186038318e-14
  0
LINE
 8
side-panels-3mm
10
9.267766952966314
20
13.767766952966284
30
2.255973186038318e-14
11
9.66506350946089
21
13.249999999999874
31
2.255973186038318e-14
  0
LINE
 8
side-panels-3mm
10
8.750000000000176
20
14.165063509461039
30
2.255973186038318e-14
11
9.267766952966314
21
13.767766952966284
31
2.255973186038318e-14
  0
LINE
 8
side-panels-3mm
10
8.147047612756705
20
14.414814565722619
30
2.255973186038318e-14
11
8.750000000000176
21
14.165063509461039
31
2.255973186038318e-14
  0
LINE
 8
side-panels-3mm
10
7.499999999999738
20
14.49999999999995
30
2.255973186038318e-14
11
8.147047612756705
21
14.414814565722619
31
2.255973186038318e-14
  0
LINE
 8
side-panels-3mm
10
6.8529523872442155
20
14.414814565722619
30
2.255973186038318e-14
11
7.499999999999738
21
14.49999999999995
31
2.255973186038318e-14
  0
LINE
 8
side-panels-3mm
10
6.250000000000022
20
14.165063509461039
30
2.255973186038318e-14
11
6.8529523872442155
21
14.414814565722619
31
2.255973186038318e-14
  0
LINE
 8
side-panels-3mm
10
5.732233047033162
20
13.767766952966284
30
2.255973186038318e-14
11
6.250000000000022
21
14.165063509461039
31
2.255973186038318e-14
  0
LINE
 8
side-panels-3mm
10
5.3349364905385865
20
13.249999999999874
30
2.255973186038318e-14
11
5.732233047033162
21
13.767766952966284
31
2.255973186038318e-14
  0
LINE
 8
side-panels-3mm
10
5.085185434277639
20
12.647047612756133
30
2.255973186038318e-14
11
5.3349364905385865
21
13.249999999999874
31
2.255973186038318e-14
  0
LINE
 8
side-panels-3mm
10
5.000000000000306
20
11.999999999999797
30
2.255973186038318e-14
11
5.085185434277639
21
12.647047612756133
31
2.255973186038318e-14
  0
LINE
 8
side-panels-3mm
10
5.085185434277639
20
11.352952387243462
30
2.255973186038318e-14
11
5.000000000000306
21
11.999999999999797
31
2.255973186038318e-14
  0
LINE
 8
side-panels-3mm
10
5.3349364905385865
20
10.749999999999721
30
2.255973186038318e-14
11
5.085185434277639
21
11.352952387243462
31
2.255973186038318e-14
  0
LINE
 8
side-panels-3mm
10
5.732233047033162
20
10.232233047033311
30
2.255973186038318e-14
11
5.3349364905385865
21
10.749999999999721
31
2.255973186038318e-14
  0
LINE
 8
side-panels-3mm
10
515.0851856141458
20
60.647047612755955
30
1.127986593019159e-14
11
515.3349366704081
21
61.249999999999694
31
1.127986593019159e-14
  0
LINE
 8
side-panels-3mm
10
515.7322332269027
20
61.767766952966106
30
1.127986593019159e-14
11
516.2500001798695
21
62.165063509460865
31
1.127986593019159e-14
  0
LINE
 8
side-panels-3mm
10
516.8529525671123
20
62.41481456572244
30
1.127986593019159e-14
11
517.5000001798693
21
62.49999999999977
31
1.127986593019159e-14
  0
LINE
 8
side-panels-3mm
10
518.1470477926248
20
62.41481456572244
30
1.127986593019159e-14
11
518.750000179869
21
62.165063509460865
31
1.127986593019159e-14
  0
LINE
 8
side-panels-3mm
10
519.9148147455913
20
60.647047612755955
30
1.127986593019159e-14
11
520.0000001798687
21
59.999999999999616
31
1.127986593019159e-14
  0
LINE
 8
side-panels-3mm
10
520.0000001798687
20
59.999999999999616
30
1.127986593019159e-14
11
519.9148147455913
21
59.352952387243285
31
1.127986593019159e-14
  0
LINE
 8
side-panels-3mm
10
515.3349366704081
20
61.249999999999694
30
1.127986593019159e-14
11
515.7322332269027
21
61.767766952966106
31
1.127986593019159e-14
  0
LINE
 8
side-panels-3mm
10
0.0
20
71.99999999999942
30
2.255973186038318e-14
11
0.0
21
47.999999999999645
31
2.255973186038318e-14
  0
LINE
 8
side-panels-3mm
10
525.000000179869
20
71.9999999999996
30
2.255973186038318e-14
11
0.0
21
71.99999999999942
31
2.255973186038318e-14
  0
LINE
 8
side-panels-3mm
10
525.000000179869
20
71.9999999999996
30
2.255973186038318e-14
11
525.000000179869
21
47.999999999999645
31
0.0
  0
LINE
 8
side-panels-3mm
10
515.0000001798684
20
59.999999999999616
30
1.127986593019159e-14
11
515.0851856141458
21
60.647047612755955
31
1.127986593019159e-14
  0
LINE
 8
side-panels-3mm
10
515.0851856141458
20
59.352952387243285
30
1.127986593019159e-14
11
515.0000001798684
21
59.999999999999616
31
1.127986593019159e-14
  0
LINE
 8
side-panels-3mm
10
515.3349366704081
20
58.749999999999545
30
1.127986593019159e-14
11
515.0851856141458
21
59.352952387243285
31
1.127986593019159e-14
  0
LINE
 8
side-panels-3mm
10
515.7322332269027
20
58.232233047033134
30
1.127986593019159e-14
11
515.3349366704081
21
58.749999999999545
31
1.127986593019159e-14
  0
LINE
 8
side-panels-3mm
10
516.2500001798695
20
57.834936490538375
30
1.127986593019159e-14
11
515.7322332269027
21
58.232233047033134
31
1.127986593019159e-14
  0
LINE
 8
side-panels-3mm
10
516.8529525671123
20
57.585185434276795
30
1.127986593019159e-14
11
516.2500001798695
21
57.834936490538375
31
1.127986593019159e-14
  0
LINE
 8
side-panels-3mm
10
517.5000001798693
20
57.49999999999947
30
1.127986593019159e-14
11
516.8529525671123
21
57.585185434276795
31
1.127986593019159e-14
  0
LINE
 8
side-panels-3mm
10
518.1470477926248
20
57.585185434276795
30
1.127986593019159e-14
11
517.5000001798693
21
57.49999999999947
31
1.127986593019159e-14
  0
LINE
 8
side-panels-3mm
10
518.750000179869
20
57.834936490538375
30
1.127986593019159e-14
11
518.1470477926248
21
57.585185434276795
31
1.127986593019159e-14
  0
LINE
 8
side-panels-3mm
10
519.2677671328358
20
58.232233047033134
30
1.127986593019159e-14
11
518.750000179869
21
57.834936490538375
31
1.127986593019159e-14
  0
LINE
 8
side-panels-3mm
10
519.6650636893304
20
58.749999999999545
30
1.127986593019159e-14
11
519.2677671328358
21
58.232233047033134
31
1.127986593019159e-14
  0
LINE
 8
side-panels-3mm
10
519.9148147455913
20
59.352952387243285
30
1.127986593019159e-14
11
519.6650636893304
21
58.749999999999545
31
1.127986593019159e-14
  0
LINE
 8
side-panels-3mm
10
519.6650636893304
20
61.249999999999694
30
1.127986593019159e-14
11
519.9148147455913
21
60.647047612755955
31
1.127986593019159e-14
  0
LINE
 8
side-panels-3mm
10
519.2677671328358
20
61.767766952966106
30
1.127986593019159e-14
11
519.6650636893304
21
61.249999999999694
31
1.127986593019159e-14
  0
LINE
 8
side-panels-3mm
10
518.750000179869
20
62.165063509460865
30
1.127986593019159e-14
11
519.2677671328358
21
61.767766952966106
31
1.127986593019159e-14
  0
LINE
 8
side-panels-3mm
10
517.5000001798693
20
62.49999999999977
30
1.127986593019159e-14
11
518.1470477926248
21
62.41481456572244
31
1.127986593019159e-14
  0
LINE
 8
side-panels-3mm
10
516.2500001798695
20
62.165063509460865
30
1.127986593019159e-14
11
516.8529525671123
21
62.41481456572244
31
1.127986593019159e-14
  0
LINE
 8
side-panels-3mm
10
5.3349364905385865
20
61.24999999999952
30
1.6919798895287383e-14
11
5.732233047033162
21
61.76776695296593
31
1.6919798895287383e-14
  0
LINE
 8
side-panels-3mm
10
5.085185434276917
20
60.64704761275578
30
1.6919798895287383e-14
11
5.3349364905385865
21
61.24999999999952
31
1.6919798895287383e-14
  0
LINE
 8
side-panels-3mm
10
4.999999999999584
20
59.99999999999944
30
1.6919798895287383e-14
11
5.085185434276917
21
60.64704761275578
31
1.6919798895287383e-14
  0
LINE
 8
side-panels-3mm
10
5.085185434276917
20
59.35295238724311
30
1.6919798895287383e-14
11
4.999999999999584
21
59.99999999999944
31
1.6919798895287383e-14
  0
LINE
 8
side-panels-3mm
10
5.3349364905385865
20
58.74999999999936
30
1.6919798895287383e-14
11
5.085185434276917
21
59.35295238724311
31
1.6919798895287383e-14
  0
LINE
 8
side-panels-3mm
10
5.732233047033162
20
58.232233047032956
30
1.6919798895287383e-14
11
5.3349364905385865
21
58.74999999999936
31
1.6919798895287383e-14
  0
LINE
 8
side-panels-3mm
10
6.250000000000022
20
57.8349364905382
30
1.6919798895287383e-14
11
5.732233047033162
21
58.232233047032956
31
1.6919798895287383e-14
  0
LINE
 8
side-panels-3mm
10
6.852952387243493
20
57.58518543427662
30
1.6919798895287383e-14
11
6.250000000000022
21
57.8349364905382
31
1.6919798895287383e-14
  0
LINE
 8
side-panels-3mm
10
7.499999999999738
20
57.49999999999928
30
1.6919798895287383e-14
11
6.852952387243493
21
57.58518543427662
31
1.6919798895287383e-14
  0
LINE
 8
side-panels-3mm
10
8.147047612755983
20
57.58518543427662
30
1.6919798895287383e-14
11
7.499999999999738
21
57.49999999999928
31
1.6919798895287383e-14
  0
LINE
 8
side-panels-3mm
10
8.749999999999455
20
57.8349364905382
30
1.6919798895287383e-14
11
8.147047612755983
21
57.58518543427662
31
1.6919798895287383e-14
  0
LINE
 8
side-panels-3mm
10
9.267766952966314
20
58.232233047032956
30
1.6919798895287383e-14
11
8.749999999999455
21
57.8349364905382
31
1.6919798895287383e-14
  0
LINE
 8
side-panels-3mm
10
9.66506350946089
20
58.74999999999936
30
1.6919798895287383e-14
11
9.267766952966314
21
58.232233047032956
31
1.6919798895287383e-14
  0
LINE
 8
side-panels-3mm
10
9.914814565722558
20
59.35295238724311
30
1.6919798895287383e-14
11
9.66506350946089
21
58.74999999999936
31
1.6919798895287383e-14
  0
LINE
 8
side-panels-3mm
10
9.999999999999892
20
59.99999999999944
30
1.6919798895287383e-14
11
9.914814565722558
21
59.35295238724311
31
1.6919798895287383e-14
  0
LINE
 8
side-panels-3mm
10
9.914814565722558
20
60.64704761275578
30
1.6919798895287383e-14
11
9.999999999999892
21
59.99999999999944
31
1.6919798895287383e-14
  0
LINE
 8
side-panels-3mm
10
9.66506350946089
20
61.24999999999952
30
1.6919798895287383e-14
11
9.914814565722558
21
60.64704761275578
31
1.6919798895287383e-14
  0
LINE
 8
side-panels-3mm
10
9.267766952966314
20
61.76776695296593
30
1.6919798895287383e-14
11
9.66506350946089
21
61.24999999999952
31
1.6919798895287383e-14
  0
LINE
 8
side-panels-3mm
10
8.749999999999455
20
62.16506350946068
30
1.6919798895287383e-14
11
9.267766952966314
21
61.76776695296593
31
1.6919798895287383e-14
  0
LINE
 8
side-panels-3mm
10
8.147047612755983
20
62.41481456572226
30
1.6919798895287383e-14
11
8.749999999999455
21
62.16506350946068
31
1.6919798895287383e-14
  0
LINE
 8
side-panels-3mm
10
7.499999999999738
20
62.499999999999595
30
1.6919798895287383e-14
11
8.147047612755983
21
62.41481456572226
31
1.6919798895287383e-14
  0
LINE
 8
side-panels-3mm
10
6.852952387243493
20
62.41481456572226
30
1.6919798895287383e-14
11
7.499999999999738
21
62.499999999999595
31
1.6919798895287383e-14
  0
LINE
 8
side-panels-3mm
10
6.250000000000022
20
62.16506350946068
30
1.6919798895287383e-14
11
6.852952387243493
21
62.41481456572226
31
1.6919798895287383e-14
  0
LINE
 8
side-panels-3mm
10
5.732233047033162
20
61.76776695296593
30
1.6919798895287383e-14
11
6.250000000000022
21
62.16506350946068
31
1.6919798895287383e-14
  0
LINE
 8
side-panels-3mm
10
519.2677671328358
20
85.76776695296589
30
1.127986593019159e-14
11
519.6650636893304
21
85.24999999999947
31
1.127986593019159e-14
  0
LINE
 8
side-panels-3mm
10
515.0851856141458
20
83.35295238724306
30
1.127986593019159e-14
11
515.0000001798684
21
83.99999999999939
31
1.127986593019159e-14
  0
LINE
 8
side-panels-3mm
10
0.0
20
95.99999999999919
30
2.255973186038318e-14
11
525.000000179869
21
95.99999999999937
31
2.255973186038318e-14
  0
LINE
 8
side-panels-3mm
10
516.8529525671123
20
81.58518543427657
30
1.127986593019159e-14
11
516.2500001798695
21
81.83493649053815
31
1.127986593019159e-14
  0
LINE
 8
side-panels-3mm
10
516.2500001798695
20
81.83493649053815
30
1.127986593019159e-14
11
515.7322332269027
21
82.2322330470329
31
1.127986593019159e-14
  0
LINE
 8
side-panels-3mm
10
518.750000179869
20
81.83493649053815
30
1.127986593019159e-14
11
518.1470477926248
21
81.58518543427657
31
1.127986593019159e-14
  0
LINE
 8
side-panels-3mm
10
6.852952387243493
20
81.5851854342764
30
1.6919798895287383e-14
11
6.250000000000022
21
81.83493649053797
31
1.6919798895287383e-14
  0
LINE
 8
side-panels-3mm
10
519.6650636893304
20
82.74999999999932
30
1.127986593019159e-14
11
519.2677671328358
21
82.2322330470329
31
1.127986593019159e-14
  0
LINE
 8
side-panels-3mm
10
7.499999999999738
20
81.49999999999906
30
1.6919798895287383e-14
11
6.852952387243493
21
81.5851854342764
31
1.6919798895287383e-14
  0
LINE
 8
side-panels-3mm
10
8.749999999999455
20
81.83493649053797
30
1.6919798895287383e-14
11
8.147047612755983
21
81.5851854342764
31
1.6919798895287383e-14
  0
LINE
 8
side-panels-3mm
10
519.9148147455913
20
83.35295238724306
30
1.127986593019159e-14
11
519.6650636893304
21
82.74999999999932
31
1.127986593019159e-14
  0
LINE
 8
side-panels-3mm
10
9.267766952966314
20
82.23223304703272
30
1.6919798895287383e-14
11
8.749999999999455
21
81.83493649053797
31
1.6919798895287383e-14
  0
LINE
 8
side-panels-3mm
10
519.9148147455913
20
84.64704761275573
30
1.127986593019159e-14
11
520.0000001798687
21
83.99999999999939
31
1.127986593019159e-14
  0
LINE
 8
side-panels-3mm
10
515.3349366704081
20
82.74999999999932
30
1.127986593019159e-14
11
515.0851856141458
21
83.35295238724306
31
1.127986593019159e-14
  0
LINE
 8
side-panels-3mm
10
515.0000001798684
20
83.99999999999939
30
1.127986593019159e-14
11
515.0851856141458
21
84.64704761275573
31
1.127986593019159e-14
  0
LINE
 8
side-panels-3mm
10
525.000000179869
20
95.99999999999937
30
2.255973186038318e-14
11
525.000000179869
21
71.9999999999996
31
2.255973186038318e-14
  0
LINE
 8
side-panels-3mm
10
4.999999999999584
20
83.99999999999922
30
1.6919798895287383e-14
11
5.085185434276917
21
84.64704761275554
31
1.6919798895287383e-14
  0
LINE
 8
side-panels-3mm
10
9.66506350946089
20
82.74999999999913
30
1.6919798895287383e-14
11
9.267766952966314
21
82.23223304703272
31
1.6919798895287383e-14
  0
LINE
 8
side-panels-3mm
10
0.0
20
95.99999999999919
30
2.255973186038318e-14
11
0.0
21
71.99999999999942
31
2.255973186038318e-14
  0
LINE
 8
side-panels-3mm
10
515.0851856141458
20
84.64704761275573
30
1.127986593019159e-14
11
515.3349366704081
21
85.24999999999947
31
1.127986593019159e-14
  0
LINE
 8
side-panels-3mm
10
515.7322332269027
20
82.2322330470329
30
1.127986593019159e-14
11
515.3349366704081
21
82.74999999999932
31
1.127986593019159e-14
  0
LINE
 8
side-panels-3mm
10
517.5000001798693
20
81.49999999999925
30
1.127986593019159e-14
11
516.8529525671123
21
81.58518543427657
31
1.127986593019159e-14
  0
LINE
 8
side-panels-3mm
10
518.1470477926248
20
81.58518543427657
30
1.127986593019159e-14
11
517.5000001798693
21
81.49999999999925
31
1.127986593019159e-14
  0
LINE
 8
side-panels-3mm
10
519.2677671328358
20
82.2322330470329
30
1.127986593019159e-14
11
518.750000179869
21
81.83493649053815
31
1.127986593019159e-14
  0
LINE
 8
side-panels-3mm
10
520.0000001798687
20
83.99999999999939
30
1.127986593019159e-14
11
519.9148147455913
21
83.35295238724306
31
1.127986593019159e-14
  0
LINE
 8
side-panels-3mm
10
519.6650636893304
20
85.24999999999947
30
1.127986593019159e-14
11
519.9148147455913
21
84.64704761275573
31
1.127986593019159e-14
  0
LINE
 8
side-panels-3mm
10
518.750000179869
20
86.16506350946064
30
1.127986593019159e-14
11
519.2677671328358
21
85.76776695296589
31
1.127986593019159e-14
  0
LINE
 8
side-panels-3mm
10
518.1470477926248
20
86.41481456572221
30
1.127986593019159e-14
11
518.750000179869
21
86.16506350946064
31
1.127986593019159e-14
  0
LINE
 8
side-panels-3mm
10
517.5000001798693
20
86.49999999999955
30
1.127986593019159e-14
11
518.1470477926248
21
86.41481456572221
31
1.127986593019159e-14
  0
LINE
 8
side-panels-3mm
10
516.8529525671123
20
86.41481456572221
30
1.127986593019159e-14
11
517.5000001798693
21
86.49999999999955
31
1.127986593019159e-14
  0
LINE
 8
side-panels-3mm
10
516.2500001798695
20
86.16506350946064
30
1.127986593019159e-14
11
516.8529525671123
21
86.41481456572221
31
1.127986593019159e-14
  0
LINE
 8
side-panels-3mm
10
515.7322332269027
20
85.76776695296589
30
1.127986593019159e-14
11
516.2500001798695
21
86.16506350946064
31
1.127986593019159e-14
  0
LINE
 8
side-panels-3mm
10
515.3349366704081
20
85.24999999999947
30
1.127986593019159e-14
11
515.7322332269027
21
85.76776695296589
31
1.127986593019159e-14
  0
LINE
 8
side-panels-3mm
10
5.3349364905385865
20
85.24999999999929
30
1.6919798895287383e-14
11
5.732233047033162
21
85.7677669529657
31
1.6919798895287383e-14
  0
LINE
 8
side-panels-3mm
10
5.085185434276917
20
84.64704761275554
30
1.6919798895287383e-14
11
5.3349364905385865
21
85.24999999999929
31
1.6919798895287383e-14
  0
LINE
 8
side-panels-3mm
10
5.085185434276917
20
83.35295238724288
30
1.6919798895287383e-14
11
4.999999999999584
21
83.99999999999922
31
1.6919798895287383e-14
  0
LINE
 8
side-panels-3mm
10
5.3349364905385865
20
82.74999999999913
30
1.6919798895287383e-14
11
5.085185434276917
21
83.35295238724288
31
1.6919798895287383e-14
  0
LINE
 8
side-panels-3mm
10
5.732233047033162
20
82.23223304703272
30
1.6919798895287383e-14
11
5.3349364905385865
21
82.74999999999913
31
1.6919798895287383e-14
  0
LINE
 8
side-panels-3mm
10
6.250000000000022
20
81.83493649053797
30
1.6919798895287383e-14
11
5.732233047033162
21
82.23223304703272
31
1.6919798895287383e-14
  0
LINE
 8
side-panels-3mm
10
8.147047612755983
20
81.5851854342764
30
1.6919798895287383e-14
11
7.499999999999738
21
81.49999999999906
31
1.6919798895287383e-14
 0
ENDSEC
 0
EOF
