 0
SECTION
 2
ENTITIES
  0
LINE
 8
side-panels-3mm
10
86.00000000000055
20
23.999999999999776
30
2.255973186038318e-14
11
0.0
21
23.999999999999865
31
2.255973186038318e-14
  0
LINE
 8
side-panels-3mm
10
78.49999999999936
20
14.500000000000131
30
2.255973186038318e-14
11
79.14704761275632
21
14.4148145657228
31
2.255973186038318e-14
  0
LINE
 8
side-panels-3mm
10
86.00000000000055
20
23.999999999999776
30
2.255973186038318e-14
11
85.9999999999991
21
0.0
31
2.255973186038318e-14
  0
LINE
 8
side-panels-3mm
10
0.0
20
0.0
30
2.255973186038318e-14
11
85.9999999999991
21
0.0
31
2.255973186038318e-14
  0
LINE
 8
side-panels-3mm
10
0.0
20
23.999999999999865
30
2.255973186038318e-14
11
0.0
21
0.0
31
2.255973186038318e-14
  0
LINE
 8
side-panels-3mm
10
76.08518543427726
20
12.647047612756314
30
2.255973186038318e-14
11
76.33493649053821
21
13.250000000000052
31
2.255973186038318e-14
  0
LINE
 8
side-panels-3mm
10
75.99999999999993
20
11.999999999999979
30
2.255973186038318e-14
11
76.08518543427726
21
12.647047612756314
31
2.255973186038318e-14
  0
LINE
 8
side-panels-3mm
10
76.08518543427726
20
11.352952387243644
30
2.255973186038318e-14
11
75.99999999999993
21
11.999999999999979
31
2.255973186038318e-14
  0
LINE
 8
side-panels-3mm
10
76.33493649053821
20
10.7499999999999
30
2.255973186038318e-14
11
76.08518543427726
21
11.352952387243644
31
2.255973186038318e-14
  0
LINE
 8
side-panels-3mm
10
76.73223304703278
20
10.232233047033493
30
2.255973186038318e-14
11
76.33493649053821
21
10.7499999999999
31
2.255973186038318e-14
  0
LINE
 8
side-panels-3mm
10
77.24999999999964
20
9.834936490538736
30
2.255973186038318e-14
11
76.73223304703278
21
10.232233047033493
31
2.255973186038318e-14
  0
LINE
 8
side-panels-3mm
10
77.85295238724383
20
9.585185434277157
30
2.255973186038318e-14
11
77.24999999999964
21
9.834936490538736
31
2.255973186038318e-14
  0
LINE
 8
side-panels-3mm
10
78.49999999999936
20
9.499999999999824
30
2.255973186038318e-14
11
77.85295238724383
21
9.585185434277157
31
2.255973186038318e-14
  0
LINE
 8
side-panels-3mm
10
79.14704761275632
20
9.585185434277157
30
2.255973186038318e-14
11
78.49999999999936
21
9.499999999999824
31
2.255973186038318e-14
  0
LINE
 8
side-panels-3mm
10
79.75000000000053
20
9.834936490538736
30
2.255973186038318e-14
11
79.14704761275632
21
9.585185434277157
31
2.255973186038318e-14
  0
LINE
 8
side-panels-3mm
10
80.26776695296594
20
10.232233047033493
30
2.255973186038318e-14
11
79.75000000000053
21
9.834936490538736
31
2.255973186038318e-14
  0
LINE
 8
side-panels-3mm
10
80.66506350946051
20
10.7499999999999
30
2.255973186038318e-14
11
80.26776695296594
21
10.232233047033493
31
2.255973186038318e-14
  0
LINE
 8
side-panels-3mm
10
80.91481456572292
20
11.352952387243644
30
2.255973186038318e-14
11
80.66506350946051
21
10.7499999999999
31
2.255973186038318e-14
  0
LINE
 8
side-panels-3mm
10
81.00000000000024
20
11.999999999999979
30
2.255973186038318e-14
11
80.91481456572292
21
11.352952387243644
31
2.255973186038318e-14
  0
LINE
 8
side-panels-3mm
10
80.91481456572292
20
12.647047612756314
30
2.255973186038318e-14
11
81.00000000000024
21
11.999999999999979
31
2.255973186038318e-14
  0
LINE
 8
side-panels-3mm
10
80.66506350946051
20
13.250000000000052
30
2.255973186038318e-14
11
80.91481456572292
21
12.647047612756314
31
2.255973186038318e-14
  0
LINE
 8
side-panels-3mm
10
80.26776695296594
20
13.767766952966461
30
2.255973186038318e-14
11
80.66506350946051
21
13.250000000000052
31
2.255973186038318e-14
  0
LINE
 8
side-panels-3mm
10
79.74999999999908
20
14.16506350946122
30
2.255973186038318e-14
11
80.26776695296594
21
13.767766952966461
31
2.255973186038318e-14
  0
LINE
 8
side-panels-3mm
10
79.14704761275632
20
14.4148145657228
30
2.255973186038318e-14
11
79.74999999999908
21
14.16506350946122
31
2.255973186038318e-14
  0
LINE
 8
side-panels-3mm
10
77.85295238724383
20
14.4148145657228
30
2.255973186038318e-14
11
78.49999999999936
21
14.500000000000131
31
2.255973186038318e-14
  0
LINE
 8
side-panels-3mm
10
77.24999999999964
20
14.16506350946122
30
2.255973186038318e-14
11
77.85295238724383
21
14.4148145657228
31
2.255973186038318e-14
  0
LINE
 8
side-panels-3mm
10
76.73223304703278
20
13.767766952966461
30
2.255973186038318e-14
11
77.24999999999964
21
14.16506350946122
31
2.255973186038318e-14
  0
LINE
 8
side-panels-3mm
10
76.33493649053821
20
13.250000000000052
30
2.255973186038318e-14
11
76.73223304703278
21
13.767766952966461
31
2.255973186038318e-14
  0
LINE
 8
side-panels-3mm
10
6.250000000000022
20
9.834936490538556
30
2.255973186038318e-14
11
5.732233047033162
21
10.232233047033311
31
2.255973186038318e-14
  0
LINE
 8
side-panels-3mm
10
6.8529523872442155
20
9.585185434276976
30
2.255973186038318e-14
11
6.250000000000022
21
9.834936490538556
31
2.255973186038318e-14
  0
LINE
 8
side-panels-3mm
10
7.499999999999738
20
9.499999999999645
30
2.255973186038318e-14
11
6.8529523872442155
21
9.585185434276976
31
2.255973186038318e-14
  0
LINE
 8
side-panels-3mm
10
8.147047612756705
20
9.585185434276976
30
2.255973186038318e-14
11
7.499999999999738
21
9.499999999999645
31
2.255973186038318e-14
  0
LINE
 8
side-panels-3mm
10
8.750000000000176
20
9.834936490538556
30
2.255973186038318e-14
11
8.147047612756705
21
9.585185434276976
31
2.255973186038318e-14
  0
LINE
 8
side-panels-3mm
10
9.267766952966314
20
10.232233047033311
30
2.255973186038318e-14
11
8.750000000000176
21
9.834936490538556
31
2.255973186038318e-14
  0
LINE
 8
side-panels-3mm
10
9.66506350946089
20
10.749999999999721
30
2.255973186038318e-14
11
9.267766952966314
21
10.232233047033311
31
2.255973186038318e-14
  0
LINE
 8
side-panels-3mm
10
9.914814565723281
20
11.352952387243462
30
2.255973186038318e-14
11
9.66506350946089
21
10.749999999999721
31
2.255973186038318e-14
  0
LINE
 8
side-panels-3mm
10
10.000000000000613
20
11.999999999999797
30
2.255973186038318e-14
11
9.914814565723281
21
11.352952387243462
31
2.255973186038318e-14
  0
LINE
 8
side-panels-3mm
10
9.914814565723281
20
12.647047612756133
30
2.255973186038318e-14
11
10.000000000000613
21
11.999999999999797
31
2.255973186038318e-14
  0
LINE
 8
side-panels-3mm
10
9.66506350946089
20
13.249999999999874
30
2.255973186038318e-14
11
9.914814565723281
21
12.647047612756133
31
2.255973186038318e-14
  0
LINE
 8
side-panels-3mm
10
9.267766952966314
20
13.767766952966284
30
2.255973186038318e-14
11
9.66506350946089
21
13.249999999999874
31
2.255973186038318e-14
  0
LINE
 8
side-panels-3mm
10
8.750000000000176
20
14.165063509461039
30
2.255973186038318e-14
11
9.267766952966314
21
13.767766952966284
31
2.255973186038318e-14
  0
LINE
 8
side-panels-3mm
10
8.147047612756705
20
14.414814565722619
30
2.255973186038318e-14
11
8.750000000000176
21
14.165063509461039
31
2.255973186038318e-14
  0
LINE
 8
side-panels-3mm
10
7.499999999999738
20
14.49999999999995
30
2.255973186038318e-14
11
8.147047612756705
21
14.414814565722619
31
2.255973186038318e-14
  0
LINE
 8
side-panels-3mm
10
6.8529523872442155
20
14.414814565722619
30
2.255973186038318e-14
11
7.499999999999738
21
14.49999999999995
31
2.255973186038318e-14
  0
LINE
 8
side-panels-3mm
10
6.250000000000022
20
14.165063509461039
30
2.255973186038318e-14
11
6.8529523872442155
21
14.414814565722619
31
2.255973186038318e-14
  0
LINE
 8
side-panels-3mm
10
5.732233047033162
20
13.767766952966284
30
2.255973186038318e-14
11
6.250000000000022
21
14.165063509461039
31
2.255973186038318e-14
  0
LINE
 8
side-panels-3mm
10
5.3349364905385865
20
13.249999999999874
30
2.255973186038318e-14
11
5.732233047033162
21
13.767766952966284
31
2.255973186038318e-14
  0
LINE
 8
side-panels-3mm
10
5.085185434277639
20
12.647047612756133
30
2.255973186038318e-14
11
5.3349364905385865
21
13.249999999999874
31
2.255973186038318e-14
  0
LINE
 8
side-panels-3mm
10
5.000000000000306
20
11.999999999999797
30
2.255973186038318e-14
11
5.085185434277639
21
12.647047612756133
31
2.255973186038318e-14
  0
LINE
 8
side-panels-3mm
10
5.085185434277639
20
11.352952387243462
30
2.255973186038318e-14
11
5.000000000000306
21
11.999999999999797
31
2.255973186038318e-14
  0
LINE
 8
side-panels-3mm
10
5.3349364905385865
20
10.749999999999721
30
2.255973186038318e-14
11
5.085185434277639
21
11.352952387243462
31
2.255973186038318e-14
  0
LINE
 8
side-panels-3mm
10
5.732233047033162
20
10.232233047033311
30
2.255973186038318e-14
11
5.3349364905385865
21
10.749999999999721
31
2.255973186038318e-14
 0
ENDSEC
 0
EOF
