 0
SECTION
 2
ENTITIES
  0
LINE
 8
side-panels-5mm
10
2.887645678129047e-12
20
71.70000000000047
30
2.2033430010282017e-06
11
100.9999983801548
21
71.7000000000005
31
3.661499210849683e-06
  0
LINE
 8
side-panels-5mm
10
59.99038105765051
20
40.19999999175583
30
3.926002275989049e-06
11
59.135254916507456
21
41.51677877614325
31
3.928323943114264e-06
  0
LINE
 8
side-panels-5mm
10
61.917828431407855
20
34.26792694077021
30
3.915881709559699e-06
11
61.672214011890695
21
35.818675354022425
31
3.91848162841768e-06
  0
LINE
 8
side-panels-5mm
10
57.03695909626586
20
43.84717237391678
30
3.932536386486163e-06
11
55.816778785270394
21
44.83525490737949
31
3.934381411596633e-06
  0
LINE
 8
side-panels-5mm
10
50.11867536315011
20
47.37221400276301
30
3.939567578115088e-06
11
48.56792694989853
21
47.61782842227962
31
3.9402462650883764e-06
  0
LINE
 8
side-panels-5mm
10
61.917828431407855
20
31.132073042740807
30
3.910710387344807e-06
11
62.00000000088308
21
32.699999991756094
31
3.913281655343326e-06
  0
LINE
 8
side-panels-5mm
10
55.816778785270394
20
44.83525490737949
30
3.934381411596633e-06
11
54.50000000088334
21
45.690381048523
31
3.936022586970012e-06
  0
LINE
 8
side-panels-5mm
10
61.26584774531142
20
37.33525490738084
30
3.921053437849764e-06
11
60.70318186552238
21
38.801049637893016
31
3.923569795460935e-06
  0
LINE
 8
side-panels-5mm
10
60.70318186552238
20
38.801049637893016
30
3.923569795460935e-06
11
59.99038105765051
21
40.19999999175583
31
3.926002275989049e-06
  0
LINE
 8
side-panels-5mm
10
44.75000000000875
20
63.865063509461734
30
2.1716341247923762e-06
11
44.32717348411142
21
63.55786206369384
31
2.1716357490930704e-06
  0
LINE
 8
side-panels-5mm
10
43.554630998173586
20
62.21977922704519
30
2.17163611004878e-06
11
43.50000000000903
21
61.70000000000095
31
2.1716360649293163e-06
  0
LINE
 8
side-panels-5mm
10
61.26584774531142
20
28.064745076132343
30
3.905766873302241e-06
11
61.672214011890695
21
29.581324629489224
31
3.908196827140386e-06
  0
LINE
 8
side-panels-5mm
10
61.672214011890695
20
29.581324629489224
30
3.908196827140386e-06
11
61.917828431407855
21
31.132073042740807
31
3.910710387344807e-06
  0
LINE
 8
side-panels-5mm
10
58.14717238304419
20
42.73695908713808
30
3.930510657923491e-06
11
57.03695909626586
21
43.84717237391678
31
3.932536386486163e-06
  0
LINE
 8
side-panels-5mm
10
62.00000000088308
20
32.699999991756094
30
3.913281655343326e-06
11
61.917828431407855
21
34.26792694077021
31
3.915881709559699e-06
  0
LINE
 8
side-panels-5mm
10
46.26132115817738
20
64.18630473842225
30
2.171633402880957e-06
11
45.73867884183955
21
64.18630473842208
31
2.1716344406286226e-06
  0
LINE
 8
side-panels-5mm
10
51.63525491650771
20
46.965847736183555
30
3.938630537092536e-06
11
50.11867536315011
21
47.37221400276301
31
3.939567578115088e-06
  0
LINE
 8
side-panels-5mm
10
45.22745751407208
20
59.322358709262375
30
2.171634982062187e-06
11
45.73867884183955
21
59.21369526158045
31
2.1716347113454047e-06
  0
LINE
 8
side-panels-5mm
10
54.50000000088334
20
45.690381048523
30
3.936022586970012e-06
11
53.101049647021064
21
46.403181856393886
31
3.937444481749708e-06
  0
LINE
 8
side-panels-5mm
10
59.135254916507456
20
41.51677877614325
30
3.928323943114264e-06
11
58.14717238304419
21
42.73695908713808
31
3.930510657923491e-06
  0
LINE
 8
side-panels-5mm
10
61.672214011890695
20
35.818675354022425
30
3.91848162841768e-06
11
61.26584774531142
21
37.33525490738084
31
3.921053437849764e-06
  0
LINE
 8
side-panels-5mm
10
53.101049647021064
20
46.403181856393886
30
3.937444481749708e-06
11
51.63525491650771
21
46.965847736183555
31
3.938630537092536e-06
  0
LINE
 8
side-panels-5mm
10
47.25000000000818
20
59.5349364905398
30
2.1716338991950576e-06
11
47.672826515905506
21
59.842137936306976
31
2.1716336284782756e-06
  0
LINE
 8
side-panels-5mm
10
46.772542485946296
20
59.32235870926256
30
2.1716346211064773e-06
11
47.25000000000818
21
59.5349364905398
31
2.1716338991950576e-06
  0
LINE
 8
side-panels-5mm
10
46.26132115817738
20
59.21369526158018
30
2.1716346211064773e-06
11
46.772542485946296
21
59.32235870926256
31
2.1716346211064773e-06
  0
LINE
 8
side-panels-5mm
10
2.887645678129047e-12
20
3.6095570976613087e-13
30
2.2033433619839116e-06
11
2.887645678129047e-12
21
71.70000000000047
31
2.2033430010282017e-06
  0
LINE
 8
side-panels-5mm
10
47.672826515905506
20
59.842137936306976
30
2.1716336284782756e-06
11
48.02254248594601
21
60.23053686926885
31
2.171634846703796e-06
  0
LINE
 8
side-panels-5mm
10
47.25000000000963
20
63.86506350946192
30
2.171633673597739e-06
11
46.772542485946296
21
64.07764129073907
31
2.1716338089561303e-06
  0
LINE
 8
side-panels-5mm
10
48.500000000009344
20
61.70000000000077
30
2.1716323200138274e-06
11
48.44536900184334
21
62.21977922704527
31
2.1716338089561303e-06
  0
LINE
 8
side-panels-5mm
10
43.50000000000903
20
61.70000000000095
30
2.1716360649293163e-06
11
43.554630998173586
21
61.180220772955714
31
2.17163611004878e-06
  0
LINE
 8
side-panels-5mm
10
48.02254248594601
20
60.23053686926885
30
2.171634846703796e-06
11
48.28386364411493
21
60.683158392311555
31
2.1716324553722187e-06
  0
LINE
 8
side-panels-5mm
10
43.716136355902
20
62.71684160769034
30
2.1716358393319977e-06
11
43.554630998173586
21
62.21977922704519
31
2.17163611004878e-06
  0
LINE
 8
side-panels-5mm
10
48.28386364411493
20
62.71684160769034
30
2.1716328614473924e-06
11
48.02254248594601
21
63.169463130731415
31
2.171634034553449e-06
  0
LINE
 8
side-panels-5mm
10
44.75000000000875
20
59.534936490539614
30
2.17163489182326e-06
11
45.22745751407208
21
59.322358709262375
31
2.171634982062187e-06
  0
LINE
 8
side-panels-5mm
10
45.73867884183955
20
59.21369526158045
30
2.1716347113454047e-06
11
46.26132115817738
21
59.21369526158018
31
2.1716346211064773e-06
  0
LINE
 8
side-panels-5mm
10
43.716136355902
20
60.68315839231137
30
2.1716357039736065e-06
11
43.97745751407091
21
60.230536869268676
31
2.171636019809853e-06
  0
LINE
 8
side-panels-5mm
10
48.44536900184334
20
62.21977922704527
30
2.1716338089561303e-06
11
48.28386364411493
21
62.71684160769034
31
2.1716328614473924e-06
  0
LINE
 8
side-panels-5mm
10
48.28386364411493
20
60.683158392311555
30
2.1716324553722187e-06
11
48.44536900184334
21
61.18022077295563
31
2.1716338089561303e-06
  0
LINE
 8
side-panels-5mm
10
87.00000010311226
20
0.0
30
7.452007782404734e-07
11
85.04462821703723
21
19.700000413651665
31
0.0
  0
LINE
 8
side-panels-5mm
10
2.887645678129047e-12
20
3.6095570976613087e-13
30
2.2033433619839116e-06
11
87.00000010311226
21
0.0
31
7.452007782404734e-07
  0
LINE
 8
side-panels-5mm
10
85.04462821703723
20
19.700000413651665
30
0.0
11
100.9999983801548
21
71.7000000000005
31
3.661499210849683e-06
  0
LINE
 8
side-panels-5mm
10
7.283863644115433
20
62.71684160769007
30
2.2033375866925552e-06
11
7.022542485946519
21
63.169463130731415
31
2.2033381732455837e-06
  0
LINE
 8
side-panels-5mm
10
7.022542485946519
20
63.169463130731415
30
2.2033381732455837e-06
11
6.672826515906013
21
63.55786206369384
31
2.2033383537234384e-06
  0
LINE
 8
side-panels-5mm
10
6.672826515906013
20
63.55786206369384
30
2.2033383537234384e-06
11
6.250000000009408
21
63.86506350946192
31
2.2033377220509465e-06
  0
LINE
 8
side-panels-5mm
10
6.250000000009408
20
63.86506350946192
30
2.2033377220509465e-06
11
5.772542485946081
21
64.07764129073888
31
2.2033381281261198e-06
  0
LINE
 8
side-panels-5mm
10
5.772542485946081
20
64.07764129073888
30
2.2033381281261198e-06
11
5.261321158177884
21
64.18630473842181
31
2.203338624440221e-06
  0
LINE
 8
side-panels-5mm
10
5.261321158177884
20
64.18630473842181
30
2.203338624440221e-06
11
4.738678841840056
21
64.18630473842163
31
2.2033388500375395e-06
  0
LINE
 8
side-panels-5mm
10
4.738678841840056
20
64.18630473842163
30
2.2033388500375395e-06
11
4.227457514071858
21
64.07764129073898
31
2.203338895157003e-06
  0
LINE
 8
side-panels-5mm
10
4.227457514071858
20
64.07764129073898
30
2.203338895157003e-06
11
3.750000000009254
21
63.86506350946192
31
2.203338940276467e-06
  0
LINE
 8
side-panels-5mm
10
3.750000000009254
20
63.86506350946192
30
2.203338940276467e-06
11
3.3271734841119267
21
63.55786206369384
31
2.2033401133825238e-06
  0
LINE
 8
side-panels-5mm
10
3.3271734841119267
20
63.55786206369384
30
2.2033401133825238e-06
11
2.9774575140714203
21
63.16946313073151
31
2.2033395719489588e-06
  0
LINE
 8
side-panels-5mm
10
2.9774575140714203
20
63.16946313073151
30
2.2033395719489588e-06
11
2.7161363559025062
21
62.71684160769007
31
2.2033399780241325e-06
  0
LINE
 8
side-panels-5mm
10
2.7161363559025062
20
62.71684160769007
30
2.2033399780241325e-06
11
2.554630998174093
21
62.21977922704546
31
2.203339752426814e-06
  0
LINE
 8
side-panels-5mm
10
2.554630998174093
20
62.21977922704546
30
2.203339752426814e-06
11
2.500000000008816
21
61.70000000000077
31
2.2033399329046686e-06
  0
LINE
 8
side-panels-5mm
10
2.500000000008816
20
61.70000000000077
30
2.2033399329046686e-06
11
2.554630998174093
21
61.18022077295617
31
2.2033402938603785e-06
  0
LINE
 8
side-panels-5mm
10
2.554630998174093
20
61.18022077295617
30
2.2033402938603785e-06
11
2.7161363559025062
21
60.68315839231119
31
2.2033399780241325e-06
  0
LINE
 8
side-panels-5mm
10
2.7161363559025062
20
60.68315839231119
30
2.2033399780241325e-06
11
2.9774575140714203
21
60.230536869268676
31
2.2033396170684227e-06
  0
LINE
 8
side-panels-5mm
10
2.9774575140714203
20
60.230536869268676
30
2.2033396170684227e-06
11
3.3271734841119267
21
59.842137936307154
31
2.2033396170684227e-06
  0
LINE
 8
side-panels-5mm
10
3.3271734841119267
20
59.842137936307154
30
2.2033396170684227e-06
11
3.750000000008532
21
59.5349364905398
31
2.2033388500375395e-06
  0
LINE
 8
side-panels-5mm
10
3.750000000008532
20
59.5349364905398
30
2.2033388500375395e-06
11
4.227457514071858
21
59.32235870926201
31
2.2033396170684227e-06
  0
LINE
 8
side-panels-5mm
10
4.227457514071858
20
59.32235870926201
30
2.2033396170684227e-06
11
4.738678841840056
21
59.21369526158045
31
2.2033388049180756e-06
  0
LINE
 8
side-panels-5mm
10
4.738678841840056
20
59.21369526158045
30
2.2033388049180756e-06
11
5.261321158177884
21
59.21369526158018
31
2.203338308603975e-06
  0
LINE
 8
side-panels-5mm
10
5.261321158177884
20
59.21369526158018
30
2.203338308603975e-06
11
5.772542485946081
21
59.32235870926201
31
2.2033383537234384e-06
  0
LINE
 8
side-panels-5mm
10
5.772542485946081
20
59.32235870926201
30
2.2033383537234384e-06
11
6.2500000000086855
21
59.5349364905398
31
2.2033380830066563e-06
  0
LINE
 8
side-panels-5mm
10
6.2500000000086855
20
59.5349364905398
30
2.2033380830066563e-06
11
6.672826515906013
21
59.842137936307154
31
2.203337947648265e-06
  0
LINE
 8
side-panels-5mm
10
6.672826515906013
20
59.842137936307154
30
2.203337947648265e-06
11
7.022542485946519
21
60.23053686926849
31
2.203338218365047e-06
  0
LINE
 8
side-panels-5mm
10
7.022542485946519
20
60.23053686926849
30
2.203338218365047e-06
11
7.283863644115433
21
60.68315839231092
31
2.2033373610952366e-06
  0
LINE
 8
side-panels-5mm
10
7.283863644115433
20
60.68315839231092
30
2.2033373610952366e-06
11
7.445369001843846
21
61.180220772955444
31
2.2033381281261198e-06
  0
LINE
 8
side-panels-5mm
10
7.445369001843846
20
61.180220772955444
30
2.2033381281261198e-06
11
7.500000000009123
21
61.70000000000104
31
2.203336774542208e-06
  0
LINE
 8
side-panels-5mm
10
7.500000000009123
20
61.70000000000104
30
2.203336774542208e-06
11
7.445369001843846
21
62.219779227045365
31
2.203337812289874e-06
  0
LINE
 8
side-panels-5mm
10
7.445369001843846
20
62.219779227045365
30
2.203337812289874e-06
11
7.283863644115433
21
62.71684160769007
31
2.2033375866925552e-06
  0
LINE
 8
side-panels-5mm
10
5.261321158177884
20
22.21369526157957
30
2.2033388500375395e-06
11
5.772542485946081
21
22.32235870926285
31
2.2033389853959307e-06
  0
LINE
 8
side-panels-5mm
10
5.772542485946081
20
22.32235870926285
30
2.2033389853959307e-06
11
6.2500000000086855
21
22.534936490539366
31
2.2033379927677285e-06
  0
LINE
 8
side-panels-5mm
10
6.2500000000086855
20
22.534936490539366
30
2.2033379927677285e-06
11
6.672826515906013
21
22.84213793630745
31
2.203337631812019e-06
  0
LINE
 8
side-panels-5mm
10
6.672826515906013
20
22.84213793630745
30
2.203337631812019e-06
11
7.022542485946519
21
23.230536869269688
31
2.2033380830066563e-06
  0
LINE
 8
side-panels-5mm
10
7.022542485946519
20
23.230536869269688
30
2.2033380830066563e-06
11
7.283863644115433
21
23.683158392311395
31
2.2033374062147005e-06
  0
LINE
 8
side-panels-5mm
10
7.283863644115433
20
23.683158392311395
30
2.2033374062147005e-06
11
7.445369001843846
21
24.1802207729561
31
2.203337812289874e-06
  0
LINE
 8
side-panels-5mm
10
7.445369001843846
20
24.1802207729561
30
2.203337812289874e-06
11
7.500000000009123
21
24.70000000000016
31
2.2033373610952366e-06
  0
LINE
 8
side-panels-5mm
10
7.500000000009123
20
24.70000000000016
30
2.2033373610952366e-06
11
7.445369001843846
21
25.21977922704494
31
2.2033380830066563e-06
  0
LINE
 8
side-panels-5mm
10
7.445369001843846
20
25.21977922704494
30
2.2033380830066563e-06
11
7.283863644115433
21
25.716841607689826
31
2.203337135497918e-06
  0
LINE
 8
side-panels-5mm
10
7.283863644115433
20
25.716841607689826
30
2.203337135497918e-06
11
7.022542485946519
21
26.169463130732254
31
2.203337812289874e-06
  0
LINE
 8
side-panels-5mm
10
7.022542485946519
20
26.169463130732254
30
2.203337812289874e-06
11
6.672826515906013
21
26.557862063694493
31
2.2033376769314826e-06
  0
LINE
 8
side-panels-5mm
10
6.672826515906013
20
26.557862063694493
30
2.2033376769314826e-06
11
6.250000000009408
21
26.86506350946239
31
2.2033384439623657e-06
  0
LINE
 8
side-panels-5mm
10
6.250000000009408
20
26.86506350946239
30
2.2033384439623657e-06
11
5.772542485946081
21
27.077641290738548
31
2.2033384439623657e-06
  0
LINE
 8
side-panels-5mm
10
5.772542485946081
20
27.077641290738548
30
2.2033384439623657e-06
11
5.261321158177884
21
27.18630473842129
31
2.203338579320757e-06
  0
LINE
 8
side-panels-5mm
10
5.261321158177884
20
27.18630473842129
30
2.203338579320757e-06
11
4.738678841840056
21
27.186304738421107
31
2.2033391658737854e-06
  0
LINE
 8
side-panels-5mm
10
4.738678841840056
20
27.186304738421107
30
2.2033391658737854e-06
11
4.227457514071858
21
27.077641290738278
31
2.203339075634858e-06
  0
LINE
 8
side-panels-5mm
10
4.227457514071858
20
27.077641290738278
30
2.203339075634858e-06
11
3.750000000009254
21
26.86506350946221
31
2.203339030515394e-06
  0
LINE
 8
side-panels-5mm
10
3.750000000009254
20
26.86506350946221
30
2.203339030515394e-06
11
3.3271734841119267
21
26.557862063694312
31
2.2033395268294953e-06
  0
LINE
 8
side-panels-5mm
10
3.3271734841119267
20
26.557862063694312
30
2.2033395268294953e-06
11
2.9774575140714203
21
26.169463130732254
31
2.2033395268294953e-06
  0
LINE
 8
side-panels-5mm
10
2.9774575140714203
20
26.169463130732254
30
2.2033395268294953e-06
11
2.7161363559025062
21
25.716841607690096
31
2.20334006826306e-06
  0
LINE
 8
side-panels-5mm
10
2.7161363559025062
20
25.716841607690096
30
2.20334006826306e-06
11
2.554630998174093
21
25.21977922704494
31
2.203340519457697e-06
  0
LINE
 8
side-panels-5mm
10
2.554630998174093
20
25.21977922704494
30
2.203340519457697e-06
11
2.500000000008816
21
24.700000000000248
31
2.2033410608912616e-06
  0
LINE
 8
side-panels-5mm
10
2.500000000008816
20
24.700000000000248
30
2.2033410608912616e-06
11
2.554630998174093
21
24.18022077295574
31
2.2033397975462774e-06
  0
LINE
 8
side-panels-5mm
10
2.554630998174093
20
24.18022077295574
30
2.2033397975462774e-06
11
2.7161363559025062
21
23.683158392311846
31
2.2033401585019872e-06
  0
LINE
 8
side-panels-5mm
10
2.7161363559025062
20
23.683158392311846
30
2.2033401585019872e-06
11
2.9774575140714203
21
23.230536869269326
31
2.203339436590568e-06
  0
LINE
 8
side-panels-5mm
10
2.9774575140714203
20
23.230536869269326
30
2.203339436590568e-06
11
3.3271734841119267
21
22.84213793630745
31
2.203340203621451e-06
  0
LINE
 8
side-panels-5mm
10
3.3271734841119267
20
22.84213793630745
30
2.203340203621451e-06
11
3.750000000008532
21
22.534936490539188
31
2.203339075634858e-06
  0
LINE
 8
side-panels-5mm
10
3.750000000008532
20
22.534936490539188
30
2.203339075634858e-06
11
4.227457514071858
21
22.32235870926303
31
2.203339887785205e-06
  0
LINE
 8
side-panels-5mm
10
4.227457514071858
20
22.32235870926303
30
2.203339887785205e-06
11
4.738678841840056
21
22.21369526157984
31
2.2033398426657413e-06
  0
LINE
 8
side-panels-5mm
10
4.738678841840056
20
22.21369526157984
30
2.2033398426657413e-06
11
5.261321158177884
21
22.21369526157957
31
2.2033388500375395e-06
  0
LINE
 8
side-panels-5mm
10
79.73867720136133
20
22.213695261579208
30
7.451921604229028e-07
11
79.22745587359385
21
22.32235870926303
31
7.451908068389912e-07
  0
LINE
 8
side-panels-5mm
10
80.26131951769915
20
22.213695261579208
30
7.451899495691805e-07
11
79.73867720136133
21
22.213695261579208
31
7.451921604229028e-07
  0
LINE
 8
side-panels-5mm
10
80.77254084546662
20
22.32235870926321
30
7.451910324363098e-07
11
80.26131951769915
21
22.213695261579208
31
7.451899495691805e-07
  0
LINE
 8
side-panels-5mm
10
81.24999835953284
20
22.534936490539366
30
7.451921604229028e-07
11
80.77254084546662
21
22.32235870926321
31
7.451910324363098e-07
  0
LINE
 8
side-panels-5mm
10
81.672824875428
20
22.84213793630763
30
7.451913031530921e-07
11
81.24999835953284
21
22.534936490539366
31
7.451921604229028e-07
  0
LINE
 8
side-panels-5mm
10
82.02254084546779
20
23.230536869269596
30
7.451927920953948e-07
11
81.672824875428
21
22.84213793630763
31
7.451913031530921e-07
  0
LINE
 8
side-panels-5mm
10
82.2838620036367
20
23.683158392311572
30
7.451906263611363e-07
11
82.02254084546779
21
23.230536869269596
31
7.451927920953948e-07
  0
LINE
 8
side-panels-5mm
10
82.44536736136511
20
24.18022077295592
30
7.45192295781294e-07
11
82.2838620036367
21
23.683158392311572
31
7.451906263611363e-07
  0
LINE
 8
side-panels-5mm
10
82.49999835952967
20
24.70000000000016
30
7.451893630161521e-07
11
82.44536736136511
21
24.18022077295592
31
7.45192295781294e-07
  0
LINE
 8
side-panels-5mm
10
82.44536736136511
20
25.219779227045297
30
7.451912580336284e-07
11
82.49999835952967
21
24.70000000000016
31
7.451893630161521e-07
  0
LINE
 8
side-panels-5mm
10
82.2838620036367
20
25.716841607689915
30
7.451905361222088e-07
11
82.44536736136511
21
25.219779227045297
31
7.451912580336284e-07
  0
LINE
 8
side-panels-5mm
10
82.02254084546779
20
26.16946313073198
30
7.451928823343223e-07
11
82.2838620036367
21
25.716841607689915
31
7.451905361222088e-07
  0
LINE
 8
side-panels-5mm
10
81.672824875428
20
26.557862063694493
30
7.451915287504107e-07
11
82.02254084546779
21
26.16946313073198
31
7.451928823343223e-07
  0
LINE
 8
side-panels-5mm
10
81.2499983595314
20
26.865063509462033
30
7.45192295781294e-07
11
81.672824875428
21
26.557862063694493
31
7.451915287504107e-07
  0
LINE
 8
side-panels-5mm
10
80.77254084546662
20
27.07764129073837
30
7.451904910027451e-07
11
81.2499983595314
21
26.865063509462033
31
7.45192295781294e-07
  0
LINE
 8
side-panels-5mm
10
80.26131951769915
20
27.186304738421107
30
7.451904007638177e-07
11
80.77254084546662
21
27.07764129073837
31
7.451904910027451e-07
  0
LINE
 8
side-panels-5mm
10
79.73867720136133
20
27.186304738421196
30
7.451927469759312e-07
11
80.26131951769915
21
27.186304738421107
31
7.451904007638177e-07
  0
LINE
 8
side-panels-5mm
10
79.22745587359385
20
27.07764129073837
30
7.451902202859627e-07
11
79.73867720136133
21
27.186304738421196
31
7.451927469759312e-07
  0
LINE
 8
side-panels-5mm
10
78.74999835953125
20
26.865063509462033
30
7.45190987316846e-07
11
79.22745587359385
21
27.07764129073837
31
7.451902202859627e-07
  0
LINE
 8
side-panels-5mm
10
78.3271718436332
20
26.557862063694493
30
7.451928823343223e-07
11
78.74999835953125
21
26.865063509462033
31
7.45190987316846e-07
  0
LINE
 8
side-panels-5mm
10
77.97745587359269
20
26.169463130732254
30
7.45192115303439e-07
11
78.3271718436332
21
26.557862063694493
31
7.451928823343223e-07
  0
LINE
 8
side-panels-5mm
10
77.71613471542521
20
25.716841607689826
30
7.451936042457418e-07
11
77.97745587359269
21
26.169463130732254
31
7.45192115303439e-07
  0
LINE
 8
side-panels-5mm
10
77.55462935769536
20
25.21977922704521
30
7.451918445866567e-07
11
77.71613471542521
21
25.716841607689826
31
7.451936042457418e-07
  0
LINE
 8
side-panels-5mm
10
77.49999835952936
20
24.70000000000016
30
7.451936042457418e-07
11
77.55462935769536
21
25.21977922704521
31
7.451918445866567e-07
  0
LINE
 8
side-panels-5mm
10
77.55462935769536
20
24.18022077295601
30
7.451927018564674e-07
11
77.49999835952936
21
24.70000000000016
31
7.451936042457418e-07
  0
LINE
 8
side-panels-5mm
10
77.71613471542521
20
23.683158392311572
30
7.45193739604133e-07
11
77.55462935769536
21
24.18022077295601
31
7.451927018564674e-07
  0
LINE
 8
side-panels-5mm
10
77.97745587359269
20
23.230536869269958
30
7.451917543477293e-07
11
77.71613471542521
21
23.683158392311572
31
7.45193739604133e-07
  0
LINE
 8
side-panels-5mm
10
78.3271718436332
20
22.84213793630745
30
7.45191799467193e-07
11
77.97745587359269
21
23.230536869269958
31
7.451917543477293e-07
  0
LINE
 8
side-panels-5mm
10
78.74999835953197
20
22.534936490539366
30
7.451917543477293e-07
11
78.3271718436332
21
22.84213793630745
31
7.45191799467193e-07
  0
LINE
 8
side-panels-5mm
10
79.22745587359385
20
22.32235870926303
30
7.451908068389912e-07
11
78.74999835953197
21
22.534936490539366
31
7.451917543477293e-07
  0
LINE
 8
side-panels-5mm
10
89.71613473604683
20
62.716841607690185
30
1.135900907911491e-06
11
89.97745589421501
21
63.16946313073099
31
1.1358988775356237e-06
  0
LINE
 8
side-panels-5mm
10
89.55462937831768
20
62.21977922704557
30
1.1359008627920274e-06
11
89.71613473604683
21
62.716841607690185
31
1.135900907911491e-06
  0
LINE
 8
side-panels-5mm
10
89.49999838015313
20
61.7000000000007
30
1.1359021712564754e-06
11
89.55462937831768
21
62.21977922704557
31
1.1359008627920274e-06
  0
LINE
 8
side-panels-5mm
10
89.55462937831768
20
61.18022077295583
30
1.135901404225592e-06
11
89.49999838015313
21
61.7000000000007
31
1.1359021712564754e-06
  0
LINE
 8
side-panels-5mm
10
89.71613473604683
20
60.68315839231103
30
1.1359003664779265e-06
11
89.55462937831768
21
61.18022077295583
31
1.135901404225592e-06
  0
LINE
 8
side-panels-5mm
10
89.97745589421501
20
60.230536869268605
30
1.135899644566507e-06
11
89.71613473604683
21
60.68315839231103
31
1.1359003664779265e-06
  0
LINE
 8
side-panels-5mm
10
90.32717186425552
20
59.842137936307175
30
1.1359009530309548e-06
11
89.97745589421501
21
60.230536869268605
31
1.135899644566507e-06
  0
LINE
 8
side-panels-5mm
10
90.7499983801543
20
59.53493649054018
30
1.135898651938305e-06
11
90.32717186425552
21
59.842137936307175
31
1.1359009530309548e-06
  0
LINE
 8
side-panels-5mm
10
91.22745589421618
20
59.32235870926204
30
1.1359008176725637e-06
11
90.7499983801543
21
59.53493649054018
31
1.135898651938305e-06
  0
LINE
 8
side-panels-5mm
10
91.7386772219851
20
59.21369526158056
30
1.135900907911491e-06
11
91.22745589421618
21
59.32235870926204
31
1.1359008176725637e-06
  0
LINE
 8
side-panels-5mm
10
92.26131953832292
20
59.21369526158056
30
1.1358979300268856e-06
11
91.7386772219851
21
59.21369526158056
31
1.135900907911491e-06
  0
LINE
 8
side-panels-5mm
10
92.7725408660904
20
59.322358709261856
30
1.1358993738497246e-06
11
92.26131953832292
21
59.21369526158056
31
1.1358979300268856e-06
  0
LINE
 8
side-panels-5mm
10
93.24999838015373
20
59.53493649054027
30
1.135900456716854e-06
11
92.7725408660904
21
59.322358709261856
31
1.1358993738497246e-06
  0
LINE
 8
side-panels-5mm
10
93.67282489604956
20
59.842137936307
30
1.1358995543275795e-06
11
93.24999838015373
21
59.53493649054027
31
1.135900456716854e-06
  0
LINE
 8
side-panels-5mm
10
94.02254086609007
20
60.23053686926843
30
1.1359011786282734e-06
11
93.67282489604956
21
59.842137936307
31
1.1358995543275795e-06
  0
LINE
 8
side-panels-5mm
10
94.28386202426043
20
60.68315839231103
30
1.1358991933718698e-06
11
94.02254086609007
21
60.23053686926843
31
1.1359011786282734e-06
  0
LINE
 8
side-panels-5mm
10
94.4453673819874
20
61.18022077295583
30
1.1359003664779265e-06
11
94.28386202426043
21
60.68315839231103
31
1.1358991933718698e-06
  0
LINE
 8
side-panels-5mm
10
94.4999983801534
20
61.70000000000043
30
1.1358971629960024e-06
11
94.4453673819874
21
61.18022077295583
31
1.1359003664779265e-06
  0
LINE
 8
side-panels-5mm
10
94.4453673819874
20
62.21977922704521
30
1.1358997348054344e-06
11
94.4999983801534
21
61.70000000000043
31
1.1358971629960024e-06
  0
LINE
 8
side-panels-5mm
10
94.28386202426043
20
62.71684160769009
30
1.1358998250443618e-06
11
94.4453673819874
21
62.21977922704521
31
1.1358997348054344e-06
  0
LINE
 8
side-panels-5mm
10
94.02254086609007
20
63.16946313073099
30
1.135900140880608e-06
11
94.28386202426043
21
62.71684160769009
31
1.1358998250443618e-06
  0
LINE
 8
side-panels-5mm
10
93.67282489604956
20
63.557862063693676
30
1.135900276238999e-06
11
94.02254086609007
21
63.16946313073099
31
1.135900140880608e-06
  0
LINE
 8
side-panels-5mm
10
93.24999838015373
20
63.8650635094623
30
1.1359011335088097e-06
11
93.67282489604956
21
63.557862063693676
31
1.135900276238999e-06
  0
LINE
 8
side-panels-5mm
10
92.7725408660904
20
64.07764129073882
30
1.135899148252406e-06
11
93.24999838015373
21
63.8650635094623
31
1.1359011335088097e-06
  0
LINE
 8
side-panels-5mm
10
92.26131953832292
20
64.18630473842192
30
1.1358979300268856e-06
11
92.7725408660904
21
64.07764129073882
31
1.135899148252406e-06
  0
LINE
 8
side-panels-5mm
10
91.7386772219851
20
64.18630473842201
30
1.135900907911491e-06
11
92.26131953832292
21
64.18630473842192
31
1.1358979300268856e-06
  0
LINE
 8
side-panels-5mm
10
91.22745589421618
20
64.077641290739
30
1.1359000506416804e-06
11
91.7386772219851
21
64.18630473842201
31
1.135900907911491e-06
  0
LINE
 8
side-panels-5mm
10
90.74999838015285
20
63.8650635094623
30
1.1358992836107972e-06
11
91.22745589421618
21
64.077641290739
31
1.1359000506416804e-06
  0
LINE
 8
side-panels-5mm
10
90.32717186425552
20
63.557862063693676
30
1.1359027578095036e-06
11
90.74999838015285
21
63.8650635094623
31
1.1358992836107972e-06
  0
LINE
 8
side-panels-5mm
10
89.97745589421501
20
63.16946313073099
30
1.1358988775356237e-06
11
90.32717186425552
21
63.557862063693676
31
1.1359027578095036e-06
  0
LINE
 8
side-panels-5mm
10
60.70318186552238
20
26.598950345618995
30
3.90344998884018e-06
11
61.26584774531142
21
28.064745076132343
31
3.905766873302241e-06
  0
LINE
 8
side-panels-5mm
10
48.56792694989853
20
47.61782842227962
30
3.9402462650883764e-06
11
47.000000000883595
21
47.69999999175566
31
3.9406573936417996e-06
  0
LINE
 8
side-panels-5mm
10
47.000000000883595
20
47.69999999175566
30
3.9406573936417996e-06
11
45.43207305186866
21
47.61782842227962
31
3.940798527324319e-06
  0
LINE
 8
side-panels-5mm
10
45.43207305186866
20
47.61782842227962
30
3.940798527324319e-06
11
43.881324638617805
21
47.37221400276301
31
3.94066637241508e-06
  0
LINE
 8
side-panels-5mm
10
43.881324638617805
20
47.37221400276301
30
3.94066637241508e-06
11
42.36474508525947
21
46.96584773618338
31
3.940263184887272e-06
  0
LINE
 8
side-panels-5mm
10
42.36474508525947
20
46.96584773618338
30
3.940263184887272e-06
11
40.89895035474613
21
46.403181856394156
31
3.939594785151712e-06
  0
LINE
 8
side-panels-5mm
10
40.89895035474613
20
46.403181856394156
30
3.939594785151712e-06
11
39.500000000883844
21
45.690381048523186
31
3.938664421809789e-06
  0
LINE
 8
side-panels-5mm
10
39.500000000883844
20
45.690381048523186
30
3.938664421809789e-06
11
38.18322121649679
21
44.83525490737976
31
3.937486578209359e-06
  0
LINE
 8
side-panels-5mm
10
38.18322121649679
20
44.83525490737976
30
3.937486578209359e-06
11
36.96304090550133
21
43.84717237391632
31
3.936071902543858e-06
  0
LINE
 8
side-panels-5mm
10
36.96304090550133
20
43.84717237391632
30
3.936071902543858e-06
11
35.852827618723
21
42.73695908713835
31
3.934437269492719e-06
  0
LINE
 8
side-panels-5mm
10
35.852827618723
20
42.73695908713835
30
3.934437269492719e-06
11
34.864745085259734
21
41.516778776143425
31
3.932599283018589e-06
  0
LINE
 8
side-panels-5mm
10
34.864745085259734
20
41.516778776143425
30
3.932599283018589e-06
11
34.009618944116674
21
40.19999999175637
31
3.930578382238536e-06
  0
LINE
 8
side-panels-5mm
10
34.009618944116674
20
40.19999999175637
30
3.930578382238536e-06
11
33.2968181362448
21
38.80104963789319
31
3.9283971720038835e-06
  0
LINE
 8
side-panels-5mm
10
33.2968181362448
20
38.80104963789319
30
3.9283971720038835e-06
11
32.73415225645648
21
37.33525490738075
31
3.926079204674693e-06
  0
LINE
 8
side-panels-5mm
10
32.73415225645648
20
37.33525490738075
30
3.926079204674693e-06
11
32.32778598987721
21
35.81867535402279
31
3.923650423942604e-06
  0
LINE
 8
side-panels-5mm
10
32.32778598987721
20
35.81867535402279
30
3.923650423942604e-06
11
32.082171570359336
21
34.2679269407703
31
3.92113645766301e-06
  0
LINE
 8
side-panels-5mm
10
32.082171570359336
20
34.2679269407703
30
3.92113645766301e-06
11
32.00000000088411
21
32.69999999175592
31
3.918565370142346e-06
  0
LINE
 8
side-panels-5mm
10
32.00000000088411
20
32.69999999175592
30
3.918565370142346e-06
11
32.082171570359336
21
31.132073042741165
31
3.915965451284365e-06
  0
LINE
 8
side-panels-5mm
10
32.082171570359336
20
31.132073042741165
30
3.915965451284365e-06
11
32.32778598987721
21
29.581324629489316
31
3.9133660287404835e-06
  0
LINE
 8
side-panels-5mm
10
32.32778598987721
20
29.581324629489316
30
3.9133660287404835e-06
11
32.73415225645648
21
28.064745076132702
31
3.910792549888242e-06
  0
LINE
 8
side-panels-5mm
10
32.73415225645648
20
28.064745076132702
30
3.910792549888242e-06
11
33.2968181362448
21
26.598950345619357
31
3.9082767788301e-06
  0
LINE
 8
side-panels-5mm
10
33.2968181362448
20
26.598950345619357
30
3.9082767788301e-06
11
34.009618944116674
21
25.199999991755636
31
3.9058441629435945e-06
  0
LINE
 8
side-panels-5mm
10
34.009618944116674
20
25.199999991755636
30
3.9058441629435945e-06
11
34.864745085259734
21
23.883221207369303
31
3.903522721415697e-06
  0
LINE
 8
side-panels-5mm
10
34.864745085259734
20
23.883221207369303
30
3.903522721415697e-06
11
35.852827618723
21
22.663040896372756
31
3.901337630907164e-06
  0
LINE
 8
side-panels-5mm
10
35.852827618723
20
22.663040896372756
30
3.901337630907164e-06
11
36.96304090550133
21
21.552827609594782
31
3.89931041340219e-06
  0
LINE
 8
side-panels-5mm
10
36.96304090550133
20
21.552827609594782
30
3.89931041340219e-06
11
38.18322121649679
21
20.564745076132063
31
3.89746683211456e-06
  0
LINE
 8
side-panels-5mm
10
38.18322121649679
20
20.564745076132063
30
3.89746683211456e-06
11
39.500000000883844
21
19.709618934989365
31
3.895824393396196e-06
  0
LINE
 8
side-panels-5mm
10
39.500000000883844
20
19.709618934989365
30
3.895824393396196e-06
11
40.89895035474613
21
18.996818127116864
31
3.894402588855428e-06
  0
LINE
 8
side-panels-5mm
10
40.89895035474613
20
18.996818127116864
30
3.894402588855428e-06
11
42.36474508525947
21
18.434152247329628
31
3.8932161274374265e-06
  0
LINE
 8
side-panels-5mm
10
42.36474508525947
20
18.434152247329628
30
3.8932161274374265e-06
11
43.881324638617805
21
18.02778598074846
31
3.8922798985652205e-06
  0
LINE
 8
side-panels-5mm
10
43.881324638617805
20
18.02778598074846
30
3.8922798985652205e-06
11
45.43207305186866
21
17.782171561231664
31
3.891601572547643e-06
  0
LINE
 8
side-panels-5mm
10
45.43207305186866
20
17.782171561231664
30
3.891601572547643e-06
11
47.000000000883595
21
17.699999991756258
31
3.891189722082799e-06
  0
LINE
 8
side-panels-5mm
10
47.000000000883595
20
17.699999991756258
30
3.891189722082799e-06
11
48.56792694989853
21
17.78217156123157
31
3.891049265192237e-06
  0
LINE
 8
side-panels-5mm
10
48.56792694989853
20
17.78217156123157
30
3.891049265192237e-06
11
50.118675363149386
21
18.02778598074846
31
3.891181194504156e-06
  0
LINE
 8
side-panels-5mm
10
50.118675363149386
20
18.02778598074846
30
3.891181194504156e-06
11
51.63525491650771
21
18.434152247329358
31
3.891583524762154e-06
  0
LINE
 8
side-panels-5mm
10
51.63525491650771
20
18.434152247329358
30
3.891583524762154e-06
11
53.101049647021064
21
18.996818127116953
31
3.8922531427232345e-06
  0
LINE
 8
side-panels-5mm
10
53.101049647021064
20
18.996818127116953
30
3.8922531427232345e-06
11
54.50000000088334
21
19.709618934989727
31
3.893182603675882e-06
  0
LINE
 8
side-panels-5mm
10
54.50000000088334
20
19.709618934989727
30
3.893182603675882e-06
11
55.816778785270394
21
20.5647450761317
31
3.894360988709877e-06
  0
LINE
 8
side-panels-5mm
10
55.816778785270394
20
20.5647450761317
30
3.894360988709877e-06
11
57.03695909626586
21
21.552827609594782
31
3.895774446149858e-06
  0
LINE
 8
side-panels-5mm
10
57.03695909626586
20
21.552827609594782
30
3.895774446149858e-06
11
58.14717238304419
21
22.663040896373115
31
3.8974101169486625e-06
  0
LINE
 8
side-panels-5mm
10
58.14717238304419
20
22.663040896373115
30
3.8974101169486625e-06
11
59.135254916507456
21
23.88322120736822
31
3.89924832902011e-06
  0
LINE
 8
side-panels-5mm
10
59.135254916507456
20
23.88322120736822
30
3.89924832902011e-06
11
59.99038105765051
21
25.199999991756087
31
3.901268507888744e-06
  0
LINE
 8
side-panels-5mm
10
59.99038105765051
20
25.199999991756087
30
3.901268507888744e-06
11
60.70318186552238
21
26.598950345618995
31
3.90344998884018e-06
  0
LINE
 8
side-panels-5mm
10
43.554630998173586
20
61.180220772955714
30
2.17163611004878e-06
11
43.716136355902
21
60.68315839231137
31
2.1716357039736065e-06
  0
LINE
 8
side-panels-5mm
10
43.97745751407091
20
60.230536869268676
30
2.171636019809853e-06
11
44.32717348411142
21
59.842137936306884
31
2.171635207659506e-06
  0
LINE
 8
side-panels-5mm
10
44.32717348411142
20
59.842137936306884
30
2.171635207659506e-06
11
44.75000000000875
21
59.534936490539614
31
2.17163489182326e-06
  0
LINE
 8
side-panels-5mm
10
48.44536900184334
20
61.18022077295563
30
2.1716338089561303e-06
11
48.500000000009344
21
61.70000000000077
31
2.1716323200138274e-06
  0
LINE
 8
side-panels-5mm
10
48.02254248594601
20
63.169463130731415
30
2.171634034553449e-06
11
47.672826515905506
21
63.55786206369384
31
2.1716339894339854e-06
  0
LINE
 8
side-panels-5mm
10
47.672826515905506
20
63.55786206369384
30
2.1716339894339854e-06
11
47.25000000000963
21
63.86506350946192
31
2.171633673597739e-06
  0
LINE
 8
side-panels-5mm
10
46.772542485946296
20
64.07764129073907
30
2.1716338089561303e-06
11
46.26132115817738
21
64.18630473842225
31
2.171633402880957e-06
  0
LINE
 8
side-panels-5mm
10
45.73867884183955
20
64.18630473842208
30
2.1716344406286226e-06
11
45.22745751407208
21
64.0776412907388
31
2.171634846703796e-06
  0
LINE
 8
side-panels-5mm
10
45.22745751407208
20
64.0776412907388
30
2.171634846703796e-06
11
44.75000000000875
21
63.865063509461734
31
2.1716341247923762e-06
  0
LINE
 8
side-panels-5mm
10
44.32717348411142
20
63.55786206369384
30
2.1716357490930704e-06
11
43.97745751407091
21
63.169463130731415
31
2.171635207659506e-06
  0
LINE
 8
side-panels-5mm
10
43.97745751407091
20
63.169463130731415
30
2.171635207659506e-06
11
43.716136355902
21
62.71684160769034
31
2.1716358393319977e-06
 0
ENDSEC
 0
EOF
