 0
SECTION
 2
ENTITIES
  0
LINE
 8
side-panels-5mm
10
365.7725424859458
20
84.07764129073885
30
2.2350516065472447e-06
11
366.2500000000091
21
83.86506350946117
31
2.2350523284586644e-06
  0
LINE
 8
side-panels-5mm
10
73.11867536315009
20
96.02778599723804
30
4.671186495386337e-07
11
71.5679269498985
21
95.78217157772133
31
4.6644023328212824e-07
  0
LINE
 8
side-panels-5mm
10
366.2500000000091
20
83.86506350946117
30
2.2350523284586644e-06
11
366.6728265159064
21
83.55786206369416
31
2.2350527796533016e-06
  0
LINE
 8
side-panels-5mm
10
76.10104964702104
20
96.99681814360726
30
4.6924129470937714e-07
11
74.63525491650769
21
96.43415226381785
31
4.680560063974326e-07
  0
LINE
 8
side-panels-5mm
10
365.2613211581783
20
84.18630473842104
30
2.235051877264027e-06
11
365.7725424859458
21
84.07764129073885
31
2.2350516065472447e-06
  0
LINE
 8
side-panels-5mm
10
364.73867884184045
20
84.18630473842077
30
2.2350514711888534e-06
11
365.2613211581783
21
84.18630473842104
31
2.235051877264027e-06
  0
LINE
 8
side-panels-5mm
10
364.22745751407155
20
84.07764129073875
30
2.23505106511368e-06
11
364.73867884184045
21
84.18630473842077
31
2.2350514711888534e-06
  0
LINE
 8
side-panels-5mm
10
74.63525491650769
20
96.43415226381785
30
4.680560063974326e-07
11
73.11867536315009
21
96.02778599723804
31
4.671186495386337e-07
  0
LINE
 8
side-panels-5mm
10
84.91782843140783
20
112.26792695726006
30
4.959758403089154e-07
11
85.00000000088306
21
110.70000000824513
31
4.934049332661061e-07
  0
LINE
 8
side-panels-5mm
10
367.02254248594693
20
83.16946313073237
30
2.2350517870250994e-06
11
367.28386364411585
21
82.71684160768967
31
2.235053321086866e-06
  0
LINE
 8
side-panels-5mm
10
366.6728265159064
20
83.55786206369416
30
2.2350527796533016e-06
11
367.02254248594693
21
83.16946313073237
31
2.2350517870250994e-06
  0
LINE
 8
side-panels-5mm
10
363.75000000000824
20
83.86506350946125
30
2.2350514711888534e-06
11
364.22745751407155
21
84.07764129073875
31
2.23505106511368e-06
  0
LINE
 8
side-panels-5mm
10
363.32717348411234
20
83.55786206369416
30
2.235050884635825e-06
11
363.75000000000824
21
83.86506350946125
31
2.2350514711888534e-06
  0
LINE
 8
side-panels-5mm
10
85.00000000088306
20
110.70000000824513
30
4.934049332661061e-07
11
84.91782843140783
21
109.13207305923083
31
4.908045180940234e-07
  0
LINE
 8
side-panels-5mm
10
367.28386364411585
20
80.68315839231097
30
2.235053140609011e-06
11
367.02254248594693
21
80.23053686926963
31
2.235052508936519e-06
  0
LINE
 8
side-panels-5mm
10
367.44536900184426
20
82.21977922704524
30
2.2350522833392005e-06
11
367.5000000000088
21
81.7
31
2.235053501564721e-06
  0
LINE
 8
side-panels-5mm
10
84.67221401189067
20
107.5813246459788
30
4.882044187581869e-07
11
84.2658477453114
21
106.06474509262011
31
4.856326544455669e-07
  0
LINE
 8
side-panels-5mm
10
77.50000000088332
20
97.70961895147813
30
4.7066382116156544e-07
11
76.10104964702104
21
96.99681814360726
31
4.6924129470937714e-07
  0
LINE
 8
side-panels-5mm
10
82.9903810576505
20
103.20000000824513
30
4.806838163062821e-07
11
82.13525491650744
21
101.8832212238577
31
4.783620589421389e-07
  0
LINE
 8
side-panels-5mm
10
84.91782843140783
20
109.13207305923083
30
4.908045180940234e-07
11
84.67221401189067
21
107.5813246459788
31
4.882044187581869e-07
  0
LINE
 8
side-panels-5mm
10
82.13525491650744
20
101.8832212238577
30
4.783620589421389e-07
11
81.14717238304416
21
100.66304091286278
31
4.7617570508862167e-07
  0
LINE
 8
side-panels-5mm
10
84.67221401189067
20
113.81867537051191
30
4.984889944381621e-07
11
84.91782843140783
21
112.26792695726006
31
4.959758403089154e-07
  0
LINE
 8
side-panels-5mm
10
84.2658477453114
20
115.3352549238687
30
5.009187677984528e-07
11
84.67221401189067
21
113.81867537051191
31
4.984889944381621e-07
  0
LINE
 8
side-panels-5mm
10
84.2658477453114
20
106.06474509262011
30
4.856326544455669e-07
11
83.70318186552237
21
104.59895036210776
31
4.831165224317147e-07
  0
LINE
 8
side-panels-5mm
10
367.44536900184426
20
81.18022077295576
30
2.2350524638170552e-06
11
367.28386364411585
21
80.68315839231097
31
2.235053140609011e-06
  0
LINE
 8
side-panels-5mm
10
367.5000000000088
20
81.7
30
2.235053501564721e-06
11
367.44536900184426
21
81.18022077295576
31
2.2350524638170552e-06
  0
LINE
 8
side-panels-5mm
10
367.28386364411585
20
82.71684160768967
30
2.235053321086866e-06
11
367.44536900184426
21
82.21977922704524
31
2.2350522833392005e-06
  0
LINE
 8
side-panels-5mm
10
80.03695909626583
20
99.55282762608427
30
4.74149886287023e-07
11
78.81677878527037
21
98.56474509262173
31
4.723049965349446e-07
  0
LINE
 8
side-panels-5mm
10
78.81677878527037
20
98.56474509262173
30
4.723049965349446e-07
11
77.50000000088332
21
97.70961895147813
31
4.7066382116156544e-07
  0
LINE
 8
side-panels-5mm
10
81.14717238304416
20
100.66304091286278
30
4.7617570508862167e-07
11
80.03695909626583
21
99.55282762608427
31
4.74149886287023e-07
  0
LINE
 8
side-panels-5mm
10
83.70318186552237
20
104.59895036210776
30
4.831165224317147e-07
11
82.9903810576505
21
103.20000000824513
31
4.806838163062821e-07
  0
LINE
 8
side-panels-5mm
10
182.5546309981736
20
81.18022077295586
30
2.235050117604942e-06
11
182.50000000000904
21
81.7000000000001
31
2.2350501627244057e-06
  0
LINE
 8
side-panels-5mm
10
183.75000000000875
20
79.53493649053912
30
2.2350515163083173e-06
11
183.32717348411143
21
79.84213793630721
31
2.2350503883217243e-06
  0
LINE
 8
side-panels-5mm
10
185.26132115817737
20
79.21369526157896
30
2.2350524186975917e-06
11
184.73867884183954
21
79.21369526157906
31
2.2350516065472447e-06
  0
LINE
 8
side-panels-5mm
10
364.73867884184045
20
79.21369526157906
30
2.2350516065472447e-06
11
364.22745751407155
21
79.32235870926216
31
2.2350510199942162e-06
  0
LINE
 8
side-panels-5mm
10
184.22745751407206
20
84.07764129073875
30
2.23505106511368e-06
11
184.73867884183954
21
84.18630473842077
31
2.2350514711888534e-06
  0
LINE
 8
side-panels-5mm
10
362.5000000000085
20
81.7000000000001
30
2.2350501627244057e-06
11
362.5546309981745
21
82.21977922704524
31
2.2350498920076232e-06
  0
LINE
 8
side-panels-5mm
10
183.75000000000875
20
83.86506350946125
30
2.2350514711888534e-06
11
184.22745751407206
21
84.07764129073875
31
2.23505106511368e-06
  0
LINE
 8
side-panels-5mm
10
362.5546309981745
20
82.21977922704524
30
2.2350498920076232e-06
11
362.7161363559029
21
82.71684160768967
31
2.2350505236801156e-06
  0
LINE
 8
side-panels-5mm
10
186.2500000000096
20
79.53493649053912
30
2.235052193100273e-06
11
185.7725424859463
21
79.32235870926206
31
2.2350519675029545e-06
  0
LINE
 8
side-panels-5mm
10
362.5546309981745
20
81.18022077295586
30
2.235050117604942e-06
11
362.5000000000085
21
81.7000000000001
31
2.2350501627244057e-06
  0
LINE
 8
side-panels-5mm
10
182.97745751407092
20
83.16946313073237
30
2.2350504334411878e-06
11
183.32717348411143
21
83.55786206369416
31
2.235050884635825e-06
  0
LINE
 8
side-panels-5mm
10
187.02254248594602
20
80.23053686926963
30
2.235052508936519e-06
11
186.6728265159055
21
79.8421379363074
31
2.2350522382197366e-06
  0
LINE
 8
side-panels-5mm
10
362.7161363559029
20
82.71684160768967
30
2.2350505236801156e-06
11
362.97745751407183
21
83.16946313073237
31
2.2350504334411878e-06
  0
LINE
 8
side-panels-5mm
10
187.50000000000932
20
81.7
30
2.235053501564721e-06
11
187.44536900184335
21
81.18022077295576
31
2.2350524638170552e-06
  0
LINE
 8
side-panels-5mm
10
187.28386364411492
20
82.71684160768967
30
2.235053321086866e-06
11
187.44536900184335
21
82.21977922704524
31
2.2350522833392005e-06
  0
LINE
 8
side-panels-5mm
10
187.44536900184335
20
82.21977922704524
30
2.2350522833392005e-06
11
187.50000000000932
21
81.7
31
2.235053501564721e-06
  0
LINE
 8
side-panels-5mm
10
366.2500000000091
20
79.53493649053912
30
2.235052193100273e-06
11
365.7725424859458
21
79.32235870926206
31
2.2350519675029545e-06
  0
LINE
 8
side-panels-5mm
10
186.25000000000819
20
83.86506350946117
30
2.2350523284586644e-06
11
186.6728265159055
21
83.55786206369416
31
2.2350527796533016e-06
  0
LINE
 8
side-panels-5mm
10
363.32717348411234
20
79.84213793630721
30
2.2350503883217243e-06
11
362.97745751407183
21
80.23053686926944
31
2.23505106511368e-06
  0
LINE
 8
side-panels-5mm
10
182.716136355902
20
80.68315839231097
30
2.235050298082797e-06
11
182.5546309981736
21
81.18022077295586
31
2.235050117604942e-06
  0
LINE
 8
side-panels-5mm
10
187.28386364411492
20
80.68315839231097
30
2.235053140609011e-06
11
187.02254248594602
21
80.23053686926963
31
2.235052508936519e-06
  0
LINE
 8
side-panels-5mm
10
182.50000000000904
20
81.7000000000001
30
2.2350501627244057e-06
11
182.5546309981736
21
82.21977922704524
31
2.2350498920076232e-06
  0
LINE
 8
side-panels-5mm
10
185.7725424859463
20
84.07764129073885
30
2.2350516065472447e-06
11
186.25000000000819
21
83.86506350946117
31
2.2350523284586644e-06
  0
LINE
 8
side-panels-5mm
10
367.02254248594693
20
80.23053686926963
30
2.235052508936519e-06
11
366.6728265159064
21
79.8421379363074
31
2.2350522382197366e-06
  0
LINE
 8
side-panels-5mm
10
184.73867884183954
20
79.21369526157906
30
2.2350516065472447e-06
11
184.22745751407206
21
79.32235870926216
31
2.2350510199942162e-06
  0
LINE
 8
side-panels-5mm
10
185.26132115817737
20
84.18630473842104
30
2.235051877264027e-06
11
185.7725424859463
21
84.07764129073885
31
2.2350516065472447e-06
  0
LINE
 8
side-panels-5mm
10
182.97745751407092
20
80.23053686926944
30
2.23505106511368e-06
11
182.716136355902
21
80.68315839231097
31
2.235050298082797e-06
  0
LINE
 8
side-panels-5mm
10
182.716136355902
20
82.71684160768967
30
2.2350505236801156e-06
11
182.97745751407092
21
83.16946313073237
31
2.2350504334411878e-06
  0
LINE
 8
side-panels-5mm
10
182.5546309981736
20
82.21977922704524
30
2.2350498920076232e-06
11
182.716136355902
21
82.71684160768967
31
2.2350505236801156e-06
  0
LINE
 8
side-panels-5mm
10
363.75000000000966
20
79.53493649053912
30
2.2350515163083173e-06
11
363.32717348411234
21
79.84213793630721
31
2.2350503883217243e-06
  0
LINE
 8
side-panels-5mm
10
365.2613211581783
20
79.21369526157896
30
2.2350524186975917e-06
11
364.73867884184045
21
79.21369526157906
31
2.2350516065472447e-06
  0
LINE
 8
side-panels-5mm
10
362.7161363559029
20
80.68315839231097
30
2.235050298082797e-06
11
362.5546309981745
21
81.18022077295586
31
2.235050117604942e-06
  0
LINE
 8
side-panels-5mm
10
362.97745751407183
20
80.23053686926944
30
2.23505106511368e-06
11
362.7161363559029
21
80.68315839231097
31
2.235050298082797e-06
  0
LINE
 8
side-panels-5mm
10
365.7725424859458
20
79.32235870926206
30
2.2350519675029545e-06
11
365.2613211581783
21
79.21369526157896
31
2.2350524186975917e-06
  0
LINE
 8
side-panels-5mm
10
184.22745751407206
20
79.32235870926216
30
2.2350510199942162e-06
11
183.75000000000875
21
79.53493649053912
31
2.2350515163083173e-06
  0
LINE
 8
side-panels-5mm
10
187.02254248594602
20
83.16946313073237
30
2.2350517870250994e-06
11
187.28386364411492
21
82.71684160768967
31
2.235053321086866e-06
  0
LINE
 8
side-panels-5mm
10
362.97745751407183
20
83.16946313073237
30
2.2350504334411878e-06
11
363.32717348411234
21
83.55786206369416
31
2.235050884635825e-06
  0
LINE
 8
side-panels-5mm
10
185.7725424859463
20
79.32235870926206
30
2.2350519675029545e-06
11
185.26132115817737
21
79.21369526157896
31
2.2350524186975917e-06
  0
LINE
 8
side-panels-5mm
10
366.6728265159064
20
79.8421379363074
30
2.2350522382197366e-06
11
366.2500000000091
21
79.53493649053912
31
2.235052193100273e-06
  0
LINE
 8
side-panels-5mm
10
183.32717348411143
20
79.84213793630721
30
2.2350503883217243e-06
11
182.97745751407092
21
80.23053686926944
31
2.23505106511368e-06
  0
LINE
 8
side-panels-5mm
10
186.6728265159055
20
83.55786206369416
30
2.2350527796533016e-06
11
187.02254248594602
21
83.16946313073237
31
2.2350517870250994e-06
  0
LINE
 8
side-panels-5mm
10
186.6728265159055
20
79.8421379363074
30
2.2350522382197366e-06
11
186.2500000000096
21
79.53493649053912
31
2.235052193100273e-06
  0
LINE
 8
side-panels-5mm
10
364.22745751407155
20
79.32235870926216
30
2.2350510199942162e-06
11
363.75000000000966
21
79.53493649053912
31
2.2350515163083173e-06
  0
LINE
 8
side-panels-5mm
10
184.73867884183954
20
84.18630473842077
30
2.2350514711888534e-06
11
185.26132115817737
21
84.18630473842104
31
2.235051877264027e-06
  0
LINE
 8
side-panels-5mm
10
183.32717348411143
20
83.55786206369416
30
2.235050884635825e-06
11
183.75000000000875
21
83.86506350946125
31
2.2350514711888534e-06
  0
LINE
 8
side-panels-5mm
10
187.44536900184335
20
81.18022077295576
30
2.2350524638170552e-06
11
187.28386364411492
21
80.68315839231097
31
2.235053140609011e-06
  0
LINE
 8
side-panels-5mm
10
6.25000000000291
20
155.36506350946476
30
2.2033389853959307e-06
11
5.772542485939584
21
155.57764129074144
31
2.2033391207543216e-06
  0
LINE
 8
side-panels-5mm
10
3.3271734809506768
20
188.34213793630843
30
2.203341196249653e-06
11
3.749999996847282
21
188.0349364905407
31
2.2033412864885802e-06
  0
LINE
 8
side-panels-5mm
10
0.0
20
214.90000000000293
30
2.2033425047141006e-06
11
539.0000001031121
21
214.90000000000293
31
4.111177788956865e-06
  0
LINE
 8
side-panels-5mm
10
3.3271734809506768
20
188.34213793630843
30
2.203341196249653e-06
11
2.9774575109101704
21
188.73053686927085
31
2.203341015771798e-06
  0
LINE
 8
side-panels-5mm
10
7.283863644108936
20
152.18315839231303
30
2.203340203621451e-06
11
7.445369001838793
21
152.68022077295856
31
2.203339752426814e-06
  0
LINE
 8
side-panels-5mm
10
2.5546309981683177
20
153.71977922704755
30
2.2033395719489588e-06
11
2.500000000002319
21
153.20000000000297
31
2.203339887785205e-06
  0
LINE
 8
side-panels-5mm
10
3.3271734841054297
20
155.0578620636973
30
2.203338940276467e-06
11
2.9774575140649233
21
154.66946313073453
31
2.2033394817100314e-06
  0
LINE
 8
side-panels-5mm
10
2.716136352740534
20
189.18315839231238
30
2.2033412413691168e-06
11
2.9774575109101704
21
188.73053686927085
31
2.203341015771798e-06
  0
LINE
 8
side-panels-5mm
10
7.283863644108936
20
154.21684160769271
30
2.2033394817100314e-06
11
7.022542485940022
21
154.66946313073444
31
2.2033395719489588e-06
  0
LINE
 8
side-panels-5mm
10
6.25000000000291
20
151.03493649054127
30
2.203340564577161e-06
11
6.672826515899516
21
151.342137936309
31
2.2033402938603785e-06
  0
LINE
 8
side-panels-5mm
10
2.887645678129047e-12
20
143.40000000000114
30
2.2033427303114192e-06
11
0.0
21
214.90000000000293
31
2.2033425047141006e-06
  0
LINE
 8
side-panels-5mm
10
539.0000001031121
20
214.90000000000293
30
4.111177788956865e-06
11
648.0000000000014
21
214.90000000000293
31
2.2033420986389273e-06
  0
LINE
 8
side-panels-5mm
10
648.0000000000014
20
143.40000000000114
30
2.20334358758123e-06
11
648.0000000000014
21
214.90000000000293
31
2.2033420986389273e-06
  0
LINE
 8
side-panels-5mm
10
539.0000001031121
20
143.40000000000114
30
3.661485404293785e-06
11
648.0000000000014
21
143.40000000000114
31
2.20334358758123e-06
  0
LINE
 8
side-panels-5mm
10
2.887645678129047e-12
20
143.40000000000114
30
2.2033427303114192e-06
11
539.0000001031121
21
143.40000000000114
31
3.661485404293785e-06
  0
LINE
 8
side-panels-5mm
10
7.022542485940022
20
154.66946313073444
30
2.2033395719489588e-06
11
6.672826515899516
21
155.05786206369703
31
2.203339075634858e-06
  0
LINE
 8
side-panels-5mm
10
6.672826515899516
20
155.05786206369703
30
2.203339075634858e-06
11
6.25000000000291
21
155.36506350946476
31
2.2033389853959307e-06
  0
LINE
 8
side-panels-5mm
10
5.772542485939584
20
155.57764129074144
30
2.2033391207543216e-06
11
5.261321158172109
21
155.68630473842427
31
2.2033389853959307e-06
  0
LINE
 8
side-panels-5mm
10
5.261321158172109
20
155.68630473842427
30
2.2033389853959307e-06
11
4.738678841833559
21
155.68630473842435
31
2.2033389853959307e-06
  0
LINE
 8
side-panels-5mm
10
4.738678841833559
20
155.68630473842435
30
2.2033389853959307e-06
11
4.227457514065361
21
155.57764129074144
31
2.2033391207543216e-06
  0
LINE
 8
side-panels-5mm
10
4.227457514065361
20
155.57764129074144
30
2.2033391207543216e-06
11
3.750000000002757
21
155.36506350946476
31
2.2033389853959307e-06
  0
LINE
 8
side-panels-5mm
10
3.750000000002757
20
155.36506350946476
30
2.2033389853959307e-06
11
3.3271734841054297
21
155.0578620636973
31
2.203338940276467e-06
  0
LINE
 8
side-panels-5mm
10
2.9774575140649233
20
154.66946313073453
30
2.2033394817100314e-06
11
2.7161363558960088
21
154.21684160769283
31
2.2033394817100314e-06
  0
LINE
 8
side-panels-5mm
10
2.7161363558960088
20
154.21684160769283
30
2.2033394817100314e-06
11
2.5546309981683177
21
153.71977922704755
31
2.2033395719489588e-06
  0
LINE
 8
side-panels-5mm
10
2.500000000002319
20
153.20000000000297
30
2.203339887785205e-06
11
2.5546309981697615
21
152.68022077295865
31
2.2033398426657413e-06
  0
LINE
 8
side-panels-5mm
10
2.5546309981697615
20
152.68022077295865
30
2.2033398426657413e-06
11
2.7161363558960088
21
152.1831583923132
31
2.2033401585019872e-06
  0
LINE
 8
side-panels-5mm
10
2.7161363558960088
20
152.1831583923132
30
2.2033401585019872e-06
11
2.9774575140649233
21
151.73053686927142
31
2.203340384099306e-06
  0
LINE
 8
side-panels-5mm
10
2.9774575140649233
20
151.73053686927142
30
2.203340384099306e-06
11
3.3271734841054297
21
151.3421379363091
31
2.2033402938603785e-06
  0
LINE
 8
side-panels-5mm
10
3.3271734841054297
20
151.3421379363091
30
2.2033402938603785e-06
11
3.750000000002757
21
151.03493649054147
31
2.2033404292187697e-06
  0
LINE
 8
side-panels-5mm
10
3.750000000002757
20
151.03493649054147
30
2.2033404292187697e-06
11
4.227457514064639
21
150.82235870926422
31
2.2033406999355518e-06
  0
LINE
 8
side-panels-5mm
10
4.227457514064639
20
150.82235870926422
30
2.2033406999355518e-06
11
4.738678841835002
21
150.71369526158165
31
2.2033406096966244e-06
  0
LINE
 8
side-panels-5mm
10
4.738678841835002
20
150.71369526158165
30
2.2033406096966244e-06
11
5.261321158173552
21
150.71369526158156
31
2.2033406096966244e-06
  0
LINE
 8
side-panels-5mm
10
5.261321158173552
20
150.71369526158156
30
2.2033406096966244e-06
11
5.772542485939584
21
150.82235870926422
31
2.2033406999355518e-06
  0
LINE
 8
side-panels-5mm
10
5.772542485939584
20
150.82235870926422
30
2.2033406999355518e-06
11
6.25000000000291
21
151.03493649054127
31
2.203340564577161e-06
  0
LINE
 8
side-panels-5mm
10
6.672826515899516
20
151.342137936309
30
2.2033402938603785e-06
11
7.022542485940022
21
151.73053686927133
31
2.2033402938603785e-06
  0
LINE
 8
side-panels-5mm
10
7.022542485940022
20
151.73053686927133
30
2.2033402938603785e-06
11
7.283863644108936
21
152.18315839231303
31
2.203340203621451e-06
  0
LINE
 8
side-panels-5mm
10
7.445369001838793
20
152.68022077295856
30
2.203339752426814e-06
11
7.5000000000026255
21
153.20000000000297
31
2.203339887785205e-06
  0
LINE
 8
side-panels-5mm
10
7.5000000000026255
20
153.20000000000297
30
2.203339887785205e-06
11
7.445369001837349
21
153.71977922704738
31
2.203339752426814e-06
  0
LINE
 8
side-panels-5mm
10
7.445369001837349
20
153.71977922704738
30
2.203339752426814e-06
11
7.283863644108936
21
154.21684160769271
31
2.2033394817100314e-06
  0
LINE
 8
side-panels-5mm
10
3.749999996847282
20
188.0349364905407
30
2.2033412864885802e-06
11
4.227457510909886
21
187.8223587092639
31
2.203341196249653e-06
  0
LINE
 8
side-panels-5mm
10
4.227457510909886
20
187.8223587092639
30
2.203341196249653e-06
11
4.738678838678084
21
187.7136952615812
31
2.2033412413691168e-06
  0
LINE
 8
side-panels-5mm
10
4.738678838678084
20
187.7136952615812
30
2.2033412413691168e-06
11
5.261321155016634
21
187.713695261581
31
2.2033412864885802e-06
  0
LINE
 8
side-panels-5mm
10
5.261321155016634
20
187.713695261581
30
2.2033412864885802e-06
11
5.772542482784831
21
187.82235870926402
31
2.2033412413691168e-06
  0
LINE
 8
side-panels-5mm
10
5.772542482784831
20
187.82235870926402
30
2.2033412413691168e-06
11
6.249999996847436
21
188.0349364905407
31
2.2033412864885802e-06
  0
LINE
 8
side-panels-5mm
10
6.249999996847436
20
188.0349364905407
30
2.2033412864885802e-06
11
6.672826512744763
21
188.34213793630843
31
2.2033412864885802e-06
  0
LINE
 8
side-panels-5mm
10
6.672826512744763
20
188.34213793630843
30
2.2033412864885802e-06
11
7.022542482784547
21
188.73053686927085
31
2.203341015771798e-06
  0
LINE
 8
side-panels-5mm
10
7.022542482784547
20
188.73053686927085
30
2.203341015771798e-06
11
7.283863640953461
21
189.18315839231246
31
2.203341196249653e-06
  0
LINE
 8
side-panels-5mm
10
7.283863640953461
20
189.18315839231246
30
2.203341196249653e-06
11
7.445368998681874
21
189.680220772958
31
2.203340880413407e-06
  0
LINE
 8
side-panels-5mm
10
7.445368998681874
20
189.680220772958
30
2.203340880413407e-06
11
7.499999996847151
21
190.20000000000223
31
2.2033411060107255e-06
  0
LINE
 8
side-panels-5mm
10
7.499999996847151
20
190.20000000000223
30
2.2033411060107255e-06
11
7.445368998681874
21
190.7197792270468
31
2.203340835293943e-06
  0
LINE
 8
side-panels-5mm
10
7.445368998681874
20
190.7197792270468
30
2.203340835293943e-06
11
7.2838636409556266
21
191.2168416076918
31
2.203340880413407e-06
  0
LINE
 8
side-panels-5mm
10
7.2838636409556266
20
191.2168416076918
30
2.203340880413407e-06
11
7.022542482784547
21
191.6694631307336
31
2.2033407450550157e-06
  0
LINE
 8
side-panels-5mm
10
7.022542482784547
20
191.6694631307336
30
2.2033407450550157e-06
11
6.672826512744041
21
192.0578620636962
31
2.203340564577161e-06
  0
LINE
 8
side-panels-5mm
10
6.672826512744041
20
192.0578620636962
30
2.203340564577161e-06
11
6.249999996848879
21
192.3650635094639
31
2.2033402487409146e-06
  0
LINE
 8
side-panels-5mm
10
6.249999996848879
20
192.3650635094639
30
2.2033402487409146e-06
11
5.772542482784831
21
192.57764129074062
31
2.2033404292187697e-06
  0
LINE
 8
side-panels-5mm
10
5.772542482784831
20
192.57764129074062
30
2.2033404292187697e-06
11
5.261321155018077
21
192.68630473842353
31
2.2033402938603785e-06
  0
LINE
 8
side-panels-5mm
10
5.261321155018077
20
192.68630473842353
30
2.2033402938603785e-06
11
4.738678838679527
21
192.68630473842353
31
2.2033402487409146e-06
  0
LINE
 8
side-panels-5mm
10
4.738678838679527
20
192.68630473842353
30
2.2033402487409146e-06
11
4.227457510909886
21
192.57764129074062
31
2.203340384099306e-06
  0
LINE
 8
side-panels-5mm
10
4.227457510909886
20
192.57764129074062
30
2.203340384099306e-06
11
3.7499999968487256
21
192.3650635094639
31
2.2033402487409146e-06
  0
LINE
 8
side-panels-5mm
10
3.7499999968487256
20
192.3650635094639
30
2.2033402487409146e-06
11
3.3271734809499547
21
192.057862063696
31
2.2033406548160883e-06
  0
LINE
 8
side-panels-5mm
10
2.9774575109101704
20
191.6694631307336
30
2.2033407450550157e-06
11
3.3271734809499547
21
192.057862063696
31
2.2033406548160883e-06
  0
LINE
 8
side-panels-5mm
10
2.9774575109101704
20
191.6694631307336
30
2.2033407450550157e-06
11
2.7161363527426996
21
191.2168416076918
31
2.203340880413407e-06
  0
LINE
 8
side-panels-5mm
10
2.7161363527426996
20
191.2168416076918
30
2.203340880413407e-06
11
2.554630995012843
21
190.71977922704664
31
2.2033406999355518e-06
  0
LINE
 8
side-panels-5mm
10
2.554630995012843
20
190.71977922704664
30
2.2033406999355518e-06
11
2.499999996847566
21
190.20000000000203
31
2.2033409255328704e-06
  0
LINE
 8
side-panels-5mm
10
2.499999996847566
20
190.20000000000203
30
2.2033409255328704e-06
11
2.554630995012843
21
189.6802207729578
31
2.2033409255328704e-06
  0
LINE
 8
side-panels-5mm
10
2.554630995012843
20
189.6802207729578
30
2.2033409255328704e-06
11
2.716136352740534
21
189.18315839231238
31
2.2033412413691168e-06
  0
LINE
 8
side-panels-5mm
10
643.7725421261873
20
192.57764129074087
30
1.8713808330517167e-06
11
643.2613207984198
21
192.6863047384237
31
1.8529891921303942e-06
  0
LINE
 8
side-panels-5mm
10
643.2613207984198
20
192.6863047384237
30
1.8529891921303942e-06
11
642.738678482082
21
192.68630473842381
31
1.8341870994476038e-06
  0
LINE
 8
side-panels-5mm
10
642.738678482082
20
192.68630473842381
30
1.8341870994476038e-06
11
642.2274571543131
21
192.57764129074107
31
1.815796315796092e-06
  0
LINE
 8
side-panels-5mm
10
642.2274571543131
20
192.57764129074107
30
1.815796315796092e-06
11
641.7499996402512
21
192.36506350946428
31
1.7986194713159874e-06
  0
LINE
 8
side-panels-5mm
10
641.7499996402512
20
192.36506350946428
30
1.7986194713159874e-06
11
641.3271731243539
21
192.05786206369655
31
1.7834081660339507e-06
  0
LINE
 8
side-panels-5mm
10
641.3271731243539
20
192.05786206369655
30
1.7834081660339507e-06
11
640.9774571543134
21
191.66946313073413
31
1.770827551084153e-06
  0
LINE
 8
side-panels-5mm
10
640.9774571543134
20
191.66946313073413
30
1.770827551084153e-06
11
640.716135996143
21
191.21684160769217
31
1.7614262791454393e-06
  0
LINE
 8
side-panels-5mm
10
640.716135996143
20
191.21684160769217
30
1.7614262791454393e-06
11
640.554630638416
21
190.7197792270471
31
1.7556165165188985e-06
  0
LINE
 8
side-panels-5mm
10
640.554630638416
20
190.7197792270471
30
1.7556165165188985e-06
11
640.49999964025
21
190.20000000000258
31
1.753650932201367e-06
  0
LINE
 8
side-panels-5mm
10
640.49999964025
20
190.20000000000258
30
1.753650932201367e-06
11
640.554630638416
21
189.68022077295817
31
1.755616742116217e-06
  0
LINE
 8
side-panels-5mm
10
640.554630638416
20
189.68022077295817
30
1.755616742116217e-06
11
640.716135996143
21
189.18315839231283
31
1.7614264145038305e-06
  0
LINE
 8
side-panels-5mm
10
640.716135996143
20
189.18315839231283
30
1.7614264145038305e-06
11
640.9774571543134
21
188.73053686927102
31
1.7708280022787903e-06
  0
LINE
 8
side-panels-5mm
10
640.9774571543134
20
188.73053686927102
30
1.7708280022787903e-06
11
641.3271731243539
21
188.34213793630843
31
1.7834091586621525e-06
  0
LINE
 8
side-panels-5mm
10
641.3271731243539
20
188.34213793630843
30
1.7834091586621525e-06
11
641.7499996402497
21
188.03493649054107
31
1.798620193227407e-06
  0
LINE
 8
side-panels-5mm
10
641.7499996402497
20
188.03493649054107
30
1.798620193227407e-06
11
642.2274571543131
21
187.8223587092641
31
1.8157970377075116e-06
  0
LINE
 8
side-panels-5mm
10
642.2274571543131
20
187.8223587092641
30
1.8157970377075116e-06
11
642.738678482082
21
187.71369526158128
31
1.834187731120096e-06
  0
LINE
 8
side-panels-5mm
10
642.738678482082
20
187.71369526158128
30
1.834187731120096e-06
11
643.2613207984198
21
187.71369526158128
31
1.8529897786834225e-06
  0
LINE
 8
side-panels-5mm
10
643.2613207984198
20
187.71369526158128
30
1.8529897786834225e-06
11
643.7725421261873
21
187.8223587092641
31
1.8713813293658176e-06
  0
LINE
 8
side-panels-5mm
10
643.7725421261873
20
187.8223587092641
30
1.8713813293658176e-06
11
644.2499996402506
21
188.0349364905409
31
1.8885574519345026e-06
  0
LINE
 8
side-panels-5mm
10
644.2499996402506
20
188.0349364905409
30
1.8885574519345026e-06
11
644.672826156148
21
188.34213793630826
31
1.9037695242474226e-06
  0
LINE
 8
side-panels-5mm
10
644.672826156148
20
188.34213793630826
30
1.9037695242474226e-06
11
645.0225421261885
21
188.73053686927085
31
1.9163495977636557e-06
  0
LINE
 8
side-panels-5mm
10
645.0225421261885
20
188.73053686927085
30
1.9163495977636557e-06
11
645.2838632843559
21
189.18315839231263
31
1.9257511404191518e-06
  0
LINE
 8
side-panels-5mm
10
645.2838632843559
20
189.18315839231263
30
1.9257511404191518e-06
11
645.4453686420858
21
189.6802207729578
31
1.9315613993597935e-06
  0
LINE
 8
side-panels-5mm
10
645.4453686420858
20
189.6802207729578
30
1.9315613993597935e-06
11
645.4999996402504
21
190.2000000000027
31
1.9335259008101956e-06
  0
LINE
 8
side-panels-5mm
10
645.4999996402504
20
190.2000000000027
30
1.9335259008101956e-06
11
645.4453686420858
21
190.719779227047
31
1.931560857926229e-06
  0
LINE
 8
side-panels-5mm
10
645.4453686420858
20
190.719779227047
30
1.931560857926229e-06
11
645.2838632843559
21
191.21684160769234
31
1.92575050874666e-06
  0
LINE
 8
side-panels-5mm
10
645.2838632843559
20
191.21684160769234
30
1.92575050874666e-06
11
645.0225421261885
21
191.66946313073396
31
1.9163491916884824e-06
  0
LINE
 8
side-panels-5mm
10
645.0225421261885
20
191.66946313073396
30
1.9163491916884824e-06
11
644.672826156148
21
192.05786206369638
31
1.9037684864997572e-06
  0
LINE
 8
side-panels-5mm
10
644.672826156148
20
192.05786206369638
30
1.9037684864997572e-06
11
644.2499996402521
21
192.3650635094641
31
1.8885567751425468e-06
  0
LINE
 8
side-panels-5mm
10
644.2499996402521
20
192.3650635094641
30
1.8885567751425468e-06
11
643.7725421261873
21
192.57764129074087
31
1.8713808330517167e-06
  0
LINE
 8
side-panels-5mm
10
640.7161359961444
20
154.21684160769317
30
1.7614253316367012e-06
11
640.554630638416
21
153.71977922704775
31
1.7556160653242613e-06
  0
LINE
 8
side-panels-5mm
10
640.554630638416
20
153.71977922704775
30
1.7556160653242613e-06
11
640.49999964025
21
153.20000000000323
31
1.7536501200510201e-06
  0
LINE
 8
side-panels-5mm
10
640.49999964025
20
153.20000000000323
30
1.7536501200510201e-06
11
640.5546306384146
21
152.68022077295873
31
1.7556162006826525e-06
  0
LINE
 8
side-panels-5mm
10
640.5546306384146
20
152.68022077295873
30
1.7556162006826525e-06
11
640.7161359961444
21
152.1831583923134
31
1.761426008428657e-06
  0
LINE
 8
side-panels-5mm
10
640.7161359961444
20
152.1831583923134
30
1.761426008428657e-06
11
640.9774571543134
21
151.7305368692715
31
1.7708277766814717e-06
  0
LINE
 8
side-panels-5mm
10
640.9774571543134
20
151.7305368692715
30
1.7708277766814717e-06
11
641.3271731243524
21
151.3421379363091
31
1.783408256272878e-06
  0
LINE
 8
side-panels-5mm
10
641.3271731243524
20
151.3421379363091
30
1.783408256272878e-06
11
641.7499996402497
21
151.03493649054136
31
1.7986200578690158e-06
  0
LINE
 8
side-panels-5mm
10
641.7499996402497
20
151.03493649054136
30
1.7986200578690158e-06
11
642.2274571543131
21
150.8223587092644
31
1.8157965865128744e-06
  0
LINE
 8
side-panels-5mm
10
642.2274571543131
20
150.8223587092644
30
1.8157965865128744e-06
11
642.738678482082
21
150.71369526158185
31
1.8341871445670675e-06
  0
LINE
 8
side-panels-5mm
10
642.738678482082
20
150.71369526158185
30
1.8341871445670675e-06
11
643.2613207984198
21
150.71369526158156
31
1.8529899140418137e-06
  0
LINE
 8
side-panels-5mm
10
643.2613207984198
20
150.71369526158156
30
1.8529899140418137e-06
11
643.7725421261873
21
150.82235870926448
31
1.8713811940074265e-06
  0
LINE
 8
side-panels-5mm
10
643.7725421261873
20
150.82235870926448
30
1.8713811940074265e-06
11
644.2499996402506
21
151.03493649054127
31
1.8885568653814743e-06
  0
LINE
 8
side-panels-5mm
10
644.2499996402506
20
151.03493649054127
30
1.8885568653814743e-06
11
644.6728261561465
21
151.3421379363091
31
1.9037683962608296e-06
  0
LINE
 8
side-panels-5mm
10
644.6728261561465
20
151.3421379363091
30
1.9037683962608296e-06
11
645.0225421261885
21
151.7305368692715
31
1.916348740493845e-06
  0
LINE
 8
side-panels-5mm
10
645.0225421261885
20
151.7305368692715
30
1.916348740493845e-06
11
645.2838632843574
21
152.1831583923132
31
1.9257502831493412e-06
  0
LINE
 8
side-panels-5mm
10
645.2838632843574
20
152.1831583923132
30
1.9257502831493412e-06
11
645.4453686420843
21
152.68022077295845
31
1.9315603164926643e-06
  0
LINE
 8
side-panels-5mm
10
645.4453686420843
20
152.68022077295845
30
1.9315603164926643e-06
11
645.4999996402504
21
153.20000000000314
31
1.9335255849739497e-06
  0
LINE
 8
side-panels-5mm
10
645.4999996402504
20
153.20000000000314
30
1.9335255849739497e-06
11
645.4453686420858
21
153.71977922704775
31
1.931559865298027e-06
  0
LINE
 8
side-panels-5mm
10
645.4453686420858
20
153.71977922704775
30
1.931559865298027e-06
11
645.2838632843574
21
154.216841607693
31
1.9257494258795303e-06
  0
LINE
 8
side-panels-5mm
10
645.2838632843574
20
154.216841607693
30
1.9257494258795303e-06
11
645.0225421261885
21
154.66946313073478
31
1.9163478381045707e-06
  0
LINE
 8
side-panels-5mm
10
645.0225421261885
20
154.66946313073478
30
1.9163478381045707e-06
11
644.6728261561465
21
155.0578620636973
31
1.9037672682742366e-06
  0
LINE
 8
side-panels-5mm
10
644.6728261561465
20
155.0578620636973
30
1.9037672682742366e-06
11
644.2499996402506
21
155.36506350946493
31
1.8885553313197078e-06
  0
LINE
 8
side-panels-5mm
10
644.2499996402506
20
155.36506350946493
30
1.8885553313197078e-06
11
643.7725421261873
21
155.57764129074172
31
1.8713797050651237e-06
  0
LINE
 8
side-panels-5mm
10
643.7725421261873
20
155.57764129074172
30
1.8713797050651237e-06
11
643.2613207984198
21
155.68630473842464
31
1.8529882446216561e-06
  0
LINE
 8
side-panels-5mm
10
643.2613207984198
20
155.68630473842464
30
1.8529882446216561e-06
11
642.738678482082
21
155.68630473842472
31
1.8341857007442285e-06
  0
LINE
 8
side-panels-5mm
10
642.738678482082
20
155.68630473842472
30
1.8341857007442285e-06
11
642.2274571543131
21
155.57764129074172
31
1.8157950524511078e-06
  0
LINE
 8
side-panels-5mm
10
642.2274571543131
20
155.57764129074172
30
1.8157950524511078e-06
11
641.7499996402512
21
155.3650635094651
31
1.7986186140461768e-06
  0
LINE
 8
side-panels-5mm
10
641.7499996402512
20
155.3650635094651
30
1.7986186140461768e-06
11
641.3271731243524
21
155.0578620636974
31
1.78340694780843e-06
  0
LINE
 8
side-panels-5mm
10
641.3271731243524
20
155.0578620636974
30
1.78340694780843e-06
11
640.9774571543134
21
154.66946313073487
31
1.7708266938143423e-06
  0
LINE
 8
side-panels-5mm
10
640.9774571543134
20
154.66946313073487
30
1.7708266938143423e-06
11
640.7161359961444
21
154.21684160769317
31
1.7614253316367012e-06
  0
LINE
 8
side-panels-5mm
10
323.73867866195667
20
155.68630473842447
30
2.0140619326980414e-06
11
323.22745733418634
21
155.57764129074172
31
1.995671194165993e-06
  0
LINE
 8
side-panels-5mm
10
323.22745733418634
20
155.57764129074172
30
1.995671194165993e-06
11
322.7499998201259
21
155.36506350946485
31
1.9784948459999893e-06
  0
LINE
 8
side-panels-5mm
10
322.7499998201259
20
155.36506350946485
30
1.9784948459999893e-06
11
322.32717330422713
21
155.0578620636974
31
1.963282954164924e-06
  0
LINE
 8
side-panels-5mm
10
322.32717330422713
20
155.0578620636974
30
1.963282954164924e-06
11
321.97745733418805
21
154.6694631307347
31
1.9507028806486914e-06
  0
LINE
 8
side-panels-5mm
10
321.97745733418805
20
154.6694631307347
30
1.9507028806486914e-06
11
321.7161361760191
21
154.21684160769308
31
1.9413014282321226e-06
  0
LINE
 8
side-panels-5mm
10
321.7161361760191
20
154.21684160769308
30
1.9413014282321226e-06
11
321.5546308182907
21
153.71977922704747
31
1.9354922070391466e-06
  0
LINE
 8
side-panels-5mm
10
321.5546308182907
20
153.71977922704747
30
1.9354922070391466e-06
11
321.49999982012474
21
153.20000000000297
31
1.933526352004833e-06
  0
LINE
 8
side-panels-5mm
10
321.49999982012474
20
153.20000000000297
30
1.933526352004833e-06
11
321.5546308182893
21
152.68022077295856
31
1.9354923875170013e-06
  0
LINE
 8
side-panels-5mm
10
321.5546308182893
20
152.68022077295856
30
1.9354923875170013e-06
11
321.7161361760191
21
152.18315839231312
31
1.941302330621397e-06
  0
LINE
 8
side-panels-5mm
10
321.7161361760191
20
152.18315839231312
30
1.941302330621397e-06
11
321.9774573341866
21
151.73053686927142
31
1.9507036927990384e-06
  0
LINE
 8
side-panels-5mm
10
321.9774573341866
20
151.73053686927142
30
1.9507036927990384e-06
11
322.32717330422713
21
151.3421379363091
31
1.9632841723904446e-06
  0
LINE
 8
side-panels-5mm
10
322.32717330422713
20
151.3421379363091
30
1.9632841723904446e-06
11
322.749999820123
21
151.03493649054136
31
1.9784959739865824e-06
  0
LINE
 8
side-panels-5mm
10
322.749999820123
20
151.03493649054136
30
1.9784959739865824e-06
11
323.22745733418776
21
150.8223587092644
31
1.9956727733472234e-06
  0
LINE
 8
side-panels-5mm
10
323.22745733418776
20
150.8223587092644
30
1.9956727733472234e-06
11
323.73867866195525
21
150.71369526158148
31
2.014063421640344e-06
  0
LINE
 8
side-panels-5mm
10
323.73867866195525
20
150.71369526158148
30
2.014063421640344e-06
11
324.2613209782931
21
150.71369526158156
31
2.0328661459956266e-06
  0
LINE
 8
side-panels-5mm
10
324.2613209782931
20
150.71369526158156
30
2.0328661459956266e-06
11
324.772542306062
21
150.8223587092644
31
2.051257425961239e-06
  0
LINE
 8
side-panels-5mm
10
324.772542306062
20
150.8223587092644
30
2.051257425961239e-06
11
325.2499998201239
21
151.03493649054127
31
2.068433097335287e-06
  0
LINE
 8
side-panels-5mm
10
325.2499998201239
20
151.03493649054127
30
2.068433097335287e-06
11
325.6728263360212
21
151.342137936309
31
2.0836446733341062e-06
  0
LINE
 8
side-panels-5mm
10
325.6728263360212
20
151.342137936309
30
2.0836446733341062e-06
11
326.0225423060617
21
151.73053686927142
31
2.096224927328194e-06
  0
LINE
 8
side-panels-5mm
10
326.0225423060617
20
151.73053686927142
30
2.096224927328194e-06
11
326.28386346423207
21
152.1831583923132
31
2.1056261992669078e-06
  0
LINE
 8
side-panels-5mm
10
326.28386346423207
20
152.1831583923132
30
2.1056261992669078e-06
11
326.44536882195905
21
152.68022077295856
31
2.1114362777296948e-06
  0
LINE
 8
side-panels-5mm
10
326.44536882195905
20
152.68022077295856
30
2.1114362777296948e-06
11
326.499999820125
21
153.20000000000306
31
2.1134015913304436e-06
  0
LINE
 8
side-panels-5mm
10
326.499999820125
20
153.20000000000306
30
2.1134015913304436e-06
11
326.44536882196047
21
153.71977922704775
31
2.111436052132376e-06
  0
LINE
 8
side-panels-5mm
10
326.44536882196047
20
153.71977922704775
30
2.111436052132376e-06
11
326.28386346423207
21
154.2168416076929
31
2.105625838311198e-06
  0
LINE
 8
side-panels-5mm
10
326.28386346423207
20
154.2168416076929
30
2.105625838311198e-06
11
326.02254230606314
21
154.66946313073498
31
2.0962238444610646e-06
  0
LINE
 8
side-panels-5mm
10
326.02254230606314
20
154.66946313073498
30
2.0962238444610646e-06
11
325.6728263360212
21
155.0578620636972
31
2.0836435002280493e-06
  0
LINE
 8
side-panels-5mm
10
325.6728263360212
20
155.0578620636972
30
2.0836435002280493e-06
11
325.2499998201253
21
155.36506350946493
31
2.068431653512448e-06
  0
LINE
 8
side-panels-5mm
10
325.2499998201253
20
155.36506350946493
30
2.068431653512448e-06
11
324.77254230606053
21
155.5776412907418
31
2.051255846780009e-06
  0
LINE
 8
side-panels-5mm
10
324.77254230606053
20
155.5776412907418
30
2.051255846780009e-06
11
324.2613209782945
21
155.68630473842455
31
2.0328644765754686e-06
  0
LINE
 8
side-panels-5mm
10
324.2613209782945
20
155.68630473842455
30
2.0328644765754686e-06
11
323.73867866195667
21
155.68630473842447
31
2.0140619326980414e-06
  0
LINE
 8
side-panels-5mm
10
159.9774573341888
20
154.66946313073478
30
1.9507021587372717e-06
11
159.7161361760199
21
154.216841607693
31
1.9413007965596307e-06
  0
LINE
 8
side-panels-5mm
10
159.7161361760199
20
154.216841607693
30
1.9413007965596307e-06
11
159.55463081829149
21
153.71977922704747
31
1.935491530247191e-06
  0
LINE
 8
side-panels-5mm
10
159.55463081829149
20
153.71977922704747
30
1.935491530247191e-06
11
159.49999982012548
21
153.20000000000306
31
1.9335259008101956e-06
  0
LINE
 8
side-panels-5mm
10
159.49999982012548
20
153.20000000000306
30
1.9335259008101956e-06
11
159.55463081829004
21
152.68022077295845
31
1.935491620486118e-06
  0
LINE
 8
side-panels-5mm
10
159.55463081829004
20
152.68022077295845
30
1.935491620486118e-06
11
159.71613617601844
21
152.1831583923132
31
1.941301563590514e-06
  0
LINE
 8
side-panels-5mm
10
159.71613617601844
20
152.1831583923132
30
1.941301563590514e-06
11
159.97745733418736
21
151.7305368692716
31
1.950703061126546e-06
  0
LINE
 8
side-panels-5mm
10
159.97745733418736
20
151.7305368692716
30
1.950703061126546e-06
11
160.32717330422787
21
151.34213793630917
31
1.9632837211958074e-06
  0
LINE
 8
side-panels-5mm
10
160.32717330422787
20
151.34213793630917
30
1.9632837211958074e-06
11
160.7499998201252
21
151.03493649054147
31
1.978495252075163e-06
  0
LINE
 8
side-panels-5mm
10
160.7499998201252
20
151.03493649054147
30
1.978495252075163e-06
11
161.22745733418853
21
150.8223587092643
31
1.99567236727205e-06
  0
LINE
 8
side-panels-5mm
10
161.22745733418853
20
150.8223587092643
30
1.99567236727205e-06
11
161.738678661956
21
150.71369526158148
31
2.0140630606846345e-06
  0
LINE
 8
side-panels-5mm
10
161.738678661956
20
150.71369526158148
30
2.0140630606846345e-06
11
162.26132097829384
21
150.71369526158148
31
2.032865424084207e-06
  0
LINE
 8
side-panels-5mm
10
162.26132097829384
20
150.71369526158148
30
2.032865424084207e-06
11
162.77254230606275
21
150.8223587092644
31
2.0512566138108924e-06
  0
LINE
 8
side-panels-5mm
10
162.77254230606275
20
150.8223587092644
30
2.0512566138108924e-06
11
163.24999982012463
21
151.03493649054136
31
2.068432601021186e-06
  0
LINE
 8
side-panels-5mm
10
163.24999982012463
20
151.03493649054136
30
2.068432601021186e-06
11
163.67282633602196
21
151.342137936309
31
2.083644267258933e-06
  0
LINE
 8
side-panels-5mm
10
163.67282633602196
20
151.342137936309
30
2.083644267258933e-06
11
164.02254230606246
21
151.73053686927133
31
2.096224791969803e-06
  0
LINE
 8
side-panels-5mm
10
164.02254230606246
20
151.73053686927133
30
2.096224791969803e-06
11
164.2838634642328
21
152.1831583923133
31
2.1056257931917345e-06
  0
LINE
 8
side-panels-5mm
10
164.2838634642328
20
152.1831583923133
30
2.1056257931917345e-06
11
164.4453688219598
21
152.68022077295845
31
2.1114358265350575e-06
  0
LINE
 8
side-panels-5mm
10
164.4453688219598
20
152.68022077295845
30
2.1114358265350575e-06
11
164.4999998201258
21
153.20000000000314
31
2.113400779180097e-06
  0
LINE
 8
side-panels-5mm
10
164.4999998201258
20
153.20000000000314
30
2.113400779180097e-06
11
164.44536882196124
21
153.71977922704767
31
2.1114356460572024e-06
  0
LINE
 8
side-panels-5mm
10
164.44536882196124
20
153.71977922704767
30
2.1114356460572024e-06
11
164.2838634642328
21
154.21684160769283
31
2.1056253871165607e-06
  0
LINE
 8
side-panels-5mm
10
164.2838634642328
20
154.21684160769283
30
2.1056253871165607e-06
11
164.0225423060639
21
154.66946313073487
31
2.0962235286248187e-06
  0
LINE
 8
side-panels-5mm
10
164.0225423060639
20
154.66946313073487
30
2.0962235286248187e-06
11
163.67282633602196
21
155.05786206369712
31
2.083643094152876e-06
  0
LINE
 8
side-panels-5mm
10
163.67282633602196
20
155.05786206369712
30
2.083643094152876e-06
11
163.24999982012608
21
155.36506350946502
31
2.068431202317811e-06
  0
LINE
 8
side-panels-5mm
10
163.24999982012608
20
155.36506350946502
30
2.068431202317811e-06
11
162.77254230606275
21
155.57764129074172
31
2.0512551248685895e-06
  0
LINE
 8
side-panels-5mm
10
162.77254230606275
20
155.57764129074172
30
2.0512551248685895e-06
11
162.26132097829526
21
155.68630473842435
31
2.0328638900224406e-06
  0
LINE
 8
side-panels-5mm
10
162.26132097829526
20
155.68630473842435
30
2.0328638900224406e-06
11
161.73867866195744
21
155.68630473842435
31
2.0140615717423316e-06
  0
LINE
 8
side-panels-5mm
10
161.73867866195744
20
155.68630473842435
30
2.0140615717423316e-06
11
161.22745733418853
21
155.57764129074164
31
1.995670878329747e-06
  0
LINE
 8
side-panels-5mm
10
161.22745733418853
20
155.57764129074164
30
1.995670878329747e-06
11
160.74999982012665
21
155.36506350946493
31
1.97849412408857e-06
  0
LINE
 8
side-panels-5mm
10
160.74999982012665
20
155.36506350946493
30
1.97849412408857e-06
11
160.32717330422787
21
155.0578620636973
31
1.9632826383286782e-06
  0
LINE
 8
side-panels-5mm
10
160.32717330422787
20
155.0578620636973
30
1.9632826383286782e-06
11
159.9774573341888
21
154.66946313073478
31
1.9507021587372717e-06
  0
LINE
 8
side-panels-5mm
10
483.7161361760184
20
154.21684160769308
30
1.941301969665687e-06
11
483.55463081829
21
153.71977922704767
31
1.93549261311432e-06
  0
LINE
 8
side-panels-5mm
10
483.55463081829
20
153.71977922704767
30
1.93549261311432e-06
11
483.4999998201254
21
153.20000000000306
31
1.9335265776021514e-06
  0
LINE
 8
side-panels-5mm
10
483.4999998201254
20
153.20000000000306
30
1.9335265776021514e-06
11
483.55463081828856
21
152.68022077295873
31
1.93549261311432e-06
  0
LINE
 8
side-panels-5mm
10
483.55463081828856
20
152.68022077295873
30
1.93549261311432e-06
11
483.7161361760184
21
152.1831583923134
31
1.941302691577107e-06
  0
LINE
 8
side-panels-5mm
10
483.7161361760184
20
152.1831583923134
30
1.941302691577107e-06
11
483.9774573341859
21
151.7305368692715
31
1.950704189113139e-06
  0
LINE
 8
side-panels-5mm
10
483.9774573341859
20
151.7305368692715
30
1.950704189113139e-06
11
484.3271733042264
21
151.34213793630926
31
1.9632843528682997e-06
  0
LINE
 8
side-panels-5mm
10
484.3271733042264
20
151.34213793630926
30
1.9632843528682997e-06
11
484.74999982012514
21
151.03493649054155
31
1.9784964251812196e-06
  0
LINE
 8
side-panels-5mm
10
484.74999982012514
20
151.03493649054155
30
1.9784964251812196e-06
11
485.2274573341885
21
150.82235870926448
31
1.9956731343029332e-06
  0
LINE
 8
side-panels-5mm
10
485.2274573341885
20
150.82235870926448
30
1.9956731343029332e-06
11
485.7386786619545
21
150.71369526158176
31
2.0140637374765903e-06
  0
LINE
 8
side-panels-5mm
10
485.7386786619545
20
150.71369526158176
30
2.0140637374765903e-06
11
486.26132097829236
21
150.71369526158148
31
2.03286619111509e-06
  0
LINE
 8
side-panels-5mm
10
486.26132097829236
20
150.71369526158148
30
2.03286619111509e-06
11
486.7725423060627
21
150.82235870926448
31
2.051257425961239e-06
  0
LINE
 8
side-panels-5mm
10
486.7725423060627
20
150.82235870926448
30
2.051257425961239e-06
11
487.2499998201246
21
151.03493649054127
31
2.068433097335287e-06
  0
LINE
 8
side-panels-5mm
10
487.2499998201246
20
151.03493649054127
30
2.068433097335287e-06
11
487.6728263360205
21
151.34213793630892
31
2.0836448086924975e-06
  0
LINE
 8
side-panels-5mm
10
487.6728263360205
20
151.34213793630892
30
2.0836448086924975e-06
11
488.022542306061
21
151.73053686927142
31
2.0962248822087303e-06
  0
LINE
 8
side-panels-5mm
10
488.022542306061
20
151.73053686927142
30
2.0962248822087303e-06
11
488.28386346423133
21
152.1831583923132
31
2.1056262443863717e-06
  0
LINE
 8
side-panels-5mm
10
488.28386346423133
20
152.1831583923132
30
2.1056262443863717e-06
11
488.4453688219583
21
152.68022077295845
31
2.1114364130880856e-06
  0
LINE
 8
side-panels-5mm
10
488.4453688219583
20
152.68022077295845
30
2.1114364130880856e-06
11
488.49999982012577
21
153.20000000000314
31
2.113401501091516e-06
  0
LINE
 8
side-panels-5mm
10
488.49999982012577
20
153.20000000000314
30
2.113401501091516e-06
11
488.44536882195973
21
153.71977922704767
31
2.1114360070129123e-06
  0
LINE
 8
side-panels-5mm
10
488.44536882195973
20
153.71977922704767
30
2.1114360070129123e-06
11
488.28386346423133
21
154.21684160769283
31
2.1056257931917345e-06
  0
LINE
 8
side-panels-5mm
10
488.28386346423133
20
154.21684160769283
30
2.1056257931917345e-06
11
488.0225423060624
21
154.66946313073487
31
2.0962237542221373e-06
  0
LINE
 8
side-panels-5mm
10
488.0225423060624
20
154.66946313073487
30
2.0962237542221373e-06
11
487.6728263360205
21
155.0578620636972
31
2.083643455108586e-06
  0
LINE
 8
side-panels-5mm
10
487.6728263360205
20
155.0578620636972
30
2.083643455108586e-06
11
487.24999982012605
21
155.36506350946493
31
2.068431653512448e-06
  0
LINE
 8
side-panels-5mm
10
487.24999982012605
20
155.36506350946493
30
2.068431653512448e-06
11
486.7725423060627
21
155.57764129074198
31
2.0512558016605453e-06
  0
LINE
 8
side-panels-5mm
10
486.7725423060627
20
155.57764129074198
30
2.0512558016605453e-06
11
486.2613209782938
21
155.68630473842455
31
2.0328644765754686e-06
  0
LINE
 8
side-panels-5mm
10
486.2613209782938
20
155.68630473842455
30
2.0328644765754686e-06
11
485.73867866195593
21
155.68630473842455
31
2.014062429012142e-06
  0
LINE
 8
side-panels-5mm
10
485.73867866195593
20
155.68630473842455
30
2.014062429012142e-06
11
485.2274573341885
21
155.5776412907418
31
1.9956714648827757e-06
  0
LINE
 8
side-panels-5mm
10
485.2274573341885
20
155.5776412907418
30
1.9956714648827757e-06
11
484.74999982012514
21
155.36506350946485
31
1.9784953423140904e-06
  0
LINE
 8
side-panels-5mm
10
484.74999982012514
20
155.36506350946485
30
1.9784953423140904e-06
11
484.3271733042264
21
155.05786206369748
31
1.963283315120634e-06
  0
LINE
 8
side-panels-5mm
10
484.3271733042264
20
155.05786206369748
30
1.963283315120634e-06
11
483.9774573341873
21
154.66946313073487
31
1.9507032867238647e-06
  0
LINE
 8
side-panels-5mm
10
483.9774573341873
20
154.66946313073487
30
1.9507032867238647e-06
11
483.7161361760184
21
154.21684160769308
31
1.941301969665687e-06
  0
LINE
 8
side-panels-5mm
10
77.4999999999997
20
195.39038105676937
30
2.2033402487409146e-06
11
76.10104964613743
21
196.10318186464187
31
2.2033401585019872e-06
  0
LINE
 8
side-panels-5mm
10
76.10104964613743
20
196.10318186464187
30
2.2033401585019872e-06
11
74.63525491562407
21
196.6658477444303
31
2.2033401133825238e-06
  0
LINE
 8
side-panels-5mm
10
74.63525491562407
20
196.6658477444303
30
2.2033401133825238e-06
11
73.11867536226575
21
197.07221401100992
31
2.2033403389798424e-06
  0
LINE
 8
side-panels-5mm
10
73.11867536226575
20
197.07221401100992
30
2.2033403389798424e-06
11
71.56792694901489
21
197.31782843052707
31
2.2033401133825238e-06
  0
LINE
 8
side-panels-5mm
10
71.56792694901489
20
197.31782843052707
30
2.2033401133825238e-06
11
69.99999999999852
21
197.40000000000293
31
2.203340203621451e-06
  0
LINE
 8
side-panels-5mm
10
69.99999999999852
20
197.40000000000293
30
2.203340203621451e-06
11
68.43207305098504
21
197.31782843052707
31
2.2033401133825238e-06
  0
LINE
 8
side-panels-5mm
10
68.43207305098504
20
197.31782843052707
30
2.2033401133825238e-06
11
66.88132463773273
21
197.07221401100992
31
2.2033403389798424e-06
  0
LINE
 8
side-panels-5mm
10
66.88132463773273
20
197.07221401100992
30
2.2033403389798424e-06
11
65.3647450843744
21
196.6658477444303
31
2.2033401133825238e-06
  0
LINE
 8
side-panels-5mm
10
65.3647450843744
20
196.6658477444303
30
2.2033401133825238e-06
11
63.8989503538625
21
196.10318186464178
31
2.203340203621451e-06
  0
LINE
 8
side-panels-5mm
10
63.8989503538625
20
196.10318186464178
30
2.203340203621451e-06
11
62.50000000000023
21
195.3903810567693
31
2.2033403389798424e-06
  0
LINE
 8
side-panels-5mm
10
62.50000000000023
20
195.3903810567693
30
2.2033403389798424e-06
11
61.183221215611724
21
194.53525491562704
31
2.2033403389798424e-06
  0
LINE
 8
side-panels-5mm
10
61.183221215611724
20
194.53525491562704
30
2.2033403389798424e-06
11
59.963040904616264
21
193.5471723821637
31
2.2033403389798424e-06
  0
LINE
 8
side-panels-5mm
10
59.963040904616264
20
193.5471723821637
30
2.2033403389798424e-06
11
58.85282761783793
21
192.43695909538536
31
2.2033404292187697e-06
  0
LINE
 8
side-panels-5mm
10
58.85282761783793
20
192.43695909538536
30
2.2033404292187697e-06
11
57.86474508437467
21
191.21677878438933
31
2.2033407450550157e-06
  0
LINE
 8
side-panels-5mm
10
57.86474508437467
20
191.21677878438933
30
2.2033407450550157e-06
11
57.00961894323305
21
189.90000000000228
31
2.203340564577161e-06
  0
LINE
 8
side-panels-5mm
10
57.00961894323305
20
189.90000000000228
30
2.203340564577161e-06
11
56.296818135359736
21
188.50104964613874
31
2.2033412864885802e-06
  0
LINE
 8
side-panels-5mm
10
56.296818135359736
20
188.50104964613874
30
2.2033412864885802e-06
11
55.73415225557214
21
187.03525491562542
31
2.2033417828026813e-06
  0
LINE
 8
side-panels-5mm
10
55.73415225557214
20
187.03525491562542
30
2.2033417828026813e-06
11
55.32778598899215
21
185.51867536226763
31
2.2033415572053627e-06
  0
LINE
 8
side-panels-5mm
10
55.32778598899215
20
185.51867536226763
30
2.2033415572053627e-06
11
55.08217156947571
21
183.9679269490157
31
2.2033420986389273e-06
  0
LINE
 8
side-panels-5mm
10
55.08217156947571
20
183.9679269490157
30
2.2033420986389273e-06
11
54.99999999999904
21
182.4000000000005
31
2.203342640072492e-06
  0
LINE
 8
side-panels-5mm
10
54.99999999999904
20
182.4000000000005
30
2.203342640072492e-06
11
55.08217156947571
21
180.83207305098583
31
2.203342459594637e-06
  0
LINE
 8
side-panels-5mm
10
55.08217156947571
20
180.83207305098583
30
2.203342459594637e-06
11
55.32778598899215
21
179.28132463773497
31
2.2033419181610726e-06
  0
LINE
 8
side-panels-5mm
10
55.32778598899215
20
179.28132463773497
30
2.2033419181610726e-06
11
55.73415225557214
21
177.7647450843788
31
2.2033397975462774e-06
  0
LINE
 8
side-panels-5mm
10
55.73415225557214
20
177.7647450843788
30
2.2033397975462774e-06
11
56.296818135359736
21
176.2989503538662
31
2.203339391471104e-06
  0
LINE
 8
side-panels-5mm
10
56.296818135359736
20
176.2989503538662
30
2.203339391471104e-06
11
57.00961894323305
21
174.9000000000032
31
2.2033391207543216e-06
  0
LINE
 8
side-panels-5mm
10
57.00961894323305
20
174.9000000000032
30
2.2033391207543216e-06
11
57.86474508437611
21
173.58322121561594
31
2.203339391471104e-06
  0
LINE
 8
side-panels-5mm
10
57.86474508437611
20
173.58322121561594
30
2.203339391471104e-06
11
58.85282761783793
21
172.36304090461977
31
2.2033397975462774e-06
  0
LINE
 8
side-panels-5mm
10
58.85282761783793
20
172.36304090461977
30
2.2033397975462774e-06
11
59.963040904616264
21
171.25282761784177
31
2.2033399780241325e-06
  0
LINE
 8
side-panels-5mm
10
59.963040904616264
20
171.25282761784177
30
2.2033399780241325e-06
11
61.183221215611724
21
170.26474508437798
31
2.2033403389798424e-06
  0
LINE
 8
side-panels-5mm
10
61.183221215611724
20
170.26474508437798
30
2.2033403389798424e-06
11
62.49999999999878
21
169.40961894323547
31
2.203340474338233e-06
  0
LINE
 8
side-panels-5mm
10
62.49999999999878
20
169.40961894323547
30
2.203340474338233e-06
11
63.8989503538625
21
168.6968181353627
31
2.203340880413407e-06
  0
LINE
 8
side-panels-5mm
10
63.8989503538625
20
168.6968181353627
30
2.203340880413407e-06
11
65.36474508437585
21
168.13415225557455
31
2.2033407901744796e-06
  0
LINE
 8
side-panels-5mm
10
65.36474508437585
20
168.13415225557455
30
2.2033407901744796e-06
11
66.88132463773273
21
167.72778598899464
31
2.2033409255328704e-06
  0
LINE
 8
side-panels-5mm
10
66.88132463773273
20
167.72778598899464
30
2.2033409255328704e-06
11
68.43207305098504
21
167.4821715694774
31
2.203341196249653e-06
  0
LINE
 8
side-panels-5mm
10
68.43207305098504
20
167.4821715694774
30
2.203341196249653e-06
11
69.99999999999996
21
167.40000000000146
31
2.2033412413691168e-06
  0
LINE
 8
side-panels-5mm
10
69.99999999999996
20
167.40000000000146
30
2.2033412413691168e-06
11
71.56792694901345
21
167.4821715694774
31
2.203341196249653e-06
  0
LINE
 8
side-panels-5mm
10
71.56792694901345
20
167.4821715694774
30
2.203341196249653e-06
11
73.11867536226575
21
167.72778598899464
31
2.2033409706523343e-06
  0
LINE
 8
side-panels-5mm
10
73.11867536226575
20
167.72778598899464
30
2.2033409706523343e-06
11
74.63525491562407
21
168.13415225557455
31
2.2033407901744796e-06
  0
LINE
 8
side-panels-5mm
10
74.63525491562407
20
168.13415225557455
30
2.2033407901744796e-06
11
76.10104964613598
21
168.6968181353627
31
2.203340880413407e-06
  0
LINE
 8
side-panels-5mm
10
76.10104964613598
20
168.6968181353627
30
2.203340880413407e-06
11
77.4999999999997
21
169.40961894323547
31
2.203340564577161e-06
  0
LINE
 8
side-panels-5mm
10
77.4999999999997
20
169.40961894323547
30
2.203340564577161e-06
11
78.81677878438676
21
170.26474508437798
31
2.2033402938603785e-06
  0
LINE
 8
side-panels-5mm
10
78.81677878438676
20
170.26474508437798
30
2.2033402938603785e-06
11
80.03695909538222
21
171.25282761784177
31
2.2033399780241325e-06
  0
LINE
 8
side-panels-5mm
10
80.03695909538222
20
171.25282761784177
30
2.2033399780241325e-06
11
81.14717238215911
21
172.36304090461977
31
2.2033397975462774e-06
  0
LINE
 8
side-panels-5mm
10
81.14717238215911
20
172.36304090461977
30
2.2033397975462774e-06
11
82.13525491562382
21
173.58322121561594
31
2.20333934635164e-06
  0
LINE
 8
side-panels-5mm
10
82.13525491562382
20
173.58322121561594
30
2.20333934635164e-06
11
82.99038105676543
21
174.9000000000032
31
2.203339256112713e-06
  0
LINE
 8
side-panels-5mm
10
82.99038105676543
20
174.9000000000032
30
2.203339256112713e-06
11
83.7031818646373
21
176.2989503538662
31
2.203339436590568e-06
  0
LINE
 8
side-panels-5mm
10
83.7031818646373
20
176.2989503538662
30
2.203339436590568e-06
11
84.26584774442779
21
177.7647450843788
31
2.2033397975462774e-06
  0
LINE
 8
side-panels-5mm
10
84.26584774442779
20
177.7647450843788
30
2.2033397975462774e-06
11
84.67221401100633
21
179.28132463773488
31
2.2033419181610726e-06
  0
LINE
 8
side-panels-5mm
10
84.67221401100633
20
179.28132463773488
30
2.2033419181610726e-06
11
84.91782843052277
21
180.83207305098563
31
2.203342640072492e-06
  0
LINE
 8
side-panels-5mm
10
84.91782843052277
20
180.83207305098563
30
2.203342640072492e-06
11
84.99999999999943
21
182.4000000000005
31
2.203342640072492e-06
  0
LINE
 8
side-panels-5mm
10
84.99999999999943
20
182.4000000000005
30
2.203342640072492e-06
11
84.91782843052421
21
183.9679269490155
31
2.2033421888778547e-06
  0
LINE
 8
side-panels-5mm
10
84.91782843052421
20
183.9679269490155
30
2.2033421888778547e-06
11
84.67221401100633
21
185.51867536226763
31
2.203341602324826e-06
  0
LINE
 8
side-panels-5mm
10
84.67221401100633
20
185.51867536226763
30
2.203341602324826e-06
11
84.26584774442634
21
187.0352549156256
31
2.20334164744429e-06
  0
LINE
 8
side-panels-5mm
10
84.26584774442634
20
187.0352549156256
30
2.20334164744429e-06
11
83.7031818646373
21
188.50104964613874
31
2.2033412413691168e-06
  0
LINE
 8
side-panels-5mm
10
83.7031818646373
20
188.50104964613874
30
2.2033412413691168e-06
11
82.99038105676686
21
189.90000000000228
31
2.203340564577161e-06
  0
LINE
 8
side-panels-5mm
10
82.99038105676686
20
189.90000000000228
30
2.203340564577161e-06
11
82.13525491562237
21
191.21677878438933
31
2.2033407450550157e-06
  0
LINE
 8
side-panels-5mm
10
82.13525491562237
20
191.21677878438933
30
2.2033407450550157e-06
11
81.14717238216055
21
192.43695909538536
31
2.2033403389798424e-06
  0
LINE
 8
side-panels-5mm
10
81.14717238216055
20
192.43695909538536
30
2.2033403389798424e-06
11
80.03695909538222
21
193.5471723821637
31
2.2033402938603785e-06
  0
LINE
 8
side-panels-5mm
10
80.03695909538222
20
193.5471723821637
30
2.2033402938603785e-06
11
78.81677878438676
21
194.53525491562695
31
2.2033402938603785e-06
  0
LINE
 8
side-panels-5mm
10
78.81677878438676
20
194.53525491562695
30
2.2033402938603785e-06
11
77.4999999999997
21
195.39038105676937
31
2.2033402487409146e-06
  0
LINE
 8
side-panels-5mm
10
562.999999999999
20
182.40000000000038
30
2.203342955908738e-06
11
563.0821715694772
21
180.832073050986
31
2.203342640072492e-06
  0
LINE
 8
side-panels-5mm
10
563.0821715694772
20
180.832073050986
30
2.203342640072492e-06
11
563.3277859889936
21
179.28132463773497
31
2.203342279116782e-06
  0
LINE
 8
side-panels-5mm
10
563.3277859889936
20
179.28132463773497
30
2.203342279116782e-06
11
563.7341522555736
21
177.76474508437897
31
2.2033404292187697e-06
  0
LINE
 8
side-panels-5mm
10
563.7341522555736
20
177.76474508437897
30
2.2033404292187697e-06
11
564.2968181353611
21
176.29895035386645
31
2.203340023143596e-06
  0
LINE
 8
side-panels-5mm
10
564.2968181353611
20
176.29895035386645
30
2.203340023143596e-06
11
565.0096189432345
21
174.90000000000336
31
2.20334006826306e-06
  0
LINE
 8
side-panels-5mm
10
565.0096189432345
20
174.90000000000336
30
2.20334006826306e-06
11
565.8647450843761
21
173.58322121561602
31
2.2033401133825238e-06
  0
LINE
 8
side-panels-5mm
10
565.8647450843761
20
173.58322121561602
30
2.2033401133825238e-06
11
566.8528276178394
21
172.36304090462002
31
2.2033403389798424e-06
  0
LINE
 8
side-panels-5mm
10
566.8528276178394
20
172.36304090462002
30
2.2033403389798424e-06
11
567.9630409046176
21
171.25282761784186
31
2.2033406548160883e-06
  0
LINE
 8
side-panels-5mm
10
567.9630409046176
20
171.25282761784186
30
2.2033406548160883e-06
11
569.1832212156131
21
170.26474508437806
31
2.2033410608912616e-06
  0
LINE
 8
side-panels-5mm
10
569.1832212156131
20
170.26474508437806
30
2.2033410608912616e-06
11
570.5000000000002
21
169.40961894323547
31
2.203341331608044e-06
  0
LINE
 8
side-panels-5mm
10
570.5000000000002
20
169.40961894323547
30
2.203341331608044e-06
11
571.8989503538639
21
168.69681813536286
31
2.203341512085899e-06
  0
LINE
 8
side-panels-5mm
10
571.8989503538639
20
168.69681813536286
30
2.203341512085899e-06
11
573.3647450843758
21
168.13415225557455
31
2.2033415572053627e-06
  0
LINE
 8
side-panels-5mm
10
573.3647450843758
20
168.13415225557455
30
2.2033415572053627e-06
11
574.8813246377341
21
167.72778598899455
31
2.20334164744429e-06
  0
LINE
 8
side-panels-5mm
10
574.8813246377341
20
167.72778598899455
30
2.20334164744429e-06
11
576.4320730509864
21
167.4821715694774
31
2.2033418730416087e-06
  0
LINE
 8
side-panels-5mm
10
576.4320730509864
20
167.4821715694774
30
2.2033418730416087e-06
11
577.9999999999999
21
167.40000000000154
31
2.203341827922145e-06
  0
LINE
 8
side-panels-5mm
10
577.9999999999999
20
167.40000000000154
30
2.203341827922145e-06
11
579.5679269490149
21
167.4821715694774
31
2.2033418730416087e-06
  0
LINE
 8
side-panels-5mm
10
579.5679269490149
20
167.4821715694774
30
2.2033418730416087e-06
11
581.1186753622671
21
167.72778598899473
31
2.2033417376832174e-06
  0
LINE
 8
side-panels-5mm
10
581.1186753622671
20
167.72778598899473
30
2.2033417376832174e-06
11
582.6352549156255
21
168.13415225557455
31
2.2033415572053627e-06
  0
LINE
 8
side-panels-5mm
10
582.6352549156255
20
168.13415225557455
30
2.2033415572053627e-06
11
584.1010496461374
21
168.69681813536286
31
2.203341512085899e-06
  0
LINE
 8
side-panels-5mm
10
584.1010496461374
20
168.69681813536286
30
2.203341512085899e-06
11
585.5000000000011
21
169.40961894323556
31
2.2033413767275076e-06
  0
LINE
 8
side-panels-5mm
10
585.5000000000011
20
169.40961894323556
30
2.2033413767275076e-06
11
586.8167787843868
21
170.2647450843778
31
2.203341151130189e-06
  0
LINE
 8
side-panels-5mm
10
586.8167787843868
20
170.2647450843778
30
2.203341151130189e-06
11
588.0369590953836
21
171.25282761784177
31
2.2033406548160883e-06
  0
LINE
 8
side-panels-5mm
10
588.0369590953836
20
171.25282761784177
30
2.2033406548160883e-06
11
589.1471723821605
21
172.36304090462002
31
2.2033403389798424e-06
  0
LINE
 8
side-panels-5mm
10
589.1471723821605
20
172.36304090462002
30
2.2033403389798424e-06
11
590.1352549156252
21
173.58322121561613
31
2.20334006826306e-06
  0
LINE
 8
side-panels-5mm
10
590.1352549156252
20
173.58322121561613
30
2.20334006826306e-06
11
590.9903810567669
21
174.90000000000336
31
2.20334006826306e-06
  0
LINE
 8
side-panels-5mm
10
590.9903810567669
20
174.90000000000336
30
2.20334006826306e-06
11
591.7031818646387
21
176.29895035386653
31
2.2033399780241325e-06
  0
LINE
 8
side-panels-5mm
10
591.7031818646387
20
176.29895035386653
30
2.2033399780241325e-06
11
592.2658477444278
21
177.76474508437897
31
2.203340384099306e-06
  0
LINE
 8
side-panels-5mm
10
592.2658477444278
20
177.76474508437897
30
2.203340384099306e-06
11
592.6722140110078
21
179.28132463773497
31
2.2033421888778547e-06
  0
LINE
 8
side-panels-5mm
10
592.6722140110078
20
179.28132463773497
30
2.2033421888778547e-06
11
592.9178284305242
21
180.832073050986
31
2.203342640072492e-06
  0
LINE
 8
side-panels-5mm
10
592.9178284305242
20
180.832073050986
30
2.203342640072492e-06
11
592.9999999999994
21
182.4000000000005
31
2.2033430461476656e-06
  0
LINE
 8
side-panels-5mm
10
592.9999999999994
20
182.4000000000005
30
2.2033430461476656e-06
11
592.9178284305242
21
183.96792694901578
31
2.203342459594637e-06
  0
LINE
 8
side-panels-5mm
10
592.9178284305242
20
183.96792694901578
30
2.203342459594637e-06
11
592.6722140110063
21
185.51867536226763
31
2.2033419181610726e-06
  0
LINE
 8
side-panels-5mm
10
592.6722140110063
20
185.51867536226763
30
2.2033419181610726e-06
11
592.2658477444278
21
187.03525491562576
31
2.203341963280536e-06
  0
LINE
 8
side-panels-5mm
10
592.2658477444278
20
187.03525491562576
30
2.203341963280536e-06
11
591.7031818646387
21
188.50104964613894
31
2.203341692563754e-06
  0
LINE
 8
side-panels-5mm
10
591.7031818646387
20
188.50104964613894
30
2.203341692563754e-06
11
590.9903810567669
21
189.9000000000024
31
2.203341015771798e-06
  0
LINE
 8
side-panels-5mm
10
590.9903810567669
20
189.9000000000024
30
2.203341015771798e-06
11
590.1352549156252
21
191.21677878438953
31
2.2033411060107255e-06
  0
LINE
 8
side-panels-5mm
10
590.1352549156252
20
191.21677878438953
30
2.2033411060107255e-06
11
589.1471723821605
21
192.43695909538553
31
2.2033407450550157e-06
  0
LINE
 8
side-panels-5mm
10
589.1471723821605
20
192.43695909538553
30
2.2033407450550157e-06
11
588.0369590953821
21
193.5471723821637
31
2.2033406999355518e-06
  0
LINE
 8
side-panels-5mm
10
588.0369590953821
20
193.5471723821637
30
2.2033406999355518e-06
11
586.8167787843881
21
194.53525491562712
31
2.203340564577161e-06
  0
LINE
 8
side-panels-5mm
10
586.8167787843881
20
194.53525491562712
30
2.203340564577161e-06
11
585.5000000000011
21
195.39038105676966
31
2.2033404292187697e-06
  0
LINE
 8
side-panels-5mm
10
585.5000000000011
20
195.39038105676966
30
2.2033404292187697e-06
11
584.1010496461374
21
196.10318186464195
31
2.203340519457697e-06
  0
LINE
 8
side-panels-5mm
10
584.1010496461374
20
196.10318186464195
30
2.203340519457697e-06
11
582.635254915624
21
196.66584774443038
31
2.2033404292187697e-06
  0
LINE
 8
side-panels-5mm
10
582.635254915624
20
196.66584774443038
30
2.2033404292187697e-06
11
581.1186753622658
21
197.07221401100992
31
2.2033406999355518e-06
  0
LINE
 8
side-panels-5mm
10
581.1186753622658
20
197.07221401100992
30
2.2033406999355518e-06
11
579.5679269490149
21
197.317828430527
31
2.203340474338233e-06
  0
LINE
 8
side-panels-5mm
10
579.5679269490149
20
197.317828430527
30
2.203340474338233e-06
11
577.9999999999999
21
197.40000000000285
31
2.203340474338233e-06
  0
LINE
 8
side-panels-5mm
10
577.9999999999999
20
197.40000000000285
30
2.203340474338233e-06
11
576.4320730509864
21
197.317828430527
31
2.203340474338233e-06
  0
LINE
 8
side-panels-5mm
10
576.4320730509864
20
197.317828430527
30
2.203340474338233e-06
11
574.8813246377327
21
197.07221401100992
31
2.2033406548160883e-06
  0
LINE
 8
side-panels-5mm
10
574.8813246377327
20
197.07221401100992
30
2.2033406548160883e-06
11
573.3647450843758
21
196.66584774443038
31
2.2033404292187697e-06
  0
LINE
 8
side-panels-5mm
10
573.3647450843758
20
196.66584774443038
30
2.2033404292187697e-06
11
571.8989503538639
21
196.10318186464207
31
2.203340564577161e-06
  0
LINE
 8
side-panels-5mm
10
571.8989503538639
20
196.10318186464207
30
2.203340564577161e-06
11
570.5000000000002
21
195.39038105676966
31
2.2033404292187697e-06
  0
LINE
 8
side-panels-5mm
10
570.5000000000002
20
195.39038105676966
30
2.2033404292187697e-06
11
569.1832212156131
21
194.53525491562712
31
2.203340564577161e-06
  0
LINE
 8
side-panels-5mm
10
569.1832212156131
20
194.53525491562712
30
2.203340564577161e-06
11
567.9630409046163
21
193.5471723821637
31
2.2033406999355518e-06
  0
LINE
 8
side-panels-5mm
10
567.9630409046163
20
193.5471723821637
30
2.2033406999355518e-06
11
566.8528276178394
21
192.43695909538553
31
2.2033407450550157e-06
  0
LINE
 8
side-panels-5mm
10
566.8528276178394
20
192.43695909538553
30
2.2033407450550157e-06
11
565.8647450843761
21
191.21677878438945
31
2.2033411060107255e-06
  0
LINE
 8
side-panels-5mm
10
565.8647450843761
20
191.21677878438945
30
2.2033411060107255e-06
11
565.0096189432345
21
189.90000000000228
31
2.2033409706523343e-06
  0
LINE
 8
side-panels-5mm
10
565.0096189432345
20
189.90000000000228
30
2.2033409706523343e-06
11
564.2968181353611
21
188.50104964613885
31
2.2033417376832174e-06
  0
LINE
 8
side-panels-5mm
10
564.2968181353611
20
188.50104964613885
30
2.2033417376832174e-06
11
563.7341522555736
21
187.03525491562576
31
2.203341963280536e-06
  0
LINE
 8
side-panels-5mm
10
563.7341522555736
20
187.03525491562576
30
2.203341963280536e-06
11
563.3277859889921
21
185.5186753622678
31
2.2033419181610726e-06
  0
LINE
 8
side-panels-5mm
10
563.3277859889921
20
185.5186753622678
30
2.2033419181610726e-06
11
563.0821715694772
21
183.96792694901578
31
2.203342459594637e-06
  0
LINE
 8
side-panels-5mm
10
563.0821715694772
20
183.96792694901578
30
2.203342459594637e-06
11
562.999999999999
21
182.40000000000038
31
2.203342955908738e-06
  0
LINE
 8
side-panels-5mm
10
539.0000001031121
20
143.40000000000114
30
3.661485404293785e-06
11
537.0446282170373
21
123.69999958634965
31
4.406686227653722e-06
  0
LINE
 8
side-panels-5mm
10
537.0446282170373
20
123.69999958634965
30
4.406686227653722e-06
11
552.9999983801548
21
71.70000000000047
31
3.661499210849683e-06
  0
LINE
 8
side-panels-5mm
10
2.887645678129047e-12
20
71.70000000000047
30
2.2033430010282017e-06
11
552.9999983801548
21
71.70000000000047
31
3.661499210849683e-06
  0
LINE
 8
side-panels-5mm
10
2.887645678129047e-12
20
143.40000000000114
30
2.2033427303114192e-06
11
2.887645678129047e-12
21
71.70000000000047
31
2.2033430010282017e-06
  0
LINE
 8
side-panels-5mm
10
7.283863644115433
20
80.68315839231124
30
2.203348640961167e-06
11
7.022542485946519
21
80.23053686926963
31
2.203348280005457e-06
  0
LINE
 8
side-panels-5mm
10
7.445369001843846
20
81.18022077295576
30
2.203348460483312e-06
11
7.283863644115433
21
80.68315839231124
31
2.203348640961167e-06
  0
LINE
 8
side-panels-5mm
10
7.500000000009123
20
81.7000000000001
30
2.203349092155804e-06
11
7.445369001843846
21
81.18022077295576
31
2.203348460483312e-06
  0
LINE
 8
side-panels-5mm
10
7.445369001843846
20
82.21977922704542
30
2.2033480995276022e-06
11
7.500000000009123
21
81.7000000000001
31
2.203349092155804e-06
  0
LINE
 8
side-panels-5mm
10
7.283863644115433
20
82.71684160769013
30
2.2033489567974128e-06
11
7.445369001843846
21
82.21977922704542
31
2.2033480995276022e-06
  0
LINE
 8
side-panels-5mm
10
7.022542485946519
20
83.16946313073237
30
2.2033477385718924e-06
11
7.283863644115433
21
82.71684160769013
31
2.2033489567974128e-06
  0
LINE
 8
side-panels-5mm
10
6.672826515906013
20
83.55786206369389
30
2.2033486860806307e-06
11
7.022542485946519
21
83.16946313073237
31
2.2033477385718924e-06
  0
LINE
 8
side-panels-5mm
10
6.2500000000086855
20
83.86506350946125
30
2.203348009288675e-06
11
6.672826515906013
21
83.55786206369389
31
2.2033486860806307e-06
  0
LINE
 8
side-panels-5mm
10
5.772542485946081
20
84.07764129073875
30
2.2033476934524285e-06
11
6.2500000000086855
21
83.86506350946125
31
2.203348009288675e-06
  0
LINE
 8
side-panels-5mm
10
5.261321158177884
20
84.18630473842096
30
2.2033476934524285e-06
11
5.772542485946081
21
84.07764129073875
31
2.2033476934524285e-06
  0
LINE
 8
side-panels-5mm
10
4.738678841840056
20
84.1863047384206
30
2.2033471068994005e-06
11
5.261321158177884
21
84.18630473842096
31
2.2033476934524285e-06
  0
LINE
 8
side-panels-5mm
10
4.227457514071858
20
84.07764129073894
30
2.2033467008242267e-06
11
4.738678841840056
21
84.1863047384206
31
2.2033471068994005e-06
  0
LINE
 8
side-panels-5mm
10
3.750000000008532
20
83.86506350946117
30
2.2033474227356464e-06
11
4.227457514071858
21
84.07764129073894
31
2.2033467008242267e-06
  0
LINE
 8
side-panels-5mm
10
3.3271734841119267
20
83.5578620636938
30
2.2033467008242267e-06
11
3.750000000008532
21
83.86506350946117
31
2.2033474227356464e-06
  0
LINE
 8
side-panels-5mm
10
2.9774575140714203
20
83.16946313073237
30
2.203346339868517e-06
11
3.3271734841119267
21
83.5578620636938
31
2.2033467008242267e-06
  0
LINE
 8
side-panels-5mm
10
2.7161363559025062
20
82.71684160768994
30
2.203346475226908e-06
11
2.9774575140714203
21
83.16946313073237
31
2.203346339868517e-06
  0
LINE
 8
side-panels-5mm
10
2.554630998174093
20
82.21977922704515
30
2.2033457984349523e-06
11
2.7161363559025062
21
82.71684160768994
31
2.203346475226908e-06
  0
LINE
 8
side-panels-5mm
10
2.500000000008816
20
81.7000000000001
30
2.2033458886738797e-06
11
2.554630998174093
21
82.21977922704515
31
2.2033457984349523e-06
  0
LINE
 8
side-panels-5mm
10
2.554630998174093
20
81.18022077295586
30
2.203346069151735e-06
11
2.500000000008816
21
81.7000000000001
31
2.2033458886738797e-06
  0
LINE
 8
side-panels-5mm
10
2.7161363559025062
20
80.68315839231097
30
2.203346069151735e-06
11
2.554630998174093
21
81.18022077295586
31
2.203346069151735e-06
  0
LINE
 8
side-panels-5mm
10
2.9774575140714203
20
80.23053686926954
30
2.203346881302082e-06
11
2.7161363559025062
21
80.68315839231097
31
2.203346069151735e-06
  0
LINE
 8
side-panels-5mm
10
3.3271734841119267
20
79.8421379363074
30
2.203346339868517e-06
11
2.9774575140714203
21
80.23053686926954
31
2.203346881302082e-06
  0
LINE
 8
side-panels-5mm
10
3.750000000009254
20
79.53493649053904
30
2.20334746785511e-06
11
3.3271734841119267
21
79.8421379363074
31
2.203346339868517e-06
  0
LINE
 8
side-panels-5mm
10
4.227457514071858
20
79.32235870926206
30
2.2033469715410092e-06
11
3.750000000009254
21
79.53493649053904
31
2.20334746785511e-06
  0
LINE
 8
side-panels-5mm
10
4.738678841840056
20
79.21369526157933
30
2.2033472422577913e-06
11
4.227457514071858
21
79.32235870926206
31
2.2033469715410092e-06
  0
LINE
 8
side-panels-5mm
10
5.261321158177884
20
79.21369526157933
30
2.2033477836913563e-06
11
4.738678841840056
21
79.21369526157933
31
2.2033472422577913e-06
  0
LINE
 8
side-panels-5mm
10
5.772542485946081
20
79.32235870926216
30
2.2033478739302836e-06
11
5.261321158177884
21
79.21369526157933
31
2.2033477836913563e-06
  0
LINE
 8
side-panels-5mm
10
6.250000000009408
20
79.53493649053895
30
2.2033482348859935e-06
11
5.772542485946081
21
79.32235870926216
31
2.2033478739302836e-06
  0
LINE
 8
side-panels-5mm
10
6.672826515906013
20
79.84213793630721
30
2.203348280005457e-06
11
6.250000000009408
21
79.53493649053895
31
2.2033482348859935e-06
  0
LINE
 8
side-panels-5mm
10
7.022542485946519
20
80.23053686926963
30
2.203348280005457e-06
11
6.672826515906013
21
79.84213793630721
31
2.203348280005457e-06
  0
LINE
 8
side-panels-5mm
10
5.261321158177884
20
121.18630473842175
30
2.203347332496719e-06
11
5.772542485946081
21
121.07764129073801
31
2.2033473776161825e-06
  0
LINE
 8
side-panels-5mm
10
4.738678841840056
20
121.18630473842147
30
2.2033466105852994e-06
11
5.261321158177884
21
121.18630473842175
31
2.203347332496719e-06
  0
LINE
 8
side-panels-5mm
10
4.227457514071858
20
121.0776412907381
30
2.2033464301074447e-06
11
4.738678841840056
21
121.18630473842147
31
2.2033466105852994e-06
  0
LINE
 8
side-panels-5mm
10
3.750000000008532
20
120.86506350946159
30
2.2033471068994005e-06
11
4.227457514071858
21
121.0776412907381
31
2.2033464301074447e-06
  0
LINE
 8
side-panels-5mm
10
3.3271734841119267
20
120.55786206369369
30
2.2033464301074447e-06
11
3.750000000008532
21
120.86506350946159
31
2.2033471068994005e-06
  0
LINE
 8
side-panels-5mm
10
2.9774575140714203
20
120.16946313073181
30
2.2033466557047633e-06
11
3.3271734841119267
21
120.55786206369369
31
2.2033464301074447e-06
  0
LINE
 8
side-panels-5mm
10
2.7161363559025062
20
119.71684160768947
30
2.2033457984349523e-06
11
2.9774575140714203
21
120.16946313073181
31
2.2033466557047633e-06
  0
LINE
 8
side-panels-5mm
10
2.554630998174093
20
119.21977922704522
30
2.2033457984349523e-06
11
2.7161363559025062
21
119.71684160768947
31
2.2033457984349523e-06
  0
LINE
 8
side-panels-5mm
10
2.500000000008816
20
118.70000000000061
30
2.2033456179570976e-06
11
2.554630998174093
21
119.21977922704522
31
2.2033457984349523e-06
  0
LINE
 8
side-panels-5mm
10
2.554630998174093
20
118.18022077295602
30
2.2033459337933436e-06
11
2.500000000008816
21
118.70000000000061
31
2.2033456179570976e-06
  0
LINE
 8
side-panels-5mm
10
2.7161363559025062
20
117.68315839231113
30
2.203346159390662e-06
11
2.554630998174093
21
118.18022077295602
31
2.2033459337933436e-06
  0
LINE
 8
side-panels-5mm
10
2.9774575140714203
20
117.23053686926879
30
2.203346791063154e-06
11
2.7161363559025062
21
117.68315839231113
31
2.203346159390662e-06
  0
LINE
 8
side-panels-5mm
10
3.3271734841119267
20
116.84213793630673
30
2.2033464301074447e-06
11
2.9774575140714203
21
117.23053686926879
31
2.203346791063154e-06
  0
LINE
 8
side-panels-5mm
10
3.750000000009254
20
116.53493649053893
30
2.203347152018864e-06
11
3.3271734841119267
21
116.84213793630673
31
2.2033464301074447e-06
  0
LINE
 8
side-panels-5mm
10
4.227457514071858
20
116.32235870926277
30
2.2033465654658355e-06
11
3.750000000009254
21
116.53493649053893
31
2.203347152018864e-06
  0
LINE
 8
side-panels-5mm
10
4.738678841840056
20
116.21369526157984
30
2.203346791063154e-06
11
4.227457514071858
21
116.32235870926277
31
2.2033465654658355e-06
  0
LINE
 8
side-panels-5mm
10
5.261321158177884
20
116.21369526157967
30
2.2033476934524285e-06
11
4.738678841840056
21
116.21369526157984
31
2.203346791063154e-06
  0
LINE
 8
side-panels-5mm
10
5.772542485946081
20
116.32235870926259
30
2.2033476934524285e-06
11
5.261321158177884
21
116.21369526157967
31
2.2033476934524285e-06
  0
LINE
 8
side-panels-5mm
10
6.250000000009408
20
116.53493649053893
30
2.2033478739302836e-06
11
5.772542485946081
21
116.32235870926259
31
2.2033476934524285e-06
  0
LINE
 8
side-panels-5mm
10
6.672826515906013
20
116.84213793630664
30
2.2033485056027756e-06
11
6.250000000009408
21
116.53493649053893
31
2.2033478739302836e-06
  0
LINE
 8
side-panels-5mm
10
7.022542485946519
20
117.23053686926879
30
2.203348325124921e-06
11
6.672826515906013
21
116.84213793630664
31
2.2033485056027756e-06
  0
LINE
 8
side-panels-5mm
10
7.283863644115433
20
117.68315839231113
30
2.2033486860806307e-06
11
7.022542485946519
21
117.23053686926879
31
2.203348325124921e-06
  0
LINE
 8
side-panels-5mm
10
7.445369001843846
20
118.1802207729561
30
2.2033481446470657e-06
11
7.283863644115433
21
117.68315839231113
31
2.2033486860806307e-06
  0
LINE
 8
side-panels-5mm
10
7.500000000009123
20
118.70000000000071
30
2.2033488214390215e-06
11
7.445369001843846
21
118.1802207729561
31
2.2033481446470657e-06
  0
LINE
 8
side-panels-5mm
10
7.445369001843846
20
119.21977922704494
30
2.2033480544081384e-06
11
7.500000000009123
21
118.70000000000071
31
2.2033488214390215e-06
  0
LINE
 8
side-panels-5mm
10
7.283863644115433
20
119.71684160768974
30
2.2033485056027756e-06
11
7.445369001843846
21
119.21977922704494
31
2.2033480544081384e-06
  0
LINE
 8
side-panels-5mm
10
7.022542485946519
20
120.16946313073171
30
2.2033482348859935e-06
11
7.283863644115433
21
119.71684160768974
31
2.2033485056027756e-06
  0
LINE
 8
side-panels-5mm
10
6.672826515906013
20
120.55786206369369
30
2.2033486860806307e-06
11
7.022542485946519
21
120.16946313073171
31
2.2033482348859935e-06
  0
LINE
 8
side-panels-5mm
10
6.2500000000086855
20
120.86506350946141
30
2.203348009288675e-06
11
6.672826515906013
21
120.55786206369369
31
2.2033486860806307e-06
  0
LINE
 8
side-panels-5mm
10
5.772542485946081
20
121.07764129073801
30
2.2033473776161825e-06
11
6.2500000000086855
21
120.86506350946141
31
2.203348009288675e-06
  0
LINE
 8
side-panels-5mm
10
531.7386772013613
20
121.18630473842175
30
3.6614934355583273e-06
11
531.2274558735938
21
121.0776412907381
31
3.661495511053658e-06
  0
LINE
 8
side-panels-5mm
10
531.2274558735938
20
121.0776412907381
30
3.661495511053658e-06
11
530.7499983595319
21
120.86506350946149
31
3.6614945635449203e-06
  0
LINE
 8
side-panels-5mm
10
530.7499983595319
20
120.86506350946149
30
3.6614945635449203e-06
11
530.3271718436332
21
120.55786206369388
31
3.661494383067065e-06
  0
LINE
 8
side-panels-5mm
10
530.3271718436332
20
120.55786206369388
30
3.661494383067065e-06
11
529.9774558735927
21
120.16946313073127
31
3.661494698903311e-06
  0
LINE
 8
side-panels-5mm
10
529.9774558735927
20
120.16946313073127
30
3.661494698903311e-06
11
529.7161347154253
21
119.71684160768947
31
3.6614925782885163e-06
  0
LINE
 8
side-panels-5mm
10
529.7161347154253
20
119.71684160768947
30
3.6614925782885163e-06
11
529.5546293576954
21
119.21977922704512
31
3.6614937965140367e-06
  0
LINE
 8
side-panels-5mm
10
529.5546293576954
20
119.21977922704512
30
3.6614937965140367e-06
11
529.4999983595294
21
118.70000000000098
31
3.6614928941247623e-06
  0
LINE
 8
side-panels-5mm
10
529.4999983595294
20
118.70000000000098
30
3.6614928941247623e-06
11
529.5546293576954
21
118.18022077295602
31
3.661493976991892e-06
  0
LINE
 8
side-panels-5mm
10
529.5546293576954
20
118.18022077295602
30
3.661493976991892e-06
11
529.7161347154253
21
117.6831583923115
31
3.6614926685274437e-06
  0
LINE
 8
side-panels-5mm
10
529.7161347154253
20
117.6831583923115
30
3.6614926685274437e-06
11
529.9774558735927
21
117.23053686926906
31
3.6614944733059925e-06
  0
LINE
 8
side-panels-5mm
10
529.9774558735927
20
117.23053686926906
30
3.6614944733059925e-06
11
530.3271718436332
21
116.84213793630683
31
3.661493616036182e-06
  0
LINE
 8
side-panels-5mm
10
530.3271718436332
20
116.84213793630683
30
3.661493616036182e-06
11
530.7499983595312
21
116.53493649053893
31
3.661495104978485e-06
  0
LINE
 8
side-panels-5mm
10
530.7499983595312
20
116.53493649053893
30
3.661495104978485e-06
11
531.2274558735938
21
116.32235870926277
31
3.6614956012925855e-06
  0
LINE
 8
side-panels-5mm
10
531.2274558735938
20
116.32235870926277
30
3.6614956012925855e-06
11
531.7386772013613
21
116.21369526158003
31
3.661493570916718e-06
  0
LINE
 8
side-panels-5mm
10
531.7386772013613
20
116.21369526158003
30
3.661493570916718e-06
11
532.2613195176991
21
116.21369526157994
31
3.661495917128832e-06
  0
LINE
 8
side-panels-5mm
10
532.2613195176991
20
116.21369526157994
30
3.661495917128832e-06
11
532.7725408454667
21
116.32235870926267
31
3.661495420814731e-06
  0
LINE
 8
side-panels-5mm
10
532.7725408454667
20
116.32235870926267
30
3.661495420814731e-06
11
533.2499983595313
21
116.53493649053893
31
3.661493616036182e-06
  0
LINE
 8
side-panels-5mm
10
533.2499983595313
20
116.53493649053893
30
3.661493616036182e-06
11
533.672824875428
21
116.84213793630664
31
3.661494789142239e-06
  0
LINE
 8
side-panels-5mm
10
533.672824875428
20
116.84213793630664
30
3.661494789142239e-06
11
534.0225408454678
21
117.23053686926916
31
3.6614935257972546e-06
  0
LINE
 8
side-panels-5mm
10
534.0225408454678
20
117.23053686926916
30
3.6614935257972546e-06
11
534.2838620036367
21
117.6831583923114
31
3.6614956464120494e-06
  0
LINE
 8
side-panels-5mm
10
534.2838620036367
20
117.6831583923114
30
3.6614956464120494e-06
11
534.4453673613651
21
118.18022077295593
31
3.6614945635449203e-06
  0
LINE
 8
side-panels-5mm
10
534.4453673613651
20
118.18022077295593
30
3.6614945635449203e-06
11
534.4999983595296
21
118.70000000000088
31
3.6614967743986425e-06
  0
LINE
 8
side-panels-5mm
10
534.4999983595296
20
118.70000000000088
30
3.6614967743986425e-06
11
534.4453673613651
21
119.21977922704522
31
3.661494247708674e-06
  0
LINE
 8
side-panels-5mm
10
534.4453673613651
20
119.21977922704522
30
3.661494247708674e-06
11
534.2838620036367
21
119.71684160768937
31
3.661495826889904e-06
  0
LINE
 8
side-panels-5mm
10
534.2838620036367
20
119.71684160768937
30
3.661495826889904e-06
11
534.0225408454678
21
120.16946313073136
31
3.6614937965140367e-06
  0
LINE
 8
side-panels-5mm
10
534.0225408454678
20
120.16946313073136
30
3.6614937965140367e-06
11
533.672824875428
21
120.55786206369378
31
3.6614948793811663e-06
  0
LINE
 8
side-panels-5mm
10
533.672824875428
20
120.55786206369378
30
3.6614948793811663e-06
11
533.2499983595328
21
120.86506350946141
31
3.661494292828138e-06
  0
LINE
 8
side-panels-5mm
10
533.2499983595328
20
120.86506350946141
30
3.661494292828138e-06
11
532.7725408454667
21
121.0776412907382
31
3.6614952854563396e-06
  0
LINE
 8
side-panels-5mm
10
532.7725408454667
20
121.0776412907382
30
3.6614952854563396e-06
11
532.2613195176991
21
121.18630473842184
31
3.6614960524872228e-06
  0
LINE
 8
side-panels-5mm
10
532.2613195176991
20
121.18630473842184
30
3.6614960524872228e-06
11
531.7386772013613
21
121.18630473842175
31
3.6614934355583273e-06
  0
LINE
 8
side-panels-5mm
10
541.7161347360468
20
80.68315839231106
30
3.2707853648616946e-06
11
541.9774558942149
21
80.23053686926981
31
3.2707871696402434e-06
  0
LINE
 8
side-panels-5mm
10
541.9774558942149
20
80.23053686926981
30
3.2707871696402434e-06
11
542.3271718642554
21
79.8421379363073
31
3.2707839210388556e-06
  0
LINE
 8
side-panels-5mm
10
542.3271718642554
20
79.8421379363073
30
3.2707839210388556e-06
11
542.7499983801528
21
79.53493649053885
31
3.2707875757154168e-06
  0
LINE
 8
side-panels-5mm
10
542.7499983801528
20
79.53493649053885
30
3.2707875757154168e-06
11
543.2274558942161
21
79.32235870926206
31
3.2707864026093603e-06
  0
LINE
 8
side-panels-5mm
10
543.2274558942161
20
79.32235870926206
30
3.2707864026093603e-06
11
543.7386772219851
21
79.21369526157906
31
3.2707853197422307e-06
  0
LINE
 8
side-panels-5mm
10
543.7386772219851
20
79.21369526157906
30
3.2707853197422307e-06
11
544.2613195383228
21
79.21369526157923
31
3.2707883427463e-06
  0
LINE
 8
side-panels-5mm
10
544.2613195383228
20
79.21369526157923
30
3.2707883427463e-06
11
544.7725408660904
21
79.32235870926225
31
3.2707871245207795e-06
  0
LINE
 8
side-panels-5mm
10
544.7725408660904
20
79.32235870926225
30
3.2707871245207795e-06
11
545.2499983801537
21
79.53493649053877
31
3.270785770936868e-06
  0
LINE
 8
side-panels-5mm
10
545.2499983801537
20
79.53493649053877
30
3.270785770936868e-06
11
545.6728248960495
21
79.8421379363073
31
3.2707857258174045e-06
  0
LINE
 8
side-panels-5mm
10
545.6728248960495
20
79.8421379363073
30
3.2707857258174045e-06
11
546.02254086609
21
80.23053686926981
31
3.2707861770120417e-06
  0
LINE
 8
side-panels-5mm
10
546.02254086609
20
80.23053686926981
30
3.2707861770120417e-06
11
546.2838620242604
21
80.68315839231116
31
3.2707867184456062e-06
  0
LINE
 8
side-panels-5mm
10
546.2838620242604
20
80.68315839231116
30
3.2707867184456062e-06
11
546.4453673819874
21
81.18022077295595
31
3.2707867635650697e-06
  0
LINE
 8
side-panels-5mm
10
546.4453673819874
20
81.18022077295595
30
3.2707867635650697e-06
11
546.4999983801533
21
81.70000000000046
31
3.2707889292993284e-06
  0
LINE
 8
side-panels-5mm
10
546.4999983801533
20
81.70000000000046
30
3.2707889292993284e-06
11
546.4453673819874
21
82.21977922704524
31
3.270786628206679e-06
  0
LINE
 8
side-panels-5mm
10
546.4453673819874
20
82.21977922704524
30
3.270786628206679e-06
11
546.2838620242604
21
82.71684160769021
31
3.270786944042925e-06
  0
LINE
 8
side-panels-5mm
10
546.2838620242604
20
82.71684160769021
30
3.270786944042925e-06
11
546.02254086609
21
83.16946313073255
31
3.270785500220086e-06
  0
LINE
 8
side-panels-5mm
10
546.02254086609
20
83.16946313073255
30
3.270785500220086e-06
11
545.6728248960495
21
83.55786206369397
31
3.2707863123704325e-06
  0
LINE
 8
side-panels-5mm
10
545.6728248960495
20
83.55786206369397
30
3.2707863123704325e-06
11
545.2499983801537
21
83.86506350946098
31
3.2707858611757953e-06
  0
LINE
 8
side-panels-5mm
10
545.2499983801537
20
83.86506350946098
30
3.2707858611757953e-06
11
544.7725408660904
21
84.07764129073912
31
3.270786944042925e-06
  0
LINE
 8
side-panels-5mm
10
544.7725408660904
20
84.07764129073912
30
3.270786944042925e-06
11
544.2613195383228
21
84.18630473842087
31
3.2707878013127354e-06
  0
LINE
 8
side-panels-5mm
10
544.2613195383228
20
84.18630473842087
30
3.2707878013127354e-06
11
543.7386772219851
21
84.18630473842077
31
3.2707848685475935e-06
  0
LINE
 8
side-panels-5mm
10
543.7386772219851
20
84.18630473842077
30
3.2707848685475935e-06
11
543.2274558942161
21
84.07764129073912
31
3.270785816056332e-06
  0
LINE
 8
side-panels-5mm
10
543.2274558942161
20
84.07764129073912
30
3.270785816056332e-06
11
542.7499983801542
21
83.86506350946107
31
3.2707874854764894e-06
  0
LINE
 8
side-panels-5mm
10
542.7499983801542
20
83.86506350946107
30
3.2707874854764894e-06
11
542.3271718642554
21
83.5578620636938
31
3.270784778308666e-06
  0
LINE
 8
side-panels-5mm
10
542.3271718642554
20
83.5578620636938
30
3.270784778308666e-06
11
541.9774558942149
21
83.16946313073255
31
3.270787034281852e-06
  0
LINE
 8
side-panels-5mm
10
541.9774558942149
20
83.16946313073255
30
3.270787034281852e-06
11
541.7161347360468
21
82.71684160769013
31
3.270785590459013e-06
  0
LINE
 8
side-panels-5mm
10
541.7161347360468
20
82.71684160769013
30
3.270785590459013e-06
11
541.5546293783176
21
82.21977922704542
31
3.270785500220086e-06
  0
LINE
 8
side-panels-5mm
10
541.5546293783176
20
82.21977922704542
30
3.270785500220086e-06
11
541.4999983801531
21
81.70000000000046
31
3.2707838759193917e-06
  0
LINE
 8
side-panels-5mm
10
541.4999983801531
20
81.70000000000046
30
3.2707838759193917e-06
11
541.5546293783176
21
81.18022077295576
31
3.270785590459013e-06
  0
LINE
 8
side-panels-5mm
10
541.5546293783176
20
81.18022077295576
30
3.270785590459013e-06
11
541.7161347360468
21
80.68315839231106
31
3.2707853648616946e-06
  0
LINE
 8
side-panels-5mm
10
83.70318186552237
20
116.80104965438206
30
5.032364644108611e-07
11
84.2658477453114
21
115.3352549238687
31
5.009187677984528e-07
  0
LINE
 8
side-panels-5mm
10
82.9903810576505
20
118.20000000824506
30
5.054177648844415e-07
11
83.70318186552237
21
116.80104965438206
31
5.032364644108611e-07
  0
LINE
 8
side-panels-5mm
10
82.13525491650744
20
119.51677879263265
30
5.074380339920025e-07
11
82.9903810576505
21
118.20000000824506
31
5.054177648844415e-07
  0
LINE
 8
side-panels-5mm
10
81.14717238304416
20
120.73695910362811
30
5.09275975346668e-07
11
82.13525491650744
21
119.51677879263265
31
5.074380339920025e-07
  0
LINE
 8
side-panels-5mm
10
80.03695909626583
20
121.84717239040617
30
5.109117363844007e-07
11
81.14717238304416
21
120.73695910362811
31
5.09275975346668e-07
  0
LINE
 8
side-panels-5mm
10
78.81677878527037
20
122.83525492386916
30
5.123256450190183e-07
11
80.03695909626583
21
121.84717239040617
31
5.109117363844007e-07
  0
LINE
 8
side-panels-5mm
10
77.50000000088332
20
123.69038106501141
30
5.135039398140862e-07
11
78.81677878527037
21
122.83525492386916
31
5.123256450190183e-07
  0
LINE
 8
side-panels-5mm
10
76.10104964702104
20
124.40318187288428
30
5.144328142137056e-07
11
77.50000000088332
21
123.69038106501141
31
5.135039398140862e-07
  0
LINE
 8
side-panels-5mm
10
74.63525491650769
20
124.96584775267151
30
5.151029736083501e-07
11
76.10104964702104
21
124.40318187288428
31
5.144328142137056e-07
  0
LINE
 8
side-panels-5mm
10
73.11867536314936
20
125.37221401925258
30
5.155052587468844e-07
11
74.63525491650769
21
124.96584775267151
31
5.151029736083501e-07
  0
LINE
 8
side-panels-5mm
10
71.5679269498985
20
125.61782843876948
30
5.156370978198765e-07
11
73.11867536314936
21
125.37221401925258
31
5.155052587468844e-07
  0
LINE
 8
side-panels-5mm
10
70.00000000088359
20
125.70000000824497
30
5.154963250930677e-07
11
71.5679269498985
21
125.61782843876948
31
5.156370978198765e-07
  0
LINE
 8
side-panels-5mm
10
68.43207305186866
20
125.61782843876956
30
5.150847002255432e-07
11
70.00000000088359
21
125.70000000824497
31
5.154963250930677e-07
  0
LINE
 8
side-panels-5mm
10
66.8813246386178
20
125.3722140192525
30
5.144065095663563e-07
11
68.43207305186866
21
125.61782843876956
31
5.150847002255432e-07
  0
LINE
 8
side-panels-5mm
10
65.36474508525947
20
124.96584775267132
30
5.13469874618977e-07
11
66.8813246386178
21
125.3722140192525
31
5.144065095663563e-07
  0
LINE
 8
side-panels-5mm
10
63.89895035474612
20
124.40318187288436
30
5.122834583204394e-07
11
65.36474508525947
21
124.96584775267132
31
5.13469874618977e-07
  0
LINE
 8
side-panels-5mm
10
62.500000000883844
20
123.6903810650115
30
5.108621049743078e-07
11
63.89895035474612
21
124.40318187288436
31
5.122834583204394e-07
  0
LINE
 8
side-panels-5mm
10
61.18322121649679
20
122.83525492386916
30
5.092197564948719e-07
11
62.500000000883844
21
123.6903810650115
31
5.108621049743078e-07
  0
LINE
 8
side-panels-5mm
10
59.96304090550132
20
121.84717239040644
30
5.073758142515317e-07
11
61.18322121649679
21
122.83525492386916
31
5.092197564948719e-07
  0
LINE
 8
side-panels-5mm
10
58.85282761872299
20
120.7369591036283
30
5.053490028217311e-07
11
59.96304090550132
21
121.84717239040644
31
5.073758142515317e-07
  0
LINE
 8
side-panels-5mm
10
57.86474508525973
20
119.5167787926322
30
5.031635062380246e-07
11
58.85282761872299
21
120.7369591036283
31
5.053490028217311e-07
  0
LINE
 8
side-panels-5mm
10
57.009618944116674
20
118.20000000824523
30
5.008417037544177e-07
11
57.86474508525973
21
119.5167787926322
31
5.031635062380246e-07
  0
LINE
 8
side-panels-5mm
10
56.2968181362448
20
116.80104965438196
30
4.984094037041586e-07
11
57.009618944116674
21
118.20000000824523
31
5.008417037544177e-07
  0
LINE
 8
side-panels-5mm
10
55.73415225645648
20
115.33525492386852
30
4.958935424070887e-07
11
56.2968181362448
21
116.80104965438196
31
4.984094037041586e-07
  0
LINE
 8
side-panels-5mm
10
55.32778598987721
20
113.81867537051173
30
4.933205598689483e-07
11
55.73415225645648
21
115.33525492386852
31
4.958935424070887e-07
  0
LINE
 8
side-panels-5mm
10
55.08217157035933
20
112.26792695725997
30
4.907209117277489e-07
11
55.32778598987721
21
113.81867537051173
31
4.933205598689483e-07
  0
LINE
 8
side-panels-5mm
10
55.00000000088411
20
110.70000000824513
30
4.881206770335211e-07
11
55.08217157035933
21
112.26792695725997
31
4.907209117277489e-07
  0
LINE
 8
side-panels-5mm
10
55.08217157035933
20
109.13207305923075
30
4.855495443933932e-07
11
55.00000000088411
21
110.70000000824513
31
4.881206770335211e-07
  0
LINE
 8
side-panels-5mm
10
55.32778598987721
20
107.58132464597836
30
4.830360744279005e-07
11
55.08217157035933
21
109.13207305923075
31
4.855495443933932e-07
  0
LINE
 8
side-panels-5mm
10
55.73415225645648
20
106.0647450926203
30
4.806071132179568e-07
11
55.32778598987721
21
107.58132464597836
31
4.830360744279005e-07
  0
LINE
 8
side-panels-5mm
10
56.2968181362448
20
104.59895036210776
30
4.782891007693024e-07
11
55.73415225645648
21
106.0647450926203
31
4.806071132179568e-07
  0
LINE
 8
side-panels-5mm
10
57.009618944116674
20
103.20000000824494
30
4.7610775517625824e-07
11
56.2968181362448
21
104.59895036210776
31
4.782891007693024e-07
  0
LINE
 8
side-panels-5mm
10
57.86474508525973
20
101.8832212238578
30
4.7408703487406e-07
11
57.009618944116674
21
103.20000000824494
31
4.7610775517625824e-07
  0
LINE
 8
side-panels-5mm
10
58.85282761872299
20
100.66304091286278
30
4.722490032804671e-07
11
57.86474508525973
21
101.8832212238578
31
4.7408703487406e-07
  0
LINE
 8
side-panels-5mm
10
59.96304090550132
20
99.55282762608445
30
4.7061391903469027e-07
11
58.85282761872299
21
100.66304091286278
31
4.722490032804671e-07
  0
LINE
 8
side-panels-5mm
10
61.18322121649679
20
98.56474509262164
30
4.6919942384704424e-07
11
59.96304090550132
21
99.55282762608445
31
4.7061391903469027e-07
  0
LINE
 8
side-panels-5mm
10
62.500000000883844
20
97.70961895147795
30
4.680217607244685e-07
11
61.18322121649679
21
98.56474509262164
31
4.6919942384704424e-07
  0
LINE
 8
side-panels-5mm
10
63.89895035474612
20
96.99681814360716
30
4.670919839355747e-07
11
62.500000000883844
21
97.70961895147795
31
4.680217607244685e-07
  0
LINE
 8
side-panels-5mm
10
65.36474508525947
20
96.43415226381767
30
4.6642331348323295e-07
11
63.89895035474612
21
96.99681814360716
31
4.670919839355747e-07
  0
LINE
 8
side-panels-5mm
10
66.8813246386178
20
96.02778599723804
30
4.6601985523864184e-07
11
65.36474508525947
21
96.43415226381767
31
4.6642331348323295e-07
  0
LINE
 8
side-panels-5mm
10
68.43207305186866
20
95.78217157772151
30
4.658881064045772e-07
11
66.8813246386178
21
96.02778599723804
31
4.6601985523864184e-07
  0
LINE
 8
side-panels-5mm
10
70.00000000088359
20
95.70000000824565
30
4.660286986535311e-07
11
68.43207305186866
21
95.78217157772151
31
4.658881064045772e-07
  0
LINE
 8
side-panels-5mm
10
71.5679269498985
20
95.78217157772133
30
4.6644023328212824e-07
11
70.00000000088359
21
95.70000000824565
31
4.660286986535311e-07
  0
LINE
 8
side-panels-5mm
10
159.49999982012548
20
224.70000000000485
30
2.3832182854732763e-06
11
159.55463081829004
21
224.18022077296024
31
2.385184005149199e-06
  0
LINE
 8
side-panels-5mm
10
325.2499998201253
20
226.86506350946672
30
2.5181240381755288e-06
11
324.77254230606053
21
227.0776412907436
31
2.5009482314430895e-06
  0
LINE
 8
side-panels-5mm
10
326.499999820125
20
224.70000000000485
30
2.5630939759935243e-06
11
326.44536882196047
21
225.21977922704954
31
2.5611284367954564e-06
  0
LINE
 8
side-panels-5mm
10
321.97745733418805
20
226.1694631307365
30
2.400395265311772e-06
11
321.7161361760191
21
225.71684160769487
31
2.3909938128952033e-06
  0
LINE
 8
side-panels-5mm
10
162.77254230606275
20
227.07764129074351
30
2.5009475095316702e-06
11
162.26132097829526
21
227.18630473842614
31
2.482556274685521e-06
  0
LINE
 8
side-panels-5mm
10
161.73867866195744
20
227.18630473842614
30
2.4637539564054123e-06
11
161.22745733418853
21
227.07764129074343
31
2.445363262992828e-06
  0
LINE
 8
side-panels-5mm
10
322.32717330422713
20
226.5578620636992
30
2.412975338828005e-06
11
321.97745733418805
21
226.1694631307365
31
2.400395265311772e-06
  0
LINE
 8
side-panels-5mm
10
326.44536882196047
20
225.21977922704954
30
2.5611284367954564e-06
11
326.28386346423207
21
225.7168416076947
31
2.5553182229742786e-06
  0
LINE
 8
side-panels-5mm
10
164.2838634642328
20
223.68315839231508
30
2.5553181778548147e-06
11
164.4453688219598
21
224.18022077296024
31
2.561128211198138e-06
  0
LINE
 8
side-panels-5mm
10
164.2838634642328
20
225.7168416076946
30
2.5553177717796414e-06
11
164.0225423060639
21
226.16946313073666
31
2.5459159132878994e-06
  0
LINE
 8
side-panels-5mm
10
161.22745733418853
20
227.07764129074343
30
2.445363262992828e-06
11
160.74999982012665
21
226.86506350946672
31
2.4281865087516508e-06
  0
LINE
 8
side-panels-5mm
10
325.2499998201239
20
222.53493649054306
30
2.5181254819983677e-06
11
325.6728263360212
21
222.8421379363108
31
2.533337057997187e-06
  0
LINE
 8
side-panels-5mm
10
160.74999982012665
20
226.86506350946672
30
2.4281865087516508e-06
11
160.32717330422787
21
226.55786206369908
31
2.412975022991759e-06
  0
LINE
 8
side-panels-5mm
10
322.749999820123
20
222.53493649054315
30
2.428188358649663e-06
11
323.22745733418776
21
222.32235870926618
31
2.445365158010304e-06
  0
LINE
 8
side-panels-5mm
10
160.32717330422787
20
226.55786206369908
30
2.412975022991759e-06
11
159.9774573341888
21
226.16946313073657
31
2.4003945434003524e-06
  0
LINE
 8
side-panels-5mm
10
324.2613209782931
20
222.21369526158335
30
2.482558530658707e-06
11
324.772542306062
21
222.32235870926618
31
2.5009498106243197e-06
  0
LINE
 8
side-panels-5mm
10
321.5546308182893
20
224.18022077296033
30
2.385184772180082e-06
11
321.7161361760191
21
223.6831583923149
31
2.3909947152844778e-06
  0
LINE
 8
side-panels-5mm
10
321.7161361760191
20
223.6831583923149
30
2.3909947152844778e-06
11
321.9774573341866
21
223.2305368692732
31
2.400396077462119e-06
  0
LINE
 8
side-panels-5mm
10
159.7161361760199
20
225.7168416076948
30
2.3909931812227114e-06
11
159.55463081829149
21
225.21977922704926
31
2.3851839149102715e-06
  0
LINE
 8
side-panels-5mm
10
324.77254230606053
20
227.0776412907436
30
2.5009482314430895e-06
11
324.2613209782945
21
227.18630473842634
31
2.4825568612385493e-06
  0
LINE
 8
side-panels-5mm
10
160.7499998201252
20
222.53493649054323
30
2.4281876367382438e-06
11
161.22745733418853
21
222.3223587092661
31
2.4453647519351304e-06
  0
LINE
 8
side-panels-5mm
10
162.77254230606275
20
222.32235870926618
30
2.5009489984739727e-06
11
163.24999982012463
21
222.53493649054315
31
2.5181249856842666e-06
  0
LINE
 8
side-panels-5mm
10
321.7161361760191
20
225.71684160769487
30
2.3909938128952033e-06
11
321.5546308182907
21
225.21977922704926
31
2.3851845917022273e-06
  0
LINE
 8
side-panels-5mm
10
164.02254230606246
20
223.23053686927312
30
2.5459171766328836e-06
11
164.2838634642328
21
223.68315839231508
31
2.5553181778548147e-06
  0
LINE
 8
side-panels-5mm
10
321.5546308182907
20
225.21977922704926
30
2.3851845917022273e-06
11
321.49999982012474
21
224.70000000000476
31
2.3832187366679135e-06
  0
LINE
 8
side-panels-5mm
10
483.7161361760184
20
225.71684160769487
30
2.390994354328768e-06
11
483.55463081829
21
225.21977922704946
31
2.3851849977774006e-06
  0
LINE
 8
side-panels-5mm
10
326.28386346423207
20
223.683158392315
30
2.5553185839299885e-06
11
326.44536882195905
21
224.18022077296033
31
2.561128662392775e-06
  0
LINE
 8
side-panels-5mm
10
159.55463081829004
20
224.18022077296024
30
2.385184005149199e-06
11
159.71613617601844
21
223.683158392315
31
2.3909939482535946e-06
  0
LINE
 8
side-panels-5mm
10
322.7499998201259
20
226.86506350946664
30
2.42818723066307e-06
11
322.32717330422713
21
226.5578620636992
31
2.412975338828005e-06
  0
LINE
 8
side-panels-5mm
10
159.9774573341888
20
226.16946313073657
30
2.4003945434003524e-06
11
159.7161361760199
21
225.7168416076948
31
2.3909931812227114e-06
  0
LINE
 8
side-panels-5mm
10
161.738678661956
20
222.21369526158327
30
2.4637554453477147e-06
11
162.26132097829384
21
222.21369526158327
31
2.4825578087472876e-06
  0
LINE
 8
side-panels-5mm
10
159.55463081829149
20
225.21977922704926
30
2.3851839149102715e-06
11
159.49999982012548
21
224.70000000000485
31
2.3832182854732763e-06
  0
LINE
 8
side-panels-5mm
10
159.71613617601844
20
223.683158392315
30
2.3909939482535946e-06
11
159.97745733418736
21
223.23053686927338
31
2.400395445789627e-06
  0
LINE
 8
side-panels-5mm
10
162.26132097829526
20
227.18630473842614
30
2.482556274685521e-06
11
161.73867866195744
21
227.18630473842614
31
2.4637539564054123e-06
  0
LINE
 8
side-panels-5mm
10
483.55463081829
20
225.21977922704946
30
2.3851849977774006e-06
11
483.4999998201254
21
224.70000000000485
31
2.383218962265232e-06
  0
LINE
 8
side-panels-5mm
10
323.73867866195525
20
222.21369526158327
30
2.4637558063034246e-06
11
324.2613209782931
21
222.21369526158335
31
2.482558530658707e-06
  0
LINE
 8
side-panels-5mm
10
163.67282633602196
20
222.8421379363108
30
2.533336651922013e-06
11
164.02254230606246
21
223.23053686927312
31
2.5459171766328836e-06
  0
LINE
 8
side-panels-5mm
10
164.4453688219598
20
224.18022077296024
30
2.561128211198138e-06
11
164.4999998201258
21
224.70000000000493
31
2.563093163843177e-06
  0
LINE
 8
side-panels-5mm
10
483.55463081828856
20
224.18022077296052
30
2.3851849977774006e-06
11
483.7161361760184
21
223.68315839231516
31
2.3909950762401876e-06
  0
LINE
 8
side-panels-5mm
10
322.32717330422713
20
222.84213793631088
30
2.4129765570535253e-06
11
322.749999820123
21
222.53493649054315
31
2.428188358649663e-06
  0
LINE
 8
side-panels-5mm
10
483.4999998201254
20
224.70000000000485
30
2.383218962265232e-06
11
483.55463081828856
21
224.18022077296052
31
2.3851849977774006e-06
  0
LINE
 8
side-panels-5mm
10
161.22745733418853
20
222.3223587092661
30
2.4453647519351304e-06
11
161.738678661956
21
222.21369526158327
31
2.4637554453477147e-06
  0
LINE
 8
side-panels-5mm
10
160.32717330422787
20
222.84213793631096
30
2.412976105858888e-06
11
160.7499998201252
21
222.53493649054323
31
2.4281876367382438e-06
  0
LINE
 8
side-panels-5mm
10
164.44536882196124
20
225.21977922704946
30
2.561128030720283e-06
11
164.2838634642328
21
225.7168416076946
31
2.5553177717796414e-06
  0
LINE
 8
side-panels-5mm
10
323.22745733418634
20
227.07764129074351
30
2.445363578829074e-06
11
322.7499998201259
21
226.86506350946664
31
2.42818723066307e-06
  0
LINE
 8
side-panels-5mm
10
325.6728263360212
20
226.557862063699
30
2.53333588489113e-06
11
325.2499998201253
21
226.86506350946672
31
2.5181240381755288e-06
  0
LINE
 8
side-panels-5mm
10
326.28386346423207
20
225.7168416076947
30
2.5553182229742786e-06
11
326.02254230606314
21
226.16946313073677
31
2.5459162291241453e-06
  0
LINE
 8
side-panels-5mm
10
326.02254230606314
20
226.16946313073677
30
2.5459162291241453e-06
11
325.6728263360212
21
226.557862063699
31
2.53333588489113e-06
  0
LINE
 8
side-panels-5mm
10
163.24999982012463
20
222.53493649054315
30
2.5181249856842666e-06
11
163.67282633602196
21
222.8421379363108
31
2.533336651922013e-06
  0
LINE
 8
side-panels-5mm
10
164.4999998201258
20
224.70000000000493
30
2.563093163843177e-06
11
164.44536882196124
21
225.21977922704946
31
2.561128030720283e-06
  0
LINE
 8
side-panels-5mm
10
323.73867866195667
20
227.18630473842626
30
2.4637543173611217e-06
11
323.22745733418634
21
227.07764129074351
31
2.445363578829074e-06
  0
LINE
 8
side-panels-5mm
10
323.22745733418776
20
222.32235870926618
30
2.445365158010304e-06
11
323.73867866195525
21
222.21369526158327
31
2.4637558063034246e-06
  0
LINE
 8
side-panels-5mm
10
321.9774573341866
20
223.2305368692732
30
2.400396077462119e-06
11
322.32717330422713
21
222.84213793631088
31
2.4129765570535253e-06
  0
LINE
 8
side-panels-5mm
10
326.0225423060617
20
223.2305368692732
30
2.5459173119912745e-06
11
326.28386346423207
21
223.683158392315
31
2.5553185839299885e-06
  0
LINE
 8
side-panels-5mm
10
321.49999982012474
20
224.70000000000476
30
2.3832187366679135e-06
11
321.5546308182893
21
224.18022077296033
31
2.385184772180082e-06
  0
LINE
 8
side-panels-5mm
10
324.772542306062
20
222.32235870926618
30
2.5009498106243197e-06
11
325.2499998201239
21
222.53493649054306
31
2.5181254819983677e-06
  0
LINE
 8
side-panels-5mm
10
326.44536882195905
20
224.18022077296033
30
2.561128662392775e-06
11
326.499999820125
21
224.70000000000485
31
2.5630939759935243e-06
  0
LINE
 8
side-panels-5mm
10
325.6728263360212
20
222.8421379363108
30
2.533337057997187e-06
11
326.0225423060617
21
223.2305368692732
31
2.5459173119912745e-06
  0
LINE
 8
side-panels-5mm
10
324.2613209782945
20
227.18630473842634
30
2.4825568612385493e-06
11
323.73867866195667
21
227.18630473842626
31
2.4637543173611217e-06
  0
LINE
 8
side-panels-5mm
10
159.97745733418736
20
223.23053686927338
30
2.400395445789627e-06
11
160.32717330422787
21
222.84213793631096
31
2.412976105858888e-06
  0
LINE
 8
side-panels-5mm
10
162.26132097829384
20
222.21369526158327
30
2.4825578087472876e-06
11
162.77254230606275
21
222.32235870926618
31
2.5009489984739727e-06
  0
LINE
 8
side-panels-5mm
10
164.0225423060639
20
226.16946313073666
30
2.5459159132878994e-06
11
163.67282633602196
21
226.5578620636989
31
2.5333354788159567e-06
  0
LINE
 8
side-panels-5mm
10
163.67282633602196
20
226.5578620636989
30
2.5333354788159567e-06
11
163.24999982012608
21
226.8650635094668
31
2.5181235869808916e-06
  0
LINE
 8
side-panels-5mm
10
163.24999982012608
20
226.8650635094668
30
2.5181235869808916e-06
11
162.77254230606275
21
227.07764129074351
31
2.5009475095316702e-06
  0
LINE
 8
side-panels-5mm
10
55.08217156947571
20
252.33207305098762
30
2.653034844257718e-06
11
55.32778598899215
21
250.78132463773676
31
2.653034302824153e-06
  0
LINE
 8
side-panels-5mm
10
58.85282761783793
20
243.86304090462153
30
2.653032182209358e-06
11
59.963040904616264
21
242.75282761784356
31
2.653032362687213e-06
  0
LINE
 8
side-panels-5mm
10
485.7386786619545
20
222.21369526158352
30
2.4637561221396705e-06
11
486.26132097829236
21
222.21369526158327
31
2.482558575778171e-06
  0
LINE
 8
side-panels-5mm
10
484.3271733042264
20
222.84213793631105
30
2.4129767375313804e-06
11
484.74999982012514
21
222.53493649054334
31
2.4281888098443003e-06
  0
LINE
 8
side-panels-5mm
10
61.183221215611724
20
241.76474508437977
30
2.6530327236429226e-06
11
62.49999999999878
21
240.90961894323726
31
2.653032859001314e-06
  0
LINE
 8
side-panels-5mm
10
62.49999999999878
20
240.90961894323726
30
2.653032859001314e-06
11
63.8989503538625
21
240.19681813536448
31
2.6530332650764876e-06
  0
LINE
 8
side-panels-5mm
10
65.36474508437585
20
239.63415225557634
30
2.65303317483756e-06
11
66.88132463773273
21
239.22778598899643
31
2.653033310195951e-06
  0
LINE
 8
side-panels-5mm
10
488.44536882195973
20
225.21977922704946
30
2.561128391675993e-06
11
488.28386346423133
21
225.7168416076946
31
2.5553181778548147e-06
  0
LINE
 8
side-panels-5mm
10
485.73867866195593
20
227.18630473842634
30
2.463754813675223e-06
11
485.2274573341885
21
227.0776412907436
31
2.445363849545856e-06
  0
LINE
 8
side-panels-5mm
10
483.9774573341873
20
226.16946313073666
30
2.4003956713869454e-06
11
483.7161361760184
21
225.71684160769487
31
2.390994354328768e-06
  0
LINE
 8
side-panels-5mm
10
486.2613209782938
20
227.18630473842634
30
2.4825568612385493e-06
11
485.73867866195593
21
227.18630473842634
31
2.463754813675223e-06
  0
LINE
 8
side-panels-5mm
10
57.86474508437467
20
262.7167787843911
30
2.6530331297180964e-06
11
57.00961894323305
21
261.40000000000407
31
2.6530329492402412e-06
  0
LINE
 8
side-panels-5mm
10
488.4453688219583
20
224.18022077296024
30
2.5611287977511663e-06
11
488.49999982012577
21
224.70000000000493
31
2.563093885754597e-06
  0
LINE
 8
side-panels-5mm
10
484.74999982012514
20
226.86506350946664
30
2.428187726977171e-06
11
484.3271733042264
21
226.55786206369928
31
2.4129756997837148e-06
  0
LINE
 8
side-panels-5mm
10
485.2274573341885
20
222.32235870926627
30
2.445365518966014e-06
11
485.7386786619545
21
222.21369526158352
31
2.4637561221396705e-06
  0
LINE
 8
side-panels-5mm
10
57.00961894323305
20
261.40000000000407
30
2.6530329492402412e-06
11
56.296818135359736
21
260.00104964614053
31
2.653033671151661e-06
  0
LINE
 8
side-panels-5mm
10
487.2499998201246
20
222.53493649054306
30
2.5181254819983677e-06
11
487.6728263360205
21
222.84213793631068
31
2.533337193355578e-06
  0
LINE
 8
side-panels-5mm
10
486.7725423060627
20
227.07764129074377
30
2.500948186323626e-06
11
486.2613209782938
21
227.18630473842634
31
2.4825568612385493e-06
  0
LINE
 8
side-panels-5mm
10
55.73415225557214
20
258.5352549156272
30
2.653034167465762e-06
11
55.32778598899215
21
257.0186753622694
31
2.6530339418684434e-06
  0
LINE
 8
side-panels-5mm
10
55.32778598899215
20
250.78132463773676
30
2.653034302824153e-06
11
55.73415225557214
21
249.2647450843806
31
2.653032182209358e-06
  0
LINE
 8
side-panels-5mm
10
56.296818135359736
20
247.79895035386795
30
2.6530317761341848e-06
11
57.00961894323305
21
246.40000000000495
31
2.6530315054174023e-06
  0
LINE
 8
side-panels-5mm
10
59.963040904616264
20
242.75282761784356
30
2.653032362687213e-06
11
61.183221215611724
21
241.76474508437977
31
2.6530327236429226e-06
  0
LINE
 8
side-panels-5mm
10
487.6728263360205
20
222.84213793631068
30
2.533337193355578e-06
11
488.022542306061
21
223.2305368692732
31
2.545917266871811e-06
  0
LINE
 8
side-panels-5mm
10
63.8989503538625
20
240.19681813536448
30
2.6530332650764876e-06
11
65.36474508437585
21
239.63415225557634
31
2.65303317483756e-06
  0
LINE
 8
side-panels-5mm
10
488.49999982012577
20
224.70000000000493
30
2.563093885754597e-06
11
488.44536882195973
21
225.21977922704946
31
2.561128391675993e-06
  0
LINE
 8
side-panels-5mm
10
486.26132097829236
20
222.21369526158327
30
2.482558575778171e-06
11
486.7725423060627
21
222.32235870926627
31
2.5009498106243197e-06
  0
LINE
 8
side-panels-5mm
10
74.63525491562407
20
268.1658477444321
30
2.653032498045604e-06
11
73.11867536226575
21
268.5722140110117
31
2.6530327236429226e-06
  0
LINE
 8
side-panels-5mm
10
68.43207305098504
20
268.81782843052883
30
2.653032498045604e-06
11
66.88132463773273
21
268.5722140110117
31
2.6530327236429226e-06
  0
LINE
 8
side-panels-5mm
10
59.963040904616264
20
265.04717238216546
30
2.6530327236429226e-06
11
58.85282761783793
21
263.9369590953871
31
2.6530328138818504e-06
  0
LINE
 8
side-panels-5mm
10
55.73415225557214
20
249.2647450843806
30
2.653032182209358e-06
11
56.296818135359736
21
247.79895035386795
31
2.6530317761341848e-06
  0
LINE
 8
side-panels-5mm
10
485.2274573341885
20
227.0776412907436
30
2.445363849545856e-06
11
484.74999982012514
21
226.86506350946664
31
2.428187726977171e-06
  0
LINE
 8
side-panels-5mm
10
71.56792694901489
20
268.81782843052883
30
2.653032498045604e-06
11
69.99999999999852
21
268.9000000000047
31
2.653032588284532e-06
  0
LINE
 8
side-panels-5mm
10
66.88132463773273
20
268.5722140110117
30
2.6530327236429226e-06
11
65.3647450843744
21
268.1658477444321
31
2.653032498045604e-06
  0
LINE
 8
side-panels-5mm
10
58.85282761783793
20
263.9369590953871
30
2.6530328138818504e-06
11
57.86474508437467
21
262.7167787843911
31
2.6530331297180964e-06
  0
LINE
 8
side-panels-5mm
10
56.296818135359736
20
260.00104964614053
30
2.653033671151661e-06
11
55.73415225557214
21
258.5352549156272
31
2.653034167465762e-06
  0
LINE
 8
side-panels-5mm
10
57.00961894323305
20
246.40000000000495
30
2.6530315054174023e-06
11
57.86474508437611
21
245.08322121561773
31
2.6530317761341848e-06
  0
LINE
 8
side-panels-5mm
10
61.183221215611724
20
266.0352549156288
30
2.6530327236429226e-06
11
59.963040904616264
21
265.04717238216546
31
2.6530327236429226e-06
  0
LINE
 8
side-panels-5mm
10
57.86474508437611
20
245.08322121561773
30
2.6530317761341848e-06
11
58.85282761783793
21
243.86304090462153
31
2.653032182209358e-06
  0
LINE
 8
side-panels-5mm
10
76.10104964613743
20
267.60318186464366
30
2.653032543165068e-06
11
74.63525491562407
21
268.1658477444321
31
2.653032498045604e-06
  0
LINE
 8
side-panels-5mm
10
66.88132463773273
20
239.22778598899643
30
2.653033310195951e-06
11
68.43207305098504
21
238.9821715694792
31
2.6530335809127336e-06
  0
LINE
 8
side-panels-5mm
10
68.43207305098504
20
238.9821715694792
30
2.6530335809127336e-06
11
69.99999999999996
21
238.90000000000325
31
2.653033626032197e-06
  0
LINE
 8
side-panels-5mm
10
69.99999999999996
20
238.90000000000325
30
2.653033626032197e-06
11
71.56792694901345
21
238.9821715694792
31
2.6530335809127336e-06
  0
LINE
 8
side-panels-5mm
10
71.56792694901345
20
238.9821715694792
30
2.6530335809127336e-06
11
73.11867536226575
21
239.22778598899643
31
2.653033355315415e-06
  0
LINE
 8
side-panels-5mm
10
73.11867536226575
20
239.22778598899643
30
2.653033355315415e-06
11
74.63525491562407
21
239.63415225557634
31
2.65303317483756e-06
  0
LINE
 8
side-panels-5mm
10
77.4999999999997
20
266.89038105677116
30
2.6530326334039953e-06
11
76.10104964613743
21
267.60318186464366
31
2.653032543165068e-06
  0
LINE
 8
side-panels-5mm
10
484.3271733042264
20
226.55786206369928
30
2.4129756997837148e-06
11
483.9774573341873
21
226.16946313073666
31
2.4003956713869454e-06
  0
LINE
 8
side-panels-5mm
10
488.0225423060624
20
226.16946313073666
30
2.545916138885218e-06
11
487.6728263360205
21
226.557862063699
31
2.5333358397716665e-06
  0
LINE
 8
side-panels-5mm
10
487.6728263360205
20
226.557862063699
30
2.5333358397716665e-06
11
487.24999982012605
21
226.86506350946672
31
2.5181240381755288e-06
  0
LINE
 8
side-panels-5mm
10
73.11867536226575
20
268.5722140110117
30
2.6530327236429226e-06
11
71.56792694901489
21
268.81782843052883
31
2.653032498045604e-06
  0
LINE
 8
side-panels-5mm
10
69.99999999999852
20
268.9000000000047
30
2.653032588284532e-06
11
68.43207305098504
21
268.81782843052883
31
2.653032498045604e-06
  0
LINE
 8
side-panels-5mm
10
63.8989503538625
20
267.60318186464355
30
2.653032588284532e-06
11
62.50000000000023
21
266.89038105677105
31
2.6530327236429226e-06
  0
LINE
 8
side-panels-5mm
10
55.32778598899215
20
257.0186753622694
30
2.6530339418684434e-06
11
55.08217156947571
21
255.46792694901745
31
2.653034483302008e-06
  0
LINE
 8
side-panels-5mm
10
487.24999982012605
20
226.86506350946672
30
2.5181240381755288e-06
11
486.7725423060627
21
227.07764129074377
31
2.500948186323626e-06
  0
LINE
 8
side-panels-5mm
10
488.28386346423133
20
223.683158392315
30
2.555318629049452e-06
11
488.4453688219583
21
224.18022077296024
31
2.5611287977511663e-06
  0
LINE
 8
side-panels-5mm
10
62.50000000000023
20
266.89038105677105
30
2.6530327236429226e-06
11
61.183221215611724
21
266.0352549156288
31
2.6530327236429226e-06
  0
LINE
 8
side-panels-5mm
10
55.08217156947571
20
255.46792694901745
30
2.653034483302008e-06
11
54.99999999999904
21
253.90000000000225
31
2.6530350247355726e-06
  0
LINE
 8
side-panels-5mm
10
486.7725423060627
20
222.32235870926627
30
2.5009498106243197e-06
11
487.2499998201246
21
222.53493649054306
31
2.5181254819983677e-06
  0
LINE
 8
side-panels-5mm
10
488.022542306061
20
223.2305368692732
30
2.545917266871811e-06
11
488.28386346423133
21
223.683158392315
31
2.555318629049452e-06
  0
LINE
 8
side-panels-5mm
10
483.7161361760184
20
223.68315839231516
30
2.3909950762401876e-06
11
483.9774573341859
21
223.2305368692733
31
2.40039657377622e-06
  0
LINE
 8
side-panels-5mm
10
483.9774573341859
20
223.2305368692733
30
2.40039657377622e-06
11
484.3271733042264
21
222.84213793631105
31
2.4129767375313804e-06
  0
LINE
 8
side-panels-5mm
10
484.74999982012514
20
222.53493649054334
30
2.4281888098443003e-06
11
485.2274573341885
21
222.32235870926627
31
2.445365518966014e-06
  0
LINE
 8
side-panels-5mm
10
488.28386346423133
20
225.7168416076946
30
2.5553181778548147e-06
11
488.0225423060624
21
226.16946313073666
31
2.545916138885218e-06
  0
LINE
 8
side-panels-5mm
10
65.3647450843744
20
268.1658477444321
30
2.653032498045604e-06
11
63.8989503538625
21
267.60318186464355
31
2.653032588284532e-06
  0
LINE
 8
side-panels-5mm
10
54.99999999999904
20
253.90000000000225
30
2.6530350247355726e-06
11
55.08217156947571
21
252.33207305098762
31
2.653034844257718e-06
  0
LINE
 8
side-panels-5mm
10
590.9903810567669
20
246.40000000000515
30
2.6530324529261406e-06
11
591.7031818646387
21
247.79895035386832
31
2.653032362687213e-06
  0
LINE
 8
side-panels-5mm
10
577.9999999999999
20
238.90000000000333
30
2.6530342125852255e-06
11
579.5679269490149
21
238.9821715694792
31
2.6530342577046894e-06
  0
LINE
 8
side-panels-5mm
10
83.7031818646373
20
260.00104964614053
30
2.653033626032197e-06
11
82.99038105676686
21
261.40000000000407
31
2.6530329492402412e-06
  0
LINE
 8
side-panels-5mm
10
562.999999999999
20
253.90000000000217
30
2.6530353405718185e-06
11
563.0821715694772
21
252.3320730509878
31
2.6530350247355726e-06
  0
LINE
 8
side-panels-5mm
10
570.5000000000002
20
240.90961894323726
30
2.653033716271125e-06
11
571.8989503538639
21
240.19681813536465
31
2.6530338967489795e-06
  0
LINE
 8
side-panels-5mm
10
589.1471723821605
20
243.8630409046218
30
2.6530327236429226e-06
11
590.1352549156252
21
245.0832212156179
31
2.6530324529261406e-06
  0
LINE
 8
side-panels-5mm
10
84.67221401100633
20
257.0186753622694
30
2.653033986987907e-06
11
84.26584774442634
21
258.5352549156274
31
2.653034032107371e-06
  0
LINE
 8
side-panels-5mm
10
571.8989503538639
20
240.19681813536465
30
2.6530338967489795e-06
11
573.3647450843758
21
239.63415225557634
31
2.6530339418684434e-06
  0
LINE
 8
side-panels-5mm
10
590.1352549156252
20
245.0832212156179
30
2.6530324529261406e-06
11
590.9903810567669
21
246.40000000000515
31
2.6530324529261406e-06
  0
LINE
 8
side-panels-5mm
10
84.99999999999943
20
253.90000000000225
30
2.6530350247355726e-06
11
84.91782843052421
21
255.46792694901728
31
2.6530345735409354e-06
  0
LINE
 8
side-panels-5mm
10
82.13525491562382
20
245.08322121561773
30
2.653031731014721e-06
11
82.99038105676543
21
246.40000000000495
31
2.6530316407757935e-06
  0
LINE
 8
side-panels-5mm
10
592.2658477444278
20
249.26474508438076
30
2.6530327687623865e-06
11
592.6722140110078
21
250.78132463773676
31
2.6530345735409354e-06
  0
LINE
 8
side-panels-5mm
10
567.9630409046176
20
242.75282761784365
30
2.653033039479169e-06
11
569.1832212156131
21
241.76474508437985
31
2.6530334455543423e-06
  0
LINE
 8
side-panels-5mm
10
592.9178284305242
20
252.3320730509878
30
2.6530350247355726e-06
11
592.9999999999994
21
253.90000000000225
31
2.653035430810746e-06
  0
LINE
 8
side-panels-5mm
10
84.26584774442779
20
249.2647450843806
30
2.653032182209358e-06
11
84.67221401100633
21
250.78132463773665
31
2.653034302824153e-06
  0
LINE
 8
side-panels-5mm
10
592.9999999999994
20
253.90000000000225
30
2.653035430810746e-06
11
592.9178284305242
21
255.46792694901757
31
2.653034844257718e-06
  0
LINE
 8
side-panels-5mm
10
74.63525491562407
20
239.63415225557634
30
2.65303317483756e-06
11
76.10104964613598
21
240.19681813536448
31
2.6530332650764876e-06
  0
LINE
 8
side-panels-5mm
10
592.9178284305242
20
255.46792694901757
30
2.653034844257718e-06
11
592.6722140110063
21
257.0186753622694
31
2.653034302824153e-06
  0
LINE
 8
side-panels-5mm
10
78.81677878438676
20
266.03525491562874
30
2.653032678523459e-06
11
77.4999999999997
21
266.89038105677116
31
2.6530326334039953e-06
  0
LINE
 8
side-panels-5mm
10
579.5679269490149
20
238.9821715694792
30
2.6530342577046894e-06
11
581.1186753622671
21
239.22778598899652
31
2.653034122346298e-06
  0
LINE
 8
side-panels-5mm
10
592.6722140110063
20
257.0186753622694
30
2.653034302824153e-06
11
592.2658477444278
21
258.53525491562755
31
2.6530343479436168e-06
  0
LINE
 8
side-panels-5mm
10
588.0369590953836
20
242.75282761784356
30
2.653033039479169e-06
11
589.1471723821605
21
243.8630409046218
31
2.6530327236429226e-06
  0
LINE
 8
side-panels-5mm
10
76.10104964613598
20
240.19681813536448
30
2.6530332650764876e-06
11
77.4999999999997
21
240.90961894323726
31
2.6530329492402412e-06
  0
LINE
 8
side-panels-5mm
10
565.0096189432345
20
246.40000000000515
30
2.6530324529261406e-06
11
565.8647450843761
21
245.0832212156178
31
2.653032498045604e-06
  0
LINE
 8
side-panels-5mm
10
81.14717238215911
20
243.86304090462153
30
2.653032182209358e-06
11
82.13525491562382
21
245.08322121561773
31
2.653031731014721e-06
  0
LINE
 8
side-panels-5mm
10
569.1832212156131
20
241.76474508437985
30
2.6530334455543423e-06
11
570.5000000000002
21
240.90961894323726
31
2.653033716271125e-06
  0
LINE
 8
side-panels-5mm
10
591.7031818646387
20
260.0010496461407
30
2.6530340772268343e-06
11
590.9903810567669
21
261.4000000000042
31
2.6530334004348784e-06
  0
LINE
 8
side-panels-5mm
10
582.6352549156255
20
239.63415225557634
30
2.6530339418684434e-06
11
584.1010496461374
21
240.19681813536465
31
2.6530338967489795e-06
  0
LINE
 8
side-panels-5mm
10
592.2658477444278
20
258.53525491562755
30
2.6530343479436168e-06
11
591.7031818646387
21
260.0010496461407
31
2.6530340772268343e-06
  0
LINE
 8
side-panels-5mm
10
590.9903810567669
20
261.4000000000042
30
2.6530334004348784e-06
11
590.1352549156252
21
262.7167787843913
31
2.6530334906738062e-06
  0
LINE
 8
side-panels-5mm
10
590.1352549156252
20
262.7167787843913
30
2.6530334906738062e-06
11
589.1471723821605
21
263.9369590953873
31
2.6530331297180964e-06
  0
LINE
 8
side-panels-5mm
10
589.1471723821605
20
263.9369590953873
30
2.6530331297180964e-06
11
588.0369590953821
21
265.04717238216546
31
2.6530330845986325e-06
  0
LINE
 8
side-panels-5mm
10
588.0369590953821
20
265.04717238216546
30
2.6530330845986325e-06
11
586.8167787843881
21
266.0352549156289
31
2.6530329492402412e-06
  0
LINE
 8
side-panels-5mm
10
80.03695909538222
20
242.75282761784356
30
2.653032362687213e-06
11
81.14717238215911
21
243.86304090462153
31
2.653032182209358e-06
  0
LINE
 8
side-panels-5mm
10
586.8167787843881
20
266.0352549156289
30
2.6530329492402412e-06
11
585.5000000000011
21
266.89038105677145
31
2.6530328138818504e-06
  0
LINE
 8
side-panels-5mm
10
564.2968181353611
20
247.79895035386824
30
2.6530324078066767e-06
11
565.0096189432345
21
246.40000000000515
31
2.6530324529261406e-06
  0
LINE
 8
side-panels-5mm
10
586.8167787843868
20
241.7647450843796
30
2.6530335357932697e-06
11
588.0369590953836
21
242.75282761784356
31
2.653033039479169e-06
  0
LINE
 8
side-panels-5mm
10
82.13525491562237
20
262.7167787843911
30
2.6530331297180964e-06
11
81.14717238216055
21
263.9369590953871
31
2.6530327236429226e-06
  0
LINE
 8
side-panels-5mm
10
81.14717238216055
20
263.9369590953871
30
2.6530327236429226e-06
11
80.03695909538222
21
265.04717238216546
31
2.653032678523459e-06
  0
LINE
 8
side-panels-5mm
10
585.5000000000011
20
266.89038105677145
30
2.6530328138818504e-06
11
584.1010496461374
21
267.6031818646438
31
2.6530329041207778e-06
  0
LINE
 8
side-panels-5mm
10
592.6722140110078
20
250.78132463773676
30
2.6530345735409354e-06
11
592.9178284305242
21
252.3320730509878
31
2.6530350247355726e-06
  0
LINE
 8
side-panels-5mm
10
80.03695909538222
20
265.04717238216546
30
2.653032678523459e-06
11
78.81677878438676
21
266.03525491562874
31
2.653032678523459e-06
  0
LINE
 8
side-panels-5mm
10
591.7031818646387
20
247.79895035386832
30
2.653032362687213e-06
11
592.2658477444278
21
249.26474508438076
31
2.6530327687623865e-06
  0
LINE
 8
side-panels-5mm
10
84.91782843052421
20
255.46792694901728
30
2.6530345735409354e-06
11
84.67221401100633
21
257.0186753622694
31
2.653033986987907e-06
  0
LINE
 8
side-panels-5mm
10
83.7031818646373
20
247.79895035386795
30
2.6530318212536482e-06
11
84.26584774442779
21
249.2647450843806
31
2.653032182209358e-06
  0
LINE
 8
side-panels-5mm
10
77.4999999999997
20
240.90961894323726
30
2.6530329492402412e-06
11
78.81677878438676
21
241.76474508437977
31
2.653032678523459e-06
  0
LINE
 8
side-panels-5mm
10
82.99038105676543
20
246.40000000000495
30
2.6530316407757935e-06
11
83.7031818646373
21
247.79895035386795
31
2.6530318212536482e-06
  0
LINE
 8
side-panels-5mm
10
82.99038105676686
20
261.40000000000407
30
2.6530329492402412e-06
11
82.13525491562237
21
262.7167787843911
31
2.6530331297180964e-06
  0
LINE
 8
side-panels-5mm
10
84.91782843052277
20
252.33207305098742
30
2.6530350247355726e-06
11
84.99999999999943
21
253.90000000000225
31
2.6530350247355726e-06
  0
LINE
 8
side-panels-5mm
10
563.3277859889936
20
250.78132463773676
30
2.6530346637798627e-06
11
563.7341522555736
21
249.26474508438076
31
2.6530328138818504e-06
  0
LINE
 8
side-panels-5mm
10
84.67221401100633
20
250.78132463773665
30
2.653034302824153e-06
11
84.91782843052277
21
252.33207305098742
31
2.6530350247355726e-06
  0
LINE
 8
side-panels-5mm
10
563.0821715694772
20
252.3320730509878
30
2.6530350247355726e-06
11
563.3277859889936
21
250.78132463773676
31
2.6530346637798627e-06
  0
LINE
 8
side-panels-5mm
10
563.7341522555736
20
249.26474508438076
30
2.6530328138818504e-06
11
564.2968181353611
21
247.79895035386824
31
2.6530324078066767e-06
  0
LINE
 8
side-panels-5mm
10
565.8647450843761
20
245.0832212156178
30
2.653032498045604e-06
11
566.8528276178394
21
243.8630409046218
31
2.6530327236429226e-06
  0
LINE
 8
side-panels-5mm
10
78.81677878438676
20
241.76474508437977
30
2.653032678523459e-06
11
80.03695909538222
21
242.75282761784356
31
2.653032362687213e-06
  0
LINE
 8
side-panels-5mm
10
566.8528276178394
20
243.8630409046218
30
2.6530327236429226e-06
11
567.9630409046176
21
242.75282761784365
31
2.653033039479169e-06
  0
LINE
 8
side-panels-5mm
10
573.3647450843758
20
239.63415225557634
30
2.6530339418684434e-06
11
574.8813246377341
21
239.22778598899635
31
2.653034032107371e-06
  0
LINE
 8
side-panels-5mm
10
574.8813246377341
20
239.22778598899635
30
2.653034032107371e-06
11
576.4320730509864
21
238.9821715694792
31
2.6530342577046894e-06
  0
LINE
 8
side-panels-5mm
10
576.4320730509864
20
238.9821715694792
30
2.6530342577046894e-06
11
577.9999999999999
21
238.90000000000333
31
2.6530342125852255e-06
  0
LINE
 8
side-panels-5mm
10
581.1186753622671
20
239.22778598899652
30
2.653034122346298e-06
11
582.6352549156255
21
239.63415225557634
31
2.6530339418684434e-06
  0
LINE
 8
side-panels-5mm
10
584.1010496461374
20
240.19681813536465
30
2.6530338967489795e-06
11
585.5000000000011
21
240.90961894323735
31
2.6530337613905883e-06
  0
LINE
 8
side-panels-5mm
10
84.26584774442634
20
258.5352549156274
30
2.653034032107371e-06
11
83.7031818646373
21
260.00104964614053
31
2.653033626032197e-06
  0
LINE
 8
side-panels-5mm
10
585.5000000000011
20
240.90961894323735
30
2.6530337613905883e-06
11
586.8167787843868
21
241.7647450843796
31
2.6530335357932697e-06
  0
LINE
 8
side-panels-5mm
10
566.8528276178394
20
263.9369590953873
30
2.6530331297180964e-06
11
565.8647450843761
21
262.71677878439124
31
2.6530334906738062e-06
  0
LINE
 8
side-panels-5mm
10
569.1832212156131
20
266.0352549156289
30
2.6530329492402412e-06
11
567.9630409046163
21
265.04717238216546
31
2.6530330845986325e-06
  0
LINE
 8
side-panels-5mm
10
564.2968181353611
20
260.00104964614064
30
2.653034122346298e-06
11
563.7341522555736
21
258.53525491562755
31
2.6530343479436168e-06
  0
LINE
 8
side-panels-5mm
10
577.9999999999999
20
268.90000000000464
30
2.653032859001314e-06
11
576.4320730509864
21
268.8178284305288
31
2.653032859001314e-06
  0
LINE
 8
side-panels-5mm
10
563.7341522555736
20
258.53525491562755
30
2.6530343479436168e-06
11
563.3277859889921
21
257.01867536226956
31
2.653034302824153e-06
  0
LINE
 8
side-panels-5mm
10
573.3647450843758
20
268.16584774443214
30
2.6530328138818504e-06
11
571.8989503538639
21
267.60318186464383
31
2.6530329492402412e-06
  0
LINE
 8
side-panels-5mm
10
576.4320730509864
20
268.8178284305288
30
2.653032859001314e-06
11
574.8813246377327
21
268.5722140110117
31
2.653033039479169e-06
  0
LINE
 8
side-panels-5mm
10
570.5000000000002
20
266.89038105677145
30
2.6530328138818504e-06
11
569.1832212156131
21
266.0352549156289
31
2.6530329492402412e-06
  0
LINE
 8
side-panels-5mm
10
584.1010496461374
20
267.6031818646438
30
2.6530329041207778e-06
11
582.635254915624
21
268.16584774443214
31
2.6530328138818504e-06
  0
LINE
 8
side-panels-5mm
10
565.8647450843761
20
262.71677878439124
30
2.6530334906738062e-06
11
565.0096189432345
21
261.40000000000407
31
2.653033355315415e-06
  0
LINE
 8
side-panels-5mm
10
567.9630409046163
20
265.04717238216546
30
2.6530330845986325e-06
11
566.8528276178394
21
263.9369590953873
31
2.6530331297180964e-06
  0
LINE
 8
side-panels-5mm
10
581.1186753622658
20
268.5722140110117
30
2.6530330845986325e-06
11
579.5679269490149
21
268.8178284305288
31
2.653032859001314e-06
  0
LINE
 8
side-panels-5mm
10
571.8989503538639
20
267.60318186464383
30
2.6530329492402412e-06
11
570.5000000000002
21
266.89038105677145
31
2.6530328138818504e-06
  0
LINE
 8
side-panels-5mm
10
579.5679269490149
20
268.8178284305288
30
2.653032859001314e-06
11
577.9999999999999
21
268.90000000000464
31
2.653032859001314e-06
  0
LINE
 8
side-panels-5mm
10
563.3277859889921
20
257.01867536226956
30
2.653034302824153e-06
11
563.0821715694772
21
255.46792694901757
31
2.653034844257718e-06
  0
LINE
 8
side-panels-5mm
10
574.8813246377327
20
268.5722140110117
30
2.653033039479169e-06
11
573.3647450843758
21
268.16584774443214
31
2.6530328138818504e-06
  0
LINE
 8
side-panels-5mm
10
563.0821715694772
20
255.46792694901757
30
2.653034844257718e-06
11
562.999999999999
21
253.90000000000217
31
2.6530353405718185e-06
  0
LINE
 8
side-panels-5mm
10
582.635254915624
20
268.16584774443214
30
2.6530328138818504e-06
11
581.1186753622658
21
268.5722140110117
31
2.6530330845986325e-06
  0
LINE
 8
side-panels-5mm
10
565.0096189432345
20
261.40000000000407
30
2.653033355315415e-06
11
564.2968181353611
21
260.00104964614064
31
2.653034122346298e-06
  0
LINE
 8
side-panels-5mm
10
82.9903810576505
20
40.19999999175583
30
3.926002275989049e-06
11
82.13525491650744
21
41.51677877614325
31
3.928323943114264e-06
  0
LINE
 8
side-panels-5mm
10
84.91782843140783
20
34.26792694077021
30
3.915881709559699e-06
11
84.67221401189067
21
35.818675354022425
31
3.91848162841768e-06
  0
LINE
 8
side-panels-5mm
10
367.28386364411585
20
60.683158392311555
30
2.1716324553722187e-06
11
367.44536900184426
21
61.18022077295563
31
2.1716338089561303e-06
  0
LINE
 8
side-panels-5mm
10
80.03695909626583
20
43.84717237391678
30
3.932536386486163e-06
11
78.81677878527037
21
44.83525490737949
31
3.934381411596633e-06
  0
LINE
 8
side-panels-5mm
10
366.2500000000091
20
59.5349364905398
30
2.1716338991950576e-06
11
366.6728265159064
21
59.842137936306976
31
2.1716336284782756e-06
  0
LINE
 8
side-panels-5mm
10
73.11867536315009
20
47.37221400276301
30
3.939567578115088e-06
11
71.5679269498985
21
47.61782842227962
31
3.9402462650883764e-06
  0
LINE
 8
side-panels-5mm
10
364.73867884184045
20
59.21369526158045
30
2.1716347113454047e-06
11
365.2613211581783
21
59.21369526158018
31
2.1716346211064773e-06
  0
LINE
 8
side-panels-5mm
10
84.91782843140783
20
31.132073042740807
30
3.910710387344807e-06
11
85.00000000088306
21
32.699999991756094
31
3.913281655343326e-06
  0
LINE
 8
side-panels-5mm
10
78.81677878527037
20
44.83525490737949
30
3.934381411596633e-06
11
77.50000000088332
21
45.690381048523
31
3.936022586970012e-06
  0
LINE
 8
side-panels-5mm
10
363.32717348411234
20
59.842137936306884
30
2.171635207659506e-06
11
363.75000000000824
21
59.534936490539614
31
2.17163489182326e-06
  0
LINE
 8
side-panels-5mm
10
367.02254248594693
20
60.23053686926885
30
2.171634846703796e-06
11
367.28386364411585
21
60.683158392311555
31
2.1716324553722187e-06
  0
LINE
 8
side-panels-5mm
10
84.2658477453114
20
37.33525490738084
30
3.921053437849764e-06
11
83.70318186552237
21
38.801049637893016
31
3.923569795460935e-06
  0
LINE
 8
side-panels-5mm
10
83.70318186552237
20
38.801049637893016
30
3.923569795460935e-06
11
82.9903810576505
21
40.19999999175583
31
3.926002275989049e-06
  0
LINE
 8
side-panels-5mm
10
183.75000000000875
20
63.865063509461734
30
2.1716341247923762e-06
11
183.32717348411143
21
63.55786206369384
31
2.1716357490930704e-06
  0
LINE
 8
side-panels-5mm
10
182.5546309981736
20
62.21977922704519
30
2.17163611004878e-06
11
182.50000000000904
21
61.70000000000095
31
2.1716360649293163e-06
  0
LINE
 8
side-panels-5mm
10
84.2658477453114
20
28.064745076132343
30
3.905766873302241e-06
11
84.67221401189067
21
29.581324629489224
31
3.908196827140386e-06
  0
LINE
 8
side-panels-5mm
10
84.67221401189067
20
29.581324629489224
30
3.908196827140386e-06
11
84.91782843140783
21
31.132073042740807
31
3.910710387344807e-06
  0
LINE
 8
side-panels-5mm
10
367.5000000000088
20
61.70000000000077
30
2.1716323200138274e-06
11
367.44536900184426
21
62.21977922704527
31
2.1716338089561303e-06
  0
LINE
 8
side-panels-5mm
10
81.14717238304416
20
42.73695908713808
30
3.930510657923491e-06
11
80.03695909626583
21
43.84717237391678
31
3.932536386486163e-06
  0
LINE
 8
side-panels-5mm
10
85.00000000088306
20
32.699999991756094
30
3.913281655343326e-06
11
84.91782843140783
21
34.26792694077021
31
3.915881709559699e-06
  0
LINE
 8
side-panels-5mm
10
185.26132115817737
20
64.18630473842225
30
2.171633402880957e-06
11
184.73867884183954
21
64.18630473842208
31
2.1716344406286226e-06
  0
LINE
 8
side-panels-5mm
10
366.6728265159064
20
59.842137936306976
30
2.1716336284782756e-06
11
367.02254248594693
21
60.23053686926885
31
2.171634846703796e-06
  0
LINE
 8
side-panels-5mm
10
367.44536900184426
20
61.18022077295563
30
2.1716338089561303e-06
11
367.5000000000088
21
61.70000000000077
31
2.1716323200138274e-06
  0
LINE
 8
side-panels-5mm
10
74.63525491650769
20
46.965847736183555
30
3.938630537092536e-06
11
73.11867536315009
21
47.37221400276301
31
3.939567578115088e-06
  0
LINE
 8
side-panels-5mm
10
367.44536900184426
20
62.21977922704527
30
2.1716338089561303e-06
11
367.28386364411585
21
62.71684160769034
31
2.1716328614473924e-06
  0
LINE
 8
side-panels-5mm
10
364.73867884184045
20
64.18630473842208
30
2.1716344406286226e-06
11
364.22745751407155
21
64.0776412907388
31
2.171634846703796e-06
  0
LINE
 8
side-panels-5mm
10
184.22745751407206
20
59.322358709262375
30
2.171634982062187e-06
11
184.73867884183954
21
59.21369526158045
31
2.1716347113454047e-06
  0
LINE
 8
side-panels-5mm
10
77.50000000088332
20
45.690381048523
30
3.936022586970012e-06
11
76.10104964702104
21
46.403181856393886
31
3.937444481749708e-06
  0
LINE
 8
side-panels-5mm
10
82.13525491650744
20
41.51677877614325
30
3.928323943114264e-06
11
81.14717238304416
21
42.73695908713808
31
3.930510657923491e-06
  0
LINE
 8
side-panels-5mm
10
365.7725424859458
20
59.32235870926256
30
2.1716346211064773e-06
11
366.2500000000091
21
59.5349364905398
31
2.1716338991950576e-06
  0
LINE
 8
side-panels-5mm
10
84.67221401189067
20
35.818675354022425
30
3.91848162841768e-06
11
84.2658477453114
21
37.33525490738084
31
3.921053437849764e-06
  0
LINE
 8
side-panels-5mm
10
364.22745751407155
20
59.322358709262375
30
2.171634982062187e-06
11
364.73867884184045
21
59.21369526158045
31
2.1716347113454047e-06
  0
LINE
 8
side-panels-5mm
10
362.5000000000085
20
61.70000000000095
30
2.1716360649293163e-06
11
362.5546309981745
21
61.180220772955714
31
2.17163611004878e-06
  0
LINE
 8
side-panels-5mm
10
365.2613211581783
20
59.21369526158018
30
2.1716346211064773e-06
11
365.7725424859458
21
59.32235870926256
31
2.1716346211064773e-06
  0
LINE
 8
side-panels-5mm
10
76.10104964702104
20
46.403181856393886
30
3.937444481749708e-06
11
74.63525491650769
21
46.965847736183555
31
3.938630537092536e-06
  0
LINE
 8
side-panels-5mm
10
367.28386364411585
20
62.71684160769034
30
2.1716328614473924e-06
11
367.02254248594693
21
63.169463130731415
31
2.171634034553449e-06
  0
LINE
 8
side-panels-5mm
10
363.75000000000824
20
59.534936490539614
30
2.17163489182326e-06
11
364.22745751407155
21
59.322358709262375
31
2.171634982062187e-06
  0
LINE
 8
side-panels-5mm
10
186.25000000000819
20
59.5349364905398
30
2.1716338991950576e-06
11
186.6728265159055
21
59.842137936306976
31
2.1716336284782756e-06
  0
LINE
 8
side-panels-5mm
10
185.7725424859463
20
59.32235870926256
30
2.1716346211064773e-06
11
186.25000000000819
21
59.5349364905398
31
2.1716338991950576e-06
  0
LINE
 8
side-panels-5mm
10
185.26132115817737
20
59.21369526158018
30
2.1716346211064773e-06
11
185.7725424859463
21
59.32235870926256
31
2.1716346211064773e-06
  0
LINE
 8
side-panels-5mm
10
366.6728265159064
20
63.55786206369384
30
2.1716339894339854e-06
11
366.2500000000091
21
63.86506350946192
31
2.171633673597739e-06
  0
LINE
 8
side-panels-5mm
10
364.22745751407155
20
64.0776412907388
30
2.171634846703796e-06
11
363.75000000000966
21
63.865063509461734
31
2.1716341247923762e-06
  0
LINE
 8
side-panels-5mm
10
2.887645678129047e-12
20
3.6095570976613087e-13
30
2.2033433619839116e-06
11
2.887645678129047e-12
21
71.70000000000047
31
2.2033430010282017e-06
  0
LINE
 8
side-panels-5mm
10
186.6728265159055
20
59.842137936306976
30
2.1716336284782756e-06
11
187.02254248594602
21
60.23053686926885
31
2.171634846703796e-06
  0
LINE
 8
side-panels-5mm
10
186.2500000000096
20
63.86506350946192
30
2.171633673597739e-06
11
185.7725424859463
21
64.07764129073907
31
2.1716338089561303e-06
  0
LINE
 8
side-panels-5mm
10
362.7161363559029
20
60.68315839231137
30
2.1716357039736065e-06
11
362.97745751407183
21
60.230536869268676
31
2.171636019809853e-06
  0
LINE
 8
side-panels-5mm
10
187.50000000000932
20
61.70000000000077
30
2.1716323200138274e-06
11
187.44536900184335
21
62.21977922704527
31
2.1716338089561303e-06
  0
LINE
 8
side-panels-5mm
10
366.2500000000091
20
63.86506350946192
30
2.171633673597739e-06
11
365.7725424859458
21
64.07764129073907
31
2.1716338089561303e-06
  0
LINE
 8
side-panels-5mm
10
182.50000000000904
20
61.70000000000095
30
2.1716360649293163e-06
11
182.5546309981736
21
61.180220772955714
31
2.17163611004878e-06
  0
LINE
 8
side-panels-5mm
10
365.2613211581783
20
64.18630473842225
30
2.171633402880957e-06
11
364.73867884184045
21
64.18630473842208
31
2.1716344406286226e-06
  0
LINE
 8
side-panels-5mm
10
187.02254248594602
20
60.23053686926885
30
2.171634846703796e-06
11
187.28386364411492
21
60.683158392311555
31
2.1716324553722187e-06
  0
LINE
 8
side-panels-5mm
10
182.716136355902
20
62.71684160769034
30
2.1716358393319977e-06
11
182.5546309981736
21
62.21977922704519
31
2.17163611004878e-06
  0
LINE
 8
side-panels-5mm
10
187.28386364411492
20
62.71684160769034
30
2.1716328614473924e-06
11
187.02254248594602
21
63.169463130731415
31
2.171634034553449e-06
  0
LINE
 8
side-panels-5mm
10
362.5546309981745
20
61.180220772955714
30
2.17163611004878e-06
11
362.7161363559029
21
60.68315839231137
31
2.1716357039736065e-06
  0
LINE
 8
side-panels-5mm
10
183.75000000000875
20
59.534936490539614
30
2.17163489182326e-06
11
184.22745751407206
21
59.322358709262375
31
2.171634982062187e-06
  0
LINE
 8
side-panels-5mm
10
367.02254248594693
20
63.169463130731415
30
2.171634034553449e-06
11
366.6728265159064
21
63.55786206369384
31
2.1716339894339854e-06
  0
LINE
 8
side-panels-5mm
10
363.75000000000966
20
63.865063509461734
30
2.1716341247923762e-06
11
363.32717348411234
21
63.55786206369384
31
2.1716357490930704e-06
  0
LINE
 8
side-panels-5mm
10
184.73867884183954
20
59.21369526158045
30
2.1716347113454047e-06
11
185.26132115817737
21
59.21369526158018
31
2.1716346211064773e-06
  0
LINE
 8
side-panels-5mm
10
182.716136355902
20
60.68315839231137
30
2.1716357039736065e-06
11
182.97745751407092
21
60.230536869268676
31
2.171636019809853e-06
  0
LINE
 8
side-panels-5mm
10
187.44536900184335
20
62.21977922704527
30
2.1716338089561303e-06
11
187.28386364411492
21
62.71684160769034
31
2.1716328614473924e-06
  0
LINE
 8
side-panels-5mm
10
187.28386364411492
20
60.683158392311555
30
2.1716324553722187e-06
11
187.44536900184335
21
61.18022077295563
31
2.1716338089561303e-06
  0
LINE
 8
side-panels-5mm
10
362.97745751407183
20
60.230536869268676
30
2.171636019809853e-06
11
363.32717348411234
21
59.842137936306884
31
2.171635207659506e-06
  0
LINE
 8
side-panels-5mm
10
539.0000001031121
20
0.0
30
7.452007782404734e-07
11
537.0446282170373
21
19.700000413651665
31
0.0
  0
LINE
 8
side-panels-5mm
10
2.887645678129047e-12
20
3.6095570976613087e-13
30
2.2033433619839116e-06
11
539.0000001031121
21
0.0
31
7.452007782404734e-07
  0
LINE
 8
side-panels-5mm
10
537.0446282170373
20
19.700000413651665
30
0.0
11
552.9999983801548
21
71.70000000000047
31
3.661499210849683e-06
  0
LINE
 8
side-panels-5mm
10
7.283863644115433
20
62.71684160769007
30
2.2033375866925552e-06
11
7.022542485946519
21
63.169463130731415
31
2.2033381732455837e-06
  0
LINE
 8
side-panels-5mm
10
7.022542485946519
20
63.169463130731415
30
2.2033381732455837e-06
11
6.672826515906013
21
63.55786206369384
31
2.2033383537234384e-06
  0
LINE
 8
side-panels-5mm
10
6.672826515906013
20
63.55786206369384
30
2.2033383537234384e-06
11
6.250000000009408
21
63.86506350946192
31
2.2033377220509465e-06
  0
LINE
 8
side-panels-5mm
10
6.250000000009408
20
63.86506350946192
30
2.2033377220509465e-06
11
5.772542485946081
21
64.07764129073888
31
2.2033381281261198e-06
  0
LINE
 8
side-panels-5mm
10
5.772542485946081
20
64.07764129073888
30
2.2033381281261198e-06
11
5.261321158177884
21
64.18630473842181
31
2.203338624440221e-06
  0
LINE
 8
side-panels-5mm
10
5.261321158177884
20
64.18630473842181
30
2.203338624440221e-06
11
4.738678841840056
21
64.18630473842163
31
2.2033388500375395e-06
  0
LINE
 8
side-panels-5mm
10
4.738678841840056
20
64.18630473842163
30
2.2033388500375395e-06
11
4.227457514071858
21
64.07764129073898
31
2.203338895157003e-06
  0
LINE
 8
side-panels-5mm
10
4.227457514071858
20
64.07764129073898
30
2.203338895157003e-06
11
3.750000000009254
21
63.86506350946192
31
2.203338940276467e-06
  0
LINE
 8
side-panels-5mm
10
3.750000000009254
20
63.86506350946192
30
2.203338940276467e-06
11
3.3271734841119267
21
63.55786206369384
31
2.2033401133825238e-06
  0
LINE
 8
side-panels-5mm
10
3.3271734841119267
20
63.55786206369384
30
2.2033401133825238e-06
11
2.9774575140714203
21
63.16946313073151
31
2.2033395719489588e-06
  0
LINE
 8
side-panels-5mm
10
2.9774575140714203
20
63.16946313073151
30
2.2033395719489588e-06
11
2.7161363559025062
21
62.71684160769007
31
2.2033399780241325e-06
  0
LINE
 8
side-panels-5mm
10
2.7161363559025062
20
62.71684160769007
30
2.2033399780241325e-06
11
2.554630998174093
21
62.21977922704546
31
2.203339752426814e-06
  0
LINE
 8
side-panels-5mm
10
2.554630998174093
20
62.21977922704546
30
2.203339752426814e-06
11
2.500000000008816
21
61.70000000000077
31
2.2033399329046686e-06
  0
LINE
 8
side-panels-5mm
10
2.500000000008816
20
61.70000000000077
30
2.2033399329046686e-06
11
2.554630998174093
21
61.18022077295617
31
2.2033402938603785e-06
  0
LINE
 8
side-panels-5mm
10
2.554630998174093
20
61.18022077295617
30
2.2033402938603785e-06
11
2.7161363559025062
21
60.68315839231119
31
2.2033399780241325e-06
  0
LINE
 8
side-panels-5mm
10
2.7161363559025062
20
60.68315839231119
30
2.2033399780241325e-06
11
2.9774575140714203
21
60.230536869268676
31
2.2033396170684227e-06
  0
LINE
 8
side-panels-5mm
10
2.9774575140714203
20
60.230536869268676
30
2.2033396170684227e-06
11
3.3271734841119267
21
59.842137936307154
31
2.2033396170684227e-06
  0
LINE
 8
side-panels-5mm
10
3.3271734841119267
20
59.842137936307154
30
2.2033396170684227e-06
11
3.750000000008532
21
59.5349364905398
31
2.2033388500375395e-06
  0
LINE
 8
side-panels-5mm
10
3.750000000008532
20
59.5349364905398
30
2.2033388500375395e-06
11
4.227457514071858
21
59.32235870926201
31
2.2033396170684227e-06
  0
LINE
 8
side-panels-5mm
10
4.227457514071858
20
59.32235870926201
30
2.2033396170684227e-06
11
4.738678841840056
21
59.21369526158045
31
2.2033388049180756e-06
  0
LINE
 8
side-panels-5mm
10
4.738678841840056
20
59.21369526158045
30
2.2033388049180756e-06
11
5.261321158177884
21
59.21369526158018
31
2.203338308603975e-06
  0
LINE
 8
side-panels-5mm
10
5.261321158177884
20
59.21369526158018
30
2.203338308603975e-06
11
5.772542485946081
21
59.32235870926201
31
2.2033383537234384e-06
  0
LINE
 8
side-panels-5mm
10
5.772542485946081
20
59.32235870926201
30
2.2033383537234384e-06
11
6.2500000000086855
21
59.5349364905398
31
2.2033380830066563e-06
  0
LINE
 8
side-panels-5mm
10
6.2500000000086855
20
59.5349364905398
30
2.2033380830066563e-06
11
6.672826515906013
21
59.842137936307154
31
2.203337947648265e-06
  0
LINE
 8
side-panels-5mm
10
6.672826515906013
20
59.842137936307154
30
2.203337947648265e-06
11
7.022542485946519
21
60.23053686926849
31
2.203338218365047e-06
  0
LINE
 8
side-panels-5mm
10
7.022542485946519
20
60.23053686926849
30
2.203338218365047e-06
11
7.283863644115433
21
60.68315839231092
31
2.2033373610952366e-06
  0
LINE
 8
side-panels-5mm
10
7.283863644115433
20
60.68315839231092
30
2.2033373610952366e-06
11
7.445369001843846
21
61.180220772955444
31
2.2033381281261198e-06
  0
LINE
 8
side-panels-5mm
10
7.445369001843846
20
61.180220772955444
30
2.2033381281261198e-06
11
7.500000000009123
21
61.70000000000104
31
2.203336774542208e-06
  0
LINE
 8
side-panels-5mm
10
7.500000000009123
20
61.70000000000104
30
2.203336774542208e-06
11
7.445369001843846
21
62.219779227045365
31
2.203337812289874e-06
  0
LINE
 8
side-panels-5mm
10
7.445369001843846
20
62.219779227045365
30
2.203337812289874e-06
11
7.283863644115433
21
62.71684160769007
31
2.2033375866925552e-06
  0
LINE
 8
side-panels-5mm
10
5.261321158177884
20
22.21369526157957
30
2.2033388500375395e-06
11
5.772542485946081
21
22.32235870926285
31
2.2033389853959307e-06
  0
LINE
 8
side-panels-5mm
10
5.772542485946081
20
22.32235870926285
30
2.2033389853959307e-06
11
6.2500000000086855
21
22.534936490539366
31
2.2033379927677285e-06
  0
LINE
 8
side-panels-5mm
10
6.2500000000086855
20
22.534936490539366
30
2.2033379927677285e-06
11
6.672826515906013
21
22.84213793630745
31
2.203337631812019e-06
  0
LINE
 8
side-panels-5mm
10
6.672826515906013
20
22.84213793630745
30
2.203337631812019e-06
11
7.022542485946519
21
23.230536869269688
31
2.2033380830066563e-06
  0
LINE
 8
side-panels-5mm
10
7.022542485946519
20
23.230536869269688
30
2.2033380830066563e-06
11
7.283863644115433
21
23.683158392311395
31
2.2033374062147005e-06
  0
LINE
 8
side-panels-5mm
10
7.283863644115433
20
23.683158392311395
30
2.2033374062147005e-06
11
7.445369001843846
21
24.1802207729561
31
2.203337812289874e-06
  0
LINE
 8
side-panels-5mm
10
7.445369001843846
20
24.1802207729561
30
2.203337812289874e-06
11
7.500000000009123
21
24.70000000000016
31
2.2033373610952366e-06
  0
LINE
 8
side-panels-5mm
10
7.500000000009123
20
24.70000000000016
30
2.2033373610952366e-06
11
7.445369001843846
21
25.21977922704494
31
2.2033380830066563e-06
  0
LINE
 8
side-panels-5mm
10
7.445369001843846
20
25.21977922704494
30
2.2033380830066563e-06
11
7.283863644115433
21
25.716841607689826
31
2.203337135497918e-06
  0
LINE
 8
side-panels-5mm
10
7.283863644115433
20
25.716841607689826
30
2.203337135497918e-06
11
7.022542485946519
21
26.169463130732254
31
2.203337812289874e-06
  0
LINE
 8
side-panels-5mm
10
7.022542485946519
20
26.169463130732254
30
2.203337812289874e-06
11
6.672826515906013
21
26.557862063694493
31
2.2033376769314826e-06
  0
LINE
 8
side-panels-5mm
10
6.672826515906013
20
26.557862063694493
30
2.2033376769314826e-06
11
6.250000000009408
21
26.86506350946239
31
2.2033384439623657e-06
  0
LINE
 8
side-panels-5mm
10
6.250000000009408
20
26.86506350946239
30
2.2033384439623657e-06
11
5.772542485946081
21
27.077641290738548
31
2.2033384439623657e-06
  0
LINE
 8
side-panels-5mm
10
5.772542485946081
20
27.077641290738548
30
2.2033384439623657e-06
11
5.261321158177884
21
27.18630473842129
31
2.203338579320757e-06
  0
LINE
 8
side-panels-5mm
10
5.261321158177884
20
27.18630473842129
30
2.203338579320757e-06
11
4.738678841840056
21
27.186304738421107
31
2.2033391658737854e-06
  0
LINE
 8
side-panels-5mm
10
4.738678841840056
20
27.186304738421107
30
2.2033391658737854e-06
11
4.227457514071858
21
27.077641290738278
31
2.203339075634858e-06
  0
LINE
 8
side-panels-5mm
10
4.227457514071858
20
27.077641290738278
30
2.203339075634858e-06
11
3.750000000009254
21
26.86506350946221
31
2.203339030515394e-06
  0
LINE
 8
side-panels-5mm
10
3.750000000009254
20
26.86506350946221
30
2.203339030515394e-06
11
3.3271734841119267
21
26.557862063694312
31
2.2033395268294953e-06
  0
LINE
 8
side-panels-5mm
10
3.3271734841119267
20
26.557862063694312
30
2.2033395268294953e-06
11
2.9774575140714203
21
26.169463130732254
31
2.2033395268294953e-06
  0
LINE
 8
side-panels-5mm
10
2.9774575140714203
20
26.169463130732254
30
2.2033395268294953e-06
11
2.7161363559025062
21
25.716841607690096
31
2.20334006826306e-06
  0
LINE
 8
side-panels-5mm
10
2.7161363559025062
20
25.716841607690096
30
2.20334006826306e-06
11
2.554630998174093
21
25.21977922704494
31
2.203340519457697e-06
  0
LINE
 8
side-panels-5mm
10
2.554630998174093
20
25.21977922704494
30
2.203340519457697e-06
11
2.500000000008816
21
24.700000000000248
31
2.2033410608912616e-06
  0
LINE
 8
side-panels-5mm
10
2.500000000008816
20
24.700000000000248
30
2.2033410608912616e-06
11
2.554630998174093
21
24.18022077295574
31
2.2033397975462774e-06
  0
LINE
 8
side-panels-5mm
10
2.554630998174093
20
24.18022077295574
30
2.2033397975462774e-06
11
2.7161363559025062
21
23.683158392311846
31
2.2033401585019872e-06
  0
LINE
 8
side-panels-5mm
10
2.7161363559025062
20
23.683158392311846
30
2.2033401585019872e-06
11
2.9774575140714203
21
23.230536869269326
31
2.203339436590568e-06
  0
LINE
 8
side-panels-5mm
10
2.9774575140714203
20
23.230536869269326
30
2.203339436590568e-06
11
3.3271734841119267
21
22.84213793630745
31
2.203340203621451e-06
  0
LINE
 8
side-panels-5mm
10
3.3271734841119267
20
22.84213793630745
30
2.203340203621451e-06
11
3.750000000008532
21
22.534936490539188
31
2.203339075634858e-06
  0
LINE
 8
side-panels-5mm
10
3.750000000008532
20
22.534936490539188
30
2.203339075634858e-06
11
4.227457514071858
21
22.32235870926303
31
2.203339887785205e-06
  0
LINE
 8
side-panels-5mm
10
4.227457514071858
20
22.32235870926303
30
2.203339887785205e-06
11
4.738678841840056
21
22.21369526157984
31
2.2033398426657413e-06
  0
LINE
 8
side-panels-5mm
10
4.738678841840056
20
22.21369526157984
30
2.2033398426657413e-06
11
5.261321158177884
21
22.21369526157957
31
2.2033388500375395e-06
  0
LINE
 8
side-panels-5mm
10
531.7386772013613
20
22.213695261579208
30
7.451921604229028e-07
11
531.2274558735938
21
22.32235870926303
31
7.451908068389912e-07
  0
LINE
 8
side-panels-5mm
10
532.2613195176991
20
22.213695261579208
30
7.451899495691805e-07
11
531.7386772013613
21
22.213695261579208
31
7.451921604229028e-07
  0
LINE
 8
side-panels-5mm
10
532.7725408454667
20
22.32235870926321
30
7.451910324363098e-07
11
532.2613195176991
21
22.213695261579208
31
7.451899495691805e-07
  0
LINE
 8
side-panels-5mm
10
533.2499983595328
20
22.534936490539366
30
7.451921604229028e-07
11
532.7725408454667
21
22.32235870926321
31
7.451910324363098e-07
  0
LINE
 8
side-panels-5mm
10
533.672824875428
20
22.84213793630763
30
7.451913031530921e-07
11
533.2499983595328
21
22.534936490539366
31
7.451921604229028e-07
  0
LINE
 8
side-panels-5mm
10
534.0225408454678
20
23.230536869269596
30
7.451927920953948e-07
11
533.672824875428
21
22.84213793630763
31
7.451913031530921e-07
  0
LINE
 8
side-panels-5mm
10
534.2838620036367
20
23.683158392311572
30
7.451906263611363e-07
11
534.0225408454678
21
23.230536869269596
31
7.451927920953948e-07
  0
LINE
 8
side-panels-5mm
10
534.4453673613651
20
24.18022077295592
30
7.45192295781294e-07
11
534.2838620036367
21
23.683158392311572
31
7.451906263611363e-07
  0
LINE
 8
side-panels-5mm
10
534.4999983595296
20
24.70000000000016
30
7.451893630161521e-07
11
534.4453673613651
21
24.18022077295592
31
7.45192295781294e-07
  0
LINE
 8
side-panels-5mm
10
534.4453673613651
20
25.219779227045297
30
7.451912580336284e-07
11
534.4999983595296
21
24.70000000000016
31
7.451893630161521e-07
  0
LINE
 8
side-panels-5mm
10
534.2838620036367
20
25.716841607689915
30
7.451905361222088e-07
11
534.4453673613651
21
25.219779227045297
31
7.451912580336284e-07
  0
LINE
 8
side-panels-5mm
10
534.0225408454678
20
26.16946313073198
30
7.451928823343223e-07
11
534.2838620036367
21
25.716841607689915
31
7.451905361222088e-07
  0
LINE
 8
side-panels-5mm
10
533.672824875428
20
26.557862063694493
30
7.451915287504107e-07
11
534.0225408454678
21
26.16946313073198
31
7.451928823343223e-07
  0
LINE
 8
side-panels-5mm
10
533.2499983595313
20
26.865063509462033
30
7.45192295781294e-07
11
533.672824875428
21
26.557862063694493
31
7.451915287504107e-07
  0
LINE
 8
side-panels-5mm
10
532.7725408454667
20
27.07764129073837
30
7.451904910027451e-07
11
533.2499983595313
21
26.865063509462033
31
7.45192295781294e-07
  0
LINE
 8
side-panels-5mm
10
532.2613195176991
20
27.186304738421107
30
7.451904007638177e-07
11
532.7725408454667
21
27.07764129073837
31
7.451904910027451e-07
  0
LINE
 8
side-panels-5mm
10
531.7386772013613
20
27.186304738421196
30
7.451927469759312e-07
11
532.2613195176991
21
27.186304738421107
31
7.451904007638177e-07
  0
LINE
 8
side-panels-5mm
10
531.2274558735938
20
27.07764129073837
30
7.451902202859627e-07
11
531.7386772013613
21
27.186304738421196
31
7.451927469759312e-07
  0
LINE
 8
side-panels-5mm
10
530.7499983595312
20
26.865063509462033
30
7.45190987316846e-07
11
531.2274558735938
21
27.07764129073837
31
7.451902202859627e-07
  0
LINE
 8
side-panels-5mm
10
530.3271718436332
20
26.557862063694493
30
7.451928823343223e-07
11
530.7499983595312
21
26.865063509462033
31
7.45190987316846e-07
  0
LINE
 8
side-panels-5mm
10
529.9774558735927
20
26.169463130732254
30
7.45192115303439e-07
11
530.3271718436332
21
26.557862063694493
31
7.451928823343223e-07
  0
LINE
 8
side-panels-5mm
10
529.7161347154253
20
25.716841607689826
30
7.451936042457418e-07
11
529.9774558735927
21
26.169463130732254
31
7.45192115303439e-07
  0
LINE
 8
side-panels-5mm
10
529.5546293576954
20
25.21977922704521
30
7.451918445866567e-07
11
529.7161347154253
21
25.716841607689826
31
7.451936042457418e-07
  0
LINE
 8
side-panels-5mm
10
529.4999983595294
20
24.70000000000016
30
7.451936042457418e-07
11
529.5546293576954
21
25.21977922704521
31
7.451918445866567e-07
  0
LINE
 8
side-panels-5mm
10
529.5546293576954
20
24.18022077295601
30
7.451927018564674e-07
11
529.4999983595294
21
24.70000000000016
31
7.451936042457418e-07
  0
LINE
 8
side-panels-5mm
10
529.7161347154253
20
23.683158392311572
30
7.45193739604133e-07
11
529.5546293576954
21
24.18022077295601
31
7.451927018564674e-07
  0
LINE
 8
side-panels-5mm
10
529.9774558735927
20
23.230536869269958
30
7.451917543477293e-07
11
529.7161347154253
21
23.683158392311572
31
7.45193739604133e-07
  0
LINE
 8
side-panels-5mm
10
530.3271718436332
20
22.84213793630745
30
7.45191799467193e-07
11
529.9774558735927
21
23.230536869269958
31
7.451917543477293e-07
  0
LINE
 8
side-panels-5mm
10
530.7499983595319
20
22.534936490539366
30
7.451917543477293e-07
11
530.3271718436332
21
22.84213793630745
31
7.45191799467193e-07
  0
LINE
 8
side-panels-5mm
10
531.2274558735938
20
22.32235870926303
30
7.451908068389912e-07
11
530.7499983595319
21
22.534936490539366
31
7.451917543477293e-07
  0
LINE
 8
side-panels-5mm
10
541.7161347360468
20
62.716841607690164
30
1.135900907911491e-06
11
541.9774558942149
21
63.16946313073097
31
1.1358988775356237e-06
  0
LINE
 8
side-panels-5mm
10
541.5546293783176
20
62.21977922704555
30
1.1359008627920274e-06
11
541.7161347360468
21
62.716841607690164
31
1.135900907911491e-06
  0
LINE
 8
side-panels-5mm
10
541.4999983801531
20
61.70000000000068
30
1.1359021712564754e-06
11
541.5546293783176
21
62.21977922704555
31
1.1359008627920274e-06
  0
LINE
 8
side-panels-5mm
10
541.5546293783176
20
61.180220772955806
30
1.135901404225592e-06
11
541.4999983801531
21
61.70000000000068
31
1.1359021712564754e-06
  0
LINE
 8
side-panels-5mm
10
541.7161347360468
20
60.68315839231101
30
1.1359003664779265e-06
11
541.5546293783176
21
61.180220772955806
31
1.135901404225592e-06
  0
LINE
 8
side-panels-5mm
10
541.9774558942149
20
60.23053686926858
30
1.135899644566507e-06
11
541.7161347360468
21
60.68315839231101
31
1.1359003664779265e-06
  0
LINE
 8
side-panels-5mm
10
542.3271718642554
20
59.842137936307154
30
1.1359009530309548e-06
11
541.9774558942149
21
60.23053686926858
31
1.135899644566507e-06
  0
LINE
 8
side-panels-5mm
10
542.7499983801542
20
59.534936490540154
30
1.135898651938305e-06
11
542.3271718642554
21
59.842137936307154
31
1.1359009530309548e-06
  0
LINE
 8
side-panels-5mm
10
543.2274558942161
20
59.32235870926201
30
1.1359008176725637e-06
11
542.7499983801542
21
59.534936490540154
31
1.135898651938305e-06
  0
LINE
 8
side-panels-5mm
10
543.7386772219851
20
59.21369526158054
30
1.135900907911491e-06
11
543.2274558942161
21
59.32235870926201
31
1.1359008176725637e-06
  0
LINE
 8
side-panels-5mm
10
544.2613195383228
20
59.21369526158054
30
1.1358979300268856e-06
11
543.7386772219851
21
59.21369526158054
31
1.135900907911491e-06
  0
LINE
 8
side-panels-5mm
10
544.7725408660904
20
59.322358709261835
30
1.1358993738497246e-06
11
544.2613195383228
21
59.21369526158054
31
1.1358979300268856e-06
  0
LINE
 8
side-panels-5mm
10
545.2499983801537
20
59.53493649054025
30
1.135900456716854e-06
11
544.7725408660904
21
59.322358709261835
31
1.1358993738497246e-06
  0
LINE
 8
side-panels-5mm
10
545.6728248960495
20
59.842137936306976
30
1.1358995543275795e-06
11
545.2499983801537
21
59.53493649054025
31
1.135900456716854e-06
  0
LINE
 8
side-panels-5mm
10
546.02254086609
20
60.2305368692684
30
1.1359011786282734e-06
11
545.6728248960495
21
59.842137936306976
31
1.1358995543275795e-06
  0
LINE
 8
side-panels-5mm
10
546.2838620242604
20
60.68315839231101
30
1.1358991933718698e-06
11
546.02254086609
21
60.2305368692684
31
1.1359011786282734e-06
  0
LINE
 8
side-panels-5mm
10
546.4453673819874
20
61.180220772955806
30
1.1359003664779265e-06
11
546.2838620242604
21
60.68315839231101
31
1.1358991933718698e-06
  0
LINE
 8
side-panels-5mm
10
546.4999983801533
20
61.70000000000041
30
1.1358971629960024e-06
11
546.4453673819874
21
61.180220772955806
31
1.1359003664779265e-06
  0
LINE
 8
side-panels-5mm
10
546.4453673819874
20
62.21977922704519
30
1.1358997348054344e-06
11
546.4999983801533
21
61.70000000000041
31
1.1358971629960024e-06
  0
LINE
 8
side-panels-5mm
10
546.2838620242604
20
62.71684160769007
30
1.1358998250443618e-06
11
546.4453673819874
21
62.21977922704519
31
1.1358997348054344e-06
  0
LINE
 8
side-panels-5mm
10
546.02254086609
20
63.16946313073097
30
1.135900140880608e-06
11
546.2838620242604
21
62.71684160769007
31
1.1358998250443618e-06
  0
LINE
 8
side-panels-5mm
10
545.6728248960495
20
63.557862063693655
30
1.135900276238999e-06
11
546.02254086609
21
63.16946313073097
31
1.135900140880608e-06
  0
LINE
 8
side-panels-5mm
10
545.2499983801537
20
63.86506350946228
30
1.1359011335088097e-06
11
545.6728248960495
21
63.557862063693655
31
1.135900276238999e-06
  0
LINE
 8
side-panels-5mm
10
544.7725408660904
20
64.0776412907388
30
1.135899148252406e-06
11
545.2499983801537
21
63.86506350946228
31
1.1359011335088097e-06
  0
LINE
 8
side-panels-5mm
10
544.2613195383228
20
64.1863047384219
30
1.1358979300268856e-06
11
544.7725408660904
21
64.0776412907388
31
1.135899148252406e-06
  0
LINE
 8
side-panels-5mm
10
543.7386772219851
20
64.18630473842198
30
1.135900907911491e-06
11
544.2613195383228
21
64.1863047384219
31
1.1358979300268856e-06
  0
LINE
 8
side-panels-5mm
10
543.2274558942161
20
64.07764129073898
30
1.1359000506416804e-06
11
543.7386772219851
21
64.18630473842198
31
1.135900907911491e-06
  0
LINE
 8
side-panels-5mm
10
542.7499983801528
20
63.86506350946228
30
1.1358992836107972e-06
11
543.2274558942161
21
64.07764129073898
31
1.1359000506416804e-06
  0
LINE
 8
side-panels-5mm
10
542.3271718642554
20
63.557862063693655
30
1.1359027578095036e-06
11
542.7499983801528
21
63.86506350946228
31
1.1358992836107972e-06
  0
LINE
 8
side-panels-5mm
10
541.9774558942149
20
63.16946313073097
30
1.1358988775356237e-06
11
542.3271718642554
21
63.557862063693655
31
1.1359027578095036e-06
  0
LINE
 8
side-panels-5mm
10
83.70318186552237
20
26.598950345618995
30
3.90344998884018e-06
11
84.2658477453114
21
28.064745076132343
31
3.905766873302241e-06
  0
LINE
 8
side-panels-5mm
10
71.5679269498985
20
47.61782842227962
30
3.9402462650883764e-06
11
70.00000000088359
21
47.69999999175566
31
3.9406573936417996e-06
  0
LINE
 8
side-panels-5mm
10
70.00000000088359
20
47.69999999175566
30
3.9406573936417996e-06
11
68.43207305186866
21
47.61782842227962
31
3.940798527324319e-06
  0
LINE
 8
side-panels-5mm
10
68.43207305186866
20
47.61782842227962
30
3.940798527324319e-06
11
66.8813246386178
21
47.37221400276301
31
3.94066637241508e-06
  0
LINE
 8
side-panels-5mm
10
66.8813246386178
20
47.37221400276301
30
3.94066637241508e-06
11
65.36474508525947
21
46.96584773618338
31
3.940263184887272e-06
  0
LINE
 8
side-panels-5mm
10
65.36474508525947
20
46.96584773618338
30
3.940263184887272e-06
11
63.89895035474612
21
46.403181856394156
31
3.939594785151712e-06
  0
LINE
 8
side-panels-5mm
10
63.89895035474612
20
46.403181856394156
30
3.939594785151712e-06
11
62.500000000883844
21
45.690381048523186
31
3.938664421809789e-06
  0
LINE
 8
side-panels-5mm
10
62.500000000883844
20
45.690381048523186
30
3.938664421809789e-06
11
61.18322121649679
21
44.83525490737976
31
3.937486578209359e-06
  0
LINE
 8
side-panels-5mm
10
61.18322121649679
20
44.83525490737976
30
3.937486578209359e-06
11
59.96304090550132
21
43.84717237391632
31
3.936071902543858e-06
  0
LINE
 8
side-panels-5mm
10
59.96304090550132
20
43.84717237391632
30
3.936071902543858e-06
11
58.85282761872299
21
42.73695908713835
31
3.934437269492719e-06
  0
LINE
 8
side-panels-5mm
10
58.85282761872299
20
42.73695908713835
30
3.934437269492719e-06
11
57.86474508525973
21
41.516778776143425
31
3.932599283018589e-06
  0
LINE
 8
side-panels-5mm
10
57.86474508525973
20
41.516778776143425
30
3.932599283018589e-06
11
57.009618944116674
21
40.19999999175637
31
3.930578382238536e-06
  0
LINE
 8
side-panels-5mm
10
57.009618944116674
20
40.19999999175637
30
3.930578382238536e-06
11
56.2968181362448
21
38.80104963789319
31
3.9283971720038835e-06
  0
LINE
 8
side-panels-5mm
10
56.2968181362448
20
38.80104963789319
30
3.9283971720038835e-06
11
55.73415225645648
21
37.33525490738075
31
3.926079204674693e-06
  0
LINE
 8
side-panels-5mm
10
55.73415225645648
20
37.33525490738075
30
3.926079204674693e-06
11
55.32778598987721
21
35.81867535402279
31
3.923650423942604e-06
  0
LINE
 8
side-panels-5mm
10
55.32778598987721
20
35.81867535402279
30
3.923650423942604e-06
11
55.08217157035933
21
34.2679269407703
31
3.92113645766301e-06
  0
LINE
 8
side-panels-5mm
10
55.08217157035933
20
34.2679269407703
30
3.92113645766301e-06
11
55.00000000088411
21
32.69999999175592
31
3.918565370142346e-06
  0
LINE
 8
side-panels-5mm
10
55.00000000088411
20
32.69999999175592
30
3.918565370142346e-06
11
55.08217157035933
21
31.132073042741165
31
3.915965451284365e-06
  0
LINE
 8
side-panels-5mm
10
55.08217157035933
20
31.132073042741165
30
3.915965451284365e-06
11
55.32778598987721
21
29.581324629489316
31
3.9133660287404835e-06
  0
LINE
 8
side-panels-5mm
10
55.32778598987721
20
29.581324629489316
30
3.9133660287404835e-06
11
55.73415225645648
21
28.064745076132702
31
3.910792549888242e-06
  0
LINE
 8
side-panels-5mm
10
55.73415225645648
20
28.064745076132702
30
3.910792549888242e-06
11
56.2968181362448
21
26.598950345619357
31
3.9082767788301e-06
  0
LINE
 8
side-panels-5mm
10
56.2968181362448
20
26.598950345619357
30
3.9082767788301e-06
11
57.009618944116674
21
25.199999991755636
31
3.9058441629435945e-06
  0
LINE
 8
side-panels-5mm
10
57.009618944116674
20
25.199999991755636
30
3.9058441629435945e-06
11
57.86474508525973
21
23.883221207369303
31
3.903522721415697e-06
  0
LINE
 8
side-panels-5mm
10
57.86474508525973
20
23.883221207369303
30
3.903522721415697e-06
11
58.85282761872299
21
22.663040896372756
31
3.901337630907164e-06
  0
LINE
 8
side-panels-5mm
10
58.85282761872299
20
22.663040896372756
30
3.901337630907164e-06
11
59.96304090550132
21
21.552827609594782
31
3.89931041340219e-06
  0
LINE
 8
side-panels-5mm
10
59.96304090550132
20
21.552827609594782
30
3.89931041340219e-06
11
61.18322121649679
21
20.564745076132063
31
3.89746683211456e-06
  0
LINE
 8
side-panels-5mm
10
61.18322121649679
20
20.564745076132063
30
3.89746683211456e-06
11
62.500000000883844
21
19.709618934989365
31
3.895824393396196e-06
  0
LINE
 8
side-panels-5mm
10
62.500000000883844
20
19.709618934989365
30
3.895824393396196e-06
11
63.89895035474612
21
18.996818127116864
31
3.894402588855428e-06
  0
LINE
 8
side-panels-5mm
10
63.89895035474612
20
18.996818127116864
30
3.894402588855428e-06
11
65.36474508525947
21
18.434152247329628
31
3.8932161274374265e-06
  0
LINE
 8
side-panels-5mm
10
65.36474508525947
20
18.434152247329628
30
3.8932161274374265e-06
11
66.8813246386178
21
18.02778598074846
31
3.8922798985652205e-06
  0
LINE
 8
side-panels-5mm
10
66.8813246386178
20
18.02778598074846
30
3.8922798985652205e-06
11
68.43207305186866
21
17.782171561231664
31
3.891601572547643e-06
  0
LINE
 8
side-panels-5mm
10
68.43207305186866
20
17.782171561231664
30
3.891601572547643e-06
11
70.00000000088359
21
17.699999991756258
31
3.891189722082799e-06
  0
LINE
 8
side-panels-5mm
10
70.00000000088359
20
17.699999991756258
30
3.891189722082799e-06
11
71.5679269498985
21
17.78217156123157
31
3.891049265192237e-06
  0
LINE
 8
side-panels-5mm
10
71.5679269498985
20
17.78217156123157
30
3.891049265192237e-06
11
73.11867536314936
21
18.02778598074846
31
3.891181194504156e-06
  0
LINE
 8
side-panels-5mm
10
73.11867536314936
20
18.02778598074846
30
3.891181194504156e-06
11
74.63525491650769
21
18.434152247329358
31
3.891583524762154e-06
  0
LINE
 8
side-panels-5mm
10
74.63525491650769
20
18.434152247329358
30
3.891583524762154e-06
11
76.10104964702104
21
18.996818127116953
31
3.8922531427232345e-06
  0
LINE
 8
side-panels-5mm
10
76.10104964702104
20
18.996818127116953
30
3.8922531427232345e-06
11
77.50000000088332
21
19.709618934989727
31
3.893182603675882e-06
  0
LINE
 8
side-panels-5mm
10
77.50000000088332
20
19.709618934989727
30
3.893182603675882e-06
11
78.81677878527037
21
20.5647450761317
31
3.894360988709877e-06
  0
LINE
 8
side-panels-5mm
10
78.81677878527037
20
20.5647450761317
30
3.894360988709877e-06
11
80.03695909626583
21
21.552827609594782
31
3.895774446149858e-06
  0
LINE
 8
side-panels-5mm
10
80.03695909626583
20
21.552827609594782
30
3.895774446149858e-06
11
81.14717238304416
21
22.663040896373115
31
3.8974101169486625e-06
  0
LINE
 8
side-panels-5mm
10
81.14717238304416
20
22.663040896373115
30
3.8974101169486625e-06
11
82.13525491650744
21
23.88322120736822
31
3.89924832902011e-06
  0
LINE
 8
side-panels-5mm
10
82.13525491650744
20
23.88322120736822
30
3.89924832902011e-06
11
82.9903810576505
21
25.199999991756087
31
3.901268507888744e-06
  0
LINE
 8
side-panels-5mm
10
82.9903810576505
20
25.199999991756087
30
3.901268507888744e-06
11
83.70318186552237
21
26.598950345618995
31
3.90344998884018e-06
  0
LINE
 8
side-panels-5mm
10
365.7725424859458
20
64.07764129073907
30
2.1716338089561303e-06
11
365.2613211581783
21
64.18630473842225
31
2.171633402880957e-06
  0
LINE
 8
side-panels-5mm
10
363.32717348411234
20
63.55786206369384
30
2.1716357490930704e-06
11
362.97745751407183
21
63.169463130731415
31
2.171635207659506e-06
  0
LINE
 8
side-panels-5mm
10
362.97745751407183
20
63.169463130731415
30
2.171635207659506e-06
11
362.7161363559029
21
62.71684160769034
31
2.1716358393319977e-06
  0
LINE
 8
side-panels-5mm
10
362.7161363559029
20
62.71684160769034
30
2.1716358393319977e-06
11
362.5546309981745
21
62.21977922704519
31
2.17163611004878e-06
  0
LINE
 8
side-panels-5mm
10
362.5546309981745
20
62.21977922704519
30
2.17163611004878e-06
11
362.5000000000085
21
61.70000000000095
31
2.1716360649293163e-06
  0
LINE
 8
side-panels-5mm
10
182.5546309981736
20
61.180220772955714
30
2.17163611004878e-06
11
182.716136355902
21
60.68315839231137
31
2.1716357039736065e-06
  0
LINE
 8
side-panels-5mm
10
182.97745751407092
20
60.230536869268676
30
2.171636019809853e-06
11
183.32717348411143
21
59.842137936306884
31
2.171635207659506e-06
  0
LINE
 8
side-panels-5mm
10
183.32717348411143
20
59.842137936306884
30
2.171635207659506e-06
11
183.75000000000875
21
59.534936490539614
31
2.17163489182326e-06
  0
LINE
 8
side-panels-5mm
10
187.44536900184335
20
61.18022077295563
30
2.1716338089561303e-06
11
187.50000000000932
21
61.70000000000077
31
2.1716323200138274e-06
  0
LINE
 8
side-panels-5mm
10
187.02254248594602
20
63.169463130731415
30
2.171634034553449e-06
11
186.6728265159055
21
63.55786206369384
31
2.1716339894339854e-06
  0
LINE
 8
side-panels-5mm
10
186.6728265159055
20
63.55786206369384
30
2.1716339894339854e-06
11
186.2500000000096
21
63.86506350946192
31
2.171633673597739e-06
  0
LINE
 8
side-panels-5mm
10
185.7725424859463
20
64.07764129073907
30
2.1716338089561303e-06
11
185.26132115817737
21
64.18630473842225
31
2.171633402880957e-06
  0
LINE
 8
side-panels-5mm
10
184.73867884183954
20
64.18630473842208
30
2.1716344406286226e-06
11
184.22745751407206
21
64.0776412907388
31
2.171634846703796e-06
  0
LINE
 8
side-panels-5mm
10
184.22745751407206
20
64.0776412907388
30
2.171634846703796e-06
11
183.75000000000875
21
63.865063509461734
31
2.1716341247923762e-06
  0
LINE
 8
side-panels-5mm
10
183.32717348411143
20
63.55786206369384
30
2.1716357490930704e-06
11
182.97745751407092
21
63.169463130731415
31
2.171635207659506e-06
  0
LINE
 8
side-panels-5mm
10
182.97745751407092
20
63.169463130731415
30
2.171635207659506e-06
11
182.716136355902
21
62.71684160769034
31
2.1716358393319977e-06
  0
LINE
 8
side-panels-5mm
10
6.25000000000291
20
226.86506350946655
30
2.653031370059011e-06
11
5.772542485939584
21
227.07764129074323
31
2.6530315054174023e-06
  0
LINE
 8
side-panels-5mm
10
3.3271734809506768
20
259.8421379363102
30
2.6530335809127336e-06
11
3.749999996847282
21
259.5349364905425
31
2.653033671151661e-06
  0
LINE
 8
side-panels-5mm
10
0.0
20
286.4000000000047
30
2.6530348893771813e-06
11
648.0000000000014
21
286.4000000000047
31
2.653034483302008e-06
  0
LINE
 8
side-panels-5mm
10
3.3271734809506768
20
259.8421379363102
30
2.6530335809127336e-06
11
2.9774575109101704
21
260.2305368692726
31
2.6530334004348784e-06
  0
LINE
 8
side-panels-5mm
10
7.283863644108936
20
223.68315839231482
30
2.653032588284532e-06
11
7.445369001838793
21
224.18022077296033
31
2.6530321370898946e-06
  0
LINE
 8
side-panels-5mm
10
2.5546309981683177
20
225.21977922704934
30
2.6530319566120395e-06
11
2.500000000002319
21
224.70000000000476
31
2.6530322724482854e-06
  0
LINE
 8
side-panels-5mm
10
3.3271734841054297
20
226.55786206369908
30
2.6530313249395475e-06
11
2.9774575140649233
21
226.16946313073632
31
2.653031866373112e-06
  0
LINE
 8
side-panels-5mm
10
2.716136352740534
20
260.68315839231417
30
2.653033626032197e-06
11
2.9774575109101704
21
260.2305368692726
31
2.6530334004348784e-06
  0
LINE
 8
side-panels-5mm
10
7.283863644108936
20
225.7168416076945
30
2.653031866373112e-06
11
7.022542485940022
21
226.1694631307362
31
2.6530319566120395e-06
  0
LINE
 8
side-panels-5mm
10
6.25000000000291
20
222.53493649054306
30
2.6530329492402412e-06
11
6.672826515899516
21
222.8421379363108
31
2.653032678523459e-06
  0
LINE
 8
side-panels-5mm
10
0.0
20
214.90000000000293
30
2.2033425047141006e-06
11
0.0
21
286.4000000000047
31
2.6530348893771813e-06
  0
LINE
 8
side-panels-5mm
10
648.0000000000014
20
214.90000000000293
30
2.2033420986389273e-06
11
648.0000000000014
21
286.4000000000047
31
2.653034483302008e-06
  0
LINE
 8
side-panels-5mm
10
7.022542485940022
20
226.1694631307362
30
2.6530319566120395e-06
11
6.672826515899516
21
226.55786206369882
31
2.653031460297939e-06
  0
LINE
 8
side-panels-5mm
10
6.672826515899516
20
226.55786206369882
30
2.653031460297939e-06
11
6.25000000000291
21
226.86506350946655
31
2.653031370059011e-06
  0
LINE
 8
side-panels-5mm
10
5.772542485939584
20
227.07764129074323
30
2.6530315054174023e-06
11
5.261321158172109
21
227.18630473842606
31
2.653031370059011e-06
  0
LINE
 8
side-panels-5mm
10
5.261321158172109
20
227.18630473842606
30
2.653031370059011e-06
11
4.738678841833559
21
227.18630473842614
31
2.653031370059011e-06
  0
LINE
 8
side-panels-5mm
10
4.738678841833559
20
227.18630473842614
30
2.653031370059011e-06
11
4.227457514065361
21
227.07764129074323
31
2.6530315054174023e-06
  0
LINE
 8
side-panels-5mm
10
4.227457514065361
20
227.07764129074323
30
2.6530315054174023e-06
11
3.750000000002757
21
226.86506350946655
31
2.653031370059011e-06
  0
LINE
 8
side-panels-5mm
10
3.750000000002757
20
226.86506350946655
30
2.653031370059011e-06
11
3.3271734841054297
21
226.55786206369908
31
2.6530313249395475e-06
  0
LINE
 8
side-panels-5mm
10
2.9774575140649233
20
226.16946313073632
30
2.653031866373112e-06
11
2.7161363558960088
21
225.7168416076946
31
2.653031866373112e-06
  0
LINE
 8
side-panels-5mm
10
2.7161363558960088
20
225.7168416076946
30
2.653031866373112e-06
11
2.5546309981683177
21
225.21977922704934
31
2.6530319566120395e-06
  0
LINE
 8
side-panels-5mm
10
2.500000000002319
20
224.70000000000476
30
2.6530322724482854e-06
11
2.5546309981697615
21
224.18022077296044
31
2.653032227328822e-06
  0
LINE
 8
side-panels-5mm
10
2.5546309981697615
20
224.18022077296044
30
2.653032227328822e-06
11
2.7161363558960088
21
223.683158392315
31
2.653032543165068e-06
  0
LINE
 8
side-panels-5mm
10
2.7161363558960088
20
223.683158392315
30
2.653032543165068e-06
11
2.9774575140649233
21
223.2305368692732
31
2.6530327687623865e-06
  0
LINE
 8
side-panels-5mm
10
2.9774575140649233
20
223.2305368692732
30
2.6530327687623865e-06
11
3.3271734841054297
21
222.84213793631088
31
2.653032678523459e-06
  0
LINE
 8
side-panels-5mm
10
3.3271734841054297
20
222.84213793631088
30
2.653032678523459e-06
11
3.750000000002757
21
222.53493649054323
31
2.6530328138818504e-06
  0
LINE
 8
side-panels-5mm
10
3.750000000002757
20
222.53493649054323
30
2.6530328138818504e-06
11
4.227457514064639
21
222.322358709266
31
2.6530330845986325e-06
  0
LINE
 8
side-panels-5mm
10
4.227457514064639
20
222.322358709266
30
2.6530330845986325e-06
11
4.738678841835002
21
222.21369526158344
31
2.653032994359705e-06
  0
LINE
 8
side-panels-5mm
10
4.738678841835002
20
222.21369526158344
30
2.653032994359705e-06
11
5.261321158173552
21
222.21369526158335
31
2.653032994359705e-06
  0
LINE
 8
side-panels-5mm
10
5.261321158173552
20
222.21369526158335
30
2.653032994359705e-06
11
5.772542485939584
21
222.322358709266
31
2.6530330845986325e-06
  0
LINE
 8
side-panels-5mm
10
5.772542485939584
20
222.322358709266
30
2.6530330845986325e-06
11
6.25000000000291
21
222.53493649054306
31
2.6530329492402412e-06
  0
LINE
 8
side-panels-5mm
10
6.672826515899516
20
222.8421379363108
30
2.653032678523459e-06
11
7.022542485940022
21
223.23053686927312
31
2.653032678523459e-06
  0
LINE
 8
side-panels-5mm
10
7.022542485940022
20
223.23053686927312
30
2.653032678523459e-06
11
7.283863644108936
21
223.68315839231482
31
2.653032588284532e-06
  0
LINE
 8
side-panels-5mm
10
7.445369001838793
20
224.18022077296033
30
2.6530321370898946e-06
11
7.5000000000026255
21
224.70000000000476
31
2.6530322724482854e-06
  0
LINE
 8
side-panels-5mm
10
7.5000000000026255
20
224.70000000000476
30
2.6530322724482854e-06
11
7.445369001837349
21
225.21977922704917
31
2.6530321370898946e-06
  0
LINE
 8
side-panels-5mm
10
7.445369001837349
20
225.21977922704917
30
2.6530321370898946e-06
11
7.283863644108936
21
225.7168416076945
31
2.653031866373112e-06
  0
LINE
 8
side-panels-5mm
10
3.749999996847282
20
259.5349364905425
30
2.653033671151661e-06
11
4.227457510909886
21
259.3223587092657
31
2.6530335809127336e-06
  0
LINE
 8
side-panels-5mm
10
4.227457510909886
20
259.3223587092657
30
2.6530335809127336e-06
11
4.738678838678084
21
259.213695261583
31
2.653033626032197e-06
  0
LINE
 8
side-panels-5mm
10
4.738678838678084
20
259.213695261583
30
2.653033626032197e-06
11
5.261321155016634
21
259.2136952615828
31
2.653033671151661e-06
  0
LINE
 8
side-panels-5mm
10
5.261321155016634
20
259.2136952615828
30
2.653033671151661e-06
11
5.772542482784831
21
259.3223587092658
31
2.653033626032197e-06
  0
LINE
 8
side-panels-5mm
10
5.772542482784831
20
259.3223587092658
30
2.653033626032197e-06
11
6.249999996847436
21
259.5349364905425
31
2.653033671151661e-06
  0
LINE
 8
side-panels-5mm
10
6.249999996847436
20
259.5349364905425
30
2.653033671151661e-06
11
6.672826512744763
21
259.8421379363102
31
2.653033671151661e-06
  0
LINE
 8
side-panels-5mm
10
6.672826512744763
20
259.8421379363102
30
2.653033671151661e-06
11
7.022542482784547
21
260.2305368692726
31
2.6530334004348784e-06
  0
LINE
 8
side-panels-5mm
10
7.022542482784547
20
260.2305368692726
30
2.6530334004348784e-06
11
7.283863640953461
21
260.6831583923142
31
2.6530335809127336e-06
  0
LINE
 8
side-panels-5mm
10
7.283863640953461
20
260.6831583923142
30
2.6530335809127336e-06
11
7.445368998681874
21
261.1802207729598
31
2.6530332650764876e-06
  0
LINE
 8
side-panels-5mm
10
7.445368998681874
20
261.1802207729598
30
2.6530332650764876e-06
11
7.499999996847151
21
261.700000000004
31
2.6530334906738062e-06
  0
LINE
 8
side-panels-5mm
10
7.499999996847151
20
261.700000000004
30
2.6530334906738062e-06
11
7.445368998681874
21
262.2197792270486
31
2.6530332199570237e-06
  0
LINE
 8
side-panels-5mm
10
7.445368998681874
20
262.2197792270486
30
2.6530332199570237e-06
11
7.2838636409556266
21
262.7168416076936
31
2.6530332650764876e-06
  0
LINE
 8
side-panels-5mm
10
7.2838636409556266
20
262.7168416076936
30
2.6530332650764876e-06
11
7.022542482784547
21
263.1694631307354
31
2.6530331297180964e-06
  0
LINE
 8
side-panels-5mm
10
7.022542482784547
20
263.1694631307354
30
2.6530331297180964e-06
11
6.672826512744041
21
263.557862063698
31
2.6530329492402412e-06
  0
LINE
 8
side-panels-5mm
10
6.672826512744041
20
263.557862063698
30
2.6530329492402412e-06
11
6.249999996848879
21
263.8650635094657
31
2.6530326334039953e-06
  0
LINE
 8
side-panels-5mm
10
6.249999996848879
20
263.8650635094657
30
2.6530326334039953e-06
11
5.772542482784831
21
264.0776412907424
31
2.6530328138818504e-06
  0
LINE
 8
side-panels-5mm
10
5.772542482784831
20
264.0776412907424
30
2.6530328138818504e-06
11
5.261321155018077
21
264.1863047384253
31
2.653032678523459e-06
  0
LINE
 8
side-panels-5mm
10
5.261321155018077
20
264.1863047384253
30
2.653032678523459e-06
11
4.738678838679527
21
264.1863047384253
31
2.6530326334039953e-06
  0
LINE
 8
side-panels-5mm
10
4.738678838679527
20
264.1863047384253
30
2.6530326334039953e-06
11
4.227457510909886
21
264.0776412907424
31
2.6530327687623865e-06
  0
LINE
 8
side-panels-5mm
10
4.227457510909886
20
264.0776412907424
30
2.6530327687623865e-06
11
3.7499999968487256
21
263.8650635094657
31
2.6530326334039953e-06
  0
LINE
 8
side-panels-5mm
10
3.7499999968487256
20
263.8650635094657
30
2.6530326334039953e-06
11
3.3271734809499547
21
263.5578620636978
31
2.653033039479169e-06
  0
LINE
 8
side-panels-5mm
10
2.9774575109101704
20
263.1694631307354
30
2.6530331297180964e-06
11
3.3271734809499547
21
263.5578620636978
31
2.653033039479169e-06
  0
LINE
 8
side-panels-5mm
10
2.9774575109101704
20
263.1694631307354
30
2.6530331297180964e-06
11
2.7161363527426996
21
262.7168416076936
31
2.6530332650764876e-06
  0
LINE
 8
side-panels-5mm
10
2.7161363527426996
20
262.7168416076936
30
2.6530332650764876e-06
11
2.554630995012843
21
262.21977922704843
31
2.6530330845986325e-06
  0
LINE
 8
side-panels-5mm
10
2.554630995012843
20
262.21977922704843
30
2.6530330845986325e-06
11
2.499999996847566
21
261.70000000000385
31
2.653033310195951e-06
  0
LINE
 8
side-panels-5mm
10
2.499999996847566
20
261.70000000000385
30
2.653033310195951e-06
11
2.554630995012843
21
261.1802207729596
31
2.653033310195951e-06
  0
LINE
 8
side-panels-5mm
10
2.554630995012843
20
261.1802207729596
30
2.653033310195951e-06
11
2.716136352740534
21
260.68315839231417
31
2.653033626032197e-06
  0
LINE
 8
side-panels-5mm
10
643.7725421261873
20
264.0776412907427
30
2.3210732177147974e-06
11
643.2613207984198
21
264.1863047384255
31
2.3026815767934747e-06
  0
LINE
 8
side-panels-5mm
10
643.2613207984198
20
264.1863047384255
30
2.3026815767934747e-06
11
642.738678482082
21
264.1863047384256
31
2.2838794841106843e-06
  0
LINE
 8
side-panels-5mm
10
642.738678482082
20
264.1863047384256
30
2.2838794841106843e-06
11
642.2274571543131
21
264.07764129074286
31
2.2654887004591726e-06
  0
LINE
 8
side-panels-5mm
10
642.2274571543131
20
264.07764129074286
30
2.2654887004591726e-06
11
641.7499996402512
21
263.86506350946604
31
2.248311855979068e-06
  0
LINE
 8
side-panels-5mm
10
641.7499996402512
20
263.86506350946604
30
2.248311855979068e-06
11
641.3271731243539
21
263.55786206369834
31
2.2331005506970314e-06
  0
LINE
 8
side-panels-5mm
10
641.3271731243539
20
263.55786206369834
30
2.2331005506970314e-06
11
640.9774571543134
21
263.16946313073595
31
2.2205199357472336e-06
  0
LINE
 8
side-panels-5mm
10
640.9774571543134
20
263.16946313073595
30
2.2205199357472336e-06
11
640.716135996143
21
262.71684160769394
31
2.21111866380852e-06
  0
LINE
 8
side-panels-5mm
10
640.716135996143
20
262.71684160769394
30
2.21111866380852e-06
11
640.554630638416
21
262.2197792270489
31
2.2053089011819794e-06
  0
LINE
 8
side-panels-5mm
10
640.554630638416
20
262.2197792270489
30
2.2053089011819794e-06
11
640.49999964025
21
261.70000000000437
31
2.2033433168644477e-06
  0
LINE
 8
side-panels-5mm
10
640.49999964025
20
261.70000000000437
30
2.2033433168644477e-06
11
640.554630638416
21
261.18022077295996
31
2.205309126779298e-06
  0
LINE
 8
side-panels-5mm
10
640.554630638416
20
261.18022077295996
30
2.205309126779298e-06
11
640.716135996143
21
260.6831583923146
31
2.2111187991669112e-06
  0
LINE
 8
side-panels-5mm
10
640.716135996143
20
260.6831583923146
30
2.2111187991669112e-06
11
640.9774571543134
21
260.23053686927284
31
2.2205203869418708e-06
  0
LINE
 8
side-panels-5mm
10
640.9774571543134
20
260.23053686927284
30
2.2205203869418708e-06
11
641.3271731243539
21
259.8421379363102
31
2.233101543325233e-06
  0
LINE
 8
side-panels-5mm
10
641.3271731243539
20
259.8421379363102
30
2.233101543325233e-06
11
641.7499996402497
21
259.53493649054286
31
2.2483125778904878e-06
  0
LINE
 8
side-panels-5mm
10
641.7499996402497
20
259.53493649054286
30
2.2483125778904878e-06
11
642.2274571543131
21
259.32235870926587
31
2.2654894223705923e-06
  0
LINE
 8
side-panels-5mm
10
642.2274571543131
20
259.32235870926587
30
2.2654894223705923e-06
11
642.738678482082
21
259.21369526158304
31
2.2838801157831766e-06
  0
LINE
 8
side-panels-5mm
10
642.738678482082
20
259.21369526158304
30
2.2838801157831766e-06
11
643.2613207984198
21
259.21369526158304
31
2.302682163346503e-06
  0
LINE
 8
side-panels-5mm
10
643.2613207984198
20
259.21369526158304
30
2.302682163346503e-06
11
643.7725421261873
21
259.32235870926587
31
2.321073714028898e-06
  0
LINE
 8
side-panels-5mm
10
643.7725421261873
20
259.32235870926587
30
2.321073714028898e-06
11
644.2499996402506
21
259.5349364905427
31
2.3382498365975833e-06
  0
LINE
 8
side-panels-5mm
10
644.2499996402506
20
259.5349364905427
30
2.3382498365975833e-06
11
644.672826156148
21
259.84213793631005
31
2.3534619089105036e-06
  0
LINE
 8
side-panels-5mm
10
644.672826156148
20
259.84213793631005
30
2.3534619089105036e-06
11
645.0225421261885
21
260.2305368692726
31
2.3660419824267364e-06
  0
LINE
 8
side-panels-5mm
10
645.0225421261885
20
260.2305368692726
30
2.3660419824267364e-06
11
645.2838632843559
21
260.68315839231445
31
2.3754435250822325e-06
  0
LINE
 8
side-panels-5mm
10
645.2838632843559
20
260.68315839231445
30
2.3754435250822325e-06
11
645.4453686420858
21
261.1802207729596
31
2.381253784022874e-06
  0
LINE
 8
side-panels-5mm
10
645.4453686420858
20
261.1802207729596
30
2.381253784022874e-06
11
645.4999996402504
21
261.7000000000045
31
2.3832182854732763e-06
  0
LINE
 8
side-panels-5mm
10
645.4999996402504
20
261.7000000000045
30
2.3832182854732763e-06
11
645.4453686420858
21
262.2197792270488
31
2.3812532425893096e-06
  0
LINE
 8
side-panels-5mm
10
645.4453686420858
20
262.2197792270488
30
2.3812532425893096e-06
11
645.2838632843559
21
262.7168416076941
31
2.37544289340974e-06
  0
LINE
 8
side-panels-5mm
10
645.2838632843559
20
262.7168416076941
30
2.37544289340974e-06
11
645.0225421261885
21
263.1694631307357
31
2.3660415763515626e-06
  0
LINE
 8
side-panels-5mm
10
645.0225421261885
20
263.1694631307357
30
2.3660415763515626e-06
11
644.672826156148
21
263.55786206369817
31
2.353460871162838e-06
  0
LINE
 8
side-panels-5mm
10
644.672826156148
20
263.55786206369817
30
2.353460871162838e-06
11
644.2499996402521
21
263.86506350946587
31
2.3382491598056275e-06
  0
LINE
 8
side-panels-5mm
10
644.2499996402521
20
263.86506350946587
30
2.3382491598056275e-06
11
643.7725421261873
21
264.0776412907427
31
2.3210732177147974e-06
  0
LINE
 8
side-panels-5mm
10
640.7161359961444
20
225.71684160769496
30
2.2111177162997817e-06
11
640.554630638416
21
225.21977922704954
31
2.205308449987342e-06
  0
LINE
 8
side-panels-5mm
10
640.554630638416
20
225.21977922704954
30
2.205308449987342e-06
11
640.49999964025
21
224.70000000000502
31
2.2033425047141006e-06
  0
LINE
 8
side-panels-5mm
10
640.49999964025
20
224.70000000000502
30
2.2033425047141006e-06
11
640.5546306384146
21
224.18022077296052
31
2.205308585345733e-06
  0
LINE
 8
side-panels-5mm
10
640.5546306384146
20
224.18022077296052
30
2.205308585345733e-06
11
640.7161359961444
21
223.68315839231516
31
2.2111183930917375e-06
  0
LINE
 8
side-panels-5mm
10
640.7161359961444
20
223.68315839231516
30
2.2111183930917375e-06
11
640.9774571543134
21
223.2305368692733
31
2.220520161344552e-06
  0
LINE
 8
side-panels-5mm
10
640.9774571543134
20
223.2305368692733
30
2.220520161344552e-06
11
641.3271731243524
21
222.84213793631088
31
2.2331006409359588e-06
  0
LINE
 8
side-panels-5mm
10
641.3271731243524
20
222.84213793631088
30
2.2331006409359588e-06
11
641.7499996402497
21
222.53493649054315
31
2.2483124425320965e-06
  0
LINE
 8
side-panels-5mm
10
641.7499996402497
20
222.53493649054315
30
2.2483124425320965e-06
11
642.2274571543131
21
222.32235870926618
31
2.265488971175955e-06
  0
LINE
 8
side-panels-5mm
10
642.2274571543131
20
222.32235870926618
30
2.265488971175955e-06
11
642.738678482082
21
222.21369526158364
31
2.283879529230148e-06
  0
LINE
 8
side-panels-5mm
10
642.738678482082
20
222.21369526158364
30
2.283879529230148e-06
11
643.2613207984198
21
222.21369526158335
31
2.3026822987048944e-06
  0
LINE
 8
side-panels-5mm
10
643.2613207984198
20
222.21369526158335
30
2.3026822987048944e-06
11
643.7725421261873
21
222.32235870926627
31
2.3210735786705072e-06
  0
LINE
 8
side-panels-5mm
10
643.7725421261873
20
222.32235870926627
30
2.3210735786705072e-06
11
644.2499996402506
21
222.53493649054306
31
2.338249250044555e-06
  0
LINE
 8
side-panels-5mm
10
644.2499996402506
20
222.53493649054306
30
2.338249250044555e-06
11
644.6728261561465
21
222.84213793631088
31
2.3534607809239105e-06
  0
LINE
 8
side-panels-5mm
10
644.6728261561465
20
222.84213793631088
30
2.3534607809239105e-06
11
645.0225421261885
21
223.2305368692733
31
2.3660411251569254e-06
  0
LINE
 8
side-panels-5mm
10
645.0225421261885
20
223.2305368692733
30
2.3660411251569254e-06
11
645.2838632843574
21
223.683158392315
31
2.3754426678124215e-06
  0
LINE
 8
side-panels-5mm
10
645.2838632843574
20
223.683158392315
30
2.3754426678124215e-06
11
645.4453686420843
21
224.18022077296024
31
2.3812527011557446e-06
  0
LINE
 8
side-panels-5mm
10
645.4453686420843
20
224.18022077296024
30
2.3812527011557446e-06
11
645.4999996402504
21
224.70000000000493
31
2.3832179696370304e-06
  0
LINE
 8
side-panels-5mm
10
645.4999996402504
20
224.70000000000493
30
2.3832179696370304e-06
11
645.4453686420858
21
225.21977922704954
31
2.3812522499611074e-06
  0
LINE
 8
side-panels-5mm
10
645.4453686420858
20
225.21977922704954
30
2.3812522499611074e-06
11
645.2838632843574
21
225.7168416076948
31
2.375441810542611e-06
  0
LINE
 8
side-panels-5mm
10
645.2838632843574
20
225.7168416076948
30
2.375441810542611e-06
11
645.0225421261885
21
226.16946313073657
31
2.366040222767651e-06
  0
LINE
 8
side-panels-5mm
10
645.0225421261885
20
226.16946313073657
30
2.366040222767651e-06
11
644.6728261561465
21
226.55786206369908
31
2.3534596529373175e-06
  0
LINE
 8
side-panels-5mm
10
644.6728261561465
20
226.55786206369908
30
2.3534596529373175e-06
11
644.2499996402506
21
226.86506350946672
31
2.3382477159827885e-06
  0
LINE
 8
side-panels-5mm
10
644.2499996402506
20
226.86506350946672
30
2.3382477159827885e-06
11
643.7725421261873
21
227.07764129074351
31
2.3210720897282044e-06
  0
LINE
 8
side-panels-5mm
10
643.7725421261873
20
227.07764129074351
30
2.3210720897282044e-06
11
643.2613207984198
21
227.18630473842643
31
2.302680629284737e-06
  0
LINE
 8
side-panels-5mm
10
643.2613207984198
20
227.18630473842643
30
2.302680629284737e-06
11
642.738678482082
21
227.18630473842651
31
2.2838780854073092e-06
  0
LINE
 8
side-panels-5mm
10
642.738678482082
20
227.18630473842651
30
2.2838780854073092e-06
11
642.2274571543131
21
227.07764129074351
31
2.2654874371141887e-06
  0
LINE
 8
side-panels-5mm
10
642.2274571543131
20
227.07764129074351
30
2.2654874371141887e-06
11
641.7499996402512
21
226.8650635094669
31
2.2483109987092575e-06
  0
LINE
 8
side-panels-5mm
10
641.7499996402512
20
226.8650635094669
30
2.2483109987092575e-06
11
641.3271731243524
21
226.5578620636992
31
2.233099332471511e-06
  0
LINE
 8
side-panels-5mm
10
641.3271731243524
20
226.5578620636992
30
2.233099332471511e-06
11
640.9774571543134
21
226.16946313073666
31
2.220519078477423e-06
  0
LINE
 8
side-panels-5mm
10
640.9774571543134
20
226.16946313073666
30
2.220519078477423e-06
11
640.7161359961444
21
225.71684160769496
31
2.2111177162997817e-06
 0
ENDSEC
 0
EOF
